<svg width="301" height="109" viewBox="0 0 301 109" fill="none" xmlns="http://www.w3.org/2000/svg">
<mask id="path-1-outside-1_1333_1183" maskUnits="userSpaceOnUse" x="0" y="0" width="301" height="109" fill="black">
<rect fill="white" width="301" height="109"/>
<path d="M1.915 85.57V66.865L47.445 3.49999H77.17L32.945 66.865L19.315 62.805H98.63V85.57H1.915ZM55.565 105V85.57L56.435 62.805V45.55H83.55V105H55.565ZM149.263 107.03C140.563 107.03 132.83 104.952 126.063 100.795C119.393 96.6383 114.125 90.645 110.258 82.815C106.392 74.985 104.458 65.4633 104.458 54.25C104.458 43.0367 106.392 33.515 110.258 25.685C114.125 17.855 119.393 11.8617 126.063 7.705C132.83 3.54833 140.563 1.46999 149.263 1.46999C157.867 1.46999 165.503 3.54833 172.173 7.705C178.94 11.8617 184.257 17.855 188.123 25.685C191.99 33.515 193.923 43.0367 193.923 54.25C193.923 65.4633 191.99 74.985 188.123 82.815C184.257 90.645 178.94 96.6383 172.173 100.795C165.503 104.952 157.867 107.03 149.263 107.03ZM149.263 83.54C152.357 83.54 155.063 82.5733 157.383 80.64C159.8 78.7067 161.685 75.6133 163.038 71.36C164.392 67.01 165.068 61.3067 165.068 54.25C165.068 47.0967 164.392 41.3933 163.038 37.14C161.685 32.8867 159.8 29.7933 157.383 27.86C155.063 25.9267 152.357 24.96 149.263 24.96C146.17 24.96 143.415 25.9267 140.998 27.86C138.678 29.7933 136.793 32.8867 135.343 37.14C133.99 41.3933 133.313 47.0967 133.313 54.25C133.313 61.3067 133.99 67.01 135.343 71.36C136.793 75.6133 138.678 78.7067 140.998 80.64C143.415 82.5733 146.17 83.54 149.263 83.54ZM202.706 85.57V66.865L248.236 3.49999H277.961L233.736 66.865L220.106 62.805H299.421V85.57H202.706ZM256.356 105V85.57L257.226 62.805V45.55H284.341V105H256.356Z"/>
</mask>
<path d="M1.915 85.57H1.415V86.07H1.915V85.57ZM1.915 66.865L1.50895 66.5732L1.415 66.704V66.865H1.915ZM47.445 3.49999V2.99999H47.1886L47.039 3.20823L47.445 3.49999ZM77.17 3.49999L77.58 3.78616L78.1287 2.99999H77.17V3.49999ZM32.945 66.865L32.8023 67.3442L33.1483 67.4473L33.355 67.1512L32.945 66.865ZM19.315 62.805V62.305L19.1723 63.2842L19.315 62.805ZM98.63 62.805H99.13V62.305H98.63V62.805ZM98.63 85.57V86.07H99.13V85.57H98.63ZM55.565 105H55.065V105.5H55.565V105ZM55.565 85.57L55.0654 85.5509L55.065 85.5604V85.57H55.565ZM56.435 62.805L56.9346 62.8241L56.935 62.8146V62.805H56.435ZM56.435 45.55V45.05H55.935V45.55H56.435ZM83.55 45.55H84.05V45.05H83.55V45.55ZM83.55 105V105.5H84.05V105H83.55ZM2.415 80.8937C2.415 80.6176 2.19114 80.3937 1.915 80.3937C1.63886 80.3937 1.415 80.6176 1.415 80.8937H2.415ZM1.415 71.5413C1.415 71.8174 1.63886 72.0413 1.915 72.0413C2.19114 72.0413 2.415 71.8174 2.415 71.5413H1.415ZM4.59755 63.9885C4.75868 63.7643 4.70752 63.4518 4.48326 63.2907C4.25901 63.1296 3.94659 63.1807 3.78545 63.405L4.59755 63.9885ZM8.33845 57.0685C8.17732 57.2927 8.22849 57.6052 8.45274 57.7663C8.677 57.9274 8.98942 57.8763 9.15055 57.652L8.33845 57.0685ZM13.7035 51.3155C13.8647 51.0913 13.8135 50.7788 13.5893 50.6177C13.365 50.4566 13.0526 50.5077 12.8915 50.732L13.7035 51.3155ZM17.4445 44.3955C17.2833 44.6197 17.3345 44.9322 17.5587 45.0933C17.783 45.2544 18.0954 45.2033 18.2565 44.979L17.4445 44.3955ZM22.8095 38.6425C22.9707 38.4183 22.9195 38.1058 22.6953 37.9447C22.471 37.7836 22.1586 37.8347 21.9975 38.059L22.8095 38.6425ZM26.5505 31.7225C26.3893 31.9467 26.4405 32.2592 26.6647 32.4203C26.889 32.5814 27.2014 32.5303 27.3625 32.306L26.5505 31.7225ZM31.9156 25.9695C32.0767 25.7453 32.0255 25.4328 31.8013 25.2717C31.577 25.1106 31.2646 25.1617 31.1035 25.386L31.9156 25.9695ZM35.6565 19.0495C35.4953 19.2737 35.5465 19.5862 35.7707 19.7473C35.995 19.9084 36.3074 19.8573 36.4686 19.633L35.6565 19.0495ZM41.0215 13.2965C41.1827 13.0723 41.1315 12.7598 40.9073 12.5987C40.683 12.4376 40.3706 12.4887 40.2095 12.713L41.0215 13.2965ZM44.7625 6.37648C44.6013 6.60073 44.6525 6.91315 44.8767 7.07429C45.101 7.23542 45.4134 7.18425 45.5746 6.96L44.7625 6.37648ZM51.1606 3.99999C51.4368 3.99999 51.6606 3.77613 51.6606 3.49999C51.6606 3.22385 51.4368 2.99999 51.1606 2.99999V3.99999ZM58.5919 2.99999C58.3157 2.99999 58.0919 3.22385 58.0919 3.49999C58.0919 3.77613 58.3157 3.99999 58.5919 3.99999V2.99999ZM66.0231 3.99999C66.2993 3.99999 66.5231 3.77613 66.5231 3.49999C66.5231 3.22385 66.2993 2.99999 66.0231 2.99999V3.99999ZM73.4544 2.99999C73.1782 2.99999 72.9544 3.22385 72.9544 3.49999C72.9544 3.77613 73.1782 3.99999 73.4544 3.99999V2.99999ZM74.5487 6.38208C74.3907 6.60852 74.4461 6.92021 74.6726 7.07825C74.899 7.2363 75.2107 7.18085 75.3688 6.95441L74.5487 6.38208ZM70.9463 13.2909C71.1043 13.0645 71.0489 12.7528 70.8224 12.5947C70.596 12.4367 70.2843 12.4921 70.1262 12.7186L70.9463 13.2909ZM65.7037 19.0551C65.5457 19.2815 65.6011 19.5932 65.8276 19.7513C66.054 19.9093 66.3657 19.8539 66.5238 19.6274L65.7037 19.0551ZM62.1013 25.9639C62.2593 25.7375 62.2039 25.4258 61.9774 25.2677C61.751 25.1097 61.4393 25.1651 61.2812 25.3916L62.1013 25.9639ZM56.8587 31.7281C56.7007 31.9545 56.7561 32.2662 56.9826 32.4243C57.209 32.5823 57.5207 32.5269 57.6788 32.3004L56.8587 31.7281ZM53.2563 38.6369C53.4143 38.4105 53.3589 38.0988 53.1324 37.9407C52.906 37.7827 52.5943 37.8381 52.4362 38.0646L53.2563 38.6369ZM48.0137 44.4011C47.8557 44.6275 47.9111 44.9392 48.1376 45.0973C48.364 45.2553 48.6757 45.1999 48.8338 44.9734L48.0137 44.4011ZM44.4113 51.3099C44.5693 51.0835 44.5139 50.7718 44.2874 50.6137C44.061 50.4557 43.7493 50.5111 43.5912 50.7376L44.4113 51.3099ZM39.1687 57.0741C39.0107 57.3005 39.0661 57.6122 39.2926 57.7703C39.519 57.9283 39.8307 57.8729 39.9888 57.6464L39.1687 57.0741ZM35.5663 63.9829C35.7243 63.7565 35.6689 63.4448 35.4424 63.2867C35.216 63.1287 34.9043 63.1841 34.7462 63.4106L35.5663 63.9829ZM29.6802 65.3708C29.4156 65.292 29.1371 65.4426 29.0583 65.7073C28.9795 65.9719 29.1301 66.2504 29.3948 66.3292L29.6802 65.3708ZM22.5798 64.2992C22.8444 64.378 23.1229 64.2274 23.2017 63.9627C23.2805 63.6981 23.1299 63.4196 22.8652 63.3408L22.5798 64.2992ZM23.2808 63.305C23.5569 63.305 23.7808 63.0811 23.7808 62.805C23.7808 62.5289 23.5569 62.305 23.2808 62.305V63.305ZM31.2122 62.305C30.9361 62.305 30.7122 62.5289 30.7122 62.805C30.7122 63.0811 30.9361 63.305 31.2122 63.305V62.305ZM39.1437 63.305C39.4199 63.305 39.6437 63.0811 39.6437 62.805C39.6437 62.5289 39.4199 62.305 39.1437 62.305V63.305ZM47.0752 62.305C46.7991 62.305 46.5752 62.5289 46.5752 62.805C46.5752 63.0811 46.7991 63.305 47.0752 63.305V62.305ZM55.0067 63.305C55.2829 63.305 55.5067 63.0811 55.5067 62.805C55.5067 62.5289 55.2829 62.305 55.0067 62.305V63.305ZM62.9382 62.305C62.6621 62.305 62.4382 62.5289 62.4382 62.805C62.4382 63.0811 62.6621 63.305 62.9382 63.305V62.305ZM70.8698 63.305C71.1459 63.305 71.3698 63.0811 71.3698 62.805C71.3698 62.5289 71.1459 62.305 70.8698 62.305V63.305ZM78.8012 62.305C78.5251 62.305 78.3012 62.5289 78.3012 62.805C78.3012 63.0811 78.5251 63.305 78.8012 63.305V62.305ZM86.7327 63.305C87.0089 63.305 87.2327 63.0811 87.2327 62.805C87.2327 62.5289 87.0089 62.305 86.7327 62.305V63.305ZM94.6643 62.305C94.3881 62.305 94.1643 62.5289 94.1643 62.805C94.1643 63.0811 94.3881 63.305 94.6643 63.305V62.305ZM98.13 68.4962C98.13 68.7724 98.3539 68.9962 98.63 68.9962C98.9061 68.9962 99.13 68.7724 99.13 68.4962H98.13ZM99.13 79.8787C99.13 79.6026 98.9061 79.3787 98.63 79.3787C98.3539 79.3787 98.13 79.6026 98.13 79.8787H99.13ZM94.6002 85.07C94.3241 85.07 94.1002 85.2939 94.1002 85.57C94.1002 85.8461 94.3241 86.07 94.6002 86.07V85.07ZM86.5406 86.07C86.8168 86.07 87.0406 85.8461 87.0406 85.57C87.0406 85.2939 86.8168 85.07 86.5406 85.07V86.07ZM78.481 85.07C78.2049 85.07 77.981 85.2939 77.981 85.57C77.981 85.8461 78.2049 86.07 78.481 86.07V85.07ZM70.4215 86.07C70.6976 86.07 70.9215 85.8461 70.9215 85.57C70.9215 85.2939 70.6976 85.07 70.4215 85.07V86.07ZM62.3619 85.07C62.0857 85.07 61.8619 85.2939 61.8619 85.57C61.8619 85.8461 62.0857 86.07 62.3619 86.07V85.07ZM54.3023 86.07C54.5784 86.07 54.8023 85.8461 54.8023 85.57C54.8023 85.2939 54.5784 85.07 54.3023 85.07V86.07ZM46.2427 85.07C45.9666 85.07 45.7427 85.2939 45.7427 85.57C45.7427 85.8461 45.9666 86.07 46.2427 86.07V85.07ZM38.1831 86.07C38.4593 86.07 38.6831 85.8461 38.6831 85.57C38.6831 85.2939 38.4593 85.07 38.1831 85.07V86.07ZM30.1235 85.07C29.8474 85.07 29.6235 85.2939 29.6235 85.57C29.6235 85.8461 29.8474 86.07 30.1235 86.07V85.07ZM22.064 86.07C22.3401 86.07 22.564 85.8461 22.564 85.57C22.564 85.2939 22.3401 85.07 22.064 85.07V86.07ZM14.0044 85.07C13.7282 85.07 13.5044 85.2939 13.5044 85.57C13.5044 85.8461 13.7282 86.07 14.0044 86.07V85.07ZM5.94478 86.07C6.22092 86.07 6.44478 85.8461 6.44478 85.57C6.44478 85.2939 6.22092 85.07 5.94478 85.07V86.07ZM56.065 100.143C56.065 99.8664 55.8411 99.6425 55.565 99.6425C55.2889 99.6425 55.065 99.8664 55.065 100.143H56.065ZM55.065 90.4275C55.065 90.7036 55.2889 90.9275 55.565 90.9275C55.8411 90.9275 56.065 90.7036 56.065 90.4275H55.065ZM56.2821 79.8978C56.2927 79.6219 56.0775 79.3897 55.8016 79.3791C55.5257 79.3686 55.2934 79.5837 55.2829 79.8597L56.2821 79.8978ZM55.7179 68.4772C55.7073 68.7531 55.9225 68.9853 56.1984 68.9959C56.4743 69.0064 56.7066 68.7913 56.7171 68.5153L55.7179 68.4772ZM56.935 58.4912C56.935 58.2151 56.7111 57.9912 56.435 57.9912C56.1589 57.9912 55.935 58.2151 55.935 58.4912H56.935ZM55.935 49.8637C55.935 50.1399 56.1589 50.3637 56.435 50.3637C56.7111 50.3637 56.935 50.1399 56.935 49.8637H55.935ZM59.8244 46.05C60.1005 46.05 60.3244 45.8261 60.3244 45.55C60.3244 45.2739 60.1005 45.05 59.8244 45.05V46.05ZM66.6031 45.05C66.327 45.05 66.1031 45.2739 66.1031 45.55C66.1031 45.8261 66.327 46.05 66.6031 46.05V45.05ZM73.3819 46.05C73.658 46.05 73.8819 45.8261 73.8819 45.55C73.8819 45.2739 73.658 45.05 73.3819 45.05V46.05ZM80.1606 45.05C79.8845 45.05 79.6606 45.2739 79.6606 45.55C79.6606 45.8261 79.8845 46.05 80.1606 46.05V45.05ZM83.05 49.2656C83.05 49.5418 83.2739 49.7656 83.55 49.7656C83.8261 49.7656 84.05 49.5418 84.05 49.2656H83.05ZM84.05 56.6969C84.05 56.4207 83.8261 56.1969 83.55 56.1969C83.2739 56.1969 83.05 56.4207 83.05 56.6969H84.05ZM83.05 64.1281C83.05 64.4043 83.2739 64.6281 83.55 64.6281C83.8261 64.6281 84.05 64.4043 84.05 64.1281H83.05ZM84.05 71.5594C84.05 71.2832 83.8261 71.0594 83.55 71.0594C83.2739 71.0594 83.05 71.2832 83.05 71.5594H84.05ZM83.05 78.9906C83.05 79.2668 83.2739 79.4906 83.55 79.4906C83.8261 79.4906 84.05 79.2668 84.05 78.9906H83.05ZM84.05 86.4219C84.05 86.1457 83.8261 85.9219 83.55 85.9219C83.2739 85.9219 83.05 86.1457 83.05 86.4219H84.05ZM83.05 93.8531C83.05 94.1293 83.2739 94.3531 83.55 94.3531C83.8261 94.3531 84.05 94.1293 84.05 93.8531H83.05ZM84.05 101.284C84.05 101.008 83.8261 100.784 83.55 100.784C83.2739 100.784 83.05 101.008 83.05 101.284H84.05ZM80.0519 104.5C79.7757 104.5 79.5519 104.724 79.5519 105C79.5519 105.276 79.7757 105.5 80.0519 105.5V104.5ZM73.0556 105.5C73.3318 105.5 73.5556 105.276 73.5556 105C73.5556 104.724 73.3318 104.5 73.0556 104.5V105.5ZM66.0594 104.5C65.7832 104.5 65.5594 104.724 65.5594 105C65.5594 105.276 65.7832 105.5 66.0594 105.5V104.5ZM59.0631 105.5C59.3393 105.5 59.5631 105.276 59.5631 105C59.5631 104.724 59.3393 104.5 59.0631 104.5V105.5ZM2.415 85.57V80.8937H1.415V85.57H2.415ZM2.415 71.5413V66.865H1.415V71.5413H2.415ZM2.32105 67.1568L4.59755 63.9885L3.78545 63.405L1.50895 66.5732L2.32105 67.1568ZM9.15055 57.652L13.7035 51.3155L12.8915 50.732L8.33845 57.0685L9.15055 57.652ZM18.2565 44.979L22.8095 38.6425L21.9975 38.059L17.4445 44.3955L18.2565 44.979ZM27.3625 32.306L31.9156 25.9695L31.1035 25.386L26.5505 31.7225L27.3625 32.306ZM36.4686 19.633L41.0215 13.2965L40.2095 12.713L35.6565 19.0495L36.4686 19.633ZM45.5746 6.96L47.8511 3.79175L47.039 3.20823L44.7625 6.37648L45.5746 6.96ZM47.445 3.99999H51.1606V2.99999H47.445V3.99999ZM58.5919 3.99999H66.0231V2.99999H58.5919V3.99999ZM73.4544 3.99999H77.17V2.99999H73.4544V3.99999ZM76.76 3.21383L74.5487 6.38208L75.3688 6.95441L77.58 3.78616L76.76 3.21383ZM70.1262 12.7186L65.7037 19.0551L66.5238 19.6274L70.9463 13.2909L70.1262 12.7186ZM61.2812 25.3916L56.8587 31.7281L57.6788 32.3004L62.1013 25.9639L61.2812 25.3916ZM52.4362 38.0646L48.0137 44.4011L48.8338 44.9734L53.2563 38.6369L52.4362 38.0646ZM43.5912 50.7376L39.1687 57.0741L39.9888 57.6464L44.4113 51.3099L43.5912 50.7376ZM34.7462 63.4106L32.535 66.5788L33.355 67.1512L35.5663 63.9829L34.7462 63.4106ZM33.0877 66.3858L29.6802 65.3708L29.3948 66.3292L32.8023 67.3442L33.0877 66.3858ZM22.8652 63.3408L19.4577 62.3258L19.1723 63.2842L22.5798 64.2992L22.8652 63.3408ZM19.315 63.305H23.2808V62.305H19.315V63.305ZM31.2122 63.305H39.1437V62.305H31.2122V63.305ZM47.0752 63.305H55.0067V62.305H47.0752V63.305ZM62.9382 63.305H70.8698V62.305H62.9382V63.305ZM78.8012 63.305H86.7327V62.305H78.8012V63.305ZM94.6643 63.305H98.63V62.305H94.6643V63.305ZM98.13 62.805V68.4962H99.13V62.805H98.13ZM98.13 79.8787V85.57H99.13V79.8787H98.13ZM98.63 85.07H94.6002V86.07H98.63V85.07ZM86.5406 85.07H78.481V86.07H86.5406V85.07ZM70.4215 85.07H62.3619V86.07H70.4215V85.07ZM54.3023 85.07H46.2427V86.07H54.3023V85.07ZM38.1831 85.07H30.1235V86.07H38.1831V85.07ZM22.064 85.07H14.0044V86.07H22.064V85.07ZM5.94478 85.07H1.915V86.07H5.94478V85.07ZM56.065 105V100.143H55.065V105H56.065ZM56.065 90.4275V85.57H55.065V90.4275H56.065ZM56.0646 85.5891L56.2821 79.8978L55.2829 79.8597L55.0654 85.5509L56.0646 85.5891ZM56.7171 68.5153L56.9346 62.8241L55.9354 62.7859L55.7179 68.4772L56.7171 68.5153ZM56.935 62.805V58.4912H55.935V62.805H56.935ZM56.935 49.8637V45.55H55.935V49.8637H56.935ZM56.435 46.05H59.8244V45.05H56.435V46.05ZM66.6031 46.05H73.3819V45.05H66.6031V46.05ZM80.1606 46.05H83.55V45.05H80.1606V46.05ZM83.05 45.55V49.2656H84.05V45.55H83.05ZM83.05 56.6969V64.1281H84.05V56.6969H83.05ZM83.05 71.5594V78.9906H84.05V71.5594H83.05ZM83.05 86.4219V93.8531H84.05V86.4219H83.05ZM83.05 101.284V105H84.05V101.284H83.05ZM83.55 104.5H80.0519V105.5H83.55V104.5ZM73.0556 104.5H66.0594V105.5H73.0556V104.5ZM59.0631 104.5H55.565V105.5H59.0631V104.5ZM1.915 85.57H0.915V86.57H1.915V85.57ZM1.915 66.865L1.1029 66.2815L0.915 66.543V66.865H1.915ZM47.445 3.49999V2.49999H46.9322L46.6329 2.91647L47.445 3.49999ZM77.17 3.49999L77.99 4.07232L79.0874 2.49999H77.17V3.49999ZM32.945 66.865L32.6595 67.8234L33.3517 68.0296L33.765 67.4373L32.945 66.865ZM19.315 62.805V61.805L19.0295 63.7634L19.315 62.805ZM98.63 62.805H99.63V61.805H98.63V62.805ZM98.63 85.57V86.57H99.63V85.57H98.63ZM55.565 105H54.565V106H55.565V105ZM55.565 85.57L54.5657 85.5318L54.565 85.5509V85.57H55.565ZM56.435 62.805L57.4343 62.8432L57.435 62.8241V62.805H56.435ZM56.435 45.55V44.55H55.435V45.55H56.435ZM83.55 45.55H84.55V44.55H83.55V45.55ZM83.55 105V106H84.55V105H83.55ZM2.915 80.8937C2.915 80.3415 2.46728 79.8937 1.915 79.8937C1.36272 79.8937 0.915 80.3415 0.915 80.8937H2.915ZM0.915 71.5413C0.915 72.0935 1.36272 72.5413 1.915 72.5413C2.46728 72.5413 2.915 72.0935 2.915 71.5413H0.915ZM5.0036 64.2803C5.32587 63.8318 5.22353 63.2069 4.77502 62.8847C4.32651 62.5624 3.70167 62.6647 3.3794 63.1132L5.0036 64.2803ZM7.9324 56.7767C7.61013 57.2252 7.71247 57.8501 8.16098 58.1723C8.60949 58.4946 9.23433 58.3923 9.5566 57.9438L7.9324 56.7767ZM14.1096 51.6073C14.4319 51.1588 14.3295 50.5339 13.881 50.2116C13.4325 49.8894 12.8077 49.9917 12.4854 50.4402L14.1096 51.6073ZM17.0384 44.1037C16.7161 44.5522 16.8185 45.1771 17.267 45.4993C17.7155 45.8216 18.3403 45.7193 18.6626 45.2708L17.0384 44.1037ZM23.2156 38.9343C23.5379 38.4858 23.4355 37.8609 22.987 37.5387C22.5385 37.2164 21.9137 37.3187 21.5914 37.7672L23.2156 38.9343ZM26.1444 31.4307C25.8221 31.8792 25.9245 32.5041 26.373 32.8263C26.8215 33.1486 27.4463 33.0463 27.7686 32.5978L26.1444 31.4307ZM32.3216 26.2613C32.6439 25.8128 32.5415 25.1879 32.093 24.8657C31.6445 24.5434 31.0197 24.6457 30.6974 25.0942L32.3216 26.2613ZM35.2504 18.7577C34.9281 19.2062 35.0305 19.8311 35.479 20.1533C35.9275 20.4756 36.5523 20.3733 36.8746 19.9248L35.2504 18.7577ZM41.4276 13.5883C41.7499 13.1398 41.6475 12.5149 41.199 12.1926C40.7505 11.8704 40.1257 11.9727 39.8034 12.4212L41.4276 13.5883ZM44.3564 6.08472C44.0341 6.53323 44.1365 7.15807 44.585 7.48034C45.0335 7.80261 45.6583 7.70027 45.9806 7.25176L44.3564 6.08472ZM51.1606 4.49999C51.7129 4.49999 52.1606 4.05228 52.1606 3.49999C52.1606 2.94771 51.7129 2.49999 51.1606 2.49999V4.49999ZM58.5919 2.49999C58.0396 2.49999 57.5919 2.94771 57.5919 3.49999C57.5919 4.05228 58.0396 4.49999 58.5919 4.49999V2.49999ZM66.0231 4.49999C66.5754 4.49999 67.0231 4.05228 67.0231 3.49999C67.0231 2.94771 66.5754 2.49999 66.0231 2.49999V4.49999ZM73.4544 2.49999C72.9021 2.49999 72.4544 2.94771 72.4544 3.49999C72.4544 4.05228 72.9021 4.49999 73.4544 4.49999V2.49999ZM74.1387 6.09592C73.8226 6.5488 73.9335 7.17218 74.3864 7.48827C74.8393 7.80436 75.4627 7.69346 75.7788 7.24057L74.1387 6.09592ZM71.3563 13.5771C71.6724 13.1242 71.5615 12.5008 71.1086 12.1847C70.6557 11.8686 70.0323 11.9795 69.7162 12.4324L71.3563 13.5771ZM65.2937 18.7689C64.9776 19.2218 65.0885 19.8452 65.5414 20.1613C65.9943 20.4774 66.6177 20.3665 66.9338 19.9136L65.2937 18.7689ZM62.5113 26.2501C62.8274 25.7972 62.7165 25.1738 62.2636 24.8577C61.8107 24.5416 61.1873 24.6525 60.8712 25.1054L62.5113 26.2501ZM56.4487 31.4419C56.1326 31.8948 56.2435 32.5182 56.6964 32.8343C57.1493 33.1504 57.7727 33.0395 58.0888 32.5866L56.4487 31.4419ZM53.6663 38.9231C53.9824 38.4702 53.8715 37.8468 53.4186 37.5307C52.9657 37.2146 52.3423 37.3255 52.0262 37.7784L53.6663 38.9231ZM47.6037 44.1149C47.2876 44.5678 47.3985 45.1912 47.8514 45.5073C48.3043 45.8234 48.9277 45.7125 49.2438 45.2596L47.6037 44.1149ZM44.8213 51.5961C45.1374 51.1432 45.0265 50.5198 44.5736 50.2037C44.1207 49.8876 43.4973 49.9985 43.1812 50.4514L44.8213 51.5961ZM38.7587 56.7879C38.4426 57.2408 38.5535 57.8642 39.0064 58.1803C39.4593 58.4964 40.0827 58.3855 40.3988 57.9326L38.7587 56.7879ZM35.9763 64.2691C36.2924 63.8162 36.1815 63.1928 35.7286 62.8767C35.2757 62.5606 34.6523 62.6715 34.3362 63.1244L35.9763 64.2691ZM29.823 64.8916C29.2937 64.7339 28.7368 65.0352 28.5791 65.5645C28.4215 66.0938 28.7227 66.6507 29.252 66.8084L29.823 64.8916ZM22.437 64.7784C22.9663 64.9361 23.5232 64.6348 23.6809 64.1055C23.8386 63.5762 23.5373 63.0193 23.008 62.8616L22.437 64.7784ZM23.2808 63.805C23.833 63.805 24.2808 63.3573 24.2808 62.805C24.2808 62.2527 23.833 61.805 23.2808 61.805V63.805ZM31.2122 61.805C30.66 61.805 30.2122 62.2527 30.2122 62.805C30.2122 63.3573 30.66 63.805 31.2122 63.805V61.805ZM39.1437 63.805C39.696 63.805 40.1437 63.3573 40.1437 62.805C40.1437 62.2527 39.696 61.805 39.1437 61.805V63.805ZM47.0752 61.805C46.523 61.805 46.0752 62.2527 46.0752 62.805C46.0752 63.3573 46.523 63.805 47.0752 63.805V61.805ZM55.0067 63.805C55.559 63.805 56.0067 63.3573 56.0067 62.805C56.0067 62.2527 55.559 61.805 55.0067 61.805V63.805ZM62.9382 61.805C62.386 61.805 61.9382 62.2527 61.9382 62.805C61.9382 63.3573 62.386 63.805 62.9382 63.805V61.805ZM70.8698 63.805C71.422 63.805 71.8698 63.3573 71.8698 62.805C71.8698 62.2527 71.422 61.805 70.8698 61.805V63.805ZM78.8012 61.805C78.249 61.805 77.8012 62.2527 77.8012 62.805C77.8012 63.3573 78.249 63.805 78.8012 63.805V61.805ZM86.7327 63.805C87.285 63.805 87.7327 63.3573 87.7327 62.805C87.7327 62.2527 87.285 61.805 86.7327 61.805V63.805ZM94.6643 61.805C94.112 61.805 93.6643 62.2527 93.6643 62.805C93.6643 63.3573 94.112 63.805 94.6643 63.805V61.805ZM97.63 68.4962C97.63 69.0485 98.0777 69.4962 98.63 69.4962C99.1823 69.4962 99.63 69.0485 99.63 68.4962H97.63ZM99.63 79.8787C99.63 79.3265 99.1823 78.8787 98.63 78.8787C98.0777 78.8787 97.63 79.3265 97.63 79.8787H99.63ZM94.6002 84.57C94.0479 84.57 93.6002 85.0177 93.6002 85.57C93.6002 86.1223 94.0479 86.57 94.6002 86.57V84.57ZM86.5406 86.57C87.0929 86.57 87.5406 86.1223 87.5406 85.57C87.5406 85.0177 87.0929 84.57 86.5406 84.57V86.57ZM78.481 84.57C77.9288 84.57 77.481 85.0177 77.481 85.57C77.481 86.1223 77.9288 86.57 78.481 86.57V84.57ZM70.4215 86.57C70.9737 86.57 71.4215 86.1223 71.4215 85.57C71.4215 85.0177 70.9737 84.57 70.4215 84.57V86.57ZM62.3619 84.57C61.8096 84.57 61.3619 85.0177 61.3619 85.57C61.3619 86.1223 61.8096 86.57 62.3619 86.57V84.57ZM54.3023 86.57C54.8546 86.57 55.3023 86.1223 55.3023 85.57C55.3023 85.0177 54.8546 84.57 54.3023 84.57V86.57ZM46.2427 84.57C45.6904 84.57 45.2427 85.0177 45.2427 85.57C45.2427 86.1223 45.6904 86.57 46.2427 86.57V84.57ZM38.1831 86.57C38.7354 86.57 39.1831 86.1223 39.1831 85.57C39.1831 85.0177 38.7354 84.57 38.1831 84.57V86.57ZM30.1235 84.57C29.5712 84.57 29.1235 85.0177 29.1235 85.57C29.1235 86.1223 29.5712 86.57 30.1235 86.57V84.57ZM22.064 86.57C22.6162 86.57 23.064 86.1223 23.064 85.57C23.064 85.0177 22.6162 84.57 22.064 84.57V86.57ZM14.0044 84.57C13.4521 84.57 13.0044 85.0177 13.0044 85.57C13.0044 86.1223 13.4521 86.57 14.0044 86.57V84.57ZM5.94478 86.57C6.49706 86.57 6.94478 86.1223 6.94478 85.57C6.94478 85.0177 6.49706 84.57 5.94478 84.57V86.57ZM56.565 100.143C56.565 99.5902 56.1173 99.1425 55.565 99.1425C55.0127 99.1425 54.565 99.5902 54.565 100.143H56.565ZM54.565 90.4275C54.565 90.9798 55.0127 91.4275 55.565 91.4275C56.1173 91.4275 56.565 90.9798 56.565 90.4275H54.565ZM56.7818 79.9169C56.8029 79.3651 56.3726 78.9006 55.8207 78.8795C55.2688 78.8584 54.8043 79.2887 54.7832 79.8406L56.7818 79.9169ZM55.2182 68.4581C55.1971 69.0099 55.6274 69.4744 56.1793 69.4955C56.7312 69.5166 57.1957 69.0863 57.2168 68.5344L55.2182 68.4581ZM57.435 58.4912C57.435 57.939 56.9873 57.4912 56.435 57.4912C55.8827 57.4912 55.435 57.939 55.435 58.4912H57.435ZM55.435 49.8637C55.435 50.416 55.8827 50.8637 56.435 50.8637C56.9873 50.8637 57.435 50.416 57.435 49.8637H55.435ZM59.8244 46.55C60.3767 46.55 60.8244 46.1023 60.8244 45.55C60.8244 44.9977 60.3767 44.55 59.8244 44.55V46.55ZM66.6031 44.55C66.0508 44.55 65.6031 44.9977 65.6031 45.55C65.6031 46.1023 66.0508 46.55 66.6031 46.55V44.55ZM73.3819 46.55C73.9342 46.55 74.3819 46.1023 74.3819 45.55C74.3819 44.9977 73.9342 44.55 73.3819 44.55V46.55ZM80.1606 44.55C79.6083 44.55 79.1606 44.9977 79.1606 45.55C79.1606 46.1023 79.6083 46.55 80.1606 46.55V44.55ZM82.55 49.2656C82.55 49.8179 82.9977 50.2656 83.55 50.2656C84.1023 50.2656 84.55 49.8179 84.55 49.2656H82.55ZM84.55 56.6969C84.55 56.1446 84.1023 55.6969 83.55 55.6969C82.9977 55.6969 82.55 56.1446 82.55 56.6969H84.55ZM82.55 64.1281C82.55 64.6804 82.9977 65.1281 83.55 65.1281C84.1023 65.1281 84.55 64.6804 84.55 64.1281H82.55ZM84.55 71.5594C84.55 71.0071 84.1023 70.5594 83.55 70.5594C82.9977 70.5594 82.55 71.0071 82.55 71.5594H84.55ZM82.55 78.9906C82.55 79.5429 82.9977 79.9906 83.55 79.9906C84.1023 79.9906 84.55 79.5429 84.55 78.9906H82.55ZM84.55 86.4219C84.55 85.8696 84.1023 85.4219 83.55 85.4219C82.9977 85.4219 82.55 85.8696 82.55 86.4219H84.55ZM82.55 93.8531C82.55 94.4054 82.9977 94.8531 83.55 94.8531C84.1023 94.8531 84.55 94.4054 84.55 93.8531H82.55ZM84.55 101.284C84.55 100.732 84.1023 100.284 83.55 100.284C82.9977 100.284 82.55 100.732 82.55 101.284H84.55ZM80.0519 104C79.4996 104 79.0519 104.448 79.0519 105C79.0519 105.552 79.4996 106 80.0519 106V104ZM73.0556 106C73.6079 106 74.0556 105.552 74.0556 105C74.0556 104.448 73.6079 104 73.0556 104V106ZM66.0594 104C65.5071 104 65.0594 104.448 65.0594 105C65.0594 105.552 65.5071 106 66.0594 106V104ZM59.0631 106C59.6154 106 60.0631 105.552 60.0631 105C60.0631 104.448 59.6154 104 59.0631 104V106ZM2.915 85.57V80.8937H0.915V85.57H2.915ZM2.915 71.5413V66.865H0.915V71.5413H2.915ZM2.7271 67.4485L5.0036 64.2803L3.3794 63.1132L1.1029 66.2815L2.7271 67.4485ZM9.5566 57.9438L14.1096 51.6073L12.4854 50.4402L7.9324 56.7767L9.5566 57.9438ZM18.6626 45.2708L23.2156 38.9343L21.5914 37.7672L17.0384 44.1037L18.6626 45.2708ZM27.7686 32.5978L32.3216 26.2613L30.6974 25.0942L26.1444 31.4307L27.7686 32.5978ZM36.8746 19.9248L41.4276 13.5883L39.8034 12.4212L35.2504 18.7577L36.8746 19.9248ZM45.9806 7.25176L48.2571 4.08352L46.6329 2.91647L44.3564 6.08472L45.9806 7.25176ZM47.445 4.49999H51.1606V2.49999H47.445V4.49999ZM58.5919 4.49999H66.0231V2.49999H58.5919V4.49999ZM73.4544 4.49999H77.17V2.49999H73.4544V4.49999ZM76.35 2.92767L74.1387 6.09592L75.7788 7.24057L77.99 4.07232L76.35 2.92767ZM69.7162 12.4324L65.2937 18.7689L66.9338 19.9136L71.3563 13.5771L69.7162 12.4324ZM60.8712 25.1054L56.4487 31.4419L58.0888 32.5866L62.5113 26.2501L60.8712 25.1054ZM52.0262 37.7784L47.6037 44.1149L49.2438 45.2596L53.6663 38.9231L52.0262 37.7784ZM43.1812 50.4514L38.7587 56.7879L40.3988 57.9326L44.8213 51.5961L43.1812 50.4514ZM34.3362 63.1244L32.125 66.2927L33.765 67.4373L35.9763 64.2691L34.3362 63.1244ZM33.2305 65.9066L29.823 64.8916L29.252 66.8084L32.6595 67.8234L33.2305 65.9066ZM23.008 62.8616L19.6005 61.8466L19.0295 63.7634L22.437 64.7784L23.008 62.8616ZM19.315 63.805H23.2808V61.805H19.315V63.805ZM31.2122 63.805H39.1437V61.805H31.2122V63.805ZM47.0752 63.805H55.0067V61.805H47.0752V63.805ZM62.9382 63.805H70.8698V61.805H62.9382V63.805ZM78.8012 63.805H86.7327V61.805H78.8012V63.805ZM94.6643 63.805H98.63V61.805H94.6643V63.805ZM97.63 62.805V68.4962H99.63V62.805H97.63ZM97.63 79.8787V85.57H99.63V79.8787H97.63ZM98.63 84.57H94.6002V86.57H98.63V84.57ZM86.5406 84.57H78.481V86.57H86.5406V84.57ZM70.4215 84.57H62.3619V86.57H70.4215V84.57ZM54.3023 84.57H46.2427V86.57H54.3023V84.57ZM38.1831 84.57H30.1235V86.57H38.1831V84.57ZM22.064 84.57H14.0044V86.57H22.064V84.57ZM5.94478 84.57H1.915V86.57H5.94478V84.57ZM56.565 105V100.143H54.565V105H56.565ZM56.565 90.4275V85.57H54.565V90.4275H56.565ZM56.5643 85.6082L56.7818 79.9169L54.7832 79.8406L54.5657 85.5318L56.5643 85.6082ZM57.2168 68.5344L57.4343 62.8432L55.4357 62.7668L55.2182 68.4581L57.2168 68.5344ZM57.435 62.805V58.4912H55.435V62.805H57.435ZM57.435 49.8637V45.55H55.435V49.8637H57.435ZM56.435 46.55H59.8244V44.55H56.435V46.55ZM66.6031 46.55H73.3819V44.55H66.6031V46.55ZM80.1606 46.55H83.55V44.55H80.1606V46.55ZM82.55 45.55V49.2656H84.55V45.55H82.55ZM82.55 56.6969V64.1281H84.55V56.6969H82.55ZM82.55 71.5594V78.9906H84.55V71.5594H82.55ZM82.55 86.4219V93.8531H84.55V86.4219H82.55ZM82.55 101.284V105H84.55V101.284H82.55ZM83.55 104H80.0519V106H83.55V104ZM73.0556 104H66.0594V106H73.0556V104ZM59.0631 104H55.565V106H59.0631V104ZM126.063 100.795L125.799 101.219L125.802 101.221L126.063 100.795ZM110.258 82.815L109.81 83.0364L110.258 82.815ZM110.258 25.685L109.81 25.4636L110.258 25.685ZM126.063 7.705L125.802 7.27895L125.799 7.28065L126.063 7.705ZM172.173 7.705L171.909 8.12935L171.912 8.13104L172.173 7.705ZM188.123 25.685L187.675 25.9064L188.123 25.685ZM188.123 82.815L187.675 82.5936L188.123 82.815ZM172.173 100.795L171.912 100.369L171.909 100.371L172.173 100.795ZM157.383 80.64L157.071 80.2495L157.063 80.2559L157.383 80.64ZM163.038 71.36L163.515 71.5116L163.516 71.5085L163.038 71.36ZM163.038 37.14L163.515 36.9884L163.038 37.14ZM157.383 27.86L157.063 28.2442L157.071 28.2504L157.383 27.86ZM140.998 27.86L140.686 27.4695L140.678 27.4759L140.998 27.86ZM135.343 37.14L134.87 36.9786L134.867 36.9884L135.343 37.14ZM135.343 71.36L134.866 71.5086L134.87 71.5213L135.343 71.36ZM140.998 80.64L140.678 81.0242L140.686 81.0304L140.998 80.64ZM146.251 106.444C145.976 106.428 145.739 106.638 145.723 106.914C145.707 107.19 145.918 107.426 146.193 107.442L146.251 106.444ZM140.094 106.703C140.365 106.754 140.626 106.575 140.677 106.304C140.729 106.032 140.55 105.771 140.279 105.72L140.094 106.703ZM134.466 104.197C134.205 104.108 133.921 104.248 133.832 104.509C133.743 104.771 133.883 105.055 134.144 105.144L134.466 104.197ZM128.482 102.735C128.728 102.861 129.029 102.765 129.156 102.52C129.283 102.275 129.187 101.973 128.941 101.846L128.482 102.735ZM123.849 98.6924C123.626 98.529 123.313 98.577 123.15 98.7996C122.987 99.0222 123.035 99.3351 123.257 99.4985L123.849 98.6924ZM118.602 95.504C118.798 95.6991 119.114 95.6988 119.309 95.5034C119.504 95.308 119.504 94.9914 119.309 94.7963L118.602 95.504ZM115.389 90.2701C115.223 90.0492 114.91 90.0044 114.689 90.1701C114.468 90.3357 114.423 90.6491 114.589 90.87L115.389 90.2701ZM111.242 85.7415C111.378 85.9817 111.683 86.066 111.924 85.9298C112.164 85.7936 112.248 85.4885 112.112 85.2483L111.242 85.7415ZM109.225 79.2736C109.122 79.0173 108.831 78.8929 108.575 78.9958C108.319 79.0986 108.194 79.3897 108.297 79.646L109.225 79.2736ZM106.026 72.5882C106.093 72.8561 106.365 73.019 106.632 72.952C106.9 72.885 107.063 72.6136 106.996 72.3457L106.026 72.5882ZM105.644 65.1815C105.607 64.9077 105.356 64.7153 105.082 64.7516C104.809 64.7879 104.616 65.0393 104.652 65.313L105.644 65.1815ZM104.03 57.9456C104.041 58.2215 104.274 58.4363 104.55 58.4254C104.826 58.4145 105.04 58.1819 105.03 57.906L104.03 57.9456ZM105.03 50.594C105.04 50.3181 104.826 50.0855 104.55 50.0746C104.274 50.0637 104.041 50.2785 104.03 50.5544L105.03 50.594ZM104.652 43.187C104.616 43.4607 104.809 43.7121 105.082 43.7484C105.356 43.7847 105.607 43.5923 105.644 43.3185L104.652 43.187ZM106.996 36.1543C107.063 35.8864 106.9 35.615 106.632 35.548C106.365 35.481 106.093 35.6439 106.026 35.9118L106.996 36.1543ZM108.297 28.854C108.194 29.1103 108.319 29.4014 108.575 29.5042C108.831 29.6071 109.122 29.4827 109.225 29.2264L108.297 28.854ZM112.112 23.2517C112.248 23.0115 112.164 22.7064 111.924 22.5702C111.683 22.434 111.378 22.5183 111.242 22.7585L112.112 23.2517ZM114.589 17.63C114.423 17.8509 114.468 18.1643 114.689 18.3299C114.91 18.4956 115.223 18.4508 115.389 18.2299L114.589 17.63ZM119.309 13.7037C119.504 13.5086 119.504 13.192 119.309 12.9966C119.114 12.8012 118.798 12.8009 118.602 12.996L119.309 13.7037ZM123.257 9.00146C123.035 9.16485 122.987 9.47778 123.15 9.70039C123.313 9.923 123.626 9.97101 123.849 9.80762L123.257 9.00146ZM128.941 6.6538C129.187 6.52705 129.283 6.22541 129.156 5.98008C129.029 5.73475 128.728 5.63862 128.482 5.76538L128.941 6.6538ZM134.144 3.35604C133.883 3.44503 133.743 3.72909 133.832 3.9905C133.921 4.25191 134.205 4.39168 134.466 4.30268L134.144 3.35604ZM140.279 2.78012C140.55 2.72902 140.729 2.46761 140.677 2.19623C140.626 1.92486 140.365 1.74629 140.094 1.79739L140.279 2.78012ZM146.193 1.05774C145.918 1.07371 145.707 1.31014 145.723 1.58582C145.739 1.8615 145.976 2.07204 146.251 2.05607L146.193 1.05774ZM152.241 2.05603C152.516 2.07218 152.753 1.8618 152.769 1.58613C152.785 1.31046 152.575 1.07389 152.299 1.05774L152.241 2.05603ZM158.33 1.79779C158.059 1.74608 157.797 1.92406 157.745 2.19532C157.694 2.46657 157.872 2.72839 158.143 2.7801L158.33 1.79779ZM163.883 4.30295C164.144 4.393 164.428 4.25438 164.518 3.99333C164.608 3.73228 164.47 3.44767 164.209 3.35761L163.883 4.30295ZM169.796 5.76772C169.551 5.63956 169.249 5.73396 169.121 5.97856C168.993 6.22316 169.087 6.52534 169.332 6.6535L169.796 5.76772ZM174.413 9.80029C174.636 9.96218 174.949 9.91208 175.111 9.68837C175.273 9.46466 175.223 9.15207 174.999 8.99018L174.413 9.80029ZM179.7 12.9715C179.503 12.7776 179.187 12.7798 178.993 12.9764C178.799 13.173 178.801 13.4896 178.998 13.6835L179.7 12.9715ZM182.958 18.2083C183.124 18.4285 183.438 18.472 183.658 18.3055C183.878 18.1389 183.922 17.8254 183.755 17.6051L182.958 18.2083ZM187.131 22.7473C186.995 22.5073 186.689 22.4234 186.449 22.5599C186.209 22.6965 186.125 23.0017 186.262 23.2418L187.131 22.7473ZM189.156 29.2264C189.259 29.4827 189.55 29.6071 189.807 29.5042C190.063 29.4014 190.187 29.1103 190.084 28.854L189.156 29.2264ZM192.356 35.9118C192.289 35.6439 192.017 35.481 191.749 35.548C191.481 35.615 191.318 35.8864 191.385 36.1543L192.356 35.9118ZM192.738 43.3185C192.774 43.5923 193.026 43.7847 193.299 43.7484C193.573 43.7121 193.766 43.4607 193.729 43.187L192.738 43.3185ZM194.351 50.5544C194.34 50.2785 194.108 50.0637 193.832 50.0746C193.556 50.0855 193.341 50.3181 193.352 50.594L194.351 50.5544ZM193.352 57.906C193.341 58.1819 193.556 58.4145 193.832 58.4254C194.108 58.4363 194.34 58.2215 194.351 57.9456L193.352 57.906ZM193.729 65.313C193.766 65.0393 193.573 64.7879 193.299 64.7516C193.026 64.7153 192.774 64.9077 192.738 65.1815L193.729 65.313ZM191.385 72.3457C191.318 72.6136 191.481 72.885 191.749 72.952C192.017 73.019 192.289 72.8561 192.356 72.5882L191.385 72.3457ZM190.084 79.646C190.187 79.3897 190.063 79.0986 189.807 78.9958C189.55 78.8929 189.259 79.0173 189.156 79.2736L190.084 79.646ZM186.262 85.2582C186.125 85.4982 186.209 85.8035 186.449 85.9401C186.689 86.0766 186.995 85.9927 187.131 85.7527L186.262 85.2582ZM183.755 90.8949C183.922 90.6746 183.878 90.3611 183.658 90.1945C183.438 90.0279 183.124 90.0715 182.958 90.2917L183.755 90.8949ZM178.998 94.8165C178.801 95.0104 178.799 95.327 178.993 95.5236C179.187 95.7202 179.503 95.7224 179.7 95.5285L178.998 94.8165ZM174.999 99.5098C175.223 99.3479 175.273 99.0353 175.111 98.8116C174.949 98.5879 174.636 98.5378 174.413 98.6997L174.999 99.5098ZM169.332 101.846C169.087 101.975 168.993 102.277 169.121 102.521C169.249 102.766 169.551 102.86 169.796 102.732L169.332 101.846ZM164.209 105.142C164.47 105.052 164.608 104.768 164.518 104.507C164.428 104.246 164.144 104.107 163.883 104.197L164.209 105.142ZM158.143 105.72C157.872 105.772 157.694 106.033 157.745 106.305C157.797 106.576 158.059 106.754 158.33 106.702L158.143 105.72ZM152.299 107.442C152.575 107.426 152.785 107.19 152.769 106.914C152.753 106.638 152.516 106.428 152.241 106.444L152.299 107.442ZM147.119 82.8705C146.847 82.8261 146.59 83.0111 146.545 83.2837C146.501 83.5562 146.686 83.8132 146.958 83.8575L147.119 82.8705ZM142.6 82.3279C142.84 82.4636 143.145 82.3786 143.281 82.1381C143.416 81.8976 143.331 81.5926 143.091 81.4569L142.6 82.3279ZM139.482 78.3556C139.311 78.1393 138.996 78.1031 138.78 78.2748C138.563 78.4464 138.527 78.7609 138.699 78.9772L139.482 78.3556ZM135.873 74.1255C135.983 74.3787 136.278 74.4946 136.531 74.3844C136.784 74.2742 136.9 73.9796 136.79 73.7264L135.873 74.1255ZM134.815 67.0714C134.765 66.7999 134.504 66.6206 134.232 66.671C133.961 66.7213 133.781 66.9822 133.832 67.2537L134.815 67.0714ZM132.906 58.5944C132.918 58.8703 133.152 59.084 133.428 59.0717C133.703 59.0594 133.917 58.8259 133.905 58.55L132.906 58.5944ZM133.903 49.9488C133.915 49.6729 133.701 49.4395 133.425 49.4275C133.149 49.4155 132.916 49.6294 132.904 49.9053L133.903 49.9488ZM133.821 41.2438C133.771 41.5153 133.95 41.7762 134.221 41.8266C134.493 41.8769 134.754 41.6976 134.804 41.4261L133.821 41.2438ZM136.79 34.7736C136.9 34.5204 136.784 34.2258 136.531 34.1156C136.278 34.0054 135.983 34.1213 135.873 34.3745L136.79 34.7736ZM138.699 29.5228C138.527 29.7391 138.563 30.0536 138.78 30.2252C138.996 30.3969 139.311 30.3607 139.482 30.1444L138.699 29.5228ZM143.091 27.0431C143.331 26.9074 143.416 26.6024 143.281 26.3619C143.145 26.1214 142.84 26.0364 142.6 26.1721L143.091 27.0431ZM146.958 24.6425C146.686 24.6868 146.501 24.9437 146.545 25.2163C146.59 25.4889 146.847 25.6739 147.119 25.6295L146.958 24.6425ZM151.376 25.6258C151.649 25.67 151.905 25.4849 151.95 25.2123C151.994 24.9397 151.809 24.6829 151.536 24.6387L151.376 25.6258ZM155.833 26.1651C155.594 26.0269 155.288 26.1086 155.15 26.3476C155.011 26.5866 155.093 26.8925 155.332 27.0308L155.833 26.1651ZM158.94 30.1206C159.114 30.3349 159.429 30.3673 159.643 30.1931C159.857 30.0188 159.89 29.7039 159.716 29.4897L158.94 30.1206ZM162.551 34.3591C162.443 34.1046 162.15 33.9853 161.896 34.0926C161.641 34.1998 161.522 34.4931 161.629 34.7475L162.551 34.3591ZM163.577 41.4261C163.628 41.6977 163.889 41.8769 164.16 41.8266C164.432 41.7762 164.611 41.5153 164.561 41.2438L163.577 41.4261ZM165.478 49.9053C165.466 49.6294 165.233 49.4155 164.957 49.4275C164.681 49.4395 164.467 49.6729 164.479 49.9488L165.478 49.9053ZM164.477 58.55C164.465 58.8259 164.678 59.0594 164.954 59.0717C165.23 59.084 165.464 58.8703 165.476 58.5944L164.477 58.55ZM164.55 67.2537C164.6 66.9822 164.421 66.7213 164.149 66.671C163.878 66.6206 163.617 66.7999 163.567 67.0714L164.55 67.2537ZM161.629 73.7525C161.522 74.0069 161.641 74.3002 161.896 74.4074C162.15 74.5147 162.443 74.3954 162.551 74.1409L161.629 73.7525ZM159.716 79.0103C159.89 78.7961 159.857 78.4812 159.643 78.3069C159.429 78.1327 159.114 78.1651 158.94 78.3794L159.716 79.0103ZM155.332 81.4692C155.093 81.6075 155.011 81.9134 155.15 82.1524C155.288 82.3914 155.594 82.4731 155.833 82.3349L155.332 81.4692ZM151.536 83.8613C151.809 83.8171 151.994 83.5603 151.95 83.2877C151.905 83.0151 151.649 82.83 151.376 82.8742L151.536 83.8613ZM149.263 106.53C148.246 106.53 147.242 106.501 146.251 106.444L146.193 107.442C147.203 107.501 148.227 107.53 149.263 107.53V106.53ZM140.279 105.72C138.279 105.343 136.342 104.836 134.466 104.197L134.144 105.144C136.066 105.798 138.049 106.318 140.094 106.703L140.279 105.72ZM128.941 101.846C128.054 101.388 127.182 100.895 126.325 100.369L125.802 101.221C126.679 101.76 127.573 102.265 128.482 102.735L128.941 101.846ZM126.328 100.371C125.478 99.8413 124.652 99.2819 123.849 98.6924L123.257 99.4985C124.081 100.103 124.928 100.677 125.799 101.219L126.328 100.371ZM119.309 94.7963C117.914 93.4042 116.608 91.8956 115.389 90.2701L114.589 90.87C115.835 92.5325 117.173 94.0773 118.602 95.504L119.309 94.7963ZM112.112 85.2483C111.625 84.3887 111.156 83.5039 110.707 82.5936L109.81 83.0364C110.268 83.9633 110.745 84.865 111.242 85.7415L112.112 85.2483ZM110.707 82.5936C110.176 81.5195 109.682 80.4129 109.225 79.2736L108.297 79.646C108.764 80.8086 109.268 81.9387 109.81 83.0364L110.707 82.5936ZM106.996 72.3457C106.426 70.0644 105.975 67.6764 105.644 65.1815L104.652 65.313C104.988 67.8428 105.446 70.268 106.026 72.5882L106.996 72.3457ZM105.03 57.906C104.982 56.7084 104.958 55.4898 104.958 54.25H103.958C103.958 55.5025 103.982 56.7344 104.03 57.9456L105.03 57.906ZM104.958 54.25C104.958 53.0102 104.982 51.7916 105.03 50.594L104.03 50.5544C103.982 51.7656 103.958 52.9975 103.958 54.25H104.958ZM105.644 43.3185C105.975 40.8236 106.426 38.4356 106.996 36.1543L106.026 35.9118C105.446 38.232 104.988 40.6572 104.652 43.187L105.644 43.3185ZM109.225 29.2264C109.682 28.0871 110.176 26.9805 110.707 25.9064L109.81 25.4636C109.268 26.5613 108.764 27.6914 108.297 28.854L109.225 29.2264ZM110.707 25.9064C111.156 24.9961 111.625 24.1113 112.112 23.2517L111.242 22.7585C110.745 23.635 110.268 24.5367 109.81 25.4636L110.707 25.9064ZM115.389 18.2299C116.608 16.6044 117.914 15.0958 119.309 13.7037L118.602 12.996C117.173 14.4227 115.835 15.9675 114.589 17.63L115.389 18.2299ZM123.849 9.80762C124.652 9.21808 125.478 8.65866 126.328 8.12934L125.799 7.28065C124.928 7.82329 124.081 8.39689 123.257 9.00146L123.849 9.80762ZM126.325 8.13104C127.182 7.60486 128.054 7.11246 128.941 6.6538L128.482 5.76538C127.573 6.23542 126.679 6.73996 125.802 7.27896L126.325 8.13104ZM134.466 4.30268C136.342 3.66418 138.279 3.15659 140.279 2.78012L140.094 1.79739C138.049 2.1824 136.066 2.70189 134.144 3.35604L134.466 4.30268ZM146.251 2.05607C147.242 1.9987 148.246 1.96999 149.263 1.96999V0.969994C148.227 0.969994 147.203 0.999229 146.193 1.05774L146.251 2.05607ZM149.263 1.96999C150.269 1.96999 151.262 1.99869 152.241 2.05603L152.299 1.05774C151.3 0.999229 150.288 0.969994 149.263 0.969994V1.96999ZM158.143 2.7801C160.118 3.15663 162.031 3.66431 163.883 4.30295L164.209 3.35761C162.311 2.70294 160.351 2.18307 158.33 1.79779L158.143 2.7801ZM169.332 6.6535C170.206 7.11175 171.065 7.60369 171.909 8.12934L172.438 7.28065C171.573 6.74192 170.693 6.23759 169.796 5.76772L169.332 6.6535ZM171.912 8.13104C172.769 8.65767 173.603 9.21409 174.413 9.80029L174.999 8.99018C174.168 8.38911 173.314 7.81871 172.435 7.27896L171.912 8.13104ZM178.998 13.6835C180.409 15.075 181.729 16.5832 182.958 18.2083L183.755 17.6051C182.498 15.9425 181.146 14.3979 179.7 12.9715L178.998 13.6835ZM186.262 23.2418C186.753 24.1044 187.224 24.9926 187.675 25.9064L188.572 25.4636C188.112 24.5328 187.632 23.6273 187.131 22.7473L186.262 23.2418ZM187.675 25.9064C188.205 26.9805 188.699 28.0871 189.156 29.2264L190.084 28.854C189.618 27.6914 189.114 26.5613 188.572 25.4636L187.675 25.9064ZM191.385 36.1543C191.956 38.4356 192.407 40.8236 192.738 43.3185L193.729 43.187C193.393 40.6572 192.936 38.232 192.356 35.9118L191.385 36.1543ZM193.352 50.594C193.4 51.7916 193.423 53.0102 193.423 54.25H194.423C194.423 52.9975 194.399 51.7656 194.351 50.5544L193.352 50.594ZM193.423 54.25C193.423 55.4898 193.4 56.7084 193.352 57.906L194.351 57.9456C194.399 56.7344 194.423 55.5025 194.423 54.25H193.423ZM192.738 65.1815C192.407 67.6764 191.956 70.0644 191.385 72.3457L192.356 72.5882C192.936 70.268 193.393 67.8428 193.729 65.313L192.738 65.1815ZM189.156 79.2736C188.699 80.4129 188.205 81.5195 187.675 82.5936L188.572 83.0364C189.114 81.9387 189.618 80.8086 190.084 79.646L189.156 79.2736ZM187.675 82.5936C187.224 83.5074 186.753 84.3956 186.262 85.2582L187.131 85.7527C187.632 84.8727 188.112 83.9672 188.572 83.0364L187.675 82.5936ZM182.958 90.2917C181.729 91.9168 180.409 93.425 178.998 94.8165L179.7 95.5285C181.146 94.1021 182.498 92.5575 183.755 90.8949L182.958 90.2917ZM174.413 98.6997C173.603 99.2859 172.769 99.8423 171.912 100.369L172.435 101.221C173.314 100.681 174.168 100.111 174.999 99.5098L174.413 98.6997ZM171.909 100.371C171.065 100.896 170.206 101.388 169.332 101.846L169.796 102.732C170.693 102.262 171.573 101.758 172.438 101.219L171.909 100.371ZM163.883 104.197C162.031 104.836 160.118 105.343 158.143 105.72L158.33 106.702C160.351 106.317 162.311 105.797 164.209 105.142L163.883 104.197ZM152.241 106.444C151.262 106.501 150.269 106.53 149.263 106.53V107.53C150.288 107.53 151.3 107.501 152.299 107.442L152.241 106.444ZM149.263 83.04C148.527 83.04 147.812 82.9833 147.119 82.8705L146.958 83.8575C147.707 83.9793 148.476 84.04 149.263 84.04V83.04ZM143.091 81.4569C142.479 81.1118 141.886 80.7096 141.311 80.2496L140.686 81.0304C141.301 81.5226 141.939 81.9553 142.6 82.3279L143.091 81.4569ZM141.318 80.2559C140.675 79.7195 140.062 79.0868 139.482 78.3556L138.699 78.9772C139.317 79.7567 139.977 80.4397 140.678 81.0241L141.318 80.2559ZM136.79 73.7264C136.447 72.9376 136.122 72.0951 135.817 71.1987L134.87 71.5213C135.184 72.4413 135.518 73.3094 135.873 74.1255L136.79 73.7264ZM135.821 71.2115C135.429 69.9512 135.093 68.5714 134.815 67.0714L133.832 67.2537C134.116 68.787 134.461 70.2055 134.866 71.5085L135.821 71.2115ZM133.905 58.55C133.844 57.1786 133.813 55.7453 133.813 54.25H132.813C132.813 55.7588 132.844 57.207 132.906 58.5944L133.905 58.55ZM133.813 54.25C133.813 52.7514 133.843 51.3177 133.903 49.9488L132.904 49.9053C132.843 51.2899 132.813 52.7382 132.813 54.25H133.813ZM134.804 41.4261C135.084 39.9159 135.423 38.5381 135.82 37.2916L134.867 36.9884C134.456 38.2803 134.107 39.6992 133.821 41.2438L134.804 41.4261ZM135.817 37.3013C136.122 36.4049 136.447 35.5624 136.79 34.7736L135.873 34.3745C135.518 35.1906 135.184 36.0587 134.87 36.9787L135.817 37.3013ZM139.482 30.1444C140.062 29.4132 140.675 28.7805 141.318 28.2441L140.678 27.4759C139.977 28.0603 139.317 28.7433 138.699 29.5228L139.482 30.1444ZM141.311 28.2504C141.886 27.7904 142.479 27.3882 143.091 27.0431L142.6 26.1721C141.939 26.5447 141.301 26.9774 140.686 27.4696L141.311 28.2504ZM147.119 25.6295C147.812 25.5167 148.527 25.46 149.263 25.46V24.46C148.476 24.46 147.707 24.5206 146.958 24.6425L147.119 25.6295ZM149.263 25.46C149.992 25.46 150.696 25.5155 151.376 25.6258L151.536 24.6387C150.8 24.5194 150.043 24.46 149.263 24.46V25.46ZM155.332 27.0308C155.931 27.377 156.508 27.7812 157.063 28.2441L157.703 27.4759C157.106 26.9781 156.482 26.5409 155.833 26.1651L155.332 27.0308ZM157.071 28.2504C157.733 28.7798 158.356 29.4026 158.94 30.1206L159.716 29.4897C159.09 28.7209 158.417 28.0469 157.696 27.4696L157.071 28.2504ZM161.629 34.7475C161.964 35.5407 162.275 36.3886 162.562 37.2916L163.515 36.9884C163.219 36.0593 162.898 35.1827 162.551 34.3591L161.629 34.7475ZM162.562 37.2916C162.958 38.5381 163.297 39.9159 163.577 41.4261L164.561 41.2438C164.274 39.6992 163.926 38.2803 163.515 36.9884L162.562 37.2916ZM164.479 49.9488C164.538 51.3177 164.568 52.7514 164.568 54.25H165.568C165.568 52.7382 165.538 51.2899 165.478 49.9053L164.479 49.9488ZM164.568 54.25C164.568 55.7453 164.538 57.1786 164.477 58.55L165.476 58.5944C165.538 57.207 165.568 55.7588 165.568 54.25H164.568ZM163.567 67.0714C163.289 68.5714 162.953 69.9512 162.561 71.2115L163.516 71.5085C163.921 70.2055 164.266 68.787 164.55 67.2537L163.567 67.0714ZM162.562 71.2084C162.275 72.1113 161.964 72.9593 161.629 73.7525L162.551 74.1409C162.898 73.3173 163.219 72.4407 163.515 71.5116L162.562 71.2084ZM158.94 78.3794C158.356 79.0974 157.733 79.7202 157.071 80.2496L157.696 81.0304C158.417 80.4531 159.09 79.7791 159.716 79.0103L158.94 78.3794ZM157.063 80.2559C156.508 80.7188 155.931 81.123 155.332 81.4692L155.833 82.3349C156.482 81.9591 157.106 81.5219 157.703 81.0241L157.063 80.2559ZM151.376 82.8742C150.696 82.9845 149.992 83.04 149.263 83.04V84.04C150.043 84.04 150.8 83.9806 151.536 83.8613L151.376 82.8742ZM126.063 100.795L125.534 101.644L125.54 101.647L126.063 100.795ZM110.258 82.815L109.362 83.2578L110.258 82.815ZM110.258 25.685L109.362 25.2422V25.2422L110.258 25.685ZM126.063 7.705L125.54 6.85291L125.534 6.85631L126.063 7.705ZM172.173 7.705L171.644 8.55371L171.65 8.55708L172.173 7.705ZM188.123 25.685L187.227 26.1278L188.123 25.685ZM188.123 82.815L187.227 82.3722L188.123 82.815ZM172.173 100.795L171.65 99.9429L171.644 99.9463L172.173 100.795ZM157.383 80.64L156.759 79.8591L156.751 79.8654L156.743 79.8718L157.383 80.64ZM163.038 71.36L163.991 71.6632L163.993 71.6571L163.038 71.36ZM163.038 37.14L163.991 36.8368L163.038 37.14ZM157.383 27.86L156.743 28.6282L156.751 28.6346L156.759 28.6409L157.383 27.86ZM140.998 27.86L140.374 27.0791L140.366 27.0854L140.358 27.0918L140.998 27.86ZM135.343 37.14L134.397 36.8173L134.394 36.827L134.39 36.8368L135.343 37.14ZM135.343 71.36L134.388 71.6571L134.392 71.6699L134.397 71.6827L135.343 71.36ZM140.998 80.64L140.358 81.4082L140.366 81.4146L140.374 81.4209L140.998 80.64ZM146.28 105.945C145.729 105.913 145.256 106.334 145.224 106.885C145.192 107.437 145.613 107.909 146.164 107.941L146.28 105.945ZM140.001 107.194C140.544 107.296 141.067 106.939 141.169 106.396C141.271 105.854 140.914 105.331 140.371 105.229L140.001 107.194ZM134.628 103.724C134.105 103.546 133.537 103.826 133.359 104.348C133.181 104.871 133.46 105.439 133.983 105.617L134.628 103.724ZM128.253 103.179C128.744 103.432 129.347 103.24 129.6 102.749C129.854 102.259 129.662 101.655 129.171 101.402L128.253 103.179ZM124.145 98.2893C123.7 97.9625 123.074 98.0585 122.747 98.5038C122.42 98.949 122.516 99.5748 122.961 99.9016L124.145 98.2893ZM118.249 95.8578C118.64 96.248 119.273 96.2475 119.663 95.8566C120.053 95.4658 120.053 94.8326 119.662 94.4424L118.249 95.8578ZM115.789 89.9702C115.458 89.5283 114.831 89.4387 114.389 89.77C113.947 90.1013 113.857 90.7281 114.189 91.17L115.789 89.9702ZM110.807 85.9881C111.08 86.4686 111.69 86.6372 112.17 86.3648C112.651 86.0924 112.819 85.4821 112.547 85.0016L110.807 85.9881ZM109.689 79.0874C109.484 78.5748 108.901 78.326 108.389 78.5317C107.876 78.7374 107.627 79.3197 107.833 79.8322L109.689 79.0874ZM105.541 72.7095C105.675 73.2453 106.218 73.571 106.754 73.4371C107.289 73.3031 107.615 72.7602 107.481 72.2244L105.541 72.7095ZM106.139 65.1157C106.067 64.5682 105.564 64.1833 105.017 64.2559C104.469 64.3286 104.084 64.8313 104.157 65.3788L106.139 65.1157ZM103.531 57.9654C103.553 58.5173 104.018 58.9469 104.57 58.925C105.121 58.9031 105.551 58.438 105.529 57.8862L103.531 57.9654ZM105.529 50.6138C105.551 50.062 105.121 49.5969 104.57 49.575C104.018 49.5531 103.553 49.9827 103.531 50.5346L105.529 50.6138ZM104.157 43.1212C104.084 43.6687 104.469 44.1714 105.017 44.244C105.564 44.3167 106.067 43.9318 106.139 43.3843L104.157 43.1212ZM107.481 36.2756C107.615 35.7398 107.289 35.1969 106.754 35.0629C106.218 34.929 105.675 35.2547 105.541 35.7905L107.481 36.2756ZM107.833 28.6678C107.627 29.1803 107.876 29.7626 108.389 29.9683C108.901 30.1739 109.484 29.9252 109.689 29.4126L107.833 28.6678ZM112.547 23.4984C112.819 23.0179 112.651 22.4076 112.17 22.1352C111.69 21.8628 111.08 22.0314 110.807 22.5119L112.547 23.4984ZM114.189 17.33C113.857 17.7719 113.947 18.3987 114.389 18.73C114.831 19.0613 115.458 18.9717 115.789 18.5298L114.189 17.33ZM119.662 14.0576C120.053 13.6674 120.053 13.0342 119.663 12.6433C119.273 12.2525 118.64 12.252 118.249 12.6422L119.662 14.0576ZM122.961 8.59838C122.516 8.92517 122.42 9.55101 122.747 9.99624C123.074 10.4415 123.7 10.5375 124.145 10.2107L122.961 8.59838ZM129.171 7.09802C129.662 6.84451 129.854 6.24124 129.6 5.75057C129.347 5.25991 128.744 5.06766 128.253 5.32116L129.171 7.09802ZM133.983 2.88272C133.46 3.06071 133.181 3.62882 133.359 4.15164C133.537 4.67446 134.105 4.95399 134.628 4.776L133.983 2.88272ZM140.371 3.27148C140.914 3.16928 141.271 2.64645 141.169 2.10371C141.067 1.56096 140.544 1.20383 140.001 1.30602L140.371 3.27148ZM146.164 0.558578C145.613 0.590515 145.192 1.06337 145.224 1.61473C145.256 2.1661 145.729 2.58717 146.28 2.55523L146.164 0.558578ZM152.211 2.55518C152.763 2.58748 153.236 2.16672 153.268 1.61538C153.3 1.06404 152.88 0.590904 152.328 0.558601L152.211 2.55518ZM158.424 1.30663C157.881 1.20321 157.358 1.55917 157.254 2.10169C157.151 2.6442 157.507 3.16784 158.049 3.27125L158.424 1.30663ZM163.719 4.77562C164.242 4.95572 164.811 4.67848 164.991 4.15638C165.171 3.63429 164.894 3.06505 164.372 2.88495L163.719 4.77562ZM170.028 5.32483C169.539 5.06852 168.934 5.2573 168.678 5.74651C168.422 6.23571 168.611 6.84007 169.1 7.09639L170.028 5.32483ZM174.119 10.2053C174.567 10.5291 175.192 10.4289 175.516 9.98151C175.84 9.5341 175.739 8.90892 175.292 8.58512L174.119 10.2053ZM180.051 12.6155C179.658 12.2277 179.025 12.2321 178.637 12.6253C178.249 13.0185 178.254 13.6516 178.647 14.0395L180.051 12.6155ZM182.559 18.5098C182.892 18.9504 183.519 19.0374 183.96 18.7043C184.4 18.3712 184.487 17.744 184.154 17.3035L182.559 18.5098ZM187.566 22.5001C187.293 22.02 186.682 21.8522 186.202 22.1253C185.722 22.3984 185.554 23.009 185.827 23.489L187.566 22.5001ZM188.692 29.4126C188.898 29.9252 189.48 30.1739 189.993 29.9683C190.505 29.7626 190.754 29.1803 190.549 28.6678L188.692 29.4126ZM192.841 35.7905C192.707 35.2547 192.164 34.929 191.628 35.0629C191.092 35.1969 190.766 35.7398 190.9 36.2756L192.841 35.7905ZM192.242 43.3843C192.315 43.9318 192.818 44.3167 193.365 44.244C193.913 44.1714 194.298 43.6686 194.225 43.1212L192.242 43.3843ZM194.851 50.5346C194.829 49.9827 194.364 49.5531 193.812 49.575C193.26 49.5969 192.831 50.062 192.852 50.6138L194.851 50.5346ZM192.852 57.8862C192.831 58.438 193.26 58.9031 193.812 58.925C194.364 58.9469 194.829 58.5173 194.851 57.9654L192.852 57.8862ZM194.225 65.3788C194.298 64.8313 193.913 64.3286 193.365 64.256C192.818 64.1833 192.315 64.5682 192.242 65.1157L194.225 65.3788ZM190.9 72.2244C190.766 72.7602 191.092 73.3031 191.628 73.4371C192.164 73.571 192.707 73.2453 192.841 72.7095L190.9 72.2244ZM190.549 79.8322C190.754 79.3197 190.505 78.7374 189.993 78.5317C189.48 78.326 188.898 78.5748 188.692 79.0874L190.549 79.8322ZM185.827 85.011C185.554 85.491 185.722 86.1016 186.202 86.3747C186.682 86.6478 187.293 86.48 187.566 85.9999L185.827 85.011ZM184.154 91.1965C184.487 90.756 184.4 90.1288 183.96 89.7957C183.519 89.4626 182.892 89.5496 182.559 89.9901L184.154 91.1965ZM178.647 94.4605C178.254 94.8484 178.249 95.4815 178.637 95.8747C179.025 96.2679 179.658 96.2723 180.051 95.8845L178.647 94.4605ZM175.292 99.9149C175.739 99.5911 175.84 98.9659 175.516 98.5185C175.192 98.0711 174.567 97.9709 174.119 98.2947L175.292 99.9149ZM169.1 101.404C168.611 101.66 168.422 102.264 168.678 102.753C168.934 103.243 169.539 103.431 170.028 103.175L169.1 101.404ZM164.372 105.615C164.894 105.435 165.171 104.866 164.991 104.344C164.811 103.822 164.242 103.544 163.719 103.724L164.372 105.615ZM158.049 105.229C157.507 105.332 157.151 105.856 157.254 106.398C157.358 106.941 157.881 107.297 158.424 107.193L158.049 105.229ZM152.328 107.941C152.88 107.909 153.3 107.436 153.268 106.885C153.236 106.333 152.763 105.913 152.211 105.945L152.328 107.941ZM147.199 82.377C146.654 82.2883 146.14 82.6583 146.052 83.2034C145.963 83.7485 146.333 84.2623 146.878 84.351L147.199 82.377ZM142.354 82.7634C142.835 83.0347 143.445 82.8648 143.716 82.3837C143.988 81.9027 143.818 81.2928 143.337 81.0214L142.354 82.7634ZM139.874 78.0448C139.531 77.6122 138.902 77.5398 138.469 77.8831C138.036 78.2264 137.964 78.8554 138.307 79.288L139.874 78.0448ZM135.415 74.325C135.635 74.8314 136.224 75.0633 136.731 74.8428C137.237 74.6224 137.469 74.0332 137.249 73.5268L135.415 74.325ZM135.307 66.9802C135.206 66.4372 134.684 66.0786 134.141 66.1793C133.598 66.28 133.239 66.8019 133.34 67.3449L135.307 66.9802ZM132.406 58.6166C132.431 59.1683 132.898 59.5957 133.45 59.5712C134.001 59.5467 134.429 59.0795 134.404 58.5278L132.406 58.6166ZM134.402 49.9705C134.426 49.4187 133.998 48.952 133.447 48.928C132.895 48.904 132.428 49.3318 132.404 49.8835L134.402 49.9705ZM133.329 41.1526C133.229 41.6956 133.587 42.2174 134.13 42.3182C134.673 42.4189 135.195 42.0603 135.296 41.5173L133.329 41.1526ZM137.249 34.9732C137.469 34.4668 137.237 33.8776 136.731 33.6572C136.224 33.4367 135.635 33.6686 135.415 34.175L137.249 34.9732ZM138.307 29.212C137.964 29.6446 138.036 30.2736 138.469 30.6169C138.902 30.9602 139.531 30.8878 139.874 30.4552L138.307 29.212ZM143.337 27.4786C143.818 27.2072 143.988 26.5973 143.716 26.1163C143.445 25.6352 142.835 25.4653 142.354 25.7366L143.337 27.4786ZM146.878 24.149C146.333 24.2377 145.963 24.7515 146.052 25.2966C146.14 25.8417 146.654 26.2117 147.199 26.123L146.878 24.149ZM151.296 26.1193C151.841 26.2078 152.355 25.8375 152.443 25.2924C152.532 24.7472 152.161 24.2336 151.616 24.1451L151.296 26.1193ZM156.083 25.7323C155.605 25.4558 154.993 25.6192 154.717 26.0973C154.44 26.5753 154.604 27.1871 155.082 27.4636L156.083 25.7323ZM158.552 30.4361C158.9 30.8646 159.53 30.9294 159.959 30.581C160.387 30.2325 160.452 29.6027 160.104 29.1742L158.552 30.4361ZM163.011 34.1649C162.797 33.656 162.21 33.4173 161.702 33.6318C161.193 33.8464 160.954 34.4328 161.168 34.9418L163.011 34.1649ZM163.086 41.5173C163.187 42.0604 163.708 42.4189 164.251 42.3182C164.794 42.2174 165.153 41.6956 165.052 41.1526L163.086 41.5173ZM165.977 49.8835C165.953 49.3318 165.487 48.904 164.935 48.928C164.383 48.952 163.955 49.4187 163.979 49.9705L165.977 49.8835ZM163.977 58.5278C163.953 59.0795 164.38 59.5467 164.932 59.5712C165.484 59.5957 165.951 59.1683 165.975 58.6166L163.977 58.5278ZM165.042 67.3449C165.142 66.8019 164.784 66.28 164.241 66.1793C163.698 66.0786 163.176 66.4372 163.075 66.9802L165.042 67.3449ZM161.168 73.5582C160.954 74.0672 161.193 74.6536 161.702 74.8682C162.21 75.0827 162.797 74.844 163.011 74.3351L161.168 73.5582ZM160.104 79.3258C160.452 78.8973 160.387 78.2675 159.959 77.919C159.53 77.5706 158.9 77.6354 158.552 78.0639L160.104 79.3258ZM155.082 81.0364C154.604 81.3129 154.44 81.9247 154.717 82.4027C154.993 82.8808 155.605 83.0442 156.083 82.7677L155.082 81.0364ZM151.616 84.3549C152.161 84.2664 152.532 83.7528 152.443 83.2076C152.355 82.6625 151.841 82.2922 151.296 82.3807L151.616 84.3549ZM149.263 106.03C148.255 106.03 147.261 106.002 146.28 105.945L146.164 107.941C147.184 108.001 148.217 108.03 149.263 108.03V106.03ZM140.371 105.229C138.394 104.856 136.48 104.355 134.628 103.724L133.983 105.617C135.928 106.279 137.934 106.805 140.001 107.194L140.371 105.229ZM129.171 101.402C128.294 100.949 127.433 100.463 126.587 99.9429L125.54 101.647C126.428 102.192 127.332 102.703 128.253 103.179L129.171 101.402ZM126.592 99.9463C125.754 99.4237 124.938 98.8713 124.145 98.2893L122.961 99.9016C123.795 100.514 124.653 101.094 125.534 101.644L126.592 99.9463ZM119.662 94.4424C118.285 93.0677 116.994 91.5772 115.789 89.9702L114.189 91.17C115.449 92.8509 116.803 94.4138 118.249 95.8578L119.662 94.4424ZM112.547 85.0016C112.064 84.1506 111.6 83.2742 111.155 82.3722L109.362 83.2578C109.824 84.193 110.305 85.1031 110.807 85.9881L112.547 85.0016ZM111.155 82.3722C110.63 81.3099 110.142 80.215 109.689 79.0874L107.833 79.8322C108.304 81.0064 108.814 82.1483 109.362 83.2578L111.155 82.3722ZM107.481 72.2244C106.916 69.9626 106.468 67.5932 106.139 65.1157L104.157 65.3788C104.495 67.926 104.956 70.3698 105.541 72.7095L107.481 72.2244ZM105.529 57.8862C105.482 56.6954 105.458 55.4834 105.458 54.25H103.458C103.458 55.5089 103.482 56.7474 103.531 57.9654L105.529 57.8862ZM105.458 54.25C105.458 53.0166 105.482 51.8046 105.529 50.6138L103.531 50.5346C103.482 51.7526 103.458 52.9911 103.458 54.25H105.458ZM106.139 43.3843C106.468 40.9068 106.916 38.5374 107.481 36.2756L105.541 35.7905C104.956 38.1302 104.495 40.574 104.157 43.1212L106.139 43.3843ZM109.689 29.4126C110.142 28.285 110.63 27.1901 111.155 26.1278L109.362 25.2422C108.814 26.3517 108.304 27.4936 107.833 28.6678L109.689 29.4126ZM111.155 26.1278C111.6 25.2258 112.064 24.3494 112.547 23.4984L110.807 22.5119C110.305 23.3969 109.824 24.307 109.362 25.2422L111.155 26.1278ZM115.789 18.5298C116.994 16.9228 118.285 15.4323 119.662 14.0576L118.249 12.6422C116.803 14.0862 115.449 15.649 114.189 17.33L115.789 18.5298ZM124.145 10.2107C124.938 9.62868 125.754 9.07634 126.592 8.55369L125.534 6.85631C124.653 7.40561 123.795 7.9863 122.961 8.59838L124.145 10.2107ZM126.587 8.55708C127.433 8.03732 128.294 7.55098 129.171 7.09802L128.253 5.32116C127.332 5.7969 126.428 6.3075 125.54 6.85292L126.587 8.55708ZM134.628 4.776C136.48 4.14533 138.394 3.64369 140.371 3.27148L140.001 1.30602C137.934 1.6953 135.928 2.22074 133.983 2.88272L134.628 4.776ZM146.28 2.55523C147.261 2.49843 148.255 2.46999 149.263 2.46999V0.469994C148.217 0.469994 147.184 0.499493 146.164 0.558578L146.28 2.55523ZM149.263 2.46999C150.26 2.46999 151.243 2.49842 152.211 2.55518L152.328 0.558601C151.32 0.4995 150.298 0.469994 149.263 0.469994V2.46999ZM158.049 3.27125C160.001 3.64341 161.891 4.145 163.719 4.77562L164.372 2.88495C162.451 2.22226 160.468 1.69629 158.424 1.30663L158.049 3.27125ZM169.1 7.09639C169.963 7.54882 170.811 8.03457 171.644 8.55369L172.702 6.85631C171.827 6.31103 170.936 5.80052 170.028 5.32483L169.1 7.09639ZM171.65 8.55708C172.497 9.07715 173.32 9.62658 174.119 10.2053L175.292 8.58512C174.451 7.97663 173.586 7.39923 172.697 6.85292L171.65 8.55708ZM178.647 14.0395C180.04 15.4136 181.344 16.9035 182.559 18.5098L184.154 17.3035C182.883 15.6222 181.515 14.0593 180.051 12.6155L178.647 14.0395ZM185.827 23.489C186.313 24.3429 186.78 25.2225 187.227 26.1278L189.02 25.2422C188.556 24.3029 188.071 23.3888 187.566 22.5001L185.827 23.489ZM187.227 26.1278C187.751 27.1901 188.24 28.285 188.692 29.4126L190.549 28.6678C190.077 27.4936 189.568 26.3517 189.02 25.2422L187.227 26.1278ZM190.9 36.2756C191.466 38.5374 191.913 40.9068 192.242 43.3843L194.225 43.1212C193.887 40.574 193.426 38.1302 192.841 35.7905L190.9 36.2756ZM192.852 50.6138C192.9 51.8046 192.923 53.0166 192.923 54.25H194.923C194.923 52.9911 194.899 51.7526 194.851 50.5346L192.852 50.6138ZM192.923 54.25C192.923 55.4834 192.9 56.6954 192.852 57.8862L194.851 57.9654C194.899 56.7474 194.923 55.5089 194.923 54.25H192.923ZM192.242 65.1157C191.913 67.5932 191.466 69.9626 190.9 72.2244L192.841 72.7095C193.426 70.3698 193.887 67.926 194.225 65.3788L192.242 65.1157ZM188.692 79.0874C188.24 80.215 187.751 81.3099 187.227 82.3722L189.02 83.2578C189.568 82.1483 190.077 81.0064 190.549 79.8322L188.692 79.0874ZM187.227 82.3722C186.78 83.2775 186.313 84.157 185.827 85.011L187.566 85.9999C188.071 85.1112 188.556 84.1971 189.02 83.2578L187.227 82.3722ZM182.559 89.9901C181.344 91.5965 180.04 93.0864 178.647 94.4605L180.051 95.8845C181.515 94.4407 182.883 92.8778 184.154 91.1965L182.559 89.9901ZM174.119 98.2947C173.32 98.8734 172.497 99.4229 171.65 99.9429L172.697 101.647C173.586 101.101 174.451 100.523 175.292 99.9149L174.119 98.2947ZM171.644 99.9463C170.811 100.465 169.963 100.951 169.1 101.404L170.028 103.175C170.936 102.699 171.827 102.189 172.702 101.644L171.644 99.9463ZM163.719 103.724C161.891 104.355 160.001 104.857 158.049 105.229L158.424 107.193C160.468 106.804 162.451 106.278 164.372 105.615L163.719 103.724ZM152.211 105.945C151.243 106.002 150.26 106.03 149.263 106.03V108.03C150.298 108.03 151.32 108 152.328 107.941L152.211 105.945ZM149.263 82.54C148.553 82.54 147.865 82.4853 147.199 82.377L146.878 84.351C147.654 84.4774 148.45 84.54 149.263 84.54V82.54ZM143.337 81.0214C142.749 80.6901 142.178 80.3031 141.623 79.8591L140.374 81.4209C141.009 81.9291 141.669 82.377 142.354 82.7634L143.337 81.0214ZM141.639 79.8718C141.024 79.3594 140.435 78.7518 139.874 78.0448L138.307 79.288C138.945 80.0916 139.628 80.7998 140.358 81.4082L141.639 79.8718ZM137.249 73.5268C136.911 72.7517 136.591 71.9221 136.29 71.0373L134.397 71.6827C134.714 72.6143 135.054 73.4953 135.415 74.325L137.249 73.5268ZM136.298 71.0629C135.913 69.824 135.582 68.4637 135.307 66.9802L133.34 67.3449C133.628 68.8947 133.976 70.3327 134.388 71.6571L136.298 71.0629ZM134.404 58.5278C134.344 57.1644 134.313 55.7385 134.313 54.25H132.313C132.313 55.7656 132.344 57.2212 132.406 58.6166L134.404 58.5278ZM134.313 54.25C134.313 52.758 134.343 51.3316 134.402 49.9705L132.404 49.8835C132.344 51.2761 132.313 52.7316 132.313 54.25H134.313ZM135.296 41.5173C135.573 40.0242 135.907 38.6669 136.296 37.4432L134.39 36.8368C133.972 38.1515 133.619 39.5908 133.329 41.1526L135.296 41.5173ZM136.29 37.4627C136.591 36.5779 136.911 35.7483 137.249 34.9732L135.415 34.175C135.054 35.0047 134.714 35.8857 134.397 36.8173L136.29 37.4627ZM139.874 30.4552C140.435 29.7482 141.024 29.1406 141.639 28.6282L140.358 27.0918C139.628 27.7002 138.945 28.4084 138.307 29.212L139.874 30.4552ZM141.623 28.6409C142.178 28.1969 142.749 27.8099 143.337 27.4786L142.354 25.7366C141.669 26.123 141.009 26.5709 140.374 27.0791L141.623 28.6409ZM147.199 26.123C147.865 26.0147 148.553 25.96 149.263 25.96V23.96C148.45 23.96 147.654 24.0226 146.878 24.149L147.199 26.123ZM149.263 25.96C149.966 25.96 150.644 26.0135 151.296 26.1193L151.616 24.1451C150.853 24.0213 150.068 23.96 149.263 23.96V25.96ZM155.082 27.4636C155.655 27.795 156.209 28.1828 156.743 28.6282L158.024 27.0918C157.405 26.5765 156.758 26.1229 156.083 25.7323L155.082 27.4636ZM156.759 28.6409C157.39 29.1463 157.989 29.7434 158.552 30.4361L160.104 29.1742C159.458 28.38 158.76 27.6804 158.008 27.0791L156.759 28.6409ZM161.168 34.9418C161.496 35.7198 161.802 36.5533 162.085 37.4432L163.991 36.8368C163.691 35.8946 163.365 35.0037 163.011 34.1649L161.168 34.9418ZM162.085 37.4432C162.475 38.6669 162.809 40.0242 163.086 41.5173L165.052 41.1526C164.763 39.5908 164.41 38.1515 163.991 36.8368L162.085 37.4432ZM163.979 49.9705C164.039 51.3316 164.068 52.758 164.068 54.25H166.068C166.068 52.7316 166.038 51.2761 165.977 49.8835L163.979 49.9705ZM164.068 54.25C164.068 55.7385 164.038 57.1644 163.977 58.5278L165.975 58.6166C166.037 57.2212 166.068 55.7656 166.068 54.25H164.068ZM163.075 66.9802C162.8 68.4637 162.469 69.824 162.083 71.0629L163.993 71.6571C164.405 70.3327 164.754 68.8947 165.042 67.3449L163.075 66.9802ZM162.085 71.0568C161.802 71.9467 161.496 72.7802 161.168 73.5582L163.011 74.3351C163.365 73.4963 163.691 72.6054 163.991 71.6632L162.085 71.0568ZM158.552 78.0639C157.989 78.7566 157.39 79.3537 156.759 79.8591L158.008 81.4209C158.76 80.8196 159.458 80.1199 160.104 79.3258L158.552 78.0639ZM156.743 79.8718C156.209 80.3172 155.655 80.705 155.082 81.0364L156.083 82.7677C156.758 82.3771 157.405 81.9235 158.024 81.4082L156.743 79.8718ZM151.296 82.3807C150.644 82.4865 149.966 82.54 149.263 82.54V84.54C150.068 84.54 150.853 84.4787 151.616 84.3549L151.296 82.3807ZM202.706 85.57H202.206V86.07H202.706V85.57ZM202.706 66.865L202.3 66.5732L202.206 66.704V66.865H202.706ZM248.236 3.49999V2.99999H247.98L247.83 3.20823L248.236 3.49999ZM277.961 3.49999L278.371 3.78616L278.92 2.99999H277.961V3.49999ZM233.736 66.865L233.593 67.3442L233.939 67.4473L234.146 67.1512L233.736 66.865ZM220.106 62.805V62.305L219.963 63.2842L220.106 62.805ZM299.421 62.805H299.921V62.305H299.421V62.805ZM299.421 85.57V86.07H299.921V85.57H299.421ZM256.356 105H255.856V105.5H256.356V105ZM256.356 85.57L255.856 85.5509L255.856 85.5604V85.57H256.356ZM257.226 62.805L257.726 62.8241L257.726 62.8146V62.805H257.226ZM257.226 45.55V45.05H256.726V45.55H257.226ZM284.341 45.55H284.841V45.05H284.341V45.55ZM284.341 105V105.5H284.841V105H284.341ZM203.206 80.8937C203.206 80.6176 202.982 80.3937 202.706 80.3937C202.43 80.3937 202.206 80.6176 202.206 80.8937H203.206ZM202.206 71.5413C202.206 71.8174 202.43 72.0413 202.706 72.0413C202.982 72.0413 203.206 71.8174 203.206 71.5413H202.206ZM205.389 63.9885C205.55 63.7643 205.499 63.4518 205.274 63.2907C205.05 63.1296 204.738 63.1807 204.576 63.405L205.389 63.9885ZM209.129 57.0685C208.968 57.2927 209.02 57.6052 209.244 57.7663C209.468 57.9274 209.78 57.8763 209.942 57.652L209.129 57.0685ZM214.495 51.3155C214.656 51.0913 214.605 50.7788 214.38 50.6177C214.156 50.4566 213.844 50.5077 213.682 50.732L214.495 51.3155ZM218.235 44.3955C218.074 44.6197 218.126 44.9322 218.35 45.0933C218.574 45.2544 218.886 45.2033 219.048 44.979L218.235 44.3955ZM223.601 38.6425C223.762 38.4183 223.711 38.1058 223.486 37.9447C223.262 37.7836 222.95 37.8347 222.788 38.059L223.601 38.6425ZM227.341 31.7225C227.18 31.9467 227.232 32.2592 227.456 32.4203C227.68 32.5814 227.992 32.5303 228.154 32.306L227.341 31.7225ZM232.707 25.9695C232.868 25.7453 232.817 25.4328 232.592 25.2717C232.368 25.1106 232.056 25.1617 231.894 25.386L232.707 25.9695ZM236.447 19.0495C236.286 19.2737 236.338 19.5862 236.562 19.7473C236.786 19.9084 237.098 19.8573 237.26 19.633L236.447 19.0495ZM241.813 13.2965C241.974 13.0723 241.923 12.7598 241.698 12.5987C241.474 12.4376 241.162 12.4887 241 12.713L241.813 13.2965ZM245.553 6.37648C245.392 6.60073 245.444 6.91315 245.668 7.07429C245.892 7.23542 246.204 7.18425 246.366 6.96L245.553 6.37648ZM251.952 3.99999C252.228 3.99999 252.452 3.77613 252.452 3.49999C252.452 3.22385 252.228 2.99999 251.952 2.99999V3.99999ZM259.383 2.99999C259.107 2.99999 258.883 3.22385 258.883 3.49999C258.883 3.77613 259.107 3.99999 259.383 3.99999V2.99999ZM266.814 3.99999C267.09 3.99999 267.314 3.77613 267.314 3.49999C267.314 3.22385 267.09 2.99999 266.814 2.99999V3.99999ZM274.245 2.99999C273.969 2.99999 273.745 3.22385 273.745 3.49999C273.745 3.77613 273.969 3.99999 274.245 3.99999V2.99999ZM275.34 6.38208C275.182 6.60852 275.237 6.92021 275.464 7.07825C275.69 7.2363 276.002 7.18085 276.16 6.95441L275.34 6.38208ZM271.737 13.2909C271.895 13.0645 271.84 12.7528 271.613 12.5947C271.387 12.4367 271.075 12.4921 270.917 12.7186L271.737 13.2909ZM266.495 19.0551C266.337 19.2815 266.392 19.5932 266.619 19.7513C266.845 19.9093 267.157 19.8539 267.315 19.6274L266.495 19.0551ZM262.892 25.9639C263.05 25.7375 262.995 25.4258 262.768 25.2677C262.542 25.1097 262.23 25.1651 262.072 25.3916L262.892 25.9639ZM257.65 31.7281C257.492 31.9545 257.547 32.2662 257.774 32.4243C258 32.5823 258.312 32.5269 258.47 32.3004L257.65 31.7281ZM254.047 38.6369C254.205 38.4105 254.15 38.0988 253.923 37.9407C253.697 37.7827 253.385 37.8381 253.227 38.0646L254.047 38.6369ZM248.805 44.4011C248.647 44.6275 248.702 44.9392 248.929 45.0973C249.155 45.2553 249.467 45.1999 249.625 44.9734L248.805 44.4011ZM245.202 51.3099C245.36 51.0835 245.305 50.7718 245.078 50.6137C244.852 50.4557 244.54 50.5111 244.382 50.7376L245.202 51.3099ZM239.96 57.0741C239.802 57.3005 239.857 57.6122 240.084 57.7703C240.31 57.9283 240.622 57.8729 240.78 57.6464L239.96 57.0741ZM236.357 63.9829C236.515 63.7565 236.46 63.4448 236.233 63.2867C236.007 63.1287 235.695 63.1841 235.537 63.4106L236.357 63.9829ZM230.471 65.3708C230.207 65.292 229.928 65.4426 229.849 65.7073C229.77 65.9719 229.921 66.2504 230.186 66.3292L230.471 65.3708ZM223.371 64.2992C223.635 64.378 223.914 64.2274 223.993 63.9627C224.072 63.6981 223.921 63.4196 223.656 63.3408L223.371 64.2992ZM224.072 63.305C224.348 63.305 224.572 63.0811 224.572 62.805C224.572 62.5289 224.348 62.305 224.072 62.305V63.305ZM232.003 62.305C231.727 62.305 231.503 62.5289 231.503 62.805C231.503 63.0811 231.727 63.305 232.003 63.305V62.305ZM239.935 63.305C240.211 63.305 240.435 63.0811 240.435 62.805C240.435 62.5289 240.211 62.305 239.935 62.305V63.305ZM247.866 62.305C247.59 62.305 247.366 62.5289 247.366 62.805C247.366 63.0811 247.59 63.305 247.866 63.305V62.305ZM255.798 63.305C256.074 63.305 256.298 63.0811 256.298 62.805C256.298 62.5289 256.074 62.305 255.798 62.305V63.305ZM263.729 62.305C263.453 62.305 263.229 62.5289 263.229 62.805C263.229 63.0811 263.453 63.305 263.729 63.305V62.305ZM271.661 63.305C271.937 63.305 272.161 63.0811 272.161 62.805C272.161 62.5289 271.937 62.305 271.661 62.305V63.305ZM279.592 62.305C279.316 62.305 279.092 62.5289 279.092 62.805C279.092 63.0811 279.316 63.305 279.592 63.305V62.305ZM287.524 63.305C287.8 63.305 288.024 63.0811 288.024 62.805C288.024 62.5289 287.8 62.305 287.524 62.305V63.305ZM295.455 62.305C295.179 62.305 294.955 62.5289 294.955 62.805C294.955 63.0811 295.179 63.305 295.455 63.305V62.305ZM298.921 68.4962C298.921 68.7724 299.145 68.9962 299.421 68.9962C299.697 68.9962 299.921 68.7724 299.921 68.4962H298.921ZM299.921 79.8787C299.921 79.6026 299.697 79.3787 299.421 79.3787C299.145 79.3787 298.921 79.6026 298.921 79.8787H299.921ZM295.391 85.07C295.115 85.07 294.891 85.2939 294.891 85.57C294.891 85.8461 295.115 86.07 295.391 86.07V85.07ZM287.332 86.07C287.608 86.07 287.832 85.8461 287.832 85.57C287.832 85.2939 287.608 85.07 287.332 85.07V86.07ZM279.272 85.07C278.996 85.07 278.772 85.2939 278.772 85.57C278.772 85.8461 278.996 86.07 279.272 86.07V85.07ZM271.212 86.07C271.489 86.07 271.712 85.8461 271.712 85.57C271.712 85.2939 271.489 85.07 271.212 85.07V86.07ZM263.153 85.07C262.877 85.07 262.653 85.2939 262.653 85.57C262.653 85.8461 262.877 86.07 263.153 86.07V85.07ZM255.093 86.07C255.369 86.07 255.593 85.8461 255.593 85.57C255.593 85.2939 255.369 85.07 255.093 85.07V86.07ZM247.034 85.07C246.758 85.07 246.534 85.2939 246.534 85.57C246.534 85.8461 246.758 86.07 247.034 86.07V85.07ZM238.974 86.07C239.25 86.07 239.474 85.8461 239.474 85.57C239.474 85.2939 239.25 85.07 238.974 85.07V86.07ZM230.915 85.07C230.638 85.07 230.415 85.2939 230.415 85.57C230.415 85.8461 230.638 86.07 230.915 86.07V85.07ZM222.855 86.07C223.131 86.07 223.355 85.8461 223.355 85.57C223.355 85.2939 223.131 85.07 222.855 85.07V86.07ZM214.795 85.07C214.519 85.07 214.295 85.2939 214.295 85.57C214.295 85.8461 214.519 86.07 214.795 86.07V85.07ZM206.736 86.07C207.012 86.07 207.236 85.8461 207.236 85.57C207.236 85.2939 207.012 85.07 206.736 85.07V86.07ZM256.856 100.143C256.856 99.8664 256.632 99.6425 256.356 99.6425C256.08 99.6425 255.856 99.8664 255.856 100.143H256.856ZM255.856 90.4275C255.856 90.7036 256.08 90.9275 256.356 90.9275C256.632 90.9275 256.856 90.7036 256.856 90.4275H255.856ZM257.073 79.8978C257.084 79.6219 256.869 79.3897 256.593 79.3791C256.317 79.3686 256.084 79.5837 256.074 79.8597L257.073 79.8978ZM256.509 68.4772C256.498 68.7531 256.713 68.9853 256.989 68.9959C257.265 69.0064 257.498 68.7913 257.508 68.5153L256.509 68.4772ZM257.726 58.4912C257.726 58.2151 257.502 57.9912 257.226 57.9912C256.95 57.9912 256.726 58.2151 256.726 58.4912H257.726ZM256.726 49.8637C256.726 50.1399 256.95 50.3637 257.226 50.3637C257.502 50.3637 257.726 50.1399 257.726 49.8637H256.726ZM260.615 46.05C260.892 46.05 261.115 45.8261 261.115 45.55C261.115 45.2739 260.892 45.05 260.615 45.05V46.05ZM267.394 45.05C267.118 45.05 266.894 45.2739 266.894 45.55C266.894 45.8261 267.118 46.05 267.394 46.05V45.05ZM274.173 46.05C274.449 46.05 274.673 45.8261 274.673 45.55C274.673 45.2739 274.449 45.05 274.173 45.05V46.05ZM280.952 45.05C280.676 45.05 280.452 45.2739 280.452 45.55C280.452 45.8261 280.676 46.05 280.952 46.05V45.05ZM283.841 49.2656C283.841 49.5418 284.065 49.7656 284.341 49.7656C284.617 49.7656 284.841 49.5418 284.841 49.2656H283.841ZM284.841 56.6969C284.841 56.4207 284.617 56.1969 284.341 56.1969C284.065 56.1969 283.841 56.4207 283.841 56.6969H284.841ZM283.841 64.1281C283.841 64.4043 284.065 64.6281 284.341 64.6281C284.617 64.6281 284.841 64.4043 284.841 64.1281H283.841ZM284.841 71.5594C284.841 71.2832 284.617 71.0594 284.341 71.0594C284.065 71.0594 283.841 71.2832 283.841 71.5594H284.841ZM283.841 78.9906C283.841 79.2668 284.065 79.4906 284.341 79.4906C284.617 79.4906 284.841 79.2668 284.841 78.9906H283.841ZM284.841 86.4219C284.841 86.1457 284.617 85.9219 284.341 85.9219C284.065 85.9219 283.841 86.1457 283.841 86.4219H284.841ZM283.841 93.8531C283.841 94.1293 284.065 94.3531 284.341 94.3531C284.617 94.3531 284.841 94.1293 284.841 93.8531H283.841ZM284.841 101.284C284.841 101.008 284.617 100.784 284.341 100.784C284.065 100.784 283.841 101.008 283.841 101.284H284.841ZM280.843 104.5C280.567 104.5 280.343 104.724 280.343 105C280.343 105.276 280.567 105.5 280.843 105.5V104.5ZM273.847 105.5C274.123 105.5 274.347 105.276 274.347 105C274.347 104.724 274.123 104.5 273.847 104.5V105.5ZM266.85 104.5C266.574 104.5 266.35 104.724 266.35 105C266.35 105.276 266.574 105.5 266.85 105.5V104.5ZM259.854 105.5C260.13 105.5 260.354 105.276 260.354 105C260.354 104.724 260.13 104.5 259.854 104.5V105.5ZM203.206 85.57V80.8937H202.206V85.57H203.206ZM203.206 71.5413V66.865H202.206V71.5413H203.206ZM203.112 67.1568L205.389 63.9885L204.576 63.405L202.3 66.5732L203.112 67.1568ZM209.942 57.652L214.495 51.3155L213.682 50.732L209.129 57.0685L209.942 57.652ZM219.048 44.979L223.601 38.6425L222.788 38.059L218.235 44.3955L219.048 44.979ZM228.154 32.306L232.707 25.9695L231.894 25.386L227.341 31.7225L228.154 32.306ZM237.26 19.633L241.813 13.2965L241 12.713L236.447 19.0495L237.26 19.633ZM246.366 6.96L248.642 3.79175L247.83 3.20823L245.553 6.37648L246.366 6.96ZM248.236 3.99999H251.952V2.99999H248.236V3.99999ZM259.383 3.99999H266.814V2.99999H259.383V3.99999ZM274.245 3.99999H277.961V2.99999H274.245V3.99999ZM277.551 3.21383L275.34 6.38208L276.16 6.95441L278.371 3.78616L277.551 3.21383ZM270.917 12.7186L266.495 19.0551L267.315 19.6274L271.737 13.2909L270.917 12.7186ZM262.072 25.3916L257.65 31.7281L258.47 32.3004L262.892 25.9639L262.072 25.3916ZM253.227 38.0646L248.805 44.4011L249.625 44.9734L254.047 38.6369L253.227 38.0646ZM244.382 50.7376L239.96 57.0741L240.78 57.6464L245.202 51.3099L244.382 50.7376ZM235.537 63.4106L233.326 66.5788L234.146 67.1512L236.357 63.9829L235.537 63.4106ZM233.879 66.3858L230.471 65.3708L230.186 66.3292L233.593 67.3442L233.879 66.3858ZM223.656 63.3408L220.249 62.3258L219.963 63.2842L223.371 64.2992L223.656 63.3408ZM220.106 63.305H224.072V62.305H220.106V63.305ZM232.003 63.305H239.935V62.305H232.003V63.305ZM247.866 63.305H255.798V62.305H247.866V63.305ZM263.729 63.305H271.661V62.305H263.729V63.305ZM279.592 63.305H287.524V62.305H279.592V63.305ZM295.455 63.305H299.421V62.305H295.455V63.305ZM298.921 62.805V68.4962H299.921V62.805H298.921ZM298.921 79.8787V85.57H299.921V79.8787H298.921ZM299.421 85.07H295.391V86.07H299.421V85.07ZM287.332 85.07H279.272V86.07H287.332V85.07ZM271.212 85.07H263.153V86.07H271.212V85.07ZM255.093 85.07H247.034V86.07H255.093V85.07ZM238.974 85.07H230.915V86.07H238.974V85.07ZM222.855 85.07H214.795V86.07H222.855V85.07ZM206.736 85.07H202.706V86.07H206.736V85.07ZM256.856 105V100.143H255.856V105H256.856ZM256.856 90.4275V85.57H255.856V90.4275H256.856ZM256.856 85.5891L257.073 79.8978L256.074 79.8597L255.856 85.5509L256.856 85.5891ZM257.508 68.5153L257.726 62.8241L256.726 62.7859L256.509 68.4772L257.508 68.5153ZM257.726 62.805V58.4912H256.726V62.805H257.726ZM257.726 49.8637V45.55H256.726V49.8637H257.726ZM257.226 46.05H260.615V45.05H257.226V46.05ZM267.394 46.05H274.173V45.05H267.394V46.05ZM280.952 46.05H284.341V45.05H280.952V46.05ZM283.841 45.55V49.2656H284.841V45.55H283.841ZM283.841 56.6969V64.1281H284.841V56.6969H283.841ZM283.841 71.5594V78.9906H284.841V71.5594H283.841ZM283.841 86.4219V93.8531H284.841V86.4219H283.841ZM283.841 101.284V105H284.841V101.284H283.841ZM284.341 104.5H280.843V105.5H284.341V104.5ZM273.847 104.5H266.85V105.5H273.847V104.5ZM259.854 104.5H256.356V105.5H259.854V104.5ZM202.706 85.57H201.706V86.57H202.706V85.57ZM202.706 66.865L201.894 66.2815L201.706 66.543V66.865H202.706ZM248.236 3.49999V2.49999H247.723L247.424 2.91647L248.236 3.49999ZM277.961 3.49999L278.781 4.07232L279.878 2.49999H277.961V3.49999ZM233.736 66.865L233.451 67.8234L234.143 68.0296L234.556 67.4373L233.736 66.865ZM220.106 62.805V61.805L219.821 63.7634L220.106 62.805ZM299.421 62.805H300.421V61.805H299.421V62.805ZM299.421 85.57V86.57H300.421V85.57H299.421ZM256.356 105H255.356V106H256.356V105ZM256.356 85.57L255.357 85.5318L255.356 85.5509V85.57H256.356ZM257.226 62.805L258.225 62.8432L258.226 62.8241V62.805H257.226ZM257.226 45.55V44.55H256.226V45.55H257.226ZM284.341 45.55H285.341V44.55H284.341V45.55ZM284.341 105V106H285.341V105H284.341ZM203.706 80.8937C203.706 80.3415 203.258 79.8937 202.706 79.8937C202.154 79.8937 201.706 80.3415 201.706 80.8937H203.706ZM201.706 71.5413C201.706 72.0935 202.154 72.5413 202.706 72.5413C203.258 72.5413 203.706 72.0935 203.706 71.5413H201.706ZM205.795 64.2803C206.117 63.8318 206.015 63.2069 205.566 62.8847C205.118 62.5624 204.493 62.6647 204.17 63.1132L205.795 64.2803ZM208.723 56.7767C208.401 57.2252 208.503 57.8501 208.952 58.1723C209.4 58.4946 210.025 58.3923 210.348 57.9438L208.723 56.7767ZM214.901 51.6073C215.223 51.1588 215.121 50.5339 214.672 50.2116C214.224 49.8894 213.599 49.9917 213.276 50.4402L214.901 51.6073ZM217.829 44.1037C217.507 44.5522 217.609 45.1771 218.058 45.4993C218.507 45.8216 219.131 45.7193 219.454 45.2708L217.829 44.1037ZM224.007 38.9343C224.329 38.4858 224.227 37.8609 223.778 37.5387C223.33 37.2164 222.705 37.3187 222.382 37.7672L224.007 38.9343ZM226.935 31.4307C226.613 31.8792 226.715 32.5041 227.164 32.8263C227.613 33.1486 228.237 33.0463 228.56 32.5978L226.935 31.4307ZM233.113 26.2613C233.435 25.8128 233.333 25.1879 232.884 24.8657C232.436 24.5434 231.811 24.6457 231.488 25.0942L233.113 26.2613ZM236.041 18.7577C235.719 19.2062 235.821 19.8311 236.27 20.1533C236.719 20.4756 237.343 20.3733 237.666 19.9248L236.041 18.7577ZM242.219 13.5883C242.541 13.1398 242.439 12.5149 241.99 12.1926C241.542 11.8704 240.917 11.9727 240.594 12.4212L242.219 13.5883ZM245.147 6.08472C244.825 6.53323 244.927 7.15807 245.376 7.48034C245.825 7.80261 246.449 7.70027 246.772 7.25176L245.147 6.08472ZM251.952 4.49999C252.504 4.49999 252.952 4.05228 252.952 3.49999C252.952 2.94771 252.504 2.49999 251.952 2.49999V4.49999ZM259.383 2.49999C258.831 2.49999 258.383 2.94771 258.383 3.49999C258.383 4.05228 258.831 4.49999 259.383 4.49999V2.49999ZM266.814 4.49999C267.366 4.49999 267.814 4.05228 267.814 3.49999C267.814 2.94771 267.366 2.49999 266.814 2.49999V4.49999ZM274.245 2.49999C273.693 2.49999 273.245 2.94771 273.245 3.49999C273.245 4.05228 273.693 4.49999 274.245 4.49999V2.49999ZM274.93 6.09592C274.614 6.5488 274.725 7.17218 275.177 7.48827C275.63 7.80436 276.254 7.69346 276.57 7.24057L274.93 6.09592ZM272.147 13.5771C272.463 13.1242 272.352 12.5008 271.9 12.1847C271.447 11.8686 270.823 11.9795 270.507 12.4324L272.147 13.5771ZM266.085 18.7689C265.769 19.2218 265.88 19.8452 266.332 20.1613C266.785 20.4774 267.409 20.3665 267.725 19.9136L266.085 18.7689ZM263.302 26.2501C263.618 25.7972 263.507 25.1738 263.055 24.8577C262.602 24.5416 261.978 24.6525 261.662 25.1054L263.302 26.2501ZM257.24 31.4419C256.924 31.8948 257.035 32.5182 257.487 32.8343C257.94 33.1504 258.564 33.0395 258.88 32.5866L257.24 31.4419ZM254.457 38.9231C254.773 38.4702 254.662 37.8468 254.21 37.5307C253.757 37.2146 253.133 37.3255 252.817 37.7784L254.457 38.9231ZM248.395 44.1149C248.079 44.5678 248.19 45.1912 248.642 45.5073C249.095 45.8234 249.719 45.7125 250.035 45.2596L248.395 44.1149ZM245.612 51.5961C245.928 51.1432 245.817 50.5198 245.365 50.2037C244.912 49.8876 244.288 49.9985 243.972 50.4514L245.612 51.5961ZM239.55 56.7879C239.234 57.2408 239.345 57.8642 239.797 58.1803C240.25 58.4964 240.874 58.3855 241.19 57.9326L239.55 56.7879ZM236.767 64.2691C237.083 63.8162 236.972 63.1928 236.52 62.8767C236.067 62.5606 235.443 62.6715 235.127 63.1244L236.767 64.2691ZM230.614 64.8916C230.085 64.7339 229.528 65.0352 229.37 65.5645C229.212 66.0938 229.514 66.6507 230.043 66.8084L230.614 64.8916ZM223.228 64.7784C223.757 64.9361 224.314 64.6348 224.472 64.1055C224.63 63.5762 224.328 63.0193 223.799 62.8616L223.228 64.7784ZM224.072 63.805C224.624 63.805 225.072 63.3573 225.072 62.805C225.072 62.2527 224.624 61.805 224.072 61.805V63.805ZM232.003 61.805C231.451 61.805 231.003 62.2527 231.003 62.805C231.003 63.3573 231.451 63.805 232.003 63.805V61.805ZM239.935 63.805C240.487 63.805 240.935 63.3573 240.935 62.805C240.935 62.2527 240.487 61.805 239.935 61.805V63.805ZM247.866 61.805C247.314 61.805 246.866 62.2527 246.866 62.805C246.866 63.3573 247.314 63.805 247.866 63.805V61.805ZM255.798 63.805C256.35 63.805 256.798 63.3573 256.798 62.805C256.798 62.2527 256.35 61.805 255.798 61.805V63.805ZM263.729 61.805C263.177 61.805 262.729 62.2527 262.729 62.805C262.729 63.3573 263.177 63.805 263.729 63.805V61.805ZM271.661 63.805C272.213 63.805 272.661 63.3573 272.661 62.805C272.661 62.2527 272.213 61.805 271.661 61.805V63.805ZM279.592 61.805C279.04 61.805 278.592 62.2527 278.592 62.805C278.592 63.3573 279.04 63.805 279.592 63.805V61.805ZM287.524 63.805C288.076 63.805 288.524 63.3573 288.524 62.805C288.524 62.2527 288.076 61.805 287.524 61.805V63.805ZM295.455 61.805C294.903 61.805 294.455 62.2527 294.455 62.805C294.455 63.3573 294.903 63.805 295.455 63.805V61.805ZM298.421 68.4962C298.421 69.0485 298.869 69.4962 299.421 69.4962C299.973 69.4962 300.421 69.0485 300.421 68.4962H298.421ZM300.421 79.8787C300.421 79.3265 299.973 78.8787 299.421 78.8787C298.869 78.8787 298.421 79.3265 298.421 79.8787H300.421ZM295.391 84.57C294.839 84.57 294.391 85.0177 294.391 85.57C294.391 86.1223 294.839 86.57 295.391 86.57V84.57ZM287.332 86.57C287.884 86.57 288.332 86.1223 288.332 85.57C288.332 85.0177 287.884 84.57 287.332 84.57V86.57ZM279.272 84.57C278.72 84.57 278.272 85.0177 278.272 85.57C278.272 86.1223 278.72 86.57 279.272 86.57V84.57ZM271.212 86.57C271.765 86.57 272.212 86.1223 272.212 85.57C272.212 85.0177 271.765 84.57 271.212 84.57V86.57ZM263.153 84.57C262.601 84.57 262.153 85.0177 262.153 85.57C262.153 86.1223 262.601 86.57 263.153 86.57V84.57ZM255.093 86.57C255.646 86.57 256.093 86.1223 256.093 85.57C256.093 85.0177 255.646 84.57 255.093 84.57V86.57ZM247.034 84.57C246.481 84.57 246.034 85.0177 246.034 85.57C246.034 86.1223 246.481 86.57 247.034 86.57V84.57ZM238.974 86.57C239.526 86.57 239.974 86.1223 239.974 85.57C239.974 85.0177 239.526 84.57 238.974 84.57V86.57ZM230.915 84.57C230.362 84.57 229.915 85.0177 229.915 85.57C229.915 86.1223 230.362 86.57 230.915 86.57V84.57ZM222.855 86.57C223.407 86.57 223.855 86.1223 223.855 85.57C223.855 85.0177 223.407 84.57 222.855 84.57V86.57ZM214.795 84.57C214.243 84.57 213.795 85.0177 213.795 85.57C213.795 86.1223 214.243 86.57 214.795 86.57V84.57ZM206.736 86.57C207.288 86.57 207.736 86.1223 207.736 85.57C207.736 85.0177 207.288 84.57 206.736 84.57V86.57ZM257.356 100.143C257.356 99.5902 256.908 99.1425 256.356 99.1425C255.804 99.1425 255.356 99.5902 255.356 100.143H257.356ZM255.356 90.4275C255.356 90.9798 255.804 91.4275 256.356 91.4275C256.908 91.4275 257.356 90.9798 257.356 90.4275H255.356ZM257.573 79.9169C257.594 79.3651 257.164 78.9006 256.612 78.8795C256.06 78.8584 255.595 79.2887 255.574 79.8406L257.573 79.9169ZM256.009 68.4581C255.988 69.0099 256.418 69.4744 256.97 69.4955C257.522 69.5166 257.987 69.0863 258.008 68.5344L256.009 68.4581ZM258.226 58.4912C258.226 57.939 257.778 57.4912 257.226 57.4912C256.674 57.4912 256.226 57.939 256.226 58.4912H258.226ZM256.226 49.8637C256.226 50.416 256.674 50.8637 257.226 50.8637C257.778 50.8637 258.226 50.416 258.226 49.8637H256.226ZM260.615 46.55C261.168 46.55 261.615 46.1023 261.615 45.55C261.615 44.9977 261.168 44.55 260.615 44.55V46.55ZM267.394 44.55C266.842 44.55 266.394 44.9977 266.394 45.55C266.394 46.1023 266.842 46.55 267.394 46.55V44.55ZM274.173 46.55C274.725 46.55 275.173 46.1023 275.173 45.55C275.173 44.9977 274.725 44.55 274.173 44.55V46.55ZM280.952 44.55C280.399 44.55 279.952 44.9977 279.952 45.55C279.952 46.1023 280.399 46.55 280.952 46.55V44.55ZM283.341 49.2656C283.341 49.8179 283.789 50.2656 284.341 50.2656C284.893 50.2656 285.341 49.8179 285.341 49.2656H283.341ZM285.341 56.6969C285.341 56.1446 284.893 55.6969 284.341 55.6969C283.789 55.6969 283.341 56.1446 283.341 56.6969H285.341ZM283.341 64.1281C283.341 64.6804 283.789 65.1281 284.341 65.1281C284.893 65.1281 285.341 64.6804 285.341 64.1281H283.341ZM285.341 71.5594C285.341 71.0071 284.893 70.5594 284.341 70.5594C283.789 70.5594 283.341 71.0071 283.341 71.5594H285.341ZM283.341 78.9906C283.341 79.5429 283.789 79.9906 284.341 79.9906C284.893 79.9906 285.341 79.5429 285.341 78.9906H283.341ZM285.341 86.4219C285.341 85.8696 284.893 85.4219 284.341 85.4219C283.789 85.4219 283.341 85.8696 283.341 86.4219H285.341ZM283.341 93.8531C283.341 94.4054 283.789 94.8531 284.341 94.8531C284.893 94.8531 285.341 94.4054 285.341 93.8531H283.341ZM285.341 101.284C285.341 100.732 284.893 100.284 284.341 100.284C283.789 100.284 283.341 100.732 283.341 101.284H285.341ZM280.843 104C280.291 104 279.843 104.448 279.843 105C279.843 105.552 280.291 106 280.843 106V104ZM273.847 106C274.399 106 274.847 105.552 274.847 105C274.847 104.448 274.399 104 273.847 104V106ZM266.85 104C266.298 104 265.85 104.448 265.85 105C265.85 105.552 266.298 106 266.85 106V104ZM259.854 106C260.406 106 260.854 105.552 260.854 105C260.854 104.448 260.406 104 259.854 104V106ZM203.706 85.57V80.8937H201.706V85.57H203.706ZM203.706 71.5413V66.865H201.706V71.5413H203.706ZM203.518 67.4485L205.795 64.2803L204.17 63.1132L201.894 66.2815L203.518 67.4485ZM210.348 57.9438L214.901 51.6073L213.276 50.4402L208.723 56.7767L210.348 57.9438ZM219.454 45.2708L224.007 38.9343L222.382 37.7672L217.829 44.1037L219.454 45.2708ZM228.56 32.5978L233.113 26.2613L231.488 25.0942L226.935 31.4307L228.56 32.5978ZM237.666 19.9248L242.219 13.5883L240.594 12.4212L236.041 18.7577L237.666 19.9248ZM246.772 7.25176L249.048 4.08352L247.424 2.91647L245.147 6.08472L246.772 7.25176ZM248.236 4.49999H251.952V2.49999H248.236V4.49999ZM259.383 4.49999H266.814V2.49999H259.383V4.49999ZM274.245 4.49999H277.961V2.49999H274.245V4.49999ZM277.141 2.92767L274.93 6.09592L276.57 7.24057L278.781 4.07232L277.141 2.92767ZM270.507 12.4324L266.085 18.7689L267.725 19.9136L272.147 13.5771L270.507 12.4324ZM261.662 25.1054L257.24 31.4419L258.88 32.5866L263.302 26.2501L261.662 25.1054ZM252.817 37.7784L248.395 44.1149L250.035 45.2596L254.457 38.9231L252.817 37.7784ZM243.972 50.4514L239.55 56.7879L241.19 57.9326L245.612 51.5961L243.972 50.4514ZM235.127 63.1244L232.916 66.2927L234.556 67.4373L236.767 64.2691L235.127 63.1244ZM234.021 65.9066L230.614 64.8916L230.043 66.8084L233.451 67.8234L234.021 65.9066ZM223.799 62.8616L220.391 61.8466L219.821 63.7634L223.228 64.7784L223.799 62.8616ZM220.106 63.805H224.072V61.805H220.106V63.805ZM232.003 63.805H239.935V61.805H232.003V63.805ZM247.866 63.805H255.798V61.805H247.866V63.805ZM263.729 63.805H271.661V61.805H263.729V63.805ZM279.592 63.805H287.524V61.805H279.592V63.805ZM295.455 63.805H299.421V61.805H295.455V63.805ZM298.421 62.805V68.4962H300.421V62.805H298.421ZM298.421 79.8787V85.57H300.421V79.8787H298.421ZM299.421 84.57H295.391V86.57H299.421V84.57ZM287.332 84.57H279.272V86.57H287.332V84.57ZM271.212 84.57H263.153V86.57H271.212V84.57ZM255.093 84.57H247.034V86.57H255.093V84.57ZM238.974 84.57H230.915V86.57H238.974V84.57ZM222.855 84.57H214.795V86.57H222.855V84.57ZM206.736 84.57H202.706V86.57H206.736V84.57ZM257.356 105V100.143H255.356V105H257.356ZM257.356 90.4275V85.57H255.356V90.4275H257.356ZM257.355 85.6082L257.573 79.9169L255.574 79.8406L255.357 85.5318L257.355 85.6082ZM258.008 68.5344L258.225 62.8432L256.227 62.7668L256.009 68.4581L258.008 68.5344ZM258.226 62.805V58.4912H256.226V62.805H258.226ZM258.226 49.8637V45.55H256.226V49.8637H258.226ZM257.226 46.55H260.615V44.55H257.226V46.55ZM267.394 46.55H274.173V44.55H267.394V46.55ZM280.952 46.55H284.341V44.55H280.952V46.55ZM283.341 45.55V49.2656H285.341V45.55H283.341ZM283.341 56.6969V64.1281H285.341V56.6969H283.341ZM283.341 71.5594V78.9906H285.341V71.5594H283.341ZM283.341 86.4219V93.8531H285.341V86.4219H283.341ZM283.341 101.284V105H285.341V101.284H283.341ZM284.341 104H280.843V106H284.341V104ZM273.847 104H266.85V106H273.847V104ZM259.854 104H256.356V106H259.854V104Z" fill="black" mask="url(#path-1-outside-1_1333_1183)"/>
</svg>
