<svg width="48" height="48" viewBox="0 0 48 48" fill="none" xmlns="http://www.w3.org/2000/svg">
<g clip-path="url(#clip0_2267_5739)">
<path opacity="0.4" d="M24.001 43.1991C35.0466 43.1991 44.0009 34.6029 44.0009 23.9991C44.0009 13.3952 35.0466 4.79907 24.001 4.79907C12.9553 4.79907 4.00098 13.3952 4.00098 23.9991C4.00098 34.6029 12.9553 43.1991 24.001 43.1991Z" fill="#007337"/>
<path d="M31.4203 31.5443C31.1602 31.5443 30.9003 31.4867 30.6603 31.3331L24.4603 27.7811C22.9203 26.8979 21.7803 24.9587 21.7803 23.2499V15.3779C21.7803 14.5907 22.4602 13.9379 23.2803 13.9379C24.1003 13.9379 24.7803 14.5907 24.7803 15.3779V23.2499C24.7803 23.9411 25.3803 24.9587 26.0002 25.3043L32.2003 28.8563C32.9203 29.2595 33.1402 30.1427 32.7202 30.8339C32.4202 31.2947 31.9203 31.5443 31.4203 31.5443Z" fill="#007337"/>
</g>
<defs>
<clipPath id="clip0_2267_5739">
<rect width="48" height="48" fill="white"/>
</clipPath>
</defs>
</svg>
