<svg width="627" height="118" viewBox="0 0 627 118" fill="none" xmlns="http://www.w3.org/2000/svg">
<path d="M120.01 87.2343C104.691 87.2343 92.2274 74.6531 92.2274 59.1896C92.2274 43.8313 104.712 31.3342 120.073 31.3342C124.033 31.3342 127.847 32.1548 131.432 33.7537L131.765 33.9009V31.3132C131.765 25.1699 136.726 20.1626 142.812 20.1626H146.522V35.037L131.078 34.995V35.4788L131.244 35.521C141.144 38.1929 147.793 47.7024 147.793 59.1686C147.772 74.6531 135.329 87.2343 120.01 87.2343ZM120.01 44.5256C111.986 44.5256 105.483 51.1107 105.483 59.1896C105.483 67.2896 112.007 73.8537 120.01 73.8537C128.014 73.8537 134.537 67.2685 134.537 59.1896C134.537 51.1107 128.014 44.5256 120.01 44.5256ZM95.3954 111.408L146.418 101.835V87.7603L95.3954 97.3329V111.408Z" fill="#00391A"/>
<path d="M456.444 87.2343C441.125 87.2343 428.661 74.6531 428.661 59.1896C428.661 43.8313 441.146 31.3342 456.506 31.3342C460.466 31.3342 464.281 32.1548 467.866 33.7537L468.199 33.9009V31.3132C468.199 25.1699 473.159 20.1626 479.245 20.1626H482.955V35.037L467.511 34.995V35.4788L467.678 35.521C477.578 38.1929 484.227 47.7024 484.227 59.1686C484.227 74.6531 471.763 87.2343 456.444 87.2343ZM456.444 44.5256C448.44 44.5256 441.917 51.1107 441.917 59.1896C441.917 67.2896 448.44 73.8537 456.444 73.8537C464.447 73.8537 470.971 67.2685 470.971 59.1896C470.992 51.1107 464.468 44.5256 456.444 44.5256ZM431.85 111.408L482.872 101.835V87.7603L431.85 97.3329V111.408Z" fill="#00391A"/>
<path d="M0.5 86.4984V33.144H12.7762V41.7489L13.193 41.8331L13.589 40.8652C14.9854 37.3938 17.6949 34.7219 21.0089 33.5017C24.302 32.3024 27.6784 32.1973 30.8465 32.1973H32.9099V45.0941C32.4722 45.0941 31.3884 45.0941 31.3884 45.0941C30.8465 45.0941 30.3046 45.0941 29.7627 45.0941C22.1136 45.0941 13.9642 45.9356 13.9642 55.9712C13.9642 59.8844 13.9642 83.8686 13.9642 86.5195H0.5V86.4984Z" fill="#00391A"/>
<path d="M60.1297 87.2342C57.9621 87.2342 50.3338 86.8555 43.7268 81.9534C37.2448 77.1566 33.8475 69.751 33.6391 59.9469C33.4724 51.9521 36.3069 44.3361 41.4341 39.0554C46.2279 34.1112 52.689 31.5024 60.1297 31.5024H60.4007C65.6947 31.5445 70.4467 33.438 74.5526 37.1619L74.9486 37.5195V33.1435H87.2665V86.4978H74.9486V79.9969L74.5318 80.5859C72.3851 83.5524 68.2374 87.108 60.6717 87.2553C60.4841 87.2342 60.2965 87.2342 60.1297 87.2342ZM60.4424 44.6937C52.4389 44.6937 45.9152 51.2789 45.9152 59.3578C45.9152 67.4367 52.4389 74.0218 60.4424 74.0218C68.4667 74.0218 74.9695 67.4367 74.9695 59.3578C74.9695 51.2789 68.4458 44.6937 60.4424 44.6937Z" fill="#00391A"/>
<path d="M336.353 87.2342C334.185 87.2342 326.557 86.8555 319.95 81.9534C313.468 77.1566 310.07 69.7509 309.862 59.9469C309.695 51.9521 312.53 44.3361 317.657 39.0553C322.451 34.1112 328.912 31.5024 336.353 31.5024H336.624C341.918 31.5445 346.67 33.438 350.775 37.1619L351.171 37.5195V20.2256H363.489V86.4978H351.171V79.9968L350.755 80.5859C348.608 83.5524 344.46 87.108 336.895 87.2552C336.707 87.2342 336.54 87.2342 336.353 87.2342ZM336.665 44.6937C328.662 44.6937 322.138 51.2789 322.138 59.3578C322.138 67.4367 328.662 74.0218 336.665 74.0218C344.669 74.0218 351.192 67.4367 351.192 59.3578C351.192 51.2789 344.69 44.6937 336.665 44.6937Z" fill="#00391A"/>
<path d="M396.005 87.2342C393.838 87.2342 386.209 86.8555 379.602 81.9534C373.12 77.1566 369.723 69.751 369.515 59.9469C369.348 51.9521 372.182 44.3361 377.31 39.0554C382.103 34.1112 388.565 31.5024 396.005 31.5024H396.276C401.57 31.5445 406.322 33.438 410.428 37.1619L410.824 37.5195V33.1435H423.142V86.4978H410.824V79.9969L410.407 80.5859C408.261 83.5524 404.113 87.108 396.547 87.2553C396.339 87.2342 396.172 87.2342 396.005 87.2342ZM396.297 44.6937C388.294 44.6937 381.77 51.2789 381.77 59.3578C381.77 67.4367 388.294 74.0218 396.297 74.0218C404.321 74.0218 410.824 67.4367 410.824 59.3578C410.824 51.2789 404.321 44.6937 396.297 44.6937Z" fill="#00391A"/>
<path d="M182.166 87.2347C181.999 87.2347 181.832 87.2347 181.666 87.2347C174.1 87.0664 169.952 83.5108 167.805 80.5654L167.389 79.9763V86.4773H155.071V20.2051H167.389V37.499L167.785 37.1413C171.87 33.4385 176.643 31.5239 181.937 31.4818H182.207C189.919 31.4818 196.568 34.2169 201.424 39.3714C206.426 44.6732 209.052 52.163 208.677 59.9263C207.343 86.4772 184.75 87.2347 182.166 87.2347ZM181.895 44.6942C173.87 44.6942 167.347 51.2794 167.347 59.3583C167.347 67.4372 173.87 74.0223 181.895 74.0223C189.898 74.0223 196.422 67.4372 196.422 59.3583C196.422 51.2794 189.898 44.6942 181.895 44.6942Z" fill="#00391A"/>
<path d="M239.208 87.2342C237.04 87.2342 229.412 86.8555 222.784 81.9534C216.302 77.1566 212.926 69.751 212.696 59.9469C212.53 51.9521 215.364 44.3361 220.492 39.0554C225.285 34.1112 231.746 31.5024 239.187 31.5024H239.458C244.752 31.5445 249.504 33.438 253.61 37.1619L254.006 37.5195V33.1435H266.324V86.4978H254.006V79.9969L253.589 80.5859C251.442 83.5524 247.295 87.108 239.729 87.2553C239.562 87.2342 239.395 87.2342 239.208 87.2342ZM239.521 44.6937C231.517 44.6937 224.993 51.2789 224.993 59.3578C224.993 67.4367 231.517 74.0218 239.521 74.0218C247.524 74.0218 254.048 67.4367 254.048 59.3578C254.048 51.2789 247.545 44.6937 239.521 44.6937Z" fill="#00391A"/>
<path d="M306.858 43.6843V33.1229H294.749V20.2051H282.473V33.1229H271.03V43.7264H282.452V44.042C282.452 45.1991 282.494 62.43 282.494 68.4681C282.494 82.3116 287.85 87.1295 296.666 87.2136C300.564 87.2557 303.878 86.7718 306.879 85.783V72.5075C302.19 73.7488 294.812 75.2005 294.812 67.9631V46.5246C294.082 44.7363 290.497 44.3155 289.768 44.2524L289.559 44.2314V43.6843H306.858Z" fill="#00391A"/>
<path d="M559.325 30.4279L544.547 4.61328L533.168 11.2405L547.945 37.0761C551.154 34.0676 555.031 31.7533 559.325 30.4279Z" fill="#00391A"/>
<path d="M538.463 58.9993C538.463 56.7272 538.734 54.497 539.213 52.3721H509.679V65.6475H539.213C538.713 63.5016 538.463 61.2715 538.463 58.9993Z" fill="#00391A"/>
<path d="M546.362 38.6768L520.767 23.7603L514.202 35.2474L539.776 50.1639C541.089 45.8299 543.381 41.9167 546.362 38.6768Z" fill="#00391A"/>
<path d="M594.716 45.9351L619.727 31.3552L617.601 27.6313L592.59 42.2112C593.382 43.4104 594.111 44.6517 594.716 45.9351Z" fill="#00391A"/>
<path d="M584.692 34.2365L599.136 8.98991L596.259 7.22266L581.795 32.5113C582.795 33.0372 583.754 33.6053 584.692 34.2365Z" fill="#00391A"/>
<path d="M568.079 29.1034C570.33 29.1034 572.539 29.3769 574.644 29.8608V0.0488281H570.205H565.953H561.514V29.8608C563.619 29.3559 565.807 29.1034 568.079 29.1034Z" fill="#00391A"/>
<path d="M580.835 85.9916L596.654 110.733L601.615 107.556L585.858 82.8989C584.295 84.0981 582.606 85.129 580.835 85.9916Z" fill="#00391A"/>
<path d="M539.776 67.8364L514.202 82.7529L520.767 94.2402L546.362 79.3236C543.381 76.0626 541.089 72.1704 539.776 67.8364Z" fill="#00391A"/>
<path d="M597.531 55.9062C597.635 56.9161 597.698 57.947 597.698 58.999C597.698 59.7143 597.656 60.4296 597.614 61.1449H626.502V55.9062H597.531Z" fill="#00391A"/>
<path d="M592.59 75.7678L617.601 90.3478L620.039 85.8454L595.07 71.2866C594.362 72.8435 593.549 74.3582 592.59 75.7678Z" fill="#00391A"/>
<path d="M547.945 80.9224L533.168 106.758L544.547 113.385L559.325 87.5706C555.031 86.2241 551.154 83.9309 547.945 80.9224Z" fill="#00391A"/>
<path d="M568.079 88.8966C565.828 88.8966 563.619 88.6231 561.514 88.1392V117.951H565.953H570.205H574.644V88.1392C572.518 88.6231 570.33 88.8966 568.079 88.8966Z" fill="#00391A"/>
<path d="M568.083 74.9677C576.82 74.9677 583.903 67.8184 583.903 58.9993C583.903 50.1801 576.82 43.0308 568.083 43.0308C559.347 43.0308 552.264 50.1801 552.264 58.9993C552.264 67.8184 559.347 74.9677 568.083 74.9677Z" fill="#00391A"/>
</svg>
