<svg width="765" height="1476" viewBox="0 0 765 1476" fill="none" xmlns="http://www.w3.org/2000/svg">
<g clip-path="url(#clip0_2401_372)">
<g filter="url(#filter0_d_2401_372)">
<path d="M1792.48 1045.71C1784.4 1062.11 1775.88 1078.17 1766.95 1093.88L1404.09 900.714C1421.33 889.828 1438.05 878.139 1454.23 865.621L1792.48 1045.71ZM1388.38 910.34C1371.21 920.52 1353.62 929.867 1335.61 938.396L1697.63 1198.82C1708.42 1184.66 1718.85 1170.15 1728.86 1155.27L1388.38 910.34ZM1322.78 944.321C1305.09 952.246 1287.07 959.374 1268.75 965.661L1614.77 1293.62C1627.17 1281.26 1639.24 1268.5 1650.95 1255.39L1322.78 944.321ZM1258.61 969.054C1240.78 974.875 1222.7 979.914 1204.39 984.142L1520.01 1376.33C1533.71 1365.94 1547.11 1355.12 1560.28 1343.92L1258.61 969.054ZM1196.52 985.921C1178.83 989.819 1160.93 992.968 1142.9 995.311L1415.16 1445.62C1429.86 1437.24 1444.34 1428.49 1458.58 1419.33L1196.52 985.921ZM1137.01 996.062C1119.63 998.227 1102.12 999.643 1084.54 1000.33L1302.18 1500.31C1317.59 1494.05 1332.83 1487.42 1347.84 1480.39L1137.01 996.062ZM1080.32 1000.5C1063.41 1001.09 1046.44 1000.98 1029.43 1000.2L1182.95 1539.51C1198.74 1535.45 1214.4 1530.99 1229.95 1526.13L1080.32 1000.5ZM1026.57 1000.04C1010.2 999.251 993.843 997.798 977.483 995.681L1059.47 1562.57C1075.36 1560.72 1091.17 1558.41 1106.91 1555.73L1026.57 1000.04ZM975.581 995.447C959.877 993.399 944.175 990.775 928.536 987.51L933.831 1568.95C949.525 1569.23 965.176 1569.08 980.793 1568.54L975.581 995.447ZM927.036 987.191C914.092 984.495 901.194 981.379 888.326 977.837C886.201 977.461 884.087 977.056 881.953 976.659L808.34 1558.35C823.58 1560.68 838.78 1562.64 854.04 1564.17L927.036 987.191ZM880.075 976.277C865.508 973.353 850.946 969.45 836.522 964.588L685.577 1531.03C700.067 1535.29 714.599 1539.18 729.137 1542.71L880.075 976.277ZM818.277 957.851C809.43 954.32 800.781 950.467 792.401 946.335L568.071 1487.56C576.393 1491.44 584.825 1495.14 593.388 1498.68C596.025 1499.75 598.625 1500.82 601.252 1501.87C603.743 1502.86 606.225 1503.84 608.728 1504.8L833.131 963.392C828.179 961.679 823.23 959.827 818.277 957.851ZM753.67 924.09C752.867 923.56 752.054 923.008 751.257 922.462L460.117 1424.13C471.743 1432.59 483.704 1440.68 496.006 1448.41L788.523 944.386C776.434 938.232 764.794 931.435 753.67 924.09ZM714.205 893.728L366.587 1341.13C376.225 1351.54 386.211 1361.65 396.583 1371.41L747.436 919.888C735.768 911.801 724.679 903.053 714.205 893.728ZM681.366 860.444L291.407 1242.57C298.792 1254.46 306.581 1266.13 314.766 1277.55L710.193 890.097C699.937 880.754 690.319 870.861 681.366 860.444ZM653.081 822.939L237.005 1133.3C241.992 1146.24 247.404 1159.05 253.214 1171.64L677.114 855.44C668.469 845.041 660.447 834.175 653.081 822.939ZM629.933 781.812L204.402 1018.3C206.926 1031.8 209.881 1045.23 213.241 1058.53L648.933 816.401C641.944 805.228 635.61 793.687 629.933 781.812ZM612.343 737.897L193.513 902.303C193.547 915.952 194.03 929.569 194.945 943.114L626.225 773.822C620.971 762.116 616.314 750.141 612.343 737.897ZM600.746 692.121L203.075 789.707C200.751 803.079 198.849 816.445 197.38 829.826L609.494 728.674C605.936 716.665 603.018 704.457 600.746 692.121ZM595.363 645.463L230.704 684.511C226.206 697.191 222.127 709.916 218.459 722.665L599.046 681.903C597.194 669.875 595.951 657.722 595.363 645.463ZM596.201 598.785L272.949 589.751C266.708 601.228 260.76 612.98 255.144 624.952L594.997 634.448C594.78 622.617 595.162 610.692 596.201 598.785ZM603.159 552.78L326.413 507.274C318.586 517.506 311.074 528.003 303.863 538.796L597.344 587.058C598.686 575.622 600.631 564.164 603.159 552.78ZM616.185 507.797L387.755 437.865C378.759 446.685 369.969 455.779 361.48 465.169L606.169 540.101C608.942 529.288 612.286 518.493 616.185 507.797ZM453.915 381.299C444.042 388.632 434.384 396.26 424.949 404.205L621.431 494.12C625.623 483.873 630.226 473.913 635.253 464.296L453.915 381.299ZM521.638 337.137C511.263 343.009 501.072 349.164 491.065 355.603L642.452 451.119C647.798 441.84 653.504 432.845 659.618 424.187L521.638 337.137ZM588.671 304.094C578.125 308.55 567.691 313.295 557.421 318.334L668.795 411.711C675.111 403.467 681.778 395.573 688.744 388.026L588.671 304.094ZM653.765 280.516C643.264 283.677 632.874 287.128 622.536 290.844L700.17 376.185C707.314 369.111 714.743 362.379 722.419 355.99L653.765 280.516ZM716.298 264.896C706.028 266.906 695.788 269.191 685.651 271.745L736.24 345.035C743.999 339.186 751.999 333.697 760.201 328.534L716.298 264.896ZM775.955 256.004C766.001 257.003 756.095 258.231 746.232 259.704L776.36 318.913C784.56 314.326 792.927 310.069 801.46 306.139L775.955 256.004ZM832.553 252.717C823.035 252.841 813.551 253.187 804.092 253.736L819.742 298.347C828.188 295.031 836.761 292.01 845.436 289.346L832.553 252.717ZM886.043 254.195C877.002 253.563 867.985 253.133 858.962 252.893L865.369 283.822C873.852 281.728 882.444 279.976 891.076 278.519L886.043 254.195ZM936.548 259.732C928.014 258.444 919.467 257.362 910.918 256.419L912.264 275.596C920.633 274.665 929.091 274.084 937.542 273.781L936.548 259.732ZM984.37 268.749C976.336 266.909 968.318 265.25 960.26 263.732L959.62 273.716C967.722 273.938 975.848 274.45 983.969 275.24L984.37 268.749ZM1030.19 280.993C1022.68 278.678 1015.12 276.52 1007.58 274.492L1006.83 278.203C1014.51 279.482 1022.18 280.982 1029.85 282.765L1030.19 280.993ZM1053.58 288.646L1053.43 289.162C1060.54 291.336 1067.65 293.771 1074.72 296.452L1074.73 296.437C1067.71 293.687 1060.64 291.094 1053.58 288.646ZM1361.68 -217.019L1361.16 -215.983C1367.56 -212.626 1373.87 -209.145 1380.1 -205.591L1380.97 -207.343C1374.6 -210.658 1368.16 -213.873 1361.68 -217.019ZM1471.31 -154.336L1466.09 -146.688C1471.48 -142.333 1476.77 -137.912 1481.98 -133.383L1488.36 -142.704C1482.72 -146.651 1477.04 -150.513 1471.31 -154.336ZM1571.63 -77.3262L1554.98 -58.8874C1559.26 -53.7682 1563.43 -48.6035 1567.49 -43.3573L1586.27 -64.1346C1581.46 -68.5741 1576.56 -72.9774 1571.63 -77.3262ZM1660.62 12.53L1624.46 43.0674C1627.58 48.6496 1630.57 54.2922 1633.48 60.0013L1672.72 26.8619C1668.75 22.0382 1664.72 17.2629 1660.62 12.53ZM1736.6 113.419L1672.72 154.143C1674.63 159.98 1676.47 165.859 1678.19 171.762L1746.2 128.415C1743.07 123.367 1739.87 118.361 1736.6 113.419ZM1798.41 223.441L1699.12 269.482C1699.91 275.332 1700.63 281.218 1701.23 287.092L1805.54 238.732C1803.22 233.623 1800.83 228.505 1798.41 223.441ZM1845.01 340.734L1704.16 384.424C1703.91 390.084 1703.58 395.76 1703.14 401.415L1849.77 355.954C1848.23 350.86 1846.65 345.783 1845.01 340.734ZM1875.58 463.288L1689.44 494.719C1688.26 500.006 1687.03 505.275 1685.7 510.553L1878.11 478.075C1877.3 473.131 1876.47 468.196 1875.58 463.288ZM1889.48 589.099L1657.69 596.694C1655.78 601.495 1653.78 606.246 1651.76 610.954L1889.99 603.145C1889.86 598.472 1889.68 593.781 1889.48 589.099ZM1886.26 715.761L1612.41 687.689C1609.95 691.851 1607.4 695.998 1604.79 700.085L1884.92 728.824C1885.41 724.471 1885.85 720.129 1886.26 715.761ZM1865.9 840.817L1556.97 766.225C1554.08 769.729 1551.16 773.201 1548.17 776.612L1863.08 852.641C1864.04 848.722 1864.97 844.769 1865.9 840.817ZM1829.05 961.622L1494.39 831.901C1491.6 834.448 1488.8 837.005 1485.96 839.477C1485.64 839.752 1485.34 840.018 1485.02 840.293L1825.02 972.089C1826.43 968.607 1827.77 965.116 1829.05 961.622Z" fill="url(#paint0_linear_2401_372)" shape-rendering="crispEdges"/>
</g>
<g filter="url(#filter1_d_2401_372)">
<path d="M130.826 160.068L493.208 354.14C475.935 364.972 459.198 376.612 442.99 389.075L105.187 208.152C113.311 191.78 121.872 175.758 130.826 160.068ZM169.059 98.7957L508.945 344.568C526.146 334.443 543.752 325.144 561.784 316.663L200.387 55.3611C189.557 69.4805 179.107 83.9617 169.059 98.7957ZM283.494 -39.1642C271.053 -26.8423 258.965 -14.1343 247.216 -1.04645L574.655 310.811C592.344 302.928 610.378 295.847 628.718 289.623L283.494 -39.1642ZM378.447 -121.615C364.723 -111.256 351.291 -100.485 338.133 -89.3064L638.866 286.253C656.711 280.479 674.826 275.477 693.144 271.327L378.447 -121.615ZM439.978 -164.422L700.975 269.552C718.698 265.707 736.58 262.606 754.631 260.309L483.465 -190.601C468.741 -182.252 454.243 -173.55 439.978 -164.422ZM596.577 -244.95C581.162 -238.731 565.901 -232.153 550.874 -225.15L760.528 259.565C777.91 257.455 795.404 256.072 812.989 255.425L596.577 -244.95ZM715.89 -283.826C700.093 -279.807 684.401 -275.395 668.858 -270.61L817.224 255.296C834.133 254.764 851.097 254.885 868.107 255.723L715.89 -283.826ZM839.435 -306.544C823.544 -304.749 807.714 -302.492 791.985 -299.828L870.987 255.875C887.327 256.726 903.701 258.238 920.049 260.387L839.435 -306.544ZM965.089 -312.569C949.392 -312.883 933.738 -312.778 918.124 -312.29L921.945 260.636C937.658 262.707 953.336 265.394 968.985 268.681L965.089 -312.569ZM1044.85 -307.581L970.44 268.981C983.365 271.724 996.261 274.893 1009.13 278.471C1011.26 278.847 1013.38 279.238 1015.5 279.665L1090.52 -301.624C1075.3 -304.006 1060.09 -305.996 1044.85 -307.581ZM1213.23 -273.989C1198.76 -278.294 1184.22 -282.206 1169.7 -285.778L1017.43 280.05C1032.01 283.033 1046.55 286.945 1060.96 291.854L1213.23 -273.989ZM1305.34 -241.418C1302.71 -242.502 1300.11 -243.575 1297.48 -244.623C1294.99 -245.617 1292.51 -246.59 1290.01 -247.569L1064.3 293.047C1069.26 294.781 1074.23 296.661 1079.15 298.64C1087.98 302.2 1096.63 306.069 1105.02 310.222L1330.63 -230.24C1322.32 -234.136 1313.89 -237.848 1305.34 -241.418ZM1402.61 -190.886L1108.88 312.165C1120.98 318.376 1132.59 325.176 1143.68 332.544C1144.49 333.074 1145.3 333.626 1146.1 334.171L1438.48 -166.513C1426.85 -175.002 1414.9 -183.145 1402.61 -190.886ZM1501.83 -113.641L1149.89 336.77C1161.55 344.885 1172.61 353.656 1183.05 363.019L1531.78 -83.2701C1522.17 -93.7169 1512.19 -103.841 1501.83 -113.641ZM1583.43 -19.5829L1187.11 366.668C1197.31 376.022 1206.89 385.968 1215.82 396.406L1606.7 15.4704C1599.36 3.54928 1591.58 -8.14519 1583.43 -19.5829ZM1644.73 86.4586L1220.05 401.418C1228.7 411.815 1236.68 422.682 1244.02 433.954L1660.84 124.834C1655.87 111.882 1650.5 99.0659 1644.73 86.4586ZM1684.43 199.647L1248.16 440.506C1255.09 451.688 1261.42 463.257 1267.05 475.146L1693.15 239.884C1690.68 226.372 1687.76 212.941 1684.43 199.647ZM1702.45 315.067L1270.78 483.105C1276.02 494.837 1280.64 506.827 1284.57 519.085L1703.81 355.885C1703.76 342.22 1703.33 328.61 1702.45 315.067ZM1699.74 428.304L1287.41 528.285C1290.93 540.293 1293.81 552.516 1296.04 564.867L1693.95 468.388C1696.31 455.033 1698.23 441.683 1699.74 428.304ZM1678.39 535.363L1297.71 575.069C1299.56 587.145 1300.77 599.297 1301.31 611.549L1666.07 573.472C1670.59 560.824 1674.68 548.11 1678.39 535.363ZM1301.64 622.528C1301.83 634.379 1301.43 646.272 1300.35 658.178L1623.54 668.11L1623.55 668.094C1629.85 656.646 1635.82 644.927 1641.47 632.957L1301.64 622.528ZM1299.18 669.904C1297.8 681.339 1295.85 692.757 1293.3 704.161L1569.93 750.397C1577.78 740.182 1585.32 729.717 1592.55 718.956L1299.18 669.904ZM1290.25 716.817C1287.43 727.644 1284.07 738.393 1280.16 749.079L1508.45 819.611C1517.47 810.807 1526.25 801.747 1534.78 792.38L1290.25 716.817ZM1274.88 762.753C1270.66 772.984 1266.04 782.934 1260.99 792.534L1442.1 875.982C1452.01 868.686 1461.7 861.089 1471.14 853.17L1274.88 762.753ZM1253.75 805.673C1248.38 814.936 1242.66 823.906 1236.52 832.548L1374.28 919.953C1384.64 914.115 1394.86 908.011 1404.91 901.573L1253.75 805.673ZM1227.31 845.021C1220.97 853.235 1214.29 861.119 1207.29 868.651L1307.16 952.8C1317.75 948.38 1328.19 943.658 1338.46 938.659L1227.31 845.021ZM1195.86 880.429L1173.56 900.559L1242.04 976.187C1252.55 973.05 1262.96 969.629 1273.29 965.946L1195.86 880.429ZM1159.72 911.445C1151.94 917.263 1143.95 922.771 1135.7 927.898L1179.46 991.615C1189.74 989.628 1199.98 987.381 1210.12 984.851L1159.72 911.445ZM1119.52 937.485C1111.31 942.048 1102.94 946.282 1094.4 950.188L1119.79 1000.4C1129.73 999.419 1139.66 998.199 1149.52 996.764L1119.52 937.485ZM1076.15 957.9C1067.68 961.222 1059.1 964.219 1050.41 966.839L1063.19 1003.5C1072.71 1003.42 1082.22 1003.08 1091.69 1002.57L1076.15 957.9ZM1030.48 972.307C1021.96 974.365 1013.39 976.128 1004.72 977.55L1009.69 1001.87C1018.74 1002.53 1027.78 1002.99 1036.79 1003.26L1030.48 972.307ZM983.531 980.396C975.152 981.304 966.701 981.869 958.246 982.135L959.182 996.155C967.726 997.464 976.285 998.605 984.813 999.558L983.531 980.396ZM936.166 982.16C928.07 981.921 919.941 981.372 911.826 980.566L911.395 987.042C919.43 988.884 927.461 990.601 935.498 992.128L936.166 982.16ZM888.97 977.535C881.325 976.252 873.645 974.709 865.994 972.916L865.633 974.697C873.14 977.027 880.692 979.2 888.21 981.238L888.97 977.535ZM842.388 966.454C835.286 964.25 828.178 961.799 821.109 959.118L821.103 959.133C828.112 961.877 835.19 964.491 842.241 966.955L842.388 966.454ZM514.555 1460.15L513.645 1461.9C520.009 1465.21 526.433 1468.46 532.923 1471.62L533.441 1470.59C527.059 1467.24 520.768 1463.75 514.555 1460.15ZM412.835 1387.7L406.449 1397C412.058 1400.97 417.755 1404.85 423.476 1408.67L428.714 1401.07C423.34 1396.69 418.053 1392.21 412.835 1387.7ZM327.553 1297.47L308.742 1318.17C313.534 1322.66 318.423 1327.07 323.348 1331.4L340.036 1313.04C335.765 1307.91 331.606 1302.71 327.553 1297.47ZM261.795 1193.97L222.469 1227.01C226.422 1231.84 230.451 1236.61 234.534 1241.34L270.748 1210.93C267.678 1205.33 264.699 1199.68 261.795 1193.97ZM217.342 1082.13L149.236 1125.27C152.369 1130.31 155.541 1135.31 158.794 1140.31L222.794 1099.79C220.862 1093.92 219.06 1088.04 217.342 1082.13ZM194.588 966.776L90.1722 1014.81C92.4868 1019.94 94.8529 1025.06 97.2641 1030.12L196.666 984.384C195.875 978.557 195.18 972.663 194.588 966.776ZM192.957 852.488L46.2176 897.549C47.7413 902.636 49.3165 907.726 50.9458 912.768L191.882 869.486C192.148 863.818 192.507 858.135 192.957 852.488ZM210.661 743.432L18.1683 775.38C18.9433 780.326 19.8028 785.235 20.6715 790.166L206.884 759.263C208.07 753.963 209.326 748.708 210.661 743.432ZM6.62412 650.314C6.72572 654.973 6.8817 659.672 7.0799 664.353L238.894 657.384C240.824 652.59 242.823 647.842 244.871 643.148L6.62412 650.314ZM11.9801 524.695C11.4716 529.041 11.0204 533.375 10.6085 537.742L284.385 566.553C286.865 562.399 289.411 558.253 292.03 554.189L11.9801 524.695ZM34.1209 400.963C33.1471 404.896 32.1884 408.835 31.2599 412.786L340.02 488.202C342.914 484.721 345.859 481.242 348.823 477.805L34.1209 400.963ZM72.4518 281.66C71.0459 285.141 69.7124 288.615 68.4031 292.117L402.744 422.705C405.512 420.153 408.356 417.631 411.182 415.155C411.501 414.88 411.8 414.614 412.12 414.339L72.4518 281.66Z" fill="url(#paint1_linear_2401_372)" shape-rendering="crispEdges"/>
</g>
</g>
<defs>
<filter id="filter0_d_2401_372" x="179.513" y="-226.019" width="1724.47" height="1814.11" filterUnits="userSpaceOnUse" color-interpolation-filters="sRGB">
<feFlood flood-opacity="0" result="BackgroundImageFix"/>
<feColorMatrix in="SourceAlpha" type="matrix" values="0 0 0 0 0 0 0 0 0 0 0 0 0 0 0 0 0 0 127 0" result="hardAlpha"/>
<feOffset dy="5"/>
<feGaussianBlur stdDeviation="7"/>
<feComposite in2="hardAlpha" operator="out"/>
<feColorMatrix type="matrix" values="0 0 0 0 0.116704 0 0 0 0 0.116704 0 0 0 0 0.116704 0 0 0 0.3 0"/>
<feBlend mode="normal" in2="BackgroundImageFix" result="effect1_dropShadow_2401_372"/>
<feBlend mode="normal" in="SourceGraphic" in2="effect1_dropShadow_2401_372" result="shape"/>
</filter>
<filter id="filter1_d_2401_372" x="-7.37598" y="-321.747" width="1725.18" height="1812.37" filterUnits="userSpaceOnUse" color-interpolation-filters="sRGB">
<feFlood flood-opacity="0" result="BackgroundImageFix"/>
<feColorMatrix in="SourceAlpha" type="matrix" values="0 0 0 0 0 0 0 0 0 0 0 0 0 0 0 0 0 0 127 0" result="hardAlpha"/>
<feOffset dy="5"/>
<feGaussianBlur stdDeviation="7"/>
<feComposite in2="hardAlpha" operator="out"/>
<feColorMatrix type="matrix" values="0 0 0 0 0.116704 0 0 0 0 0.116704 0 0 0 0 0.116704 0 0 0 0.3 0"/>
<feBlend mode="normal" in2="BackgroundImageFix" result="effect1_dropShadow_2401_372"/>
<feBlend mode="normal" in="SourceGraphic" in2="effect1_dropShadow_2401_372" result="shape"/>
</filter>
<linearGradient id="paint0_linear_2401_372" x1="966.251" y1="-119.13" x2="157.632" y2="1516.04" gradientUnits="userSpaceOnUse">
<stop offset="0.0646642" stop-color="#A0FB00" stop-opacity="0.95"/>
<stop offset="0.773946" stop-color="#169321" stop-opacity="0"/>
</linearGradient>
<linearGradient id="paint1_linear_2401_372" x1="681.617" y1="-577.023" x2="267.181" y2="999.793" gradientUnits="userSpaceOnUse">
<stop offset="0.405" stop-color="#169321" stop-opacity="0"/>
<stop offset="0.879438" stop-color="#A0FB00" stop-opacity="0.95"/>
</linearGradient>
<clipPath id="clip0_2401_372">
<rect width="765" height="1476" fill="white"/>
</clipPath>
</defs>
</svg>
