<svg width="49" height="48" viewBox="0 0 49 48" fill="none" xmlns="http://www.w3.org/2000/svg">
<g clip-path="url(#clip0_2267_5718)">
<path d="M38.167 16V20.2C37.287 20.08 36.287 20.02 35.167 20V16C35.167 9.7 33.387 5.5 24.667 5.5C15.947 5.5 14.167 9.7 14.167 16V20C13.047 20.02 12.047 20.08 11.167 20.2V16C11.167 10.2 12.567 2.5 24.667 2.5C36.767 2.5 38.167 10.2 38.167 16Z" fill="#007337"/>
<path opacity="0.4" d="M44.667 30V34C44.667 42 42.667 44 34.667 44H14.667C6.66699 44 4.66699 42 4.66699 34V30C4.66699 23.32 6.06699 20.82 11.167 20.2C12.047 20.08 13.047 20.02 14.167 20H35.167C36.287 20.02 37.287 20.08 38.167 20.2C43.267 20.82 44.667 23.32 44.667 30Z" fill="#007337"/>
<path d="M16.667 34.0007C16.407 34.0007 16.147 33.9407 15.907 33.8407C15.647 33.7407 15.447 33.6007 15.247 33.4207C14.887 33.0407 14.667 32.5207 14.667 32.0007C14.667 31.7407 14.727 31.4807 14.827 31.2407C14.927 31.0007 15.067 30.7807 15.247 30.5807C15.447 30.4007 15.647 30.2607 15.907 30.1607C16.647 29.8407 17.527 30.0207 18.087 30.5807C18.267 30.7807 18.407 31.0007 18.507 31.2407C18.607 31.4807 18.667 31.7407 18.667 32.0007C18.667 32.5207 18.447 33.0407 18.087 33.4207C17.707 33.7807 17.187 34.0007 16.667 34.0007Z" fill="#007337"/>
<path d="M24.667 33.9997C24.127 33.9997 23.627 33.7797 23.247 33.4197C23.067 33.2197 22.927 32.9997 22.827 32.7597C22.727 32.5197 22.667 32.2597 22.667 31.9997C22.667 31.4597 22.887 30.9597 23.247 30.5797C23.987 29.8397 25.327 29.8397 26.087 30.5797C26.447 30.9597 26.667 31.4597 26.667 31.9997C26.667 32.2597 26.607 32.5197 26.507 32.7597C26.407 32.9997 26.267 33.2197 26.087 33.4197C25.707 33.7797 25.187 33.9997 24.667 33.9997Z" fill="#007337"/>
<path d="M32.667 33.9997C32.147 33.9997 31.627 33.7797 31.247 33.4197C30.887 33.0397 30.667 32.5397 30.667 31.9997C30.667 31.4597 30.887 30.9597 31.247 30.5797C32.007 29.8397 33.347 29.8397 34.087 30.5797C34.167 30.6797 34.247 30.7797 34.327 30.8997C34.407 30.9997 34.467 31.1197 34.507 31.2397C34.567 31.3597 34.607 31.4797 34.627 31.5997C34.647 31.7397 34.667 31.8797 34.667 31.9997C34.667 32.5197 34.447 33.0397 34.087 33.4197C33.707 33.7797 33.187 33.9997 32.667 33.9997Z" fill="#007337"/>
</g>
<defs>
<clipPath id="clip0_2267_5718">
<rect width="48" height="48" fill="white" transform="translate(0.666992)"/>
</clipPath>
</defs>
</svg>
