<svg width="223" height="43" viewBox="0 0 223 43" fill="none" xmlns="http://www.w3.org/2000/svg">
<path d="M42.573 31.464C37.1159 31.464 32.676 27.0241 32.676 21.5669C32.676 16.1469 37.1234 11.7367 42.5953 11.7367C44.006 11.7367 45.3647 12.0262 46.6418 12.5905L46.7606 12.6425V11.7292C46.7606 9.56124 48.5276 7.79416 50.6956 7.79416H52.0172V13.0434L46.5156 13.0286V13.1993L46.5749 13.2142C50.1017 14.1571 52.4701 17.5131 52.4701 21.5595C52.4627 27.0241 48.0302 31.464 42.573 31.464ZM42.573 16.3919C39.7145 16.3919 37.3981 18.7159 37.3981 21.5669C37.3981 24.4254 39.722 26.7419 42.573 26.7419C45.4241 26.7419 47.748 24.418 47.748 21.5669C47.748 18.7159 45.4241 16.3919 42.573 16.3919ZM33.8045 39.995L51.9801 36.6167V31.6496L33.8045 35.0278V39.995Z" fill="#00391A"/>
<path d="M162.422 31.464C156.965 31.464 152.525 27.0241 152.525 21.5669C152.525 16.1469 156.972 11.7367 162.444 11.7367C163.855 11.7367 165.214 12.0262 166.491 12.5905L166.61 12.6425V11.7292C166.61 9.56124 168.377 7.79416 170.545 7.79416H171.866V13.0434L166.364 13.0286V13.1993L166.424 13.2142C169.951 14.1571 172.319 17.5131 172.319 21.5595C172.319 27.0241 167.879 31.464 162.422 31.464ZM162.422 16.3919C159.571 16.3919 157.247 18.7159 157.247 21.5669C157.247 24.4254 159.571 26.7419 162.422 26.7419C165.273 26.7419 167.597 24.418 167.597 21.5669C167.604 18.7159 165.28 16.3919 162.422 16.3919ZM153.661 39.995L171.836 36.6167V31.6496L153.661 35.0278V39.995Z" fill="#00391A"/>
<path d="M0 31.2042V12.3753H4.37314V15.4119L4.52162 15.4416L4.66269 15.1001C5.16015 13.875 6.12535 12.9321 7.30587 12.5015C8.47897 12.0783 9.68177 12.0411 10.8103 12.0411H11.5454V16.5925C11.3895 16.5925 11.0034 16.5925 11.0034 16.5925C10.8103 16.5925 10.6173 16.5925 10.4242 16.5925C7.69939 16.5925 4.79635 16.8895 4.79635 20.431C4.79635 21.812 4.79635 30.2761 4.79635 31.2116H0V31.2042Z" fill="#00391A"/>
<path d="M21.242 31.4642C20.4698 31.4642 17.7524 31.3305 15.3988 29.6006C13.0897 27.9078 11.8795 25.2943 11.8052 21.8344C11.7458 19.013 12.7556 16.3253 14.582 14.4617C16.2897 12.7169 18.5914 11.7962 21.242 11.7962H21.3385C23.2244 11.8111 24.9172 12.4793 26.3798 13.7935L26.5209 13.9197V12.3754H30.9089V31.2043H26.5209V28.9101L26.3724 29.118C25.6077 30.1649 24.1302 31.4196 21.435 31.4716C21.3682 31.4642 21.3014 31.4642 21.242 31.4642ZM21.3533 16.4515C18.5023 16.4515 16.1783 18.7754 16.1783 21.6265C16.1783 24.4776 18.5023 26.8015 21.3533 26.8015C24.2118 26.8015 26.5283 24.4776 26.5283 21.6265C26.5283 18.7754 24.2044 16.4515 21.3533 16.4515Z" fill="#00391A"/>
<path d="M119.641 31.4641C118.869 31.4641 116.152 31.3305 113.798 29.6005C111.489 27.9077 110.279 25.2942 110.204 21.8343C110.145 19.0129 111.155 16.3252 112.981 14.4616C114.689 12.7168 116.991 11.7962 119.641 11.7962H119.738C121.624 11.811 123.316 12.4792 124.779 13.7934L124.92 13.9196V7.81653H129.308V31.2042H124.92V28.91L124.772 29.1179C124.007 30.1648 122.529 31.4196 119.834 31.4715C119.767 31.4641 119.708 31.4641 119.641 31.4641ZM119.753 16.4514C116.901 16.4514 114.578 18.7753 114.578 21.6264C114.578 24.4775 116.901 26.8014 119.753 26.8014C122.604 26.8014 124.928 24.4775 124.928 21.6264C124.928 18.7753 122.611 16.4514 119.753 16.4514Z" fill="#00391A"/>
<path d="M140.891 31.4642C140.118 31.4642 137.401 31.3305 135.047 29.6006C132.738 27.9078 131.528 25.2943 131.454 21.8344C131.394 19.013 132.404 16.3253 134.231 14.4617C135.938 12.7169 138.24 11.7962 140.891 11.7962H140.987C142.873 11.8111 144.566 12.4793 146.028 13.7935L146.169 13.9197V12.3754H150.557V31.2043H146.169V28.9101L146.021 29.118C145.256 30.1649 143.779 31.4196 141.084 31.4716C141.009 31.4642 140.95 31.4642 140.891 31.4642ZM140.994 16.4515C138.143 16.4515 135.819 18.7754 135.819 21.6265C135.819 24.4776 138.143 26.8015 140.994 26.8015C143.853 26.8015 146.169 24.4776 146.169 21.6265C146.169 18.7754 143.853 16.4515 140.994 16.4515Z" fill="#00391A"/>
<path d="M64.7134 31.4641C64.654 31.4641 64.5946 31.4641 64.5352 31.4641C61.8401 31.4047 60.3626 30.1499 59.5978 29.1105L59.4493 28.9026V31.1968H55.0613V7.80908H59.4493V13.9122L59.5904 13.7859C61.0456 12.4792 62.7459 11.8035 64.6318 11.7887H64.7283C67.4754 11.7887 69.8439 12.7539 71.5738 14.5729C73.3557 16.444 74.2912 19.0871 74.1576 21.8268C73.6824 31.1968 65.6341 31.4641 64.7134 31.4641ZM64.6169 16.4514C61.7584 16.4514 59.4345 18.7753 59.4345 21.6264C59.4345 24.4775 61.7584 26.8014 64.6169 26.8014C67.468 26.8014 69.7919 24.4775 69.7919 21.6264C69.7919 18.7753 67.468 16.4514 64.6169 16.4514Z" fill="#00391A"/>
<path d="M85.0347 31.4642C84.2625 31.4642 81.5451 31.3305 79.1841 29.6006C76.875 27.9078 75.6722 25.2943 75.5905 21.8344C75.5311 19.013 76.5409 16.3253 78.3673 14.4617C80.075 12.7169 82.3767 11.7962 85.0273 11.7962H85.1238C87.0097 11.8111 88.7025 12.4793 90.1651 13.7935L90.3062 13.9197V12.3754H94.6942V31.2043H90.3062V28.9101L90.1577 29.118C89.393 30.1649 87.9154 31.4196 85.2203 31.4716C85.1609 31.4642 85.1015 31.4642 85.0347 31.4642ZM85.1461 16.4515C82.295 16.4515 79.9711 18.7754 79.9711 21.6265C79.9711 24.4776 82.295 26.8015 85.1461 26.8015C87.9971 26.8015 90.3211 24.4776 90.3211 21.6265C90.3211 18.7754 88.0046 16.4515 85.1461 16.4515Z" fill="#00391A"/>
<path d="M109.135 16.095V12.3678H104.821V7.80908H100.448V12.3678H96.3722V16.1099H100.441V16.2212C100.441 16.6296 100.456 22.7104 100.456 24.8413C100.456 29.7267 102.364 31.4269 105.505 31.4566C106.893 31.4715 108.073 31.3007 109.143 30.9518V26.2668C107.472 26.7049 104.844 27.2172 104.844 24.6631V17.0973C104.584 16.4662 103.307 16.3177 103.047 16.2955L102.973 16.288V16.095H109.135Z" fill="#00391A"/>
<path d="M199.07 11.4172L193.806 2.30714L189.752 4.64591L195.016 13.7634C196.16 12.7017 197.541 11.885 199.07 11.4172Z" fill="#00391A"/>
<path d="M191.638 21.5001C191.638 20.6982 191.735 19.9112 191.906 19.1613H181.385V23.8463H191.906C191.727 23.0889 191.638 22.3019 191.638 21.5001Z" fill="#00391A"/>
<path d="M194.452 14.3277L185.335 9.06366L182.996 13.1175L192.106 18.3816C192.574 16.8521 193.39 15.4711 194.452 14.3277Z" fill="#00391A"/>
<path d="M211.677 16.8894L220.587 11.7441L219.83 10.4299L210.92 15.5752C211.202 15.9984 211.462 16.4364 211.677 16.8894Z" fill="#00391A"/>
<path d="M208.106 12.7612L213.251 3.85157L212.227 3.22791L207.074 12.1524C207.43 12.338 207.772 12.5384 208.106 12.7612Z" fill="#00391A"/>
<path d="M202.189 10.9497C202.99 10.9497 203.777 11.0462 204.527 11.217V0.696198H202.946H201.431H199.85V11.217C200.6 11.0388 201.379 10.9497 202.189 10.9497Z" fill="#00391A"/>
<path d="M206.733 31.0258L212.368 39.7572L214.135 38.6361L208.522 29.9344C207.965 30.3576 207.364 30.7214 206.733 31.0258Z" fill="#00391A"/>
<path d="M192.106 24.6184L182.996 29.8825L185.335 33.9364L194.452 28.6723C193.39 27.5214 192.574 26.1479 192.106 24.6184Z" fill="#00391A"/>
<path d="M212.68 20.4087C212.717 20.7651 212.739 21.1289 212.739 21.5001C212.739 21.7526 212.724 22.005 212.709 22.2574H223V20.4087H212.68Z" fill="#00391A"/>
<path d="M210.92 27.4175L219.83 32.5628L220.698 30.9739L211.804 25.836C211.551 26.3855 211.262 26.92 210.92 27.4175Z" fill="#00391A"/>
<path d="M195.016 29.2365L189.752 38.354L193.806 40.6928L199.07 31.5827C197.541 31.1076 196.16 30.2983 195.016 29.2365Z" fill="#00391A"/>
<path d="M202.189 32.0507C201.387 32.0507 200.6 31.9541 199.85 31.7834V42.3041H201.431H202.946H204.527V31.7834C203.77 31.9541 202.99 32.0507 202.189 32.0507Z" fill="#00391A"/>
<path d="M202.189 27.1354C205.301 27.1354 207.824 24.6123 207.824 21.5C207.824 18.3877 205.301 15.8647 202.189 15.8647C199.076 15.8647 196.553 18.3877 196.553 21.5C196.553 24.6123 199.076 27.1354 202.189 27.1354Z" fill="#00391A"/>
</svg>
