<svg width="49" height="48" viewBox="0 0 49 48" fill="none" xmlns="http://www.w3.org/2000/svg">
<path opacity="0.4" d="M44.3339 12.9599V22.7519C44.3339 25.1903 43.4939 27.2447 41.9939 28.6655C40.514 30.1055 38.374 30.9119 35.834 30.9119V34.387C35.834 35.6926 34.3139 36.4799 33.194 35.7503L31.254 34.5215C31.434 33.9263 31.514 33.2734 31.514 32.5822V24.7679C31.514 20.8511 28.7939 18.2399 24.7139 18.2399H11.134C10.8539 18.2399 10.594 18.2591 10.334 18.2783V12.9599C10.334 8.06393 13.7339 4.79993 18.8339 4.79993H35.834C40.934 4.79993 44.3339 8.06393 44.3339 12.9599Z" fill="#007337"/>
<path d="M31.514 24.768V32.5823C31.514 33.2735 31.4339 33.9264 31.2539 34.5216C30.514 37.344 28.0739 39.1104 24.7139 39.1104H19.274L13.234 42.9696C12.334 43.5648 11.134 42.9312 11.134 41.8944V39.1104C9.09397 39.1104 7.39398 38.4576 6.21399 37.3248C5.01399 36.1728 4.33398 34.5407 4.33398 32.5823V24.768C4.33398 21.12 6.69398 18.6048 10.334 18.2784C10.594 18.2592 10.8539 18.24 11.134 18.24H24.7139C28.7939 18.24 31.514 20.8512 31.514 24.768Z" fill="#007337"/>
</svg>
