<svg width="707" height="1788" viewBox="0 0 707 1788" fill="none" xmlns="http://www.w3.org/2000/svg">
<g clip-path="url(#clip0_2401_369)" filter="url(#filter0_f_2401_369)">
<path d="M569.232 1268.65C561.983 1283.36 554.335 1297.76 546.326 1311.85L220.778 1138.6C236.246 1128.84 251.247 1118.35 265.761 1107.13L569.232 1268.65ZM206.687 1147.24C191.283 1156.37 175.503 1164.75 159.339 1172.4L484.133 1405.98C493.817 1393.28 503.172 1380.26 512.154 1366.92L206.687 1147.24ZM147.829 1177.71C131.961 1184.82 115.796 1191.22 99.3519 1196.85L409.792 1491C420.92 1479.92 431.75 1468.48 442.253 1456.71L147.829 1177.71ZM90.2554 1199.9C74.2605 1205.12 58.0428 1209.64 41.6133 1213.43L324.778 1565.19C337.07 1555.87 349.093 1546.16 360.905 1536.12L90.2554 1199.9ZM34.5547 1215.03C18.6827 1218.52 2.62323 1221.35 -13.556 1223.45L230.706 1627.34C243.895 1619.82 256.887 1611.97 269.665 1603.76L34.5547 1215.03ZM-18.8335 1224.12C-34.4307 1226.06 -50.1367 1227.33 -65.9111 1227.95L129.344 1676.39C143.172 1670.77 156.848 1664.83 170.31 1658.52L-18.8335 1224.12ZM-69.6942 1228.1C-84.8675 1228.63 -100.093 1228.54 -115.356 1227.83L22.375 1711.55C36.5461 1707.91 50.595 1703.91 64.5487 1699.55L-69.6942 1228.1ZM-117.921 1227.69C-132.603 1226.98 -147.282 1225.68 -161.959 1223.78L-88.407 1732.23C-74.1475 1730.57 -59.9614 1728.5 -45.8433 1726.1L-117.921 1227.69ZM-163.666 1223.57C-177.755 1221.73 -191.842 1219.38 -205.873 1216.45L-201.123 1737.96C-187.043 1738.2 -173.001 1738.08 -158.99 1737.59L-163.666 1223.57ZM-207.219 1216.17C-218.831 1213.75 -230.403 1210.95 -241.948 1207.78C-243.855 1207.44 -245.751 1207.07 -247.666 1206.72L-313.709 1728.45C-300.037 1730.54 -286.4 1732.29 -272.709 1733.67L-207.219 1216.17ZM-249.351 1206.38C-262.42 1203.75 -275.485 1200.25 -288.425 1195.89L-423.848 1703.95C-410.848 1707.77 -397.81 1711.26 -384.768 1714.42L-249.351 1206.38ZM-304.794 1189.85C-312.732 1186.68 -320.491 1183.23 -328.009 1179.52L-529.271 1664.96C-521.804 1668.44 -514.24 1671.75 -506.557 1674.93C-504.192 1675.89 -501.859 1676.85 -499.502 1677.79C-497.267 1678.68 -495.04 1679.55 -492.794 1680.42L-291.468 1194.82C-295.911 1193.28 -300.351 1191.62 -304.794 1189.85ZM-362.757 1159.57C-363.478 1159.09 -364.207 1158.6 -364.922 1158.11L-626.123 1608.06C-615.693 1615.65 -604.962 1622.91 -593.925 1629.84L-331.488 1177.77C-342.334 1172.25 -352.777 1166.16 -362.757 1159.57ZM-398.164 1132.34L-710.036 1533.62C-701.388 1542.95 -692.43 1552.02 -683.124 1560.77L-368.35 1155.8C-378.818 1148.55 -388.767 1140.7 -398.164 1132.34ZM-427.626 1102.48L-777.485 1445.22C-770.859 1455.89 -763.871 1466.35 -756.527 1476.59L-401.763 1129.08C-410.965 1120.7 -419.593 1111.83 -427.626 1102.48ZM-453.003 1068.84L-826.292 1347.21C-821.818 1358.82 -816.963 1370.3 -811.75 1381.6L-431.441 1097.99C-439.197 1088.67 -446.394 1078.92 -453.003 1068.84ZM-473.77 1031.96L-855.543 1244.07C-853.278 1256.18 -850.627 1268.23 -847.613 1280.15L-456.724 1062.98C-462.994 1052.96 -468.677 1042.61 -473.77 1031.96ZM-489.551 992.569L-865.312 1140.03C-865.282 1152.27 -864.848 1164.48 -864.027 1176.63L-477.097 1024.79C-481.811 1014.29 -485.988 1003.55 -489.551 992.569ZM-499.956 951.511L-856.733 1039.04C-858.818 1051.03 -860.524 1063.02 -861.843 1075.02L-492.107 984.297C-495.299 973.526 -497.917 962.576 -499.956 951.511ZM-504.785 909.663L-831.946 944.686C-835.981 956.059 -839.64 967.472 -842.931 978.907L-501.481 942.347C-503.143 931.558 -504.258 920.658 -504.785 909.663ZM-504.033 867.796L-794.045 859.694C-799.644 869.988 -804.98 880.528 -810.018 891.266L-505.114 899.783C-505.308 889.172 -504.966 878.476 -504.033 867.796ZM-497.791 826.534L-746.078 785.719C-753.1 794.896 -759.84 804.311 -766.309 813.991L-503.008 857.279C-501.804 847.021 -500.059 836.744 -497.791 826.534ZM-486.104 786.188L-691.044 723.464C-699.115 731.375 -707.002 739.532 -714.617 747.954L-495.09 815.162C-492.602 805.464 -489.602 795.781 -486.104 786.188ZM-631.687 672.729C-640.545 679.306 -649.21 686.148 -657.675 693.274L-481.398 773.92C-477.637 764.73 -473.507 755.796 -468.998 747.171L-631.687 672.729ZM-570.929 633.12C-580.237 638.386 -589.38 643.907 -598.358 649.682L-462.539 735.352C-457.742 727.03 -452.623 718.962 -447.138 711.197L-570.929 633.12ZM-510.789 603.482C-520.25 607.479 -529.611 611.736 -538.826 616.255L-438.905 700.007C-433.238 692.613 -427.257 685.532 -421.007 678.763L-510.789 603.482ZM-452.388 582.335C-461.81 585.171 -471.131 588.266 -480.406 591.599L-410.756 668.143C-404.346 661.798 -397.681 655.76 -390.794 650.03L-452.388 582.335ZM-396.286 568.325C-405.5 570.128 -414.687 572.178 -423.781 574.469L-378.395 640.203C-371.434 634.958 -364.257 630.034 -356.898 625.403L-396.286 568.325ZM-342.764 560.35C-351.695 561.246 -360.582 562.348 -369.431 563.669L-342.401 616.775C-335.044 612.661 -327.538 608.842 -319.882 605.317L-342.764 560.35ZM-291.986 557.402C-300.525 557.513 -309.034 557.824 -317.52 558.316L-303.48 598.328C-295.903 595.354 -288.211 592.645 -280.427 590.255L-291.986 557.402ZM-243.997 558.727C-252.108 558.16 -260.198 557.775 -268.293 557.56L-262.545 585.3C-254.934 583.423 -247.225 581.851 -239.481 580.544L-243.997 558.727ZM-198.685 563.694C-206.342 562.539 -214.01 561.568 -221.68 560.722L-220.472 577.923C-212.963 577.088 -205.376 576.567 -197.793 576.294L-198.685 563.694ZM-155.78 571.782C-162.988 570.131 -170.182 568.643 -177.412 567.282L-177.986 576.236C-170.717 576.436 -163.426 576.895 -156.141 577.603L-155.78 571.782ZM-114.674 582.763C-121.414 580.687 -128.194 578.751 -134.958 576.932L-135.627 580.26C-128.736 581.408 -121.862 582.753 -114.979 584.352L-114.674 582.763ZM-93.6879 589.627L-93.8256 590.09C-87.4434 592.039 -81.061 594.224 -74.7191 596.629L-74.7136 596.615C-81.015 594.149 -87.3569 591.823 -93.6879 589.627ZM182.73 136.087L182.265 137.016C188.003 140.027 193.666 143.15 199.256 146.337L200.04 144.766C194.318 141.792 188.544 138.908 182.73 136.087ZM281.09 192.309L276.406 199.169C281.238 203.074 285.983 207.039 290.659 211.102L296.382 202.741C291.325 199.201 286.222 195.737 281.09 192.309ZM371.088 261.38L356.152 277.918C359.988 282.51 363.729 287.142 367.379 291.847L384.22 273.212C379.905 269.23 375.514 265.281 371.088 261.38ZM450.931 341.974L418.491 369.363C421.282 374.37 423.973 379.431 426.578 384.552L461.786 354.828C458.221 350.502 454.607 346.219 450.931 341.974ZM519.099 432.463L461.785 468.989C463.496 474.224 465.145 479.497 466.691 484.792L527.707 445.913C524.898 441.385 522.026 436.896 519.099 432.463ZM574.547 531.144L485.466 572.439C486.183 577.686 486.824 582.965 487.36 588.234L580.946 544.858C578.864 540.276 576.723 535.686 574.547 531.144ZM616.355 636.346L489.991 675.532C489.771 680.609 489.467 685.7 489.076 690.772L620.627 649.997C619.247 645.428 617.83 640.875 616.355 636.346ZM643.781 746.267L476.788 774.458C475.728 779.2 474.627 783.925 473.429 788.66L646.057 759.53C645.33 755.095 644.584 750.669 643.781 746.267ZM656.256 859.109L448.301 865.921C446.582 870.227 444.788 874.488 442.978 878.711L656.709 871.707C656.591 867.516 656.433 863.308 656.256 859.109ZM653.368 972.714L407.681 947.536C405.469 951.269 403.184 954.989 400.842 958.654L652.163 984.431C652.606 980.526 652.998 976.632 653.368 972.714ZM635.102 1084.88L357.937 1017.98C355.348 1021.12 352.724 1024.23 350.043 1027.29L632.566 1095.48C633.434 1091.97 634.268 1088.42 635.102 1084.88ZM602.043 1193.23L301.789 1076.88C299.292 1079.17 296.775 1081.46 294.226 1083.68C293.939 1083.92 293.672 1084.16 293.385 1084.41L598.422 1202.62C599.684 1199.5 600.887 1196.37 602.043 1193.23Z" fill="url(#paint0_linear_2401_369)"/>
<path d="M-921.553 474.303L-596.436 648.37C-611.932 658.085 -626.948 668.525 -641.489 679.704L-944.555 517.43C-937.267 502.746 -929.586 488.376 -921.553 474.303ZM-887.251 419.347L-582.317 639.785C-566.885 630.703 -551.089 622.363 -534.911 614.756L-859.145 380.39C-868.861 393.054 -878.237 406.042 -887.251 419.347ZM-784.584 295.608C-795.746 306.66 -806.59 318.058 -817.131 329.797L-523.364 609.508C-507.494 602.437 -491.314 596.086 -474.86 590.503L-784.584 295.608ZM-699.396 221.657C-711.708 230.947 -723.759 240.609 -735.564 250.635L-465.756 587.481C-449.746 582.302 -433.494 577.816 -417.06 574.093L-699.396 221.657ZM-644.191 183.262L-410.034 572.502C-394.133 569.053 -378.09 566.272 -361.895 564.211L-605.176 159.782C-618.387 167.27 -631.394 175.075 -644.191 183.262ZM-503.696 111.035C-517.526 116.613 -531.217 122.513 -544.7 128.794L-356.604 563.544C-341.01 561.651 -325.315 560.411 -309.539 559.831L-503.696 111.035ZM-396.652 76.1669C-410.825 79.7718 -424.903 83.7285 -438.848 88.0208L-305.739 559.715C-290.569 559.238 -275.349 559.346 -260.088 560.098L-396.652 76.1669ZM-285.812 55.7907C-300.069 57.4008 -314.271 59.4249 -328.383 61.8145L-257.505 560.234C-242.845 560.998 -228.154 562.354 -213.488 564.281L-285.812 55.7907ZM-173.079 50.3869C-187.162 50.1048 -201.206 50.199 -215.215 50.6369L-211.787 564.505C-197.689 566.362 -183.624 568.772 -169.584 571.72L-173.079 50.3869ZM-101.518 54.8604L-168.279 571.99C-156.683 574.45 -145.113 577.292 -133.565 580.502C-131.658 580.838 -129.757 581.189 -127.853 581.572L-60.5467 60.2034C-74.2033 58.0669 -87.8433 56.2822 -101.518 54.8604ZM49.5456 84.99C36.5615 81.1288 23.5154 77.6195 10.4887 74.4161L-126.122 581.917C-113.041 584.593 -99.9953 588.102 -87.0702 592.505L49.5456 84.99ZM132.182 114.203C129.823 113.231 127.49 112.269 125.133 111.328C122.898 110.437 120.671 109.564 118.43 108.686L-84.0739 593.574C-79.6228 595.13 -75.1607 596.816 -70.75 598.591C-62.8226 601.784 -55.0683 605.254 -47.5412 608.979L154.876 124.229C147.415 120.734 139.855 117.405 132.182 114.203ZM219.446 159.527L-44.0756 610.722C-33.2182 616.293 -22.8071 622.392 -12.8504 629C-12.1295 629.476 -11.4005 629.97 -10.685 630.46L251.628 181.387C241.194 173.773 230.478 166.469 219.446 159.527ZM308.471 228.809L-7.28121 632.791C3.1772 640.069 13.1028 647.936 22.4711 656.334L335.335 256.049C326.716 246.679 317.761 237.599 308.471 228.809ZM381.681 313.171L26.1115 659.606C35.2631 667.996 43.8574 676.917 51.8672 686.279L402.55 344.611C395.966 333.919 388.987 323.43 381.681 313.171ZM436.673 408.282L55.6634 690.775C63.4213 700.099 70.5866 709.847 77.1673 719.957L451.125 442.701C446.669 431.084 441.85 419.589 436.673 408.282ZM472.291 509.803L80.8837 725.833C87.1042 735.863 92.778 746.239 97.8346 756.903L480.11 545.891C477.895 533.772 475.274 521.726 472.291 509.803ZM488.456 613.324L101.173 764.041C105.878 774.564 110.019 785.318 113.546 796.313L489.676 649.935C489.635 637.679 489.246 625.472 488.456 613.324ZM486.024 714.889L116.095 804.564C119.256 815.334 121.838 826.297 123.84 837.375L480.834 750.841C482.944 738.863 484.675 726.889 486.024 714.889ZM466.867 810.912L125.339 846.525C127 857.356 128.085 868.256 128.568 879.245L455.82 845.093C459.875 833.749 463.546 822.345 466.867 810.912ZM128.862 889.092C129.034 899.721 128.671 910.389 127.708 921.068L417.664 929.975L417.67 929.961C423.321 919.693 428.678 909.182 433.746 898.446L128.862 889.092ZM126.652 931.584C125.418 941.841 123.671 952.082 121.38 962.31L369.561 1003.78C376.608 994.618 383.368 985.232 389.857 975.58L126.652 931.584ZM118.641 973.661C116.116 983.372 113.102 993.013 109.592 1002.6L314.406 1065.86C322.503 1057.96 330.378 1049.84 338.033 1041.44L118.641 973.661ZM104.855 1014.86C101.068 1024.04 96.9258 1032.96 92.3909 1041.57L254.882 1116.42C263.774 1109.88 272.46 1103.06 280.931 1095.96L104.855 1014.86ZM85.8985 1053.36C81.0761 1061.67 75.9503 1069.71 70.4395 1077.46L194.032 1155.86C203.329 1150.62 212.501 1145.15 221.51 1139.37L85.8985 1053.36ZM62.1755 1088.65C56.4883 1096.02 50.4946 1103.09 44.219 1109.84L133.819 1185.32C143.315 1181.35 152.683 1177.12 161.9 1172.64L62.1755 1088.65ZM33.9586 1120.41L13.9569 1138.46L75.39 1206.3C84.8193 1203.48 94.1618 1200.41 103.425 1197.11L33.9586 1120.41ZM1.53445 1148.23C-5.44687 1153.45 -12.6153 1158.39 -20.0089 1162.98L19.2441 1220.13C28.466 1218.35 37.6552 1216.34 46.7574 1214.07L1.53445 1148.23ZM-34.5261 1171.58C-41.8906 1175.68 -49.404 1179.47 -57.0668 1182.98L-34.2896 1228.01C-25.3645 1227.13 -16.4642 1226.04 -7.61278 1224.75L-34.5261 1171.58ZM-73.441 1189.89C-81.0368 1192.87 -88.7358 1195.56 -96.5353 1197.91L-85.0663 1230.8C-76.5251 1230.72 -67.9894 1230.42 -59.5 1229.96L-73.441 1189.89ZM-114.414 1202.82C-122.06 1204.66 -129.741 1206.24 -137.52 1207.52L-133.066 1229.33C-124.947 1229.92 -116.836 1230.33 -108.752 1230.57L-114.414 1202.82ZM-156.534 1210.07C-164.051 1210.89 -171.633 1211.39 -179.218 1211.63L-178.379 1224.2C-170.714 1225.38 -163.035 1226.4 -155.383 1227.26L-156.534 1210.07ZM-199.028 1211.65C-206.291 1211.44 -213.585 1210.95 -220.865 1210.22L-221.251 1216.03C-214.043 1217.68 -206.838 1219.22 -199.628 1220.59L-199.028 1211.65ZM-241.371 1207.5C-248.229 1206.35 -255.12 1204.97 -261.984 1203.36L-262.308 1204.96C-255.573 1207.05 -248.798 1209 -242.053 1210.83L-241.371 1207.5ZM-283.162 1197.57C-289.534 1195.59 -295.911 1193.39 -302.254 1190.99L-302.259 1191C-295.971 1193.46 -289.62 1195.81 -283.295 1198.01L-283.162 1197.57ZM-577.284 1640.37L-578.1 1641.94C-572.391 1644.91 -566.627 1647.82 -560.805 1650.66L-560.34 1649.73C-566.065 1646.73 -571.71 1643.6 -577.284 1640.37ZM-668.544 1575.39L-674.273 1583.73C-669.24 1587.29 -664.129 1590.77 -658.996 1594.2L-654.297 1587.38C-659.119 1583.45 -663.862 1579.44 -668.544 1575.39ZM-745.056 1494.46L-761.932 1513.03C-757.633 1517.05 -753.247 1521.01 -748.828 1524.89L-733.857 1508.42C-737.688 1503.82 -741.42 1499.16 -745.056 1494.46ZM-804.052 1401.63L-839.334 1431.26C-835.787 1435.6 -832.172 1439.88 -828.509 1444.12L-796.019 1416.84C-798.774 1411.82 -801.446 1406.75 -804.052 1401.63ZM-843.933 1301.31L-905.036 1340.01C-902.225 1344.53 -899.38 1349.01 -896.461 1353.5L-839.042 1317.15C-840.775 1311.89 -842.392 1306.62 -843.933 1301.31ZM-864.347 1197.85L-958.026 1240.94C-955.949 1245.54 -953.827 1250.13 -951.663 1254.67L-862.483 1213.65C-863.193 1208.42 -863.816 1203.13 -864.347 1197.85ZM-865.811 1095.35L-997.461 1135.76C-996.094 1140.33 -994.68 1144.89 -993.219 1149.41L-866.775 1110.59C-866.537 1105.51 -866.215 1100.41 -865.811 1095.35ZM-849.928 997.533L-1022.63 1026.19C-1021.93 1030.62 -1021.16 1035.03 -1020.38 1039.45L-853.316 1011.73C-852.252 1006.98 -851.125 1002.27 -849.928 997.533ZM-1032.98 914.014C-1032.89 918.193 -1032.75 922.407 -1032.57 926.605L-824.597 920.355C-822.866 916.056 -821.073 911.797 -819.236 907.586L-1032.98 914.014ZM-1028.18 801.344C-1028.63 805.242 -1029.04 809.129 -1029.41 813.046L-783.784 838.887C-781.559 835.161 -779.275 831.443 -776.926 827.798L-1028.18 801.344ZM-1008.31 690.366C-1009.19 693.894 -1010.05 697.427 -1010.88 700.97L-733.871 768.613C-731.274 765.49 -728.632 762.37 -725.973 759.288L-1008.31 690.366ZM-973.924 583.362C-975.186 586.483 -976.382 589.6 -977.557 592.74L-677.597 709.868C-675.113 707.579 -672.562 705.317 -670.027 703.095C-669.74 702.849 -669.472 702.61 -669.185 702.364L-973.924 583.362Z" fill="url(#paint1_linear_2401_369)"/>
</g>
<defs>
<filter id="filter0_f_2401_369" x="0" y="0" width="713" height="1788" filterUnits="userSpaceOnUse" color-interpolation-filters="sRGB">
<feFlood flood-opacity="0" result="BackgroundImageFix"/>
<feBlend mode="normal" in="SourceGraphic" in2="BackgroundImageFix" result="shape"/>
<feGaussianBlur stdDeviation="25" result="effect1_foregroundBlur_2401_369"/>
</filter>
<linearGradient id="paint0_linear_2401_369" x1="247.093" y1="161.761" x2="-1207.46" y2="3413.33" gradientUnits="userSpaceOnUse">
<stop stop-color="#169321" stop-opacity="0.7"/>
<stop offset="1" stop-color="#A0FB00" stop-opacity="0.95"/>
</linearGradient>
<linearGradient id="paint1_linear_2401_369" x1="1.22989" y1="61.9036" x2="-1452.47" y2="3311.95" gradientUnits="userSpaceOnUse">
<stop stop-color="#169321" stop-opacity="0.7"/>
<stop offset="1" stop-color="#A0FB00" stop-opacity="0.95"/>
</linearGradient>
<clipPath id="clip0_2401_369">
<rect width="613" height="1688" fill="white" transform="translate(50 50)"/>
</clipPath>
</defs>
</svg>
