<svg width="20" height="20" viewBox="0 0 20 20" fill="none" xmlns="http://www.w3.org/2000/svg">
<path d="M15.7502 13.9806C17.0806 12.2026 17.6882 9.9866 17.4505 7.7787C17.2128 5.5708 16.1475 3.53491 14.4691 2.08085C12.7907 0.626794 10.6238 -0.137473 8.40452 -0.0581043C6.18528 0.0212646 4.0785 0.938376 2.50825 2.50862C0.93801 4.07886 0.0208984 6.18565 -0.0584705 8.40489C-0.137839 10.6241 0.626427 12.791 2.08049 14.4695C3.53454 16.1479 5.57043 17.2131 7.77833 17.4508C9.98623 17.6885 12.2022 17.081 13.9802 15.7506L18.2302 20.0006L20.0002 18.2339L15.7502 13.9806ZM8.7502 15.0006C7.51407 15.0006 6.30569 14.634 5.27789 13.9473C4.25008 13.2605 3.449 12.2844 2.97595 11.1423C2.50291 10.0003 2.37913 8.74363 2.62029 7.53125C2.86145 6.31887 3.4567 5.20523 4.33078 4.33115C5.20486 3.45707 6.3185 2.86182 7.53089 2.62066C8.74327 2.3795 9.99993 2.50327 11.142 2.97632C12.284 3.44937 13.2601 4.25044 13.9469 5.27825C14.6336 6.30606 15.0002 7.51443 15.0002 8.75057C14.9987 10.4077 14.3397 11.9965 13.1679 13.1683C11.9961 14.34 10.4073 14.999 8.7502 15.0006Z" fill="#00391A"/>
</svg>
