<svg width="374" height="425" viewBox="0 0 374 425" fill="none" xmlns="http://www.w3.org/2000/svg">
<g filter="url(#filter0_f_2143_438)">
<path d="M176.629 23.2895C183.003 19.4242 190.997 19.4242 197.371 23.2895L267.878 66.0486L339.224 108.909C345.255 112.532 348.938 119.057 348.924 126.093L348.755 212.5L348.924 298.907C348.938 305.943 345.255 312.468 339.224 316.091L267.878 358.951L197.371 401.71C190.997 405.576 183.003 405.576 176.629 401.71L106.122 358.951L34.7762 316.091C28.7454 312.468 25.0617 305.943 25.0755 298.907L25.245 212.5L25.0755 126.093C25.0617 119.057 28.7454 112.532 34.7762 108.909L106.122 66.0486L176.629 23.2895Z" fill="#ECFFF5"/>
</g>
<g clip-path="url(#clip0_2143_438)">
<path opacity="0.4" d="M206.502 113.96V123.752C206.502 126.19 205.662 128.245 204.162 129.665C202.682 131.105 200.542 131.912 198.002 131.912V135.387C198.002 136.693 196.482 137.48 195.362 136.75L193.422 135.521C193.602 134.926 193.682 134.273 193.682 133.582V125.768C193.682 121.851 190.962 119.24 186.882 119.24H173.302C173.022 119.24 172.762 119.259 172.502 119.278V113.96C172.502 109.064 175.902 105.8 181.002 105.8H198.002C203.102 105.8 206.502 109.064 206.502 113.96Z" fill="#007337"/>
<path d="M193.682 125.768V133.582C193.682 134.273 193.602 134.926 193.422 135.521C192.682 138.344 190.242 140.11 186.882 140.11H181.442L175.402 143.969C174.502 144.565 173.302 143.931 173.302 142.894V140.11C171.262 140.11 169.562 139.457 168.382 138.325C167.182 137.173 166.502 135.54 166.502 133.582V125.768C166.502 122.12 168.862 119.605 172.502 119.278C172.762 119.259 173.022 119.24 173.302 119.24H186.882C190.962 119.24 193.682 121.851 193.682 125.768Z" fill="#007337"/>
</g>
<path d="M151.914 190V176.4H154.214V190H151.914ZM147.354 178.1V176H158.774V178.1H147.354ZM162.057 190.2C161.097 190.2 160.23 189.987 159.457 189.56C158.697 189.12 158.09 188.52 157.637 187.76C157.197 187 156.977 186.147 156.977 185.2C156.977 184.253 157.197 183.407 157.637 182.66C158.077 181.9 158.67 181.3 159.417 180.86C160.177 180.42 161.017 180.2 161.937 180.2C162.83 180.2 163.617 180.407 164.297 180.82C164.99 181.233 165.53 181.8 165.917 182.52C166.317 183.24 166.517 184.06 166.517 184.98C166.517 185.14 166.503 185.307 166.477 185.48C166.463 185.64 166.437 185.82 166.397 186.02H158.517V184.22H165.257L164.437 184.94C164.41 184.353 164.297 183.86 164.097 183.46C163.897 183.06 163.61 182.753 163.237 182.54C162.877 182.327 162.43 182.22 161.897 182.22C161.337 182.22 160.85 182.34 160.437 182.58C160.023 182.82 159.703 183.16 159.477 183.6C159.25 184.027 159.137 184.54 159.137 185.14C159.137 185.74 159.257 186.267 159.497 186.72C159.737 187.173 160.077 187.527 160.517 187.78C160.957 188.02 161.463 188.14 162.037 188.14C162.53 188.14 162.983 188.053 163.397 187.88C163.823 187.707 164.183 187.453 164.477 187.12L165.877 188.54C165.41 189.087 164.843 189.5 164.177 189.78C163.51 190.06 162.803 190.2 162.057 190.2ZM172.3 190.2C171.353 190.2 170.493 189.98 169.72 189.54C168.96 189.1 168.36 188.5 167.92 187.74C167.48 186.98 167.26 186.133 167.26 185.2C167.26 184.253 167.48 183.407 167.92 182.66C168.36 181.9 168.96 181.3 169.72 180.86C170.493 180.42 171.353 180.2 172.3 180.2C173.047 180.2 173.74 180.347 174.38 180.64C175.033 180.92 175.587 181.327 176.04 181.86L174.6 183.32C174.32 182.987 173.98 182.74 173.58 182.58C173.193 182.407 172.767 182.32 172.3 182.32C171.753 182.32 171.267 182.447 170.84 182.7C170.427 182.94 170.1 183.273 169.86 183.7C169.633 184.127 169.52 184.627 169.52 185.2C169.52 185.76 169.633 186.26 169.86 186.7C170.1 187.127 170.427 187.467 170.84 187.72C171.267 187.96 171.753 188.08 172.3 188.08C172.767 188.08 173.193 188 173.58 187.84C173.98 187.667 174.32 187.413 174.6 187.08L176.04 188.54C175.587 189.073 175.033 189.487 174.38 189.78C173.74 190.06 173.047 190.2 172.3 190.2ZM183.806 190V184.46C183.806 183.82 183.6 183.293 183.186 182.88C182.786 182.467 182.266 182.26 181.626 182.26C181.2 182.26 180.82 182.353 180.486 182.54C180.153 182.727 179.893 182.987 179.706 183.32C179.52 183.653 179.426 184.033 179.426 184.46L178.566 183.98C178.566 183.247 178.726 182.6 179.046 182.04C179.366 181.467 179.806 181.02 180.366 180.7C180.94 180.367 181.58 180.2 182.286 180.2C183.006 180.2 183.646 180.36 184.206 180.68C184.766 181 185.206 181.447 185.526 182.02C185.846 182.58 186.006 183.233 186.006 183.98V190H183.806ZM177.226 190V175.6H179.426V190H177.226ZM194.422 190V184.46C194.422 183.82 194.215 183.293 193.802 182.88C193.402 182.467 192.882 182.26 192.242 182.26C191.815 182.26 191.435 182.353 191.102 182.54C190.769 182.727 190.509 182.987 190.322 183.32C190.135 183.653 190.042 184.033 190.042 184.46L189.182 183.98C189.182 183.247 189.342 182.6 189.662 182.04C189.982 181.467 190.422 181.02 190.982 180.7C191.555 180.367 192.195 180.2 192.902 180.2C193.622 180.2 194.262 180.387 194.822 180.76C195.382 181.12 195.822 181.593 196.142 182.18C196.462 182.753 196.622 183.353 196.622 183.98V190H194.422ZM187.842 190V180.4H190.042V190H187.842ZM198.478 190V180.4H200.678V190H198.478ZM199.578 178.64C199.204 178.64 198.891 178.513 198.638 178.26C198.398 178.007 198.278 177.693 198.278 177.32C198.278 176.947 198.398 176.633 198.638 176.38C198.891 176.127 199.204 176 199.578 176C199.964 176 200.278 176.127 200.518 176.38C200.758 176.633 200.878 176.947 200.878 177.32C200.878 177.693 200.758 178.007 200.518 178.26C200.278 178.513 199.964 178.64 199.578 178.64ZM207.165 190.2C206.218 190.2 205.358 189.98 204.585 189.54C203.825 189.1 203.225 188.5 202.785 187.74C202.345 186.98 202.125 186.133 202.125 185.2C202.125 184.253 202.345 183.407 202.785 182.66C203.225 181.9 203.825 181.3 204.585 180.86C205.358 180.42 206.218 180.2 207.165 180.2C207.912 180.2 208.605 180.347 209.245 180.64C209.898 180.92 210.452 181.327 210.905 181.86L209.465 183.32C209.185 182.987 208.845 182.74 208.445 182.58C208.058 182.407 207.632 182.32 207.165 182.32C206.618 182.32 206.132 182.447 205.705 182.7C205.292 182.94 204.965 183.273 204.725 183.7C204.498 184.127 204.385 184.627 204.385 185.2C204.385 185.76 204.498 186.26 204.725 186.7C204.965 187.127 205.292 187.467 205.705 187.72C206.132 187.96 206.618 188.08 207.165 188.08C207.632 188.08 208.058 188 208.445 187.84C208.845 187.667 209.185 187.413 209.465 187.08L210.905 188.54C210.452 189.073 209.898 189.487 209.245 189.78C208.605 190.06 207.912 190.2 207.165 190.2ZM215.916 190.2C215.049 190.2 214.262 189.98 213.556 189.54C212.862 189.1 212.309 188.507 211.896 187.76C211.496 187 211.296 186.153 211.296 185.22C211.296 184.273 211.496 183.427 211.896 182.68C212.309 181.92 212.862 181.32 213.556 180.88C214.262 180.427 215.049 180.2 215.916 180.2C216.649 180.2 217.296 180.36 217.856 180.68C218.429 180.987 218.882 181.413 219.216 181.96C219.549 182.507 219.716 183.127 219.716 183.82V186.58C219.716 187.273 219.549 187.893 219.216 188.44C218.896 188.987 218.449 189.42 217.876 189.74C217.302 190.047 216.649 190.2 215.916 190.2ZM216.276 188.12C217.089 188.12 217.742 187.847 218.236 187.3C218.742 186.753 218.996 186.053 218.996 185.2C218.996 184.627 218.882 184.12 218.656 183.68C218.429 183.24 218.109 182.9 217.696 182.66C217.296 182.407 216.822 182.28 216.276 182.28C215.742 182.28 215.269 182.407 214.856 182.66C214.456 182.9 214.136 183.24 213.896 183.68C213.669 184.12 213.556 184.627 213.556 185.2C213.556 185.773 213.669 186.28 213.896 186.72C214.136 187.16 214.456 187.507 214.856 187.76C215.269 188 215.742 188.12 216.276 188.12ZM218.856 190V187.42L219.236 185.08L218.856 182.76V180.4H221.056V190H218.856ZM223.097 190V175.6H225.297V190H223.097ZM157.29 218.2C156.183 218.2 155.243 218 154.47 217.6C153.697 217.2 153.003 216.613 152.39 215.84L153.95 214.28C154.337 214.84 154.797 215.28 155.33 215.6C155.863 215.907 156.543 216.06 157.37 216.06C158.143 216.06 158.757 215.9 159.21 215.58C159.677 215.26 159.91 214.82 159.91 214.26C159.91 213.793 159.79 213.413 159.55 213.12C159.31 212.827 158.99 212.587 158.59 212.4C158.203 212.2 157.77 212.027 157.29 211.88C156.823 211.72 156.35 211.547 155.87 211.36C155.403 211.16 154.97 210.913 154.57 210.62C154.183 210.327 153.87 209.947 153.63 209.48C153.39 209.013 153.27 208.42 153.27 207.7C153.27 206.873 153.47 206.173 153.87 205.6C154.283 205.013 154.837 204.567 155.53 204.26C156.223 203.953 156.997 203.8 157.85 203.8C158.77 203.8 159.59 203.98 160.31 204.34C161.043 204.7 161.637 205.16 162.09 205.72L160.53 207.28C160.13 206.827 159.71 206.493 159.27 206.28C158.843 206.053 158.35 205.94 157.79 205.94C157.097 205.94 156.55 206.08 156.15 206.36C155.763 206.64 155.57 207.033 155.57 207.54C155.57 207.967 155.69 208.313 155.93 208.58C156.17 208.833 156.483 209.053 156.87 209.24C157.27 209.413 157.703 209.58 158.17 209.74C158.65 209.9 159.123 210.08 159.59 210.28C160.07 210.48 160.503 210.74 160.89 211.06C161.29 211.367 161.61 211.767 161.85 212.26C162.09 212.753 162.21 213.373 162.21 214.12C162.21 215.373 161.763 216.367 160.87 217.1C159.99 217.833 158.797 218.2 157.29 218.2ZM167.743 218.2C166.93 218.2 166.203 218.02 165.563 217.66C164.937 217.3 164.443 216.807 164.083 216.18C163.737 215.54 163.563 214.807 163.563 213.98V208.4H165.763V213.88C165.763 214.347 165.837 214.747 165.983 215.08C166.143 215.4 166.37 215.647 166.663 215.82C166.97 215.993 167.33 216.08 167.743 216.08C168.383 216.08 168.87 215.893 169.203 215.52C169.55 215.133 169.723 214.587 169.723 213.88V208.4H171.923V213.98C171.923 214.82 171.743 215.56 171.383 216.2C171.037 216.827 170.55 217.32 169.923 217.68C169.297 218.027 168.57 218.2 167.743 218.2ZM178.875 218.2C178.142 218.2 177.489 218.047 176.915 217.74C176.342 217.42 175.889 216.987 175.555 216.44C175.235 215.893 175.075 215.273 175.075 214.58V211.82C175.075 211.127 175.242 210.507 175.575 209.96C175.909 209.413 176.362 208.987 176.935 208.68C177.509 208.36 178.155 208.2 178.875 208.2C179.742 208.2 180.522 208.427 181.215 208.88C181.922 209.32 182.475 209.92 182.875 210.68C183.289 211.427 183.495 212.273 183.495 213.22C183.495 214.153 183.289 215 182.875 215.76C182.475 216.507 181.922 217.1 181.215 217.54C180.522 217.98 179.742 218.2 178.875 218.2ZM173.735 222V208.4H175.935V210.98L175.555 213.32L175.935 215.64V222H173.735ZM178.515 216.12C179.049 216.12 179.515 216 179.915 215.76C180.329 215.507 180.649 215.16 180.875 214.72C181.115 214.28 181.235 213.773 181.235 213.2C181.235 212.627 181.115 212.12 180.875 211.68C180.649 211.24 180.329 210.9 179.915 210.66C179.515 210.407 179.049 210.28 178.515 210.28C177.982 210.28 177.509 210.407 177.095 210.66C176.682 210.9 176.362 211.24 176.135 211.68C175.909 212.12 175.795 212.627 175.795 213.2C175.795 213.773 175.909 214.28 176.135 214.72C176.362 215.16 176.682 215.507 177.095 215.76C177.509 216 177.982 216.12 178.515 216.12ZM190.077 218.2C189.343 218.2 188.69 218.047 188.117 217.74C187.543 217.42 187.09 216.987 186.757 216.44C186.437 215.893 186.277 215.273 186.277 214.58V211.82C186.277 211.127 186.443 210.507 186.777 209.96C187.11 209.413 187.563 208.987 188.137 208.68C188.71 208.36 189.357 208.2 190.077 208.2C190.943 208.2 191.723 208.427 192.417 208.88C193.123 209.32 193.677 209.92 194.077 210.68C194.49 211.427 194.697 212.273 194.697 213.22C194.697 214.153 194.49 215 194.077 215.76C193.677 216.507 193.123 217.1 192.417 217.54C191.723 217.98 190.943 218.2 190.077 218.2ZM184.937 222V208.4H187.137V210.98L186.757 213.32L187.137 215.64V222H184.937ZM189.717 216.12C190.25 216.12 190.717 216 191.117 215.76C191.53 215.507 191.85 215.16 192.077 214.72C192.317 214.28 192.437 213.773 192.437 213.2C192.437 212.627 192.317 212.12 192.077 211.68C191.85 211.24 191.53 210.9 191.117 210.66C190.717 210.407 190.25 210.28 189.717 210.28C189.183 210.28 188.71 210.407 188.297 210.66C187.883 210.9 187.563 211.24 187.337 211.68C187.11 212.12 186.997 212.627 186.997 213.2C186.997 213.773 187.11 214.28 187.337 214.72C187.563 215.16 187.883 215.507 188.297 215.76C188.71 216 189.183 216.12 189.717 216.12ZM200.538 218.2C199.605 218.2 198.758 217.98 197.998 217.54C197.238 217.087 196.632 216.48 196.178 215.72C195.738 214.96 195.518 214.113 195.518 213.18C195.518 212.247 195.738 211.407 196.178 210.66C196.632 209.913 197.238 209.32 197.998 208.88C198.758 208.427 199.605 208.2 200.538 208.2C201.485 208.2 202.338 208.42 203.098 208.86C203.858 209.3 204.458 209.9 204.898 210.66C205.352 211.407 205.578 212.247 205.578 213.18C205.578 214.113 205.352 214.96 204.898 215.72C204.458 216.48 203.858 217.087 203.098 217.54C202.338 217.98 201.485 218.2 200.538 218.2ZM200.538 216.08C201.085 216.08 201.565 215.96 201.978 215.72C202.405 215.467 202.732 215.12 202.958 214.68C203.198 214.24 203.318 213.74 203.318 213.18C203.318 212.62 203.198 212.127 202.958 211.7C202.718 211.273 202.392 210.94 201.978 210.7C201.565 210.447 201.085 210.32 200.538 210.32C200.005 210.32 199.525 210.447 199.098 210.7C198.685 210.94 198.358 211.273 198.118 211.7C197.892 212.127 197.778 212.62 197.778 213.18C197.778 213.74 197.892 214.24 198.118 214.68C198.358 215.12 198.685 215.467 199.098 215.72C199.525 215.96 200.005 216.08 200.538 216.08ZM207.008 218V208.4H209.208V218H207.008ZM209.208 212.66L208.448 212.28C208.448 211.067 208.715 210.087 209.248 209.34C209.795 208.58 210.615 208.2 211.708 208.2C212.188 208.2 212.621 208.287 213.008 208.46C213.395 208.633 213.755 208.913 214.088 209.3L212.648 210.78C212.475 210.593 212.281 210.46 212.068 210.38C211.855 210.3 211.608 210.26 211.328 210.26C210.715 210.26 210.208 210.453 209.808 210.84C209.408 211.227 209.208 211.833 209.208 212.66ZM216.251 218V204.4H218.451V218H216.251ZM213.951 210.4V208.4H220.751V210.4H213.951Z" fill="#00391A"/>
<path d="M70.8616 249.584V248.544H74.1096C74.5576 248.544 74.9576 248.453 75.3096 248.272C75.6722 248.091 75.9549 247.835 76.1576 247.504C76.3709 247.163 76.4776 246.757 76.4776 246.288C76.4776 245.819 76.3709 245.419 76.1576 245.088C75.9549 244.747 75.6722 244.485 75.3096 244.304C74.9576 244.112 74.5576 244.016 74.1096 244.016H70.8616V242.992H74.1896C74.8509 242.992 75.4429 243.131 75.9656 243.408C76.4882 243.675 76.8989 244.053 77.1976 244.544C77.5069 245.035 77.6616 245.616 77.6616 246.288C77.6616 246.949 77.5069 247.531 77.1976 248.032C76.8989 248.523 76.4882 248.907 75.9656 249.184C75.4429 249.451 74.8509 249.584 74.1896 249.584H70.8616ZM70.1096 254V242.992H71.2776V254H70.1096ZM79.2519 254V246.48H80.3719V254H79.2519ZM80.3719 249.616L79.9079 249.408C79.9079 248.459 80.1373 247.707 80.5959 247.152C81.0653 246.597 81.7053 246.32 82.5159 246.32C82.8893 246.32 83.2306 246.389 83.5399 246.528C83.8493 246.656 84.1373 246.864 84.4039 247.152L83.6679 247.936C83.4866 247.733 83.2839 247.589 83.0599 247.504C82.8466 247.419 82.6013 247.376 82.3239 247.376C81.7479 247.376 81.2786 247.568 80.9159 247.952C80.5533 248.325 80.3719 248.88 80.3719 249.616ZM88.4181 254.16C87.6927 254.16 87.0314 253.984 86.4341 253.632C85.8474 253.28 85.3781 252.805 85.0261 252.208C84.6847 251.611 84.5141 250.944 84.5141 250.208C84.5141 249.483 84.6847 248.827 85.0261 248.24C85.3781 247.653 85.8474 247.189 86.4341 246.848C87.0314 246.496 87.6927 246.32 88.4181 246.32C89.1541 246.32 89.8154 246.491 90.4021 246.832C90.9887 247.173 91.4527 247.643 91.7941 248.24C92.1461 248.827 92.3221 249.483 92.3221 250.208C92.3221 250.955 92.1461 251.627 91.7941 252.224C91.4527 252.811 90.9887 253.28 90.4021 253.632C89.8154 253.984 89.1541 254.16 88.4181 254.16ZM88.4181 253.072C88.9514 253.072 89.4207 252.949 89.8261 252.704C90.2421 252.459 90.5674 252.117 90.8021 251.68C91.0474 251.243 91.1701 250.752 91.1701 250.208C91.1701 249.664 91.0474 249.184 90.8021 248.768C90.5674 248.341 90.2421 248.005 89.8261 247.76C89.4207 247.515 88.9514 247.392 88.4181 247.392C87.8954 247.392 87.4261 247.515 87.0101 247.76C86.5941 248.005 86.2687 248.341 86.0341 248.768C85.7994 249.184 85.6821 249.664 85.6821 250.208C85.6821 250.763 85.7994 251.259 86.0341 251.696C86.2687 252.123 86.5941 252.459 87.0101 252.704C87.4261 252.949 87.8954 253.072 88.4181 253.072ZM96.0953 254L92.6233 246.48H93.8713L96.7993 253.056H96.0953L99.0393 246.48H100.255L96.7513 254H96.0953ZM101.339 254V246.48H102.475V254H101.339ZM101.899 244.848C101.685 244.848 101.504 244.773 101.355 244.624C101.205 244.464 101.131 244.277 101.131 244.064C101.131 243.84 101.205 243.653 101.355 243.504C101.504 243.355 101.685 243.28 101.899 243.28C102.133 243.28 102.32 243.355 102.459 243.504C102.608 243.653 102.683 243.84 102.683 244.064C102.683 244.277 102.608 244.464 102.459 244.624C102.32 244.773 102.133 244.848 101.899 244.848ZM107.625 254.16C106.932 254.16 106.308 253.989 105.753 253.648C105.198 253.307 104.756 252.843 104.425 252.256C104.105 251.659 103.945 250.992 103.945 250.256C103.945 249.509 104.105 248.843 104.425 248.256C104.756 247.659 105.198 247.189 105.753 246.848C106.308 246.496 106.932 246.32 107.625 246.32C108.19 246.32 108.702 246.432 109.161 246.656C109.62 246.88 109.998 247.2 110.297 247.616C110.606 248.021 110.788 248.501 110.841 249.056V251.408C110.777 251.952 110.596 252.432 110.297 252.848C110.009 253.253 109.636 253.573 109.177 253.808C108.718 254.043 108.201 254.16 107.625 254.16ZM107.817 253.088C108.34 253.088 108.798 252.971 109.193 252.736C109.588 252.491 109.897 252.155 110.121 251.728C110.345 251.291 110.457 250.795 110.457 250.24C110.457 249.675 110.34 249.179 110.105 248.752C109.881 248.325 109.572 247.989 109.177 247.744C108.782 247.499 108.324 247.376 107.801 247.376C107.278 247.376 106.814 247.499 106.409 247.744C106.004 247.989 105.684 248.331 105.449 248.768C105.225 249.195 105.113 249.685 105.113 250.24C105.113 250.795 105.225 251.291 105.449 251.728C105.684 252.155 106.004 252.491 106.409 252.736C106.825 252.971 107.294 253.088 107.817 253.088ZM111.513 254H110.393V251.984L110.617 250.128L110.393 248.32V242.672H111.513V254ZM113.464 254V246.48H114.6V254H113.464ZM114.024 244.848C113.811 244.848 113.63 244.773 113.48 244.624C113.331 244.464 113.256 244.277 113.256 244.064C113.256 243.84 113.331 243.653 113.48 243.504C113.63 243.355 113.811 243.28 114.024 243.28C114.259 243.28 114.446 243.355 114.584 243.504C114.734 243.653 114.808 243.84 114.808 244.064C114.808 244.277 114.734 244.464 114.584 244.624C114.446 244.773 114.259 244.848 114.024 244.848ZM122.023 254V249.584C122.023 248.923 121.825 248.389 121.431 247.984C121.047 247.568 120.535 247.36 119.895 247.36C119.457 247.36 119.073 247.456 118.743 247.648C118.412 247.84 118.151 248.101 117.959 248.432C117.767 248.763 117.671 249.141 117.671 249.568L117.159 249.28C117.159 248.715 117.292 248.208 117.559 247.76C117.825 247.312 118.183 246.96 118.631 246.704C119.089 246.448 119.612 246.32 120.199 246.32C120.775 246.32 121.287 246.459 121.735 246.736C122.183 247.013 122.529 247.387 122.775 247.856C123.031 248.325 123.159 248.837 123.159 249.392V254H122.023ZM116.551 254V246.48H117.671V254H116.551ZM128.038 257.328C127.28 257.328 126.603 257.184 126.006 256.896C125.419 256.619 124.944 256.224 124.582 255.712L125.318 254.976C125.616 255.381 125.995 255.696 126.454 255.92C126.912 256.144 127.451 256.256 128.07 256.256C128.923 256.256 129.6 256.027 130.102 255.568C130.614 255.109 130.87 254.485 130.87 253.696V251.824L131.094 250.112L130.87 248.416V246.48H131.99V253.696C131.99 254.421 131.824 255.056 131.494 255.6C131.163 256.144 130.699 256.565 130.102 256.864C129.515 257.173 128.827 257.328 128.038 257.328ZM128.118 253.92C127.424 253.92 126.8 253.755 126.246 253.424C125.691 253.093 125.254 252.64 124.934 252.064C124.614 251.488 124.454 250.837 124.454 250.112C124.454 249.387 124.608 248.741 124.918 248.176C125.238 247.6 125.675 247.147 126.23 246.816C126.784 246.485 127.408 246.32 128.102 246.32C128.688 246.32 129.211 246.432 129.67 246.656C130.139 246.88 130.512 247.2 130.79 247.616C131.078 248.021 131.254 248.501 131.318 249.056V251.184C131.254 251.728 131.078 252.208 130.79 252.624C130.502 253.029 130.128 253.349 129.67 253.584C129.211 253.808 128.694 253.92 128.118 253.92ZM128.326 252.848C128.848 252.848 129.302 252.736 129.686 252.512C130.08 252.288 130.384 251.973 130.598 251.568C130.822 251.152 130.934 250.667 130.934 250.112C130.934 249.568 130.822 249.093 130.598 248.688C130.384 248.283 130.08 247.963 129.686 247.728C129.291 247.493 128.832 247.376 128.31 247.376C127.787 247.376 127.318 247.493 126.902 247.728C126.496 247.963 126.176 248.283 125.942 248.688C125.718 249.093 125.606 249.568 125.606 250.112C125.606 250.645 125.723 251.12 125.958 251.536C126.192 251.952 126.512 252.277 126.918 252.512C127.323 252.736 127.792 252.848 128.326 252.848ZM139.348 254.16C138.942 254.16 138.553 254.107 138.18 254C137.806 253.883 137.465 253.723 137.156 253.52C136.857 253.317 136.596 253.077 136.372 252.8L137.092 252.064C137.39 252.427 137.726 252.699 138.1 252.88C138.484 253.051 138.91 253.136 139.38 253.136C139.881 253.136 140.27 253.04 140.548 252.848C140.836 252.656 140.98 252.389 140.98 252.048C140.98 251.728 140.878 251.477 140.676 251.296C140.473 251.115 140.212 250.971 139.892 250.864C139.582 250.757 139.252 250.656 138.9 250.56C138.548 250.453 138.212 250.325 137.892 250.176C137.572 250.016 137.31 249.797 137.108 249.52C136.916 249.243 136.82 248.88 136.82 248.432C136.82 248.005 136.921 247.637 137.124 247.328C137.337 247.008 137.636 246.763 138.02 246.592C138.414 246.411 138.878 246.32 139.412 246.32C139.977 246.32 140.489 246.421 140.948 246.624C141.406 246.827 141.774 247.125 142.052 247.52L141.332 248.24C141.108 247.952 140.825 247.733 140.484 247.584C140.153 247.424 139.78 247.344 139.364 247.344C138.884 247.344 138.516 247.44 138.26 247.632C138.014 247.813 137.892 248.053 137.892 248.352C137.892 248.64 137.993 248.869 138.196 249.04C138.398 249.2 138.654 249.333 138.964 249.44C139.284 249.536 139.62 249.637 139.972 249.744C140.324 249.84 140.66 249.973 140.98 250.144C141.3 250.304 141.556 250.528 141.748 250.816C141.95 251.093 142.052 251.472 142.052 251.952C142.052 252.624 141.806 253.163 141.316 253.568C140.836 253.963 140.18 254.16 139.348 254.16ZM146.769 254.16C146.054 254.16 145.414 253.989 144.849 253.648C144.284 253.296 143.836 252.827 143.505 252.24C143.185 251.653 143.025 250.992 143.025 250.256C143.025 249.509 143.185 248.843 143.505 248.256C143.836 247.659 144.284 247.189 144.849 246.848C145.414 246.496 146.049 246.32 146.753 246.32C147.329 246.32 147.841 246.437 148.289 246.672C148.748 246.896 149.116 247.216 149.393 247.632C149.681 248.037 149.857 248.512 149.921 249.056V251.408C149.857 251.952 149.681 252.432 149.393 252.848C149.116 253.264 148.748 253.589 148.289 253.824C147.841 254.048 147.334 254.16 146.769 254.16ZM146.945 253.088C147.724 253.088 148.348 252.827 148.817 252.304C149.297 251.781 149.537 251.093 149.537 250.24C149.537 249.675 149.425 249.179 149.201 248.752C148.988 248.315 148.684 247.979 148.289 247.744C147.905 247.499 147.452 247.376 146.929 247.376C146.396 247.376 145.921 247.499 145.505 247.744C145.1 247.989 144.774 248.331 144.529 248.768C144.294 249.195 144.177 249.685 144.177 250.24C144.177 250.795 144.294 251.285 144.529 251.712C144.774 252.139 145.105 252.475 145.521 252.72C145.937 252.965 146.412 253.088 146.945 253.088ZM149.473 254V251.984L149.697 250.128L149.473 248.32V246.48H150.593V254H149.473ZM153.586 254V245.2C153.586 244.677 153.698 244.213 153.922 243.808C154.157 243.403 154.477 243.088 154.882 242.864C155.298 242.629 155.767 242.512 156.29 242.512C156.695 242.512 157.053 242.587 157.362 242.736C157.671 242.875 157.954 243.072 158.21 243.328L157.474 244.064C157.303 243.893 157.122 243.771 156.93 243.696C156.749 243.611 156.535 243.568 156.29 243.568C155.789 243.568 155.399 243.717 155.122 244.016C154.855 244.304 154.722 244.709 154.722 245.232V254H153.586ZM151.698 247.488V246.48H157.234V247.488H151.698ZM161.446 254.16C160.689 254.16 160.012 253.989 159.414 253.648C158.817 253.307 158.342 252.837 157.99 252.24C157.649 251.643 157.478 250.971 157.478 250.224C157.478 249.488 157.649 248.827 157.99 248.24C158.332 247.643 158.796 247.173 159.382 246.832C159.969 246.491 160.625 246.32 161.35 246.32C162.033 246.32 162.636 246.475 163.158 246.784C163.692 247.093 164.108 247.525 164.406 248.08C164.716 248.624 164.87 249.253 164.87 249.968C164.87 250.053 164.865 250.155 164.854 250.272C164.844 250.379 164.822 250.507 164.79 250.656H158.278V249.696H164.182L163.782 250.048C163.793 249.493 163.697 249.019 163.494 248.624C163.302 248.219 163.02 247.909 162.646 247.696C162.284 247.472 161.841 247.36 161.318 247.36C160.774 247.36 160.3 247.477 159.894 247.712C159.489 247.947 159.169 248.277 158.934 248.704C158.71 249.12 158.598 249.616 158.598 250.192C158.598 250.768 158.716 251.275 158.95 251.712C159.196 252.149 159.532 252.491 159.958 252.736C160.396 252.981 160.897 253.104 161.462 253.104C161.921 253.104 162.342 253.024 162.726 252.864C163.11 252.693 163.436 252.443 163.702 252.112L164.422 252.848C164.07 253.264 163.633 253.589 163.11 253.824C162.598 254.048 162.044 254.16 161.446 254.16ZM167.166 254V243.312H168.286V254H167.166ZM165.262 247.488V246.48H170.174V247.488H165.262ZM173.909 254.032L170.613 246.48H171.845L174.501 252.784H174.037L176.837 246.48H178.085L174.549 254.032H173.909ZM171.861 257.168L173.925 252.896L174.549 254.032L173.093 257.168H171.861ZM185.551 254.16C184.857 254.16 184.233 253.989 183.679 253.648C183.124 253.307 182.681 252.843 182.351 252.256C182.031 251.659 181.871 250.992 181.871 250.256C181.871 249.509 182.031 248.843 182.351 248.256C182.681 247.659 183.124 247.189 183.679 246.848C184.233 246.496 184.857 246.32 185.551 246.32C186.116 246.32 186.628 246.432 187.087 246.656C187.545 246.88 187.924 247.2 188.223 247.616C188.532 248.021 188.713 248.501 188.767 249.056V251.408C188.703 251.952 188.521 252.432 188.223 252.848C187.935 253.253 187.561 253.573 187.103 253.808C186.644 254.043 186.127 254.16 185.551 254.16ZM185.743 253.088C186.265 253.088 186.724 252.971 187.119 252.736C187.513 252.491 187.823 252.155 188.047 251.728C188.271 251.291 188.383 250.795 188.383 250.24C188.383 249.675 188.265 249.179 188.031 248.752C187.807 248.325 187.497 247.989 187.103 247.744C186.708 247.499 186.249 247.376 185.727 247.376C185.204 247.376 184.74 247.499 184.335 247.744C183.929 247.989 183.609 248.331 183.375 248.768C183.151 249.195 183.039 249.685 183.039 250.24C183.039 250.795 183.151 251.291 183.375 251.728C183.609 252.155 183.929 252.491 184.335 252.736C184.751 252.971 185.22 253.088 185.743 253.088ZM189.439 254H188.319V251.984L188.543 250.128L188.319 248.32V242.672H189.439V254ZM194.654 254.16C193.939 254.16 193.299 253.989 192.734 253.648C192.169 253.296 191.721 252.827 191.39 252.24C191.07 251.653 190.91 250.992 190.91 250.256C190.91 249.509 191.07 248.843 191.39 248.256C191.721 247.659 192.169 247.189 192.734 246.848C193.299 246.496 193.934 246.32 194.638 246.32C195.214 246.32 195.726 246.437 196.174 246.672C196.633 246.896 197.001 247.216 197.278 247.632C197.566 248.037 197.742 248.512 197.806 249.056V251.408C197.742 251.952 197.566 252.432 197.278 252.848C197.001 253.264 196.633 253.589 196.174 253.824C195.726 254.048 195.219 254.16 194.654 254.16ZM194.83 253.088C195.609 253.088 196.233 252.827 196.702 252.304C197.182 251.781 197.422 251.093 197.422 250.24C197.422 249.675 197.31 249.179 197.086 248.752C196.873 248.315 196.569 247.979 196.174 247.744C195.79 247.499 195.337 247.376 194.814 247.376C194.281 247.376 193.806 247.499 193.39 247.744C192.985 247.989 192.659 248.331 192.414 248.768C192.179 249.195 192.062 249.685 192.062 250.24C192.062 250.795 192.179 251.285 192.414 251.712C192.659 252.139 192.99 252.475 193.406 252.72C193.822 252.965 194.297 253.088 194.83 253.088ZM197.358 254V251.984L197.582 250.128L197.358 248.32V246.48H198.478V254H197.358ZM201.535 254V243.312H202.655V254H201.535ZM199.631 247.488V246.48H204.543V247.488H199.631ZM208.764 254.16C208.049 254.16 207.409 253.989 206.844 253.648C206.279 253.296 205.831 252.827 205.5 252.24C205.18 251.653 205.02 250.992 205.02 250.256C205.02 249.509 205.18 248.843 205.5 248.256C205.831 247.659 206.279 247.189 206.844 246.848C207.409 246.496 208.044 246.32 208.748 246.32C209.324 246.32 209.836 246.437 210.284 246.672C210.743 246.896 211.111 247.216 211.388 247.632C211.676 248.037 211.852 248.512 211.916 249.056V251.408C211.852 251.952 211.676 252.432 211.388 252.848C211.111 253.264 210.743 253.589 210.284 253.824C209.836 254.048 209.329 254.16 208.764 254.16ZM208.94 253.088C209.719 253.088 210.343 252.827 210.812 252.304C211.292 251.781 211.532 251.093 211.532 250.24C211.532 249.675 211.42 249.179 211.196 248.752C210.983 248.315 210.679 247.979 210.284 247.744C209.9 247.499 209.447 247.376 208.924 247.376C208.391 247.376 207.916 247.499 207.5 247.744C207.095 247.989 206.769 248.331 206.524 248.768C206.289 249.195 206.172 249.685 206.172 250.24C206.172 250.795 206.289 251.285 206.524 251.712C206.769 252.139 207.1 252.475 207.516 252.72C207.932 252.965 208.407 253.088 208.94 253.088ZM211.468 254V251.984L211.692 250.128L211.468 248.32V246.48H212.588V254H211.468ZM219.961 254.16C219.556 254.16 219.166 254.107 218.793 254C218.42 253.883 218.078 253.723 217.769 253.52C217.47 253.317 217.209 253.077 216.985 252.8L217.705 252.064C218.004 252.427 218.34 252.699 218.713 252.88C219.097 253.051 219.524 253.136 219.993 253.136C220.494 253.136 220.884 253.04 221.161 252.848C221.449 252.656 221.593 252.389 221.593 252.048C221.593 251.728 221.492 251.477 221.289 251.296C221.086 251.115 220.825 250.971 220.505 250.864C220.196 250.757 219.865 250.656 219.513 250.56C219.161 250.453 218.825 250.325 218.505 250.176C218.185 250.016 217.924 249.797 217.721 249.52C217.529 249.243 217.433 248.88 217.433 248.432C217.433 248.005 217.534 247.637 217.737 247.328C217.95 247.008 218.249 246.763 218.633 246.592C219.028 246.411 219.492 246.32 220.025 246.32C220.59 246.32 221.102 246.421 221.561 246.624C222.02 246.827 222.388 247.125 222.665 247.52L221.945 248.24C221.721 247.952 221.438 247.733 221.097 247.584C220.766 247.424 220.393 247.344 219.977 247.344C219.497 247.344 219.129 247.44 218.873 247.632C218.628 247.813 218.505 248.053 218.505 248.352C218.505 248.64 218.606 248.869 218.809 249.04C219.012 249.2 219.268 249.333 219.577 249.44C219.897 249.536 220.233 249.637 220.585 249.744C220.937 249.84 221.273 249.973 221.593 250.144C221.913 250.304 222.169 250.528 222.361 250.816C222.564 251.093 222.665 251.472 222.665 251.952C222.665 252.624 222.42 253.163 221.929 253.568C221.449 253.963 220.793 254.16 219.961 254.16ZM229.59 254V249.584C229.59 248.923 229.393 248.389 228.998 247.984C228.614 247.568 228.102 247.36 227.462 247.36C227.025 247.36 226.641 247.456 226.31 247.648C225.98 247.84 225.718 248.101 225.526 248.432C225.334 248.763 225.238 249.141 225.238 249.568L224.726 249.28C224.726 248.715 224.86 248.208 225.126 247.76C225.393 247.312 225.75 246.96 226.198 246.704C226.657 246.448 227.18 246.32 227.766 246.32C228.342 246.32 228.854 246.453 229.302 246.72C229.75 246.976 230.097 247.333 230.342 247.792C230.598 248.251 230.726 248.784 230.726 249.392V254H229.59ZM224.118 254V242.672H225.238V254H224.118ZM235.973 254.16C235.216 254.16 234.539 253.989 233.941 253.648C233.344 253.307 232.869 252.837 232.517 252.24C232.176 251.643 232.005 250.971 232.005 250.224C232.005 249.488 232.176 248.827 232.517 248.24C232.859 247.643 233.323 247.173 233.909 246.832C234.496 246.491 235.152 246.32 235.877 246.32C236.56 246.32 237.163 246.475 237.685 246.784C238.219 247.093 238.635 247.525 238.933 248.08C239.243 248.624 239.397 249.253 239.397 249.968C239.397 250.053 239.392 250.155 239.381 250.272C239.371 250.379 239.349 250.507 239.317 250.656H232.805V249.696H238.709L238.309 250.048C238.32 249.493 238.224 249.019 238.021 248.624C237.829 248.219 237.547 247.909 237.173 247.696C236.811 247.472 236.368 247.36 235.845 247.36C235.301 247.36 234.827 247.477 234.421 247.712C234.016 247.947 233.696 248.277 233.461 248.704C233.237 249.12 233.125 249.616 233.125 250.192C233.125 250.768 233.243 251.275 233.477 251.712C233.723 252.149 234.059 252.491 234.485 252.736C234.923 252.981 235.424 253.104 235.989 253.104C236.448 253.104 236.869 253.024 237.253 252.864C237.637 252.693 237.963 252.443 238.229 252.112L238.949 252.848C238.597 253.264 238.16 253.589 237.637 253.824C237.125 254.048 236.571 254.16 235.973 254.16ZM244.263 254.16C243.505 254.16 242.828 253.989 242.231 253.648C241.633 253.307 241.159 252.837 240.807 252.24C240.465 251.643 240.295 250.971 240.295 250.224C240.295 249.488 240.465 248.827 240.807 248.24C241.148 247.643 241.612 247.173 242.199 246.832C242.785 246.491 243.441 246.32 244.167 246.32C244.849 246.32 245.452 246.475 245.975 246.784C246.508 247.093 246.924 247.525 247.223 248.08C247.532 248.624 247.687 249.253 247.687 249.968C247.687 250.053 247.681 250.155 247.671 250.272C247.66 250.379 247.639 250.507 247.607 250.656H241.095V249.696H246.999L246.599 250.048C246.609 249.493 246.513 249.019 246.311 248.624C246.119 248.219 245.836 247.909 245.463 247.696C245.1 247.472 244.657 247.36 244.135 247.36C243.591 247.36 243.116 247.477 242.711 247.712C242.305 247.947 241.985 248.277 241.751 248.704C241.527 249.12 241.415 249.616 241.415 250.192C241.415 250.768 241.532 251.275 241.767 251.712C242.012 252.149 242.348 252.491 242.775 252.736C243.212 252.981 243.713 253.104 244.279 253.104C244.737 253.104 245.159 253.024 245.543 252.864C245.927 252.693 246.252 252.443 246.519 252.112L247.239 252.848C246.887 253.264 246.449 253.589 245.927 253.824C245.415 254.048 244.86 254.16 244.263 254.16ZM249.982 254V243.312H251.102V254H249.982ZM248.078 247.488V246.48H252.99V247.488H248.078ZM256.361 254.16C255.956 254.16 255.566 254.107 255.193 254C254.82 253.883 254.478 253.723 254.169 253.52C253.87 253.317 253.609 253.077 253.385 252.8L254.105 252.064C254.404 252.427 254.74 252.699 255.113 252.88C255.497 253.051 255.924 253.136 256.393 253.136C256.894 253.136 257.284 253.04 257.561 252.848C257.849 252.656 257.993 252.389 257.993 252.048C257.993 251.728 257.892 251.477 257.689 251.296C257.486 251.115 257.225 250.971 256.905 250.864C256.596 250.757 256.265 250.656 255.913 250.56C255.561 250.453 255.225 250.325 254.905 250.176C254.585 250.016 254.324 249.797 254.121 249.52C253.929 249.243 253.833 248.88 253.833 248.432C253.833 248.005 253.934 247.637 254.137 247.328C254.35 247.008 254.649 246.763 255.033 246.592C255.428 246.411 255.892 246.32 256.425 246.32C256.99 246.32 257.502 246.421 257.961 246.624C258.42 246.827 258.788 247.125 259.065 247.52L258.345 248.24C258.121 247.952 257.838 247.733 257.497 247.584C257.166 247.424 256.793 247.344 256.377 247.344C255.897 247.344 255.529 247.44 255.273 247.632C255.028 247.813 254.905 248.053 254.905 248.352C254.905 248.64 255.006 248.869 255.209 249.04C255.412 249.2 255.668 249.333 255.977 249.44C256.297 249.536 256.633 249.637 256.985 249.744C257.337 249.84 257.673 249.973 257.993 250.144C258.313 250.304 258.569 250.528 258.761 250.816C258.964 251.093 259.065 251.472 259.065 251.952C259.065 252.624 258.82 253.163 258.329 253.568C257.849 253.963 257.193 254.16 256.361 254.16ZM266.18 255.808C265.572 255.317 265.054 254.715 264.628 254C264.212 253.296 263.892 252.523 263.668 251.68C263.444 250.827 263.332 249.952 263.332 249.056C263.332 248.149 263.444 247.275 263.668 246.432C263.892 245.589 264.212 244.811 264.628 244.096C265.054 243.381 265.572 242.779 266.18 242.288L266.836 242.896C266.025 243.579 265.406 244.453 264.98 245.52C264.553 246.587 264.34 247.765 264.34 249.056C264.34 250.336 264.553 251.509 264.98 252.576C265.406 253.643 266.025 254.517 266.836 255.2L266.18 255.808ZM271.518 254.16C270.665 254.16 269.929 254 269.31 253.68C268.692 253.349 268.148 252.891 267.678 252.304L268.494 251.504C268.868 252.027 269.3 252.416 269.79 252.672C270.292 252.928 270.884 253.056 271.566 253.056C272.27 253.056 272.841 252.896 273.278 252.576C273.716 252.256 273.934 251.813 273.934 251.248C273.934 250.811 273.833 250.453 273.63 250.176C273.428 249.888 273.161 249.659 272.83 249.488C272.51 249.307 272.153 249.147 271.758 249.008C271.364 248.869 270.969 248.725 270.574 248.576C270.19 248.416 269.833 248.219 269.502 247.984C269.172 247.749 268.905 247.451 268.702 247.088C268.51 246.725 268.414 246.261 268.414 245.696C268.414 245.099 268.558 244.587 268.846 244.16C269.134 243.733 269.529 243.408 270.03 243.184C270.532 242.949 271.102 242.832 271.742 242.832C272.457 242.832 273.092 242.971 273.646 243.248C274.212 243.525 274.681 243.899 275.054 244.368L274.254 245.168C273.913 244.763 273.54 244.453 273.134 244.24C272.729 244.027 272.254 243.92 271.71 243.92C271.07 243.92 270.558 244.069 270.174 244.368C269.79 244.667 269.598 245.083 269.598 245.616C269.598 246.032 269.694 246.368 269.886 246.624C270.089 246.88 270.356 247.093 270.686 247.264C271.017 247.435 271.374 247.589 271.758 247.728C272.153 247.856 272.548 248 272.942 248.16C273.337 248.32 273.694 248.523 274.014 248.768C274.345 249.013 274.612 249.328 274.814 249.712C275.017 250.085 275.118 250.565 275.118 251.152C275.118 252.101 274.793 252.843 274.142 253.376C273.502 253.899 272.628 254.16 271.518 254.16ZM277.738 254V252.912H280.97C281.834 252.912 282.596 252.725 283.258 252.352C283.919 251.968 284.436 251.445 284.81 250.784C285.183 250.112 285.37 249.344 285.37 248.48C285.37 247.616 285.183 246.853 284.81 246.192C284.436 245.531 283.919 245.013 283.258 244.64C282.596 244.256 281.834 244.064 280.97 244.064H277.77V242.992H281.002C281.802 242.992 282.538 243.131 283.21 243.408C283.892 243.675 284.484 244.059 284.986 244.56C285.498 245.051 285.892 245.632 286.17 246.304C286.447 246.965 286.586 247.696 286.586 248.496C286.586 249.275 286.447 250 286.17 250.672C285.892 251.344 285.503 251.931 285.002 252.432C284.5 252.923 283.908 253.307 283.226 253.584C282.554 253.861 281.823 254 281.034 254H277.738ZM277.018 254V242.992H278.186V254H277.018ZM291.566 254.16C290.712 254.16 289.976 254 289.358 253.68C288.739 253.349 288.195 252.891 287.726 252.304L288.542 251.504C288.915 252.027 289.347 252.416 289.838 252.672C290.339 252.928 290.931 253.056 291.614 253.056C292.318 253.056 292.888 252.896 293.326 252.576C293.763 252.256 293.982 251.813 293.982 251.248C293.982 250.811 293.88 250.453 293.678 250.176C293.475 249.888 293.208 249.659 292.878 249.488C292.558 249.307 292.2 249.147 291.806 249.008C291.411 248.869 291.016 248.725 290.622 248.576C290.238 248.416 289.88 248.219 289.55 247.984C289.219 247.749 288.952 247.451 288.75 247.088C288.558 246.725 288.462 246.261 288.462 245.696C288.462 245.099 288.606 244.587 288.894 244.16C289.182 243.733 289.576 243.408 290.078 243.184C290.579 242.949 291.15 242.832 291.79 242.832C292.504 242.832 293.139 242.971 293.694 243.248C294.259 243.525 294.728 243.899 295.102 244.368L294.302 245.168C293.96 244.763 293.587 244.453 293.182 244.24C292.776 244.027 292.302 243.92 291.758 243.92C291.118 243.92 290.606 244.069 290.222 244.368C289.838 244.667 289.646 245.083 289.646 245.616C289.646 246.032 289.742 246.368 289.934 246.624C290.136 246.88 290.403 247.093 290.734 247.264C291.064 247.435 291.422 247.589 291.806 247.728C292.2 247.856 292.595 248 292.99 248.16C293.384 248.32 293.742 248.523 294.062 248.768C294.392 249.013 294.659 249.328 294.862 249.712C295.064 250.085 295.166 250.565 295.166 251.152C295.166 252.101 294.84 252.843 294.19 253.376C293.55 253.899 292.675 254.16 291.566 254.16ZM296.889 255.808L296.217 255.2C297.039 254.517 297.663 253.643 298.089 252.576C298.516 251.509 298.729 250.336 298.729 249.056C298.729 247.765 298.516 246.587 298.089 245.52C297.663 244.453 297.039 243.579 296.217 242.896L296.889 242.288C297.497 242.779 298.009 243.381 298.425 244.096C298.852 244.811 299.172 245.589 299.385 246.432C299.609 247.275 299.721 248.149 299.721 249.056C299.721 249.952 299.609 250.827 299.385 251.68C299.172 252.523 298.852 253.296 298.425 254C298.009 254.715 297.497 255.317 296.889 255.808ZM301.524 255.648L302.436 253.872L302.836 253.776C302.793 253.872 302.734 253.952 302.66 254.016C302.585 254.091 302.494 254.128 302.388 254.128C302.185 254.128 301.998 254.048 301.828 253.888C301.668 253.717 301.588 253.509 301.588 253.264C301.588 253.008 301.678 252.789 301.86 252.608C302.041 252.416 302.26 252.32 302.516 252.32C302.761 252.32 302.974 252.416 303.156 252.608C303.348 252.789 303.444 253.008 303.444 253.264C303.444 253.371 303.422 253.499 303.38 253.648C303.348 253.787 303.273 253.973 303.156 254.208L302.196 256.016L301.524 255.648ZM60.2106 276.16C59.496 276.16 58.856 275.989 58.2906 275.648C57.7253 275.296 57.2773 274.827 56.9466 274.24C56.6266 273.653 56.4666 272.992 56.4666 272.256C56.4666 271.509 56.6266 270.843 56.9466 270.256C57.2773 269.659 57.7253 269.189 58.2906 268.848C58.856 268.496 59.4906 268.32 60.1946 268.32C60.7706 268.32 61.2826 268.437 61.7306 268.672C62.1893 268.896 62.5573 269.216 62.8346 269.632C63.1226 270.037 63.2986 270.512 63.3626 271.056V273.408C63.2986 273.952 63.1226 274.432 62.8346 274.848C62.5573 275.264 62.1893 275.589 61.7306 275.824C61.2826 276.048 60.776 276.16 60.2106 276.16ZM60.3866 275.088C61.1653 275.088 61.7893 274.827 62.2586 274.304C62.7386 273.781 62.9786 273.093 62.9786 272.24C62.9786 271.675 62.8666 271.179 62.6426 270.752C62.4293 270.315 62.1253 269.979 61.7306 269.744C61.3466 269.499 60.8933 269.376 60.3706 269.376C59.8373 269.376 59.3626 269.499 58.9466 269.744C58.5413 269.989 58.216 270.331 57.9706 270.768C57.736 271.195 57.6186 271.685 57.6186 272.24C57.6186 272.795 57.736 273.285 57.9706 273.712C58.216 274.139 58.5466 274.475 58.9626 274.72C59.3786 274.965 59.8533 275.088 60.3866 275.088ZM62.9146 276V273.984L63.1386 272.128L62.9146 270.32V268.48H64.0346V276H62.9146ZM69.186 276.16C68.4927 276.16 67.8687 275.989 67.314 275.648C66.7593 275.307 66.3167 274.843 65.986 274.256C65.666 273.659 65.506 272.992 65.506 272.256C65.506 271.509 65.666 270.843 65.986 270.256C66.3167 269.659 66.7593 269.189 67.314 268.848C67.8687 268.496 68.4927 268.32 69.186 268.32C69.7513 268.32 70.2633 268.432 70.722 268.656C71.1807 268.88 71.5593 269.2 71.858 269.616C72.1673 270.021 72.3487 270.501 72.402 271.056V273.408C72.338 273.952 72.1567 274.432 71.858 274.848C71.57 275.253 71.1967 275.573 70.738 275.808C70.2793 276.043 69.762 276.16 69.186 276.16ZM69.378 275.088C69.9007 275.088 70.3593 274.971 70.754 274.736C71.1487 274.491 71.458 274.155 71.682 273.728C71.906 273.291 72.018 272.795 72.018 272.24C72.018 271.675 71.9007 271.179 71.666 270.752C71.442 270.325 71.1327 269.989 70.738 269.744C70.3433 269.499 69.8847 269.376 69.362 269.376C68.8393 269.376 68.3753 269.499 67.97 269.744C67.5647 269.989 67.2447 270.331 67.01 270.768C66.786 271.195 66.674 271.685 66.674 272.24C66.674 272.795 66.786 273.291 67.01 273.728C67.2447 274.155 67.5647 274.491 67.97 274.736C68.386 274.971 68.8553 275.088 69.378 275.088ZM73.074 276H71.954V273.984L72.178 272.128L71.954 270.32V264.672H73.074V276ZM77.6494 276L74.1774 268.48H75.4254L78.3534 275.056H77.6494L80.5934 268.48H81.8094L78.3054 276H77.6494ZM82.8929 276V268.48H84.0289V276H82.8929ZM83.4529 266.848C83.2395 266.848 83.0582 266.773 82.9089 266.624C82.7595 266.464 82.6849 266.277 82.6849 266.064C82.6849 265.84 82.7595 265.653 82.9089 265.504C83.0582 265.355 83.2395 265.28 83.4529 265.28C83.6875 265.28 83.8742 265.355 84.0129 265.504C84.1622 265.653 84.2369 265.84 84.2369 266.064C84.2369 266.277 84.1622 266.464 84.0129 266.624C83.8742 266.773 83.6875 266.848 83.4529 266.848ZM89.4031 276.16C88.6671 276.16 88.0005 275.989 87.4031 275.648C86.8165 275.296 86.3471 274.821 85.9951 274.224C85.6538 273.627 85.4831 272.96 85.4831 272.224C85.4831 271.488 85.6538 270.827 85.9951 270.24C86.3471 269.643 86.8165 269.173 87.4031 268.832C88.0005 268.491 88.6671 268.32 89.4031 268.32C89.9685 268.32 90.4965 268.427 90.9871 268.64C91.4778 268.853 91.8938 269.152 92.2351 269.536L91.4991 270.288C91.2431 270 90.9338 269.781 90.5711 269.632C90.2085 269.472 89.8191 269.392 89.4031 269.392C88.8698 269.392 88.3951 269.515 87.9791 269.76C87.5631 270.005 87.2378 270.341 87.0031 270.768C86.7685 271.184 86.6511 271.669 86.6511 272.224C86.6511 272.768 86.7685 273.259 87.0031 273.696C87.2378 274.123 87.5631 274.459 87.9791 274.704C88.3951 274.949 88.8698 275.072 89.4031 275.072C89.8298 275.072 90.2245 274.997 90.5871 274.848C90.9498 274.688 91.2591 274.464 91.5151 274.176L92.2671 274.928C91.9151 275.323 91.4885 275.627 90.9871 275.84C90.4965 276.053 89.9685 276.16 89.4031 276.16ZM96.8499 276.16C96.0925 276.16 95.4152 275.989 94.8179 275.648C94.2205 275.307 93.7459 274.837 93.3939 274.24C93.0525 273.643 92.8819 272.971 92.8819 272.224C92.8819 271.488 93.0525 270.827 93.3939 270.24C93.7352 269.643 94.1992 269.173 94.7859 268.832C95.3725 268.491 96.0285 268.32 96.7539 268.32C97.4365 268.32 98.0392 268.475 98.5619 268.784C99.0952 269.093 99.5112 269.525 99.8099 270.08C100.119 270.624 100.274 271.253 100.274 271.968C100.274 272.053 100.269 272.155 100.258 272.272C100.247 272.379 100.226 272.507 100.194 272.656H93.6819V271.696H99.5859L99.1859 272.048C99.1965 271.493 99.1005 271.019 98.8979 270.624C98.7059 270.219 98.4232 269.909 98.0499 269.696C97.6872 269.472 97.2445 269.36 96.7219 269.36C96.1779 269.36 95.7032 269.477 95.2979 269.712C94.8925 269.947 94.5725 270.277 94.3379 270.704C94.1139 271.12 94.0019 271.616 94.0019 272.192C94.0019 272.768 94.1192 273.275 94.3539 273.712C94.5992 274.149 94.9352 274.491 95.3619 274.736C95.7992 274.981 96.3005 275.104 96.8659 275.104C97.3245 275.104 97.7459 275.024 98.1299 274.864C98.5139 274.693 98.8392 274.443 99.1059 274.112L99.8259 274.848C99.4739 275.264 99.0365 275.589 98.5139 275.824C98.0019 276.048 97.4472 276.16 96.8499 276.16ZM108.193 276.16C107.467 276.16 106.806 275.984 106.209 275.632C105.622 275.28 105.153 274.805 104.801 274.208C104.459 273.611 104.289 272.944 104.289 272.208C104.289 271.483 104.459 270.827 104.801 270.24C105.153 269.653 105.622 269.189 106.209 268.848C106.806 268.496 107.467 268.32 108.193 268.32C108.929 268.32 109.59 268.491 110.177 268.832C110.763 269.173 111.227 269.643 111.569 270.24C111.921 270.827 112.097 271.483 112.097 272.208C112.097 272.955 111.921 273.627 111.569 274.224C111.227 274.811 110.763 275.28 110.177 275.632C109.59 275.984 108.929 276.16 108.193 276.16ZM108.193 275.072C108.726 275.072 109.195 274.949 109.601 274.704C110.017 274.459 110.342 274.117 110.577 273.68C110.822 273.243 110.945 272.752 110.945 272.208C110.945 271.664 110.822 271.184 110.577 270.768C110.342 270.341 110.017 270.005 109.601 269.76C109.195 269.515 108.726 269.392 108.193 269.392C107.67 269.392 107.201 269.515 106.785 269.76C106.369 270.005 106.043 270.341 105.809 270.768C105.574 271.184 105.457 271.664 105.457 272.208C105.457 272.763 105.574 273.259 105.809 273.696C106.043 274.123 106.369 274.459 106.785 274.704C107.201 274.949 107.67 275.072 108.193 275.072ZM119.03 276V271.584C119.03 270.923 118.833 270.389 118.438 269.984C118.054 269.568 117.542 269.36 116.902 269.36C116.465 269.36 116.081 269.456 115.75 269.648C115.42 269.84 115.158 270.101 114.966 270.432C114.774 270.763 114.678 271.141 114.678 271.568L114.166 271.28C114.166 270.715 114.3 270.208 114.566 269.76C114.833 269.312 115.19 268.96 115.638 268.704C116.097 268.448 116.62 268.32 117.206 268.32C117.782 268.32 118.294 268.459 118.742 268.736C119.19 269.013 119.537 269.387 119.782 269.856C120.038 270.325 120.166 270.837 120.166 271.392V276H119.03ZM113.558 276V268.48H114.678V276H113.558ZM128.483 276.16C127.747 276.16 127.08 275.989 126.483 275.648C125.896 275.296 125.427 274.821 125.075 274.224C124.734 273.627 124.563 272.96 124.563 272.224C124.563 271.488 124.734 270.827 125.075 270.24C125.427 269.643 125.896 269.173 126.483 268.832C127.08 268.491 127.747 268.32 128.483 268.32C129.048 268.32 129.576 268.427 130.067 268.64C130.558 268.853 130.974 269.152 131.315 269.536L130.579 270.288C130.323 270 130.014 269.781 129.651 269.632C129.288 269.472 128.899 269.392 128.483 269.392C127.95 269.392 127.475 269.515 127.059 269.76C126.643 270.005 126.318 270.341 126.083 270.768C125.848 271.184 125.731 271.669 125.731 272.224C125.731 272.768 125.848 273.259 126.083 273.696C126.318 274.123 126.643 274.459 127.059 274.704C127.475 274.949 127.95 275.072 128.483 275.072C128.91 275.072 129.304 274.997 129.667 274.848C130.03 274.688 130.339 274.464 130.595 274.176L131.347 274.928C130.995 275.323 130.568 275.627 130.067 275.84C129.576 276.053 129.048 276.16 128.483 276.16ZM138.071 276V271.584C138.071 270.923 137.873 270.389 137.479 269.984C137.095 269.568 136.583 269.36 135.943 269.36C135.505 269.36 135.121 269.456 134.791 269.648C134.46 269.84 134.199 270.101 134.007 270.432C133.815 270.763 133.719 271.141 133.719 271.568L133.207 271.28C133.207 270.715 133.34 270.208 133.607 269.76C133.873 269.312 134.231 268.96 134.679 268.704C135.137 268.448 135.66 268.32 136.247 268.32C136.823 268.32 137.335 268.453 137.783 268.72C138.231 268.976 138.577 269.333 138.823 269.792C139.079 270.251 139.207 270.784 139.207 271.392V276H138.071ZM132.599 276V264.672H133.719V276H132.599ZM144.454 276.16C143.696 276.16 143.019 275.989 142.422 275.648C141.824 275.307 141.35 274.837 140.998 274.24C140.656 273.643 140.486 272.971 140.486 272.224C140.486 271.488 140.656 270.827 140.998 270.24C141.339 269.643 141.803 269.173 142.39 268.832C142.976 268.491 143.632 268.32 144.358 268.32C145.04 268.32 145.643 268.475 146.166 268.784C146.699 269.093 147.115 269.525 147.414 270.08C147.723 270.624 147.878 271.253 147.878 271.968C147.878 272.053 147.872 272.155 147.862 272.272C147.851 272.379 147.83 272.507 147.798 272.656H141.286V271.696H147.19L146.79 272.048C146.8 271.493 146.704 271.019 146.502 270.624C146.31 270.219 146.027 269.909 145.654 269.696C145.291 269.472 144.848 269.36 144.326 269.36C143.782 269.36 143.307 269.477 142.902 269.712C142.496 269.947 142.176 270.277 141.942 270.704C141.718 271.12 141.606 271.616 141.606 272.192C141.606 272.768 141.723 273.275 141.958 273.712C142.203 274.149 142.539 274.491 142.966 274.736C143.403 274.981 143.904 275.104 144.47 275.104C144.928 275.104 145.35 275.024 145.734 274.864C146.118 274.693 146.443 274.443 146.71 274.112L147.43 274.848C147.078 275.264 146.64 275.589 146.118 275.824C145.606 276.048 145.051 276.16 144.454 276.16ZM149.271 276V268.48H150.391V276H149.271ZM154.439 276V271.392C154.439 270.773 154.252 270.283 153.879 269.92C153.506 269.547 153.036 269.36 152.471 269.36C152.087 269.36 151.735 269.445 151.415 269.616C151.106 269.776 150.855 270.005 150.663 270.304C150.482 270.603 150.391 270.96 150.391 271.376L149.879 271.168C149.879 270.592 150.007 270.091 150.263 269.664C150.519 269.237 150.86 268.907 151.287 268.672C151.724 268.437 152.215 268.32 152.759 268.32C153.292 268.32 153.767 268.437 154.183 268.672C154.61 268.907 154.946 269.237 155.191 269.664C155.447 270.091 155.575 270.597 155.575 271.184V276H154.439ZM159.623 276V271.392C159.623 270.773 159.436 270.283 159.063 269.92C158.69 269.547 158.215 269.36 157.639 269.36C157.266 269.36 156.919 269.445 156.599 269.616C156.29 269.776 156.039 270.005 155.847 270.304C155.666 270.603 155.575 270.96 155.575 271.376L154.903 271.168C154.935 270.592 155.084 270.091 155.351 269.664C155.628 269.237 155.986 268.907 156.423 268.672C156.871 268.437 157.362 268.32 157.895 268.32C158.428 268.32 158.908 268.437 159.335 268.672C159.772 268.907 160.114 269.237 160.359 269.664C160.615 270.091 160.743 270.597 160.743 271.184V276H159.623ZM162.529 276V268.48H163.665V276H162.529ZM163.089 266.848C162.876 266.848 162.694 266.773 162.545 266.624C162.396 266.464 162.321 266.277 162.321 266.064C162.321 265.84 162.396 265.653 162.545 265.504C162.694 265.355 162.876 265.28 163.089 265.28C163.324 265.28 163.51 265.355 163.649 265.504C163.798 265.653 163.873 265.84 163.873 266.064C163.873 266.277 163.798 266.464 163.649 266.624C163.51 266.773 163.324 266.848 163.089 266.848ZM169.039 276.16C168.303 276.16 167.637 275.989 167.039 275.648C166.453 275.296 165.983 274.821 165.631 274.224C165.29 273.627 165.119 272.96 165.119 272.224C165.119 271.488 165.29 270.827 165.631 270.24C165.983 269.643 166.453 269.173 167.039 268.832C167.637 268.491 168.303 268.32 169.039 268.32C169.605 268.32 170.133 268.427 170.623 268.64C171.114 268.853 171.53 269.152 171.871 269.536L171.135 270.288C170.879 270 170.57 269.781 170.207 269.632C169.845 269.472 169.455 269.392 169.039 269.392C168.506 269.392 168.031 269.515 167.615 269.76C167.199 270.005 166.874 270.341 166.639 270.768C166.405 271.184 166.287 271.669 166.287 272.224C166.287 272.768 166.405 273.259 166.639 273.696C166.874 274.123 167.199 274.459 167.615 274.704C168.031 274.949 168.506 275.072 169.039 275.072C169.466 275.072 169.861 274.997 170.223 274.848C170.586 274.688 170.895 274.464 171.151 274.176L171.903 274.928C171.551 275.323 171.125 275.627 170.623 275.84C170.133 276.053 169.605 276.16 169.039 276.16ZM176.278 276.16C175.563 276.16 174.923 275.989 174.358 275.648C173.793 275.296 173.345 274.827 173.014 274.24C172.694 273.653 172.534 272.992 172.534 272.256C172.534 271.509 172.694 270.843 173.014 270.256C173.345 269.659 173.793 269.189 174.358 268.848C174.923 268.496 175.558 268.32 176.262 268.32C176.838 268.32 177.35 268.437 177.798 268.672C178.257 268.896 178.625 269.216 178.902 269.632C179.19 270.037 179.366 270.512 179.43 271.056V273.408C179.366 273.952 179.19 274.432 178.902 274.848C178.625 275.264 178.257 275.589 177.798 275.824C177.35 276.048 176.843 276.16 176.278 276.16ZM176.454 275.088C177.233 275.088 177.857 274.827 178.326 274.304C178.806 273.781 179.046 273.093 179.046 272.24C179.046 271.675 178.934 271.179 178.71 270.752C178.497 270.315 178.193 269.979 177.798 269.744C177.414 269.499 176.961 269.376 176.438 269.376C175.905 269.376 175.43 269.499 175.014 269.744C174.609 269.989 174.283 270.331 174.038 270.768C173.803 271.195 173.686 271.685 173.686 272.24C173.686 272.795 173.803 273.285 174.038 273.712C174.283 274.139 174.614 274.475 175.03 274.72C175.446 274.965 175.921 275.088 176.454 275.088ZM178.982 276V273.984L179.206 272.128L178.982 270.32V268.48H180.102V276H178.982ZM182.053 276V264.672H183.173V276H182.053ZM191.218 276.16C190.61 276.16 190.066 276.021 189.586 275.744C189.106 275.456 188.727 275.067 188.45 274.576C188.183 274.085 188.05 273.509 188.05 272.848V268.48H189.186V272.8C189.186 273.259 189.266 273.659 189.426 274C189.596 274.341 189.836 274.608 190.146 274.8C190.455 274.992 190.812 275.088 191.218 275.088C191.847 275.088 192.343 274.88 192.706 274.464C193.079 274.048 193.266 273.493 193.266 272.8V268.48H194.386V272.848C194.386 273.499 194.252 274.075 193.986 274.576C193.719 275.077 193.346 275.467 192.866 275.744C192.386 276.021 191.836 276.16 191.218 276.16ZM198.46 276.16C198.055 276.16 197.665 276.107 197.292 276C196.919 275.883 196.577 275.723 196.268 275.52C195.969 275.317 195.708 275.077 195.484 274.8L196.204 274.064C196.503 274.427 196.839 274.699 197.212 274.88C197.596 275.051 198.023 275.136 198.492 275.136C198.993 275.136 199.383 275.04 199.66 274.848C199.948 274.656 200.092 274.389 200.092 274.048C200.092 273.728 199.991 273.477 199.788 273.296C199.585 273.115 199.324 272.971 199.004 272.864C198.695 272.757 198.364 272.656 198.012 272.56C197.66 272.453 197.324 272.325 197.004 272.176C196.684 272.016 196.423 271.797 196.22 271.52C196.028 271.243 195.932 270.88 195.932 270.432C195.932 270.005 196.033 269.637 196.236 269.328C196.449 269.008 196.748 268.763 197.132 268.592C197.527 268.411 197.991 268.32 198.524 268.32C199.089 268.32 199.601 268.421 200.06 268.624C200.519 268.827 200.887 269.125 201.164 269.52L200.444 270.24C200.22 269.952 199.937 269.733 199.596 269.584C199.265 269.424 198.892 269.344 198.476 269.344C197.996 269.344 197.628 269.44 197.372 269.632C197.127 269.813 197.004 270.053 197.004 270.352C197.004 270.64 197.105 270.869 197.308 271.04C197.511 271.2 197.767 271.333 198.076 271.44C198.396 271.536 198.732 271.637 199.084 271.744C199.436 271.84 199.772 271.973 200.092 272.144C200.412 272.304 200.668 272.528 200.86 272.816C201.063 273.093 201.164 273.472 201.164 273.952C201.164 274.624 200.919 275.163 200.428 275.568C199.948 275.963 199.292 276.16 198.46 276.16ZM205.881 276.16C205.167 276.16 204.527 275.989 203.961 275.648C203.396 275.296 202.948 274.827 202.617 274.24C202.297 273.653 202.137 272.992 202.137 272.256C202.137 271.509 202.297 270.843 202.617 270.256C202.948 269.659 203.396 269.189 203.961 268.848C204.527 268.496 205.161 268.32 205.865 268.32C206.441 268.32 206.953 268.437 207.401 268.672C207.86 268.896 208.228 269.216 208.505 269.632C208.793 270.037 208.969 270.512 209.033 271.056V273.408C208.969 273.952 208.793 274.432 208.505 274.848C208.228 275.264 207.86 275.589 207.401 275.824C206.953 276.048 206.447 276.16 205.881 276.16ZM206.057 275.088C206.836 275.088 207.46 274.827 207.929 274.304C208.409 273.781 208.649 273.093 208.649 272.24C208.649 271.675 208.537 271.179 208.313 270.752C208.1 270.315 207.796 269.979 207.401 269.744C207.017 269.499 206.564 269.376 206.041 269.376C205.508 269.376 205.033 269.499 204.617 269.744C204.212 269.989 203.887 270.331 203.641 270.768C203.407 271.195 203.289 271.685 203.289 272.24C203.289 272.795 203.407 273.285 203.641 273.712C203.887 274.139 204.217 274.475 204.633 274.72C205.049 274.965 205.524 275.088 206.057 275.088ZM208.585 276V273.984L208.809 272.128L208.585 270.32V268.48H209.705V276H208.585ZM214.761 279.328C214.003 279.328 213.326 279.184 212.729 278.896C212.142 278.619 211.667 278.224 211.305 277.712L212.041 276.976C212.339 277.381 212.718 277.696 213.177 277.92C213.635 278.144 214.174 278.256 214.793 278.256C215.646 278.256 216.323 278.027 216.825 277.568C217.337 277.109 217.593 276.485 217.593 275.696V273.824L217.817 272.112L217.593 270.416V268.48H218.713V275.696C218.713 276.421 218.547 277.056 218.217 277.6C217.886 278.144 217.422 278.565 216.825 278.864C216.238 279.173 215.55 279.328 214.761 279.328ZM214.841 275.92C214.147 275.92 213.523 275.755 212.969 275.424C212.414 275.093 211.977 274.64 211.657 274.064C211.337 273.488 211.177 272.837 211.177 272.112C211.177 271.387 211.331 270.741 211.641 270.176C211.961 269.6 212.398 269.147 212.953 268.816C213.507 268.485 214.131 268.32 214.825 268.32C215.411 268.32 215.934 268.432 216.393 268.656C216.862 268.88 217.235 269.2 217.513 269.616C217.801 270.021 217.977 270.501 218.041 271.056V273.184C217.977 273.728 217.801 274.208 217.513 274.624C217.225 275.029 216.851 275.349 216.393 275.584C215.934 275.808 215.417 275.92 214.841 275.92ZM215.049 274.848C215.571 274.848 216.025 274.736 216.409 274.512C216.803 274.288 217.107 273.973 217.321 273.568C217.545 273.152 217.657 272.667 217.657 272.112C217.657 271.568 217.545 271.093 217.321 270.688C217.107 270.283 216.803 269.963 216.409 269.728C216.014 269.493 215.555 269.376 215.033 269.376C214.51 269.376 214.041 269.493 213.625 269.728C213.219 269.963 212.899 270.283 212.665 270.688C212.441 271.093 212.329 271.568 212.329 272.112C212.329 272.645 212.446 273.12 212.681 273.536C212.915 273.952 213.235 274.277 213.641 274.512C214.046 274.736 214.515 274.848 215.049 274.848ZM224.121 276.16C223.364 276.16 222.686 275.989 222.089 275.648C221.492 275.307 221.017 274.837 220.665 274.24C220.324 273.643 220.153 272.971 220.153 272.224C220.153 271.488 220.324 270.827 220.665 270.24C221.006 269.643 221.47 269.173 222.057 268.832C222.644 268.491 223.3 268.32 224.025 268.32C224.708 268.32 225.31 268.475 225.833 268.784C226.366 269.093 226.782 269.525 227.081 270.08C227.39 270.624 227.545 271.253 227.545 271.968C227.545 272.053 227.54 272.155 227.529 272.272C227.518 272.379 227.497 272.507 227.465 272.656H220.953V271.696H226.857L226.457 272.048C226.468 271.493 226.372 271.019 226.169 270.624C225.977 270.219 225.694 269.909 225.321 269.696C224.958 269.472 224.516 269.36 223.993 269.36C223.449 269.36 222.974 269.477 222.569 269.712C222.164 269.947 221.844 270.277 221.609 270.704C221.385 271.12 221.273 271.616 221.273 272.192C221.273 272.768 221.39 273.275 221.625 273.712C221.87 274.149 222.206 274.491 222.633 274.736C223.07 274.981 223.572 275.104 224.137 275.104C224.596 275.104 225.017 275.024 225.401 274.864C225.785 274.693 226.11 274.443 226.377 274.112L227.097 274.848C226.745 275.264 226.308 275.589 225.785 275.824C225.273 276.048 224.718 276.16 224.121 276.16ZM229.099 277.648L230.011 275.872L230.411 275.776C230.368 275.872 230.309 275.952 230.235 276.016C230.16 276.091 230.069 276.128 229.963 276.128C229.76 276.128 229.573 276.048 229.403 275.888C229.243 275.717 229.163 275.509 229.163 275.264C229.163 275.008 229.253 274.789 229.435 274.608C229.616 274.416 229.835 274.32 230.091 274.32C230.336 274.32 230.549 274.416 230.731 274.608C230.923 274.789 231.019 275.008 231.019 275.264C231.019 275.371 230.997 275.499 230.955 275.648C230.923 275.787 230.848 275.973 230.731 276.208L229.771 278.016L229.099 277.648ZM239.391 276.16C238.676 276.16 238.036 275.989 237.471 275.648C236.905 275.296 236.457 274.827 236.127 274.24C235.807 273.653 235.647 272.992 235.647 272.256C235.647 271.509 235.807 270.843 236.127 270.256C236.457 269.659 236.905 269.189 237.471 268.848C238.036 268.496 238.671 268.32 239.375 268.32C239.951 268.32 240.463 268.437 240.911 268.672C241.369 268.896 241.737 269.216 242.015 269.632C242.303 270.037 242.479 270.512 242.543 271.056V273.408C242.479 273.952 242.303 274.432 242.015 274.848C241.737 275.264 241.369 275.589 240.911 275.824C240.463 276.048 239.956 276.16 239.391 276.16ZM239.567 275.088C240.345 275.088 240.969 274.827 241.439 274.304C241.919 273.781 242.159 273.093 242.159 272.24C242.159 271.675 242.047 271.179 241.823 270.752C241.609 270.315 241.305 269.979 240.911 269.744C240.527 269.499 240.073 269.376 239.551 269.376C239.017 269.376 238.543 269.499 238.127 269.744C237.721 269.989 237.396 270.331 237.151 270.768C236.916 271.195 236.799 271.685 236.799 272.24C236.799 272.795 236.916 273.285 237.151 273.712C237.396 274.139 237.727 274.475 238.143 274.72C238.559 274.965 239.033 275.088 239.567 275.088ZM242.095 276V273.984L242.319 272.128L242.095 270.32V268.48H243.215V276H242.095ZM249.054 276.16C248.478 276.16 247.961 276.043 247.502 275.808C247.043 275.573 246.665 275.253 246.366 274.848C246.078 274.432 245.902 273.952 245.838 273.408V271.056C245.902 270.501 246.083 270.021 246.382 269.616C246.681 269.2 247.059 268.88 247.518 268.656C247.987 268.432 248.499 268.32 249.054 268.32C249.747 268.32 250.371 268.496 250.926 268.848C251.481 269.189 251.918 269.659 252.238 270.256C252.569 270.843 252.734 271.509 252.734 272.256C252.734 272.992 252.574 273.653 252.254 274.24C251.934 274.827 251.491 275.296 250.926 275.648C250.371 275.989 249.747 276.16 249.054 276.16ZM245.166 279.168V268.48H246.286V270.4L246.062 272.224L246.286 274.064V279.168H245.166ZM248.862 275.088C249.395 275.088 249.865 274.971 250.27 274.736C250.675 274.491 250.99 274.155 251.214 273.728C251.449 273.291 251.566 272.795 251.566 272.24C251.566 271.675 251.449 271.179 251.214 270.752C250.99 270.325 250.675 269.989 250.27 269.744C249.865 269.499 249.401 269.376 248.878 269.376C248.355 269.376 247.891 269.499 247.486 269.744C247.091 269.989 246.782 270.325 246.558 270.752C246.334 271.179 246.222 271.675 246.222 272.24C246.222 272.795 246.334 273.291 246.558 273.728C246.782 274.155 247.091 274.491 247.486 274.736C247.881 274.971 248.339 275.088 248.862 275.088ZM258.093 276.16C257.517 276.16 257 276.043 256.541 275.808C256.083 275.573 255.704 275.253 255.405 274.848C255.117 274.432 254.941 273.952 254.877 273.408V271.056C254.941 270.501 255.123 270.021 255.421 269.616C255.72 269.2 256.099 268.88 256.557 268.656C257.027 268.432 257.539 268.32 258.093 268.32C258.787 268.32 259.411 268.496 259.965 268.848C260.52 269.189 260.957 269.659 261.277 270.256C261.608 270.843 261.773 271.509 261.773 272.256C261.773 272.992 261.613 273.653 261.293 274.24C260.973 274.827 260.531 275.296 259.965 275.648C259.411 275.989 258.787 276.16 258.093 276.16ZM254.205 279.168V268.48H255.325V270.4L255.101 272.224L255.325 274.064V279.168H254.205ZM257.901 275.088C258.435 275.088 258.904 274.971 259.309 274.736C259.715 274.491 260.029 274.155 260.253 273.728C260.488 273.291 260.605 272.795 260.605 272.24C260.605 271.675 260.488 271.179 260.253 270.752C260.029 270.325 259.715 269.989 259.309 269.744C258.904 269.499 258.44 269.376 257.917 269.376C257.395 269.376 256.931 269.499 256.525 269.744C256.131 269.989 255.821 270.325 255.597 270.752C255.373 271.179 255.261 271.675 255.261 272.24C255.261 272.795 255.373 273.291 255.597 273.728C255.821 274.155 256.131 274.491 256.525 274.736C256.92 274.971 257.379 275.088 257.901 275.088ZM263.245 276V268.48H264.365V276H263.245ZM264.365 271.616L263.901 271.408C263.901 270.459 264.13 269.707 264.589 269.152C265.058 268.597 265.698 268.32 266.509 268.32C266.882 268.32 267.223 268.389 267.533 268.528C267.842 268.656 268.13 268.864 268.397 269.152L267.661 269.936C267.479 269.733 267.277 269.589 267.053 269.504C266.839 269.419 266.594 269.376 266.317 269.376C265.741 269.376 265.271 269.568 264.909 269.952C264.546 270.325 264.365 270.88 264.365 271.616ZM272.411 276.16C271.686 276.16 271.024 275.984 270.427 275.632C269.84 275.28 269.371 274.805 269.019 274.208C268.678 273.611 268.507 272.944 268.507 272.208C268.507 271.483 268.678 270.827 269.019 270.24C269.371 269.653 269.84 269.189 270.427 268.848C271.024 268.496 271.686 268.32 272.411 268.32C273.147 268.32 273.808 268.491 274.395 268.832C274.982 269.173 275.446 269.643 275.787 270.24C276.139 270.827 276.315 271.483 276.315 272.208C276.315 272.955 276.139 273.627 275.787 274.224C275.446 274.811 274.982 275.28 274.395 275.632C273.808 275.984 273.147 276.16 272.411 276.16ZM272.411 275.072C272.944 275.072 273.414 274.949 273.819 274.704C274.235 274.459 274.56 274.117 274.795 273.68C275.04 273.243 275.163 272.752 275.163 272.208C275.163 271.664 275.04 271.184 274.795 270.768C274.56 270.341 274.235 270.005 273.819 269.76C273.414 269.515 272.944 269.392 272.411 269.392C271.888 269.392 271.419 269.515 271.003 269.76C270.587 270.005 270.262 270.341 270.027 270.768C269.792 271.184 269.675 271.664 269.675 272.208C269.675 272.763 269.792 273.259 270.027 273.696C270.262 274.123 270.587 274.459 271.003 274.704C271.419 274.949 271.888 275.072 272.411 275.072ZM281.665 276.16C281.089 276.16 280.571 276.043 280.113 275.808C279.654 275.573 279.275 275.253 278.977 274.848C278.689 274.432 278.513 273.952 278.449 273.408V271.056C278.513 270.501 278.694 270.021 278.993 269.616C279.291 269.2 279.67 268.88 280.129 268.656C280.598 268.432 281.11 268.32 281.665 268.32C282.358 268.32 282.982 268.496 283.537 268.848C284.091 269.189 284.529 269.659 284.849 270.256C285.179 270.843 285.345 271.509 285.345 272.256C285.345 272.992 285.185 273.653 284.865 274.24C284.545 274.827 284.102 275.296 283.537 275.648C282.982 275.989 282.358 276.16 281.665 276.16ZM277.777 279.168V268.48H278.897V270.4L278.673 272.224L278.897 274.064V279.168H277.777ZM281.473 275.088C282.006 275.088 282.475 274.971 282.881 274.736C283.286 274.491 283.601 274.155 283.825 273.728C284.059 273.291 284.177 272.795 284.177 272.24C284.177 271.675 284.059 271.179 283.825 270.752C283.601 270.325 283.286 269.989 282.881 269.744C282.475 269.499 282.011 269.376 281.489 269.376C280.966 269.376 280.502 269.499 280.097 269.744C279.702 269.989 279.393 270.325 279.169 270.752C278.945 271.179 278.833 271.675 278.833 272.24C278.833 272.795 278.945 273.291 279.169 273.728C279.393 274.155 279.702 274.491 280.097 274.736C280.491 274.971 280.95 275.088 281.473 275.088ZM286.816 276V268.48H287.936V276H286.816ZM287.936 271.616L287.472 271.408C287.472 270.459 287.701 269.707 288.16 269.152C288.629 268.597 289.269 268.32 290.08 268.32C290.453 268.32 290.795 268.389 291.104 268.528C291.413 268.656 291.701 268.864 291.968 269.152L291.232 269.936C291.051 269.733 290.848 269.589 290.624 269.504C290.411 269.419 290.165 269.376 289.888 269.376C289.312 269.376 288.843 269.568 288.48 269.952C288.117 270.325 287.936 270.88 287.936 271.616ZM292.84 276V268.48H293.976V276H292.84ZM293.4 266.848C293.186 266.848 293.005 266.773 292.856 266.624C292.706 266.464 292.632 266.277 292.632 266.064C292.632 265.84 292.706 265.653 292.856 265.504C293.005 265.355 293.186 265.28 293.4 265.28C293.634 265.28 293.821 265.355 293.96 265.504C294.109 265.653 294.184 265.84 294.184 266.064C294.184 266.277 294.109 266.464 293.96 266.624C293.821 266.773 293.634 266.848 293.4 266.848ZM299.19 276.16C298.475 276.16 297.835 275.989 297.27 275.648C296.705 275.296 296.257 274.827 295.926 274.24C295.606 273.653 295.446 272.992 295.446 272.256C295.446 271.509 295.606 270.843 295.926 270.256C296.257 269.659 296.705 269.189 297.27 268.848C297.835 268.496 298.47 268.32 299.174 268.32C299.75 268.32 300.262 268.437 300.71 268.672C301.169 268.896 301.537 269.216 301.814 269.632C302.102 270.037 302.278 270.512 302.342 271.056V273.408C302.278 273.952 302.102 274.432 301.814 274.848C301.537 275.264 301.169 275.589 300.71 275.824C300.262 276.048 299.755 276.16 299.19 276.16ZM299.366 275.088C300.145 275.088 300.769 274.827 301.238 274.304C301.718 273.781 301.958 273.093 301.958 272.24C301.958 271.675 301.846 271.179 301.622 270.752C301.409 270.315 301.105 269.979 300.71 269.744C300.326 269.499 299.873 269.376 299.35 269.376C298.817 269.376 298.342 269.499 297.926 269.744C297.521 269.989 297.195 270.331 296.95 270.768C296.715 271.195 296.598 271.685 296.598 272.24C296.598 272.795 296.715 273.285 296.95 273.712C297.195 274.139 297.526 274.475 297.942 274.72C298.358 274.965 298.833 275.088 299.366 275.088ZM301.894 276V273.984L302.118 272.128L301.894 270.32V268.48H303.014V276H301.894ZM306.071 276V265.312H307.191V276H306.071ZM304.167 269.488V268.48H309.079V269.488H304.167ZM313.508 276.16C312.751 276.16 312.073 275.989 311.476 275.648C310.879 275.307 310.404 274.837 310.052 274.24C309.711 273.643 309.54 272.971 309.54 272.224C309.54 271.488 309.711 270.827 310.052 270.24C310.393 269.643 310.857 269.173 311.444 268.832C312.031 268.491 312.687 268.32 313.412 268.32C314.095 268.32 314.697 268.475 315.22 268.784C315.753 269.093 316.169 269.525 316.468 270.08C316.777 270.624 316.932 271.253 316.932 271.968C316.932 272.053 316.927 272.155 316.916 272.272C316.905 272.379 316.884 272.507 316.852 272.656H310.34V271.696H316.244L315.844 272.048C315.855 271.493 315.759 271.019 315.556 270.624C315.364 270.219 315.081 269.909 314.708 269.696C314.345 269.472 313.903 269.36 313.38 269.36C312.836 269.36 312.361 269.477 311.956 269.712C311.551 269.947 311.231 270.277 310.996 270.704C310.772 271.12 310.66 271.616 310.66 272.192C310.66 272.768 310.777 273.275 311.012 273.712C311.257 274.149 311.593 274.491 312.02 274.736C312.457 274.981 312.959 275.104 313.524 275.104C313.983 275.104 314.404 275.024 314.788 274.864C315.172 274.693 315.497 274.443 315.764 274.112L316.484 274.848C316.132 275.264 315.695 275.589 315.172 275.824C314.66 276.048 314.105 276.16 313.508 276.16ZM94.0333 298V293.584C94.0333 292.923 93.836 292.389 93.4413 291.984C93.0573 291.568 92.5453 291.36 91.9053 291.36C91.468 291.36 91.084 291.456 90.7533 291.648C90.4226 291.84 90.1613 292.101 89.9693 292.432C89.7773 292.763 89.6813 293.141 89.6813 293.568L89.1693 293.28C89.1693 292.715 89.3026 292.208 89.5693 291.76C89.836 291.312 90.1933 290.96 90.6413 290.704C91.1 290.448 91.6226 290.32 92.2093 290.32C92.7853 290.32 93.2973 290.453 93.7453 290.72C94.1933 290.976 94.54 291.333 94.7853 291.792C95.0413 292.251 95.1693 292.784 95.1693 293.392V298H94.0333ZM88.5613 298V286.672H89.6813V298H88.5613ZM100.208 298.16C99.4938 298.16 98.8538 297.989 98.2884 297.648C97.7231 297.296 97.2751 296.827 96.9444 296.24C96.6244 295.653 96.4644 294.992 96.4644 294.256C96.4644 293.509 96.6244 292.843 96.9444 292.256C97.2751 291.659 97.7231 291.189 98.2884 290.848C98.8538 290.496 99.4884 290.32 100.192 290.32C100.768 290.32 101.28 290.437 101.728 290.672C102.187 290.896 102.555 291.216 102.832 291.632C103.12 292.037 103.296 292.512 103.36 293.056V295.408C103.296 295.952 103.12 296.432 102.832 296.848C102.555 297.264 102.187 297.589 101.728 297.824C101.28 298.048 100.774 298.16 100.208 298.16ZM100.384 297.088C101.163 297.088 101.787 296.827 102.256 296.304C102.736 295.781 102.976 295.093 102.976 294.24C102.976 293.675 102.864 293.179 102.64 292.752C102.427 292.315 102.123 291.979 101.728 291.744C101.344 291.499 100.891 291.376 100.368 291.376C99.8351 291.376 99.3604 291.499 98.9444 291.744C98.5391 291.989 98.2138 292.331 97.9684 292.768C97.7338 293.195 97.6164 293.685 97.6164 294.24C97.6164 294.795 97.7338 295.285 97.9684 295.712C98.2138 296.139 98.5444 296.475 98.9604 296.72C99.3764 296.965 99.8511 297.088 100.384 297.088ZM102.912 298V295.984L103.136 294.128L102.912 292.32V290.48H104.032V298H102.912ZM111.456 298V293.584C111.456 292.923 111.258 292.389 110.864 291.984C110.48 291.568 109.968 291.36 109.328 291.36C108.89 291.36 108.506 291.456 108.176 291.648C107.845 291.84 107.584 292.101 107.392 292.432C107.2 292.763 107.104 293.141 107.104 293.568L106.592 293.28C106.592 292.715 106.725 292.208 106.992 291.76C107.258 291.312 107.616 290.96 108.064 290.704C108.522 290.448 109.045 290.32 109.632 290.32C110.208 290.32 110.72 290.459 111.168 290.736C111.616 291.013 111.962 291.387 112.208 291.856C112.464 292.325 112.592 292.837 112.592 293.392V298H111.456ZM105.984 298V290.48H107.104V298H105.984ZM117.567 298.16C116.874 298.16 116.25 297.989 115.695 297.648C115.14 297.307 114.698 296.843 114.367 296.256C114.047 295.659 113.887 294.992 113.887 294.256C113.887 293.509 114.047 292.843 114.367 292.256C114.698 291.659 115.14 291.189 115.695 290.848C116.25 290.496 116.874 290.32 117.567 290.32C118.132 290.32 118.644 290.432 119.103 290.656C119.562 290.88 119.94 291.2 120.239 291.616C120.548 292.021 120.73 292.501 120.783 293.056V295.408C120.719 295.952 120.538 296.432 120.239 296.848C119.951 297.253 119.578 297.573 119.119 297.808C118.66 298.043 118.143 298.16 117.567 298.16ZM117.759 297.088C118.282 297.088 118.74 296.971 119.135 296.736C119.53 296.491 119.839 296.155 120.063 295.728C120.287 295.291 120.399 294.795 120.399 294.24C120.399 293.675 120.282 293.179 120.047 292.752C119.823 292.325 119.514 291.989 119.119 291.744C118.724 291.499 118.266 291.376 117.743 291.376C117.22 291.376 116.756 291.499 116.351 291.744C115.946 291.989 115.626 292.331 115.391 292.768C115.167 293.195 115.055 293.685 115.055 294.24C115.055 294.795 115.167 295.291 115.391 295.728C115.626 296.155 115.946 296.491 116.351 296.736C116.767 296.971 117.236 297.088 117.759 297.088ZM121.455 298H120.335V295.984L120.559 294.128L120.335 292.32V286.672H121.455V298ZM123.406 298V286.672H124.526V298H123.406ZM126.477 298V290.48H127.613V298H126.477ZM127.037 288.848C126.824 288.848 126.642 288.773 126.493 288.624C126.344 288.464 126.269 288.277 126.269 288.064C126.269 287.84 126.344 287.653 126.493 287.504C126.642 287.355 126.824 287.28 127.037 287.28C127.272 287.28 127.458 287.355 127.597 287.504C127.746 287.653 127.821 287.84 127.821 288.064C127.821 288.277 127.746 288.464 127.597 288.624C127.458 288.773 127.272 288.848 127.037 288.848ZM135.035 298V293.584C135.035 292.923 134.838 292.389 134.443 291.984C134.059 291.568 133.547 291.36 132.907 291.36C132.47 291.36 132.086 291.456 131.755 291.648C131.425 291.84 131.163 292.101 130.971 292.432C130.779 292.763 130.683 293.141 130.683 293.568L130.171 293.28C130.171 292.715 130.305 292.208 130.571 291.76C130.838 291.312 131.195 290.96 131.643 290.704C132.102 290.448 132.625 290.32 133.211 290.32C133.787 290.32 134.299 290.459 134.747 290.736C135.195 291.013 135.542 291.387 135.787 291.856C136.043 292.325 136.171 292.837 136.171 293.392V298H135.035ZM129.563 298V290.48H130.683V298H129.563ZM141.05 301.328C140.293 301.328 139.616 301.184 139.018 300.896C138.432 300.619 137.957 300.224 137.594 299.712L138.33 298.976C138.629 299.381 139.008 299.696 139.466 299.92C139.925 300.144 140.464 300.256 141.082 300.256C141.936 300.256 142.613 300.027 143.114 299.568C143.626 299.109 143.882 298.485 143.882 297.696V295.824L144.106 294.112L143.882 292.416V290.48H145.002V297.696C145.002 298.421 144.837 299.056 144.506 299.6C144.176 300.144 143.712 300.565 143.114 300.864C142.528 301.173 141.84 301.328 141.05 301.328ZM141.13 297.92C140.437 297.92 139.813 297.755 139.258 297.424C138.704 297.093 138.266 296.64 137.946 296.064C137.626 295.488 137.466 294.837 137.466 294.112C137.466 293.387 137.621 292.741 137.93 292.176C138.25 291.6 138.688 291.147 139.242 290.816C139.797 290.485 140.421 290.32 141.114 290.32C141.701 290.32 142.224 290.432 142.682 290.656C143.152 290.88 143.525 291.2 143.802 291.616C144.09 292.021 144.266 292.501 144.33 293.056V295.184C144.266 295.728 144.09 296.208 143.802 296.624C143.514 297.029 143.141 297.349 142.682 297.584C142.224 297.808 141.706 297.92 141.13 297.92ZM141.338 296.848C141.861 296.848 142.314 296.736 142.698 296.512C143.093 296.288 143.397 295.973 143.61 295.568C143.834 295.152 143.946 294.667 143.946 294.112C143.946 293.568 143.834 293.093 143.61 292.688C143.397 292.283 143.093 291.963 142.698 291.728C142.304 291.493 141.845 291.376 141.322 291.376C140.8 291.376 140.33 291.493 139.914 291.728C139.509 291.963 139.189 292.283 138.954 292.688C138.73 293.093 138.618 293.568 138.618 294.112C138.618 294.645 138.736 295.12 138.97 295.536C139.205 295.952 139.525 296.277 139.93 296.512C140.336 296.736 140.805 296.848 141.338 296.848ZM147.099 299.648L148.011 297.872L148.411 297.776C148.368 297.872 148.309 297.952 148.235 298.016C148.16 298.091 148.069 298.128 147.963 298.128C147.76 298.128 147.573 298.048 147.403 297.888C147.243 297.717 147.163 297.509 147.163 297.264C147.163 297.008 147.253 296.789 147.435 296.608C147.616 296.416 147.835 296.32 148.091 296.32C148.336 296.32 148.549 296.416 148.731 296.608C148.923 296.789 149.019 297.008 149.019 297.264C149.019 297.371 148.997 297.499 148.955 297.648C148.923 297.787 148.848 297.973 148.731 298.208L147.771 300.016L147.099 299.648ZM157.391 298.16C156.676 298.16 156.036 297.989 155.471 297.648C154.906 297.296 154.458 296.827 154.127 296.24C153.807 295.653 153.647 294.992 153.647 294.256C153.647 293.509 153.807 292.843 154.127 292.256C154.458 291.659 154.906 291.189 155.471 290.848C156.036 290.496 156.671 290.32 157.375 290.32C157.951 290.32 158.463 290.437 158.911 290.672C159.37 290.896 159.738 291.216 160.015 291.632C160.303 292.037 160.479 292.512 160.543 293.056V295.408C160.479 295.952 160.303 296.432 160.015 296.848C159.738 297.264 159.37 297.589 158.911 297.824C158.463 298.048 157.956 298.16 157.391 298.16ZM157.567 297.088C158.346 297.088 158.97 296.827 159.439 296.304C159.919 295.781 160.159 295.093 160.159 294.24C160.159 293.675 160.047 293.179 159.823 292.752C159.61 292.315 159.306 291.979 158.911 291.744C158.527 291.499 158.074 291.376 157.551 291.376C157.018 291.376 156.543 291.499 156.127 291.744C155.722 291.989 155.396 292.331 155.151 292.768C154.916 293.195 154.799 293.685 154.799 294.24C154.799 294.795 154.916 295.285 155.151 295.712C155.396 296.139 155.727 296.475 156.143 296.72C156.559 296.965 157.034 297.088 157.567 297.088ZM160.095 298V295.984L160.319 294.128L160.095 292.32V290.48H161.215V298H160.095ZM168.638 298V293.584C168.638 292.923 168.441 292.389 168.046 291.984C167.662 291.568 167.15 291.36 166.51 291.36C166.073 291.36 165.689 291.456 165.358 291.648C165.028 291.84 164.766 292.101 164.574 292.432C164.382 292.763 164.286 293.141 164.286 293.568L163.774 293.28C163.774 292.715 163.908 292.208 164.174 291.76C164.441 291.312 164.798 290.96 165.246 290.704C165.705 290.448 166.228 290.32 166.814 290.32C167.39 290.32 167.902 290.459 168.35 290.736C168.798 291.013 169.145 291.387 169.39 291.856C169.646 292.325 169.774 292.837 169.774 293.392V298H168.638ZM163.166 298V290.48H164.286V298H163.166ZM174.749 298.16C174.056 298.16 173.432 297.989 172.877 297.648C172.323 297.307 171.88 296.843 171.549 296.256C171.229 295.659 171.069 294.992 171.069 294.256C171.069 293.509 171.229 292.843 171.549 292.256C171.88 291.659 172.323 291.189 172.877 290.848C173.432 290.496 174.056 290.32 174.749 290.32C175.315 290.32 175.827 290.432 176.285 290.656C176.744 290.88 177.123 291.2 177.421 291.616C177.731 292.021 177.912 292.501 177.965 293.056V295.408C177.901 295.952 177.72 296.432 177.421 296.848C177.133 297.253 176.76 297.573 176.301 297.808C175.843 298.043 175.325 298.16 174.749 298.16ZM174.941 297.088C175.464 297.088 175.923 296.971 176.317 296.736C176.712 296.491 177.021 296.155 177.245 295.728C177.469 295.291 177.581 294.795 177.581 294.24C177.581 293.675 177.464 293.179 177.229 292.752C177.005 292.325 176.696 291.989 176.301 291.744C175.907 291.499 175.448 291.376 174.925 291.376C174.403 291.376 173.939 291.499 173.533 291.744C173.128 291.989 172.808 292.331 172.573 292.768C172.349 293.195 172.237 293.685 172.237 294.24C172.237 294.795 172.349 295.291 172.573 295.728C172.808 296.155 173.128 296.491 173.533 296.736C173.949 296.971 174.419 297.088 174.941 297.088ZM178.637 298H177.517V295.984L177.741 294.128L177.517 292.32V286.672H178.637V298ZM185.802 298L182.906 290.48H184.074L186.362 296.72L185.946 296.736L188.218 290.48H188.874L191.146 296.736L190.73 296.72L193.002 290.48H194.186L191.274 298H190.618L188.298 291.84H188.778L186.474 298H185.802ZM198.338 298.16C197.623 298.16 196.983 297.989 196.418 297.648C195.852 297.296 195.404 296.827 195.074 296.24C194.754 295.653 194.594 294.992 194.594 294.256C194.594 293.509 194.754 292.843 195.074 292.256C195.404 291.659 195.852 291.189 196.418 290.848C196.983 290.496 197.618 290.32 198.322 290.32C198.898 290.32 199.41 290.437 199.858 290.672C200.316 290.896 200.684 291.216 200.962 291.632C201.25 292.037 201.426 292.512 201.49 293.056V295.408C201.426 295.952 201.25 296.432 200.962 296.848C200.684 297.264 200.316 297.589 199.858 297.824C199.41 298.048 198.903 298.16 198.338 298.16ZM198.514 297.088C199.292 297.088 199.916 296.827 200.386 296.304C200.866 295.781 201.106 295.093 201.106 294.24C201.106 293.675 200.994 293.179 200.77 292.752C200.556 292.315 200.252 291.979 199.858 291.744C199.474 291.499 199.02 291.376 198.498 291.376C197.964 291.376 197.49 291.499 197.074 291.744C196.668 291.989 196.343 292.331 196.098 292.768C195.863 293.195 195.746 293.685 195.746 294.24C195.746 294.795 195.863 295.285 196.098 295.712C196.343 296.139 196.674 296.475 197.09 296.72C197.506 296.965 197.98 297.088 198.514 297.088ZM201.042 298V295.984L201.266 294.128L201.042 292.32V290.48H202.162V298H201.042ZM206.417 298.16C206.012 298.16 205.623 298.107 205.249 298C204.876 297.883 204.535 297.723 204.225 297.52C203.927 297.317 203.665 297.077 203.441 296.8L204.161 296.064C204.46 296.427 204.796 296.699 205.169 296.88C205.553 297.051 205.98 297.136 206.449 297.136C206.951 297.136 207.34 297.04 207.617 296.848C207.905 296.656 208.049 296.389 208.049 296.048C208.049 295.728 207.948 295.477 207.745 295.296C207.543 295.115 207.281 294.971 206.961 294.864C206.652 294.757 206.321 294.656 205.969 294.56C205.617 294.453 205.281 294.325 204.961 294.176C204.641 294.016 204.38 293.797 204.177 293.52C203.985 293.243 203.889 292.88 203.889 292.432C203.889 292.005 203.991 291.637 204.193 291.328C204.407 291.008 204.705 290.763 205.089 290.592C205.484 290.411 205.948 290.32 206.481 290.32C207.047 290.32 207.559 290.421 208.017 290.624C208.476 290.827 208.844 291.125 209.121 291.52L208.401 292.24C208.177 291.952 207.895 291.733 207.553 291.584C207.223 291.424 206.849 291.344 206.433 291.344C205.953 291.344 205.585 291.44 205.329 291.632C205.084 291.813 204.961 292.053 204.961 292.352C204.961 292.64 205.063 292.869 205.265 293.04C205.468 293.2 205.724 293.333 206.033 293.44C206.353 293.536 206.689 293.637 207.041 293.744C207.393 293.84 207.729 293.973 208.049 294.144C208.369 294.304 208.625 294.528 208.817 294.816C209.02 295.093 209.121 295.472 209.121 295.952C209.121 296.624 208.876 297.163 208.385 297.568C207.905 297.963 207.249 298.16 206.417 298.16ZM211.742 298V287.312H212.862V298H211.742ZM209.838 291.488V290.48H214.75V291.488H209.838ZM219.18 298.16C218.422 298.16 217.745 297.989 217.148 297.648C216.55 297.307 216.076 296.837 215.724 296.24C215.382 295.643 215.212 294.971 215.212 294.224C215.212 293.488 215.382 292.827 215.724 292.24C216.065 291.643 216.529 291.173 217.116 290.832C217.702 290.491 218.358 290.32 219.084 290.32C219.766 290.32 220.369 290.475 220.892 290.784C221.425 291.093 221.841 291.525 222.14 292.08C222.449 292.624 222.604 293.253 222.604 293.968C222.604 294.053 222.598 294.155 222.588 294.272C222.577 294.379 222.556 294.507 222.524 294.656H216.012V293.696H221.916L221.516 294.048C221.526 293.493 221.43 293.019 221.228 292.624C221.036 292.219 220.753 291.909 220.38 291.696C220.017 291.472 219.574 291.36 219.052 291.36C218.508 291.36 218.033 291.477 217.628 291.712C217.222 291.947 216.902 292.277 216.668 292.704C216.444 293.12 216.332 293.616 216.332 294.192C216.332 294.768 216.449 295.275 216.684 295.712C216.929 296.149 217.265 296.491 217.692 296.736C218.129 296.981 218.63 297.104 219.196 297.104C219.654 297.104 220.076 297.024 220.46 296.864C220.844 296.693 221.169 296.443 221.436 296.112L222.156 296.848C221.804 297.264 221.366 297.589 220.844 297.824C220.332 298.048 219.777 298.16 219.18 298.16ZM230.314 298.16C229.621 298.16 228.997 297.989 228.442 297.648C227.888 297.307 227.445 296.843 227.114 296.256C226.794 295.659 226.634 294.992 226.634 294.256C226.634 293.509 226.794 292.843 227.114 292.256C227.445 291.659 227.888 291.189 228.442 290.848C228.997 290.496 229.621 290.32 230.314 290.32C230.88 290.32 231.392 290.432 231.85 290.656C232.309 290.88 232.688 291.2 232.986 291.616C233.296 292.021 233.477 292.501 233.53 293.056V295.408C233.466 295.952 233.285 296.432 232.986 296.848C232.698 297.253 232.325 297.573 231.866 297.808C231.408 298.043 230.89 298.16 230.314 298.16ZM230.506 297.088C231.029 297.088 231.488 296.971 231.882 296.736C232.277 296.491 232.586 296.155 232.81 295.728C233.034 295.291 233.146 294.795 233.146 294.24C233.146 293.675 233.029 293.179 232.794 292.752C232.57 292.325 232.261 291.989 231.866 291.744C231.472 291.499 231.013 291.376 230.49 291.376C229.968 291.376 229.504 291.499 229.098 291.744C228.693 291.989 228.373 292.331 228.138 292.768C227.914 293.195 227.802 293.685 227.802 294.24C227.802 294.795 227.914 295.291 228.138 295.728C228.373 296.155 228.693 296.491 229.098 296.736C229.514 296.971 229.984 297.088 230.506 297.088ZM234.202 298H233.082V295.984L233.306 294.128L233.082 292.32V286.672H234.202V298ZM236.154 298V290.48H237.29V298H236.154ZM236.714 288.848C236.5 288.848 236.319 288.773 236.17 288.624C236.02 288.464 235.946 288.277 235.946 288.064C235.946 287.84 236.02 287.653 236.17 287.504C236.319 287.355 236.5 287.28 236.714 287.28C236.948 287.28 237.135 287.355 237.274 287.504C237.423 287.653 237.498 287.84 237.498 288.064C237.498 288.277 237.423 288.464 237.274 288.624C237.135 288.773 236.948 288.848 236.714 288.848ZM241.544 298.16C241.139 298.16 240.749 298.107 240.376 298C240.003 297.883 239.661 297.723 239.352 297.52C239.053 297.317 238.792 297.077 238.568 296.8L239.288 296.064C239.587 296.427 239.923 296.699 240.296 296.88C240.68 297.051 241.107 297.136 241.576 297.136C242.077 297.136 242.467 297.04 242.744 296.848C243.032 296.656 243.176 296.389 243.176 296.048C243.176 295.728 243.075 295.477 242.872 295.296C242.669 295.115 242.408 294.971 242.088 294.864C241.779 294.757 241.448 294.656 241.096 294.56C240.744 294.453 240.408 294.325 240.088 294.176C239.768 294.016 239.507 293.797 239.304 293.52C239.112 293.243 239.016 292.88 239.016 292.432C239.016 292.005 239.117 291.637 239.32 291.328C239.533 291.008 239.832 290.763 240.216 290.592C240.611 290.411 241.075 290.32 241.608 290.32C242.173 290.32 242.685 290.421 243.144 290.624C243.603 290.827 243.971 291.125 244.248 291.52L243.528 292.24C243.304 291.952 243.021 291.733 242.68 291.584C242.349 291.424 241.976 291.344 241.56 291.344C241.08 291.344 240.712 291.44 240.456 291.632C240.211 291.813 240.088 292.053 240.088 292.352C240.088 292.64 240.189 292.869 240.392 293.04C240.595 293.2 240.851 293.333 241.16 293.44C241.48 293.536 241.816 293.637 242.168 293.744C242.52 293.84 242.856 293.973 243.176 294.144C243.496 294.304 243.752 294.528 243.944 294.816C244.147 295.093 244.248 295.472 244.248 295.952C244.248 296.624 244.003 297.163 243.512 297.568C243.032 297.963 242.376 298.16 241.544 298.16ZM249.589 298.16C249.013 298.16 248.496 298.043 248.037 297.808C247.579 297.573 247.2 297.253 246.901 296.848C246.613 296.432 246.437 295.952 246.373 295.408V293.056C246.437 292.501 246.619 292.021 246.917 291.616C247.216 291.2 247.595 290.88 248.053 290.656C248.523 290.432 249.035 290.32 249.589 290.32C250.283 290.32 250.907 290.496 251.461 290.848C252.016 291.189 252.453 291.659 252.773 292.256C253.104 292.843 253.269 293.509 253.269 294.256C253.269 294.992 253.109 295.653 252.789 296.24C252.469 296.827 252.027 297.296 251.461 297.648C250.907 297.989 250.283 298.16 249.589 298.16ZM245.701 301.168V290.48H246.821V292.4L246.597 294.224L246.821 296.064V301.168H245.701ZM249.397 297.088C249.931 297.088 250.4 296.971 250.805 296.736C251.211 296.491 251.525 296.155 251.749 295.728C251.984 295.291 252.101 294.795 252.101 294.24C252.101 293.675 251.984 293.179 251.749 292.752C251.525 292.325 251.211 291.989 250.805 291.744C250.4 291.499 249.936 291.376 249.413 291.376C248.891 291.376 248.427 291.499 248.021 291.744C247.627 291.989 247.317 292.325 247.093 292.752C246.869 293.179 246.757 293.675 246.757 294.24C246.757 294.795 246.869 295.291 247.093 295.728C247.317 296.155 247.627 296.491 248.021 296.736C248.416 296.971 248.875 297.088 249.397 297.088ZM258.149 298.16C257.423 298.16 256.762 297.984 256.165 297.632C255.578 297.28 255.109 296.805 254.757 296.208C254.415 295.611 254.245 294.944 254.245 294.208C254.245 293.483 254.415 292.827 254.757 292.24C255.109 291.653 255.578 291.189 256.165 290.848C256.762 290.496 257.423 290.32 258.149 290.32C258.885 290.32 259.546 290.491 260.133 290.832C260.719 291.173 261.183 291.643 261.525 292.24C261.877 292.827 262.053 293.483 262.053 294.208C262.053 294.955 261.877 295.627 261.525 296.224C261.183 296.811 260.719 297.28 260.133 297.632C259.546 297.984 258.885 298.16 258.149 298.16ZM258.149 297.072C258.682 297.072 259.151 296.949 259.557 296.704C259.973 296.459 260.298 296.117 260.533 295.68C260.778 295.243 260.901 294.752 260.901 294.208C260.901 293.664 260.778 293.184 260.533 292.768C260.298 292.341 259.973 292.005 259.557 291.76C259.151 291.515 258.682 291.392 258.149 291.392C257.626 291.392 257.157 291.515 256.741 291.76C256.325 292.005 255.999 292.341 255.765 292.768C255.53 293.184 255.413 293.664 255.413 294.208C255.413 294.763 255.53 295.259 255.765 295.696C255.999 296.123 256.325 296.459 256.741 296.704C257.157 296.949 257.626 297.072 258.149 297.072ZM265.818 298.16C265.413 298.16 265.024 298.107 264.65 298C264.277 297.883 263.936 297.723 263.626 297.52C263.328 297.317 263.066 297.077 262.842 296.8L263.562 296.064C263.861 296.427 264.197 296.699 264.57 296.88C264.954 297.051 265.381 297.136 265.85 297.136C266.352 297.136 266.741 297.04 267.018 296.848C267.306 296.656 267.45 296.389 267.45 296.048C267.45 295.728 267.349 295.477 267.146 295.296C266.944 295.115 266.682 294.971 266.362 294.864C266.053 294.757 265.722 294.656 265.37 294.56C265.018 294.453 264.682 294.325 264.362 294.176C264.042 294.016 263.781 293.797 263.578 293.52C263.386 293.243 263.29 292.88 263.29 292.432C263.29 292.005 263.392 291.637 263.594 291.328C263.808 291.008 264.106 290.763 264.49 290.592C264.885 290.411 265.349 290.32 265.882 290.32C266.448 290.32 266.96 290.421 267.418 290.624C267.877 290.827 268.245 291.125 268.522 291.52L267.802 292.24C267.578 291.952 267.296 291.733 266.954 291.584C266.624 291.424 266.25 291.344 265.834 291.344C265.354 291.344 264.986 291.44 264.73 291.632C264.485 291.813 264.362 292.053 264.362 292.352C264.362 292.64 264.464 292.869 264.666 293.04C264.869 293.2 265.125 293.333 265.434 293.44C265.754 293.536 266.09 293.637 266.442 293.744C266.794 293.84 267.13 293.973 267.45 294.144C267.77 294.304 268.026 294.528 268.218 294.816C268.421 295.093 268.522 295.472 268.522 295.952C268.522 296.624 268.277 297.163 267.786 297.568C267.306 297.963 266.65 298.16 265.818 298.16ZM273.24 298.16C272.525 298.16 271.885 297.989 271.32 297.648C270.754 297.296 270.306 296.827 269.976 296.24C269.656 295.653 269.496 294.992 269.496 294.256C269.496 293.509 269.656 292.843 269.976 292.256C270.306 291.659 270.754 291.189 271.32 290.848C271.885 290.496 272.52 290.32 273.224 290.32C273.8 290.32 274.312 290.437 274.76 290.672C275.218 290.896 275.586 291.216 275.864 291.632C276.152 292.037 276.328 292.512 276.392 293.056V295.408C276.328 295.952 276.152 296.432 275.864 296.848C275.586 297.264 275.218 297.589 274.76 297.824C274.312 298.048 273.805 298.16 273.24 298.16ZM273.416 297.088C274.194 297.088 274.818 296.827 275.288 296.304C275.768 295.781 276.008 295.093 276.008 294.24C276.008 293.675 275.896 293.179 275.672 292.752C275.458 292.315 275.154 291.979 274.76 291.744C274.376 291.499 273.922 291.376 273.4 291.376C272.866 291.376 272.392 291.499 271.976 291.744C271.57 291.989 271.245 292.331 271 292.768C270.765 293.195 270.648 293.685 270.648 294.24C270.648 294.795 270.765 295.285 271 295.712C271.245 296.139 271.576 296.475 271.992 296.72C272.408 296.965 272.882 297.088 273.416 297.088ZM275.944 298V295.984L276.168 294.128L275.944 292.32V290.48H277.064V298H275.944ZM279.015 298V286.672H280.135V298H279.015ZM283.27 298.16C283.003 298.16 282.784 298.069 282.614 297.888C282.443 297.707 282.358 297.488 282.358 297.232C282.358 296.976 282.443 296.763 282.614 296.592C282.784 296.411 283.003 296.32 283.27 296.32C283.526 296.32 283.739 296.411 283.91 296.592C284.08 296.763 284.166 296.976 284.166 297.232C284.166 297.488 284.08 297.707 283.91 297.888C283.739 298.069 283.526 298.16 283.27 298.16Z" fill="#026533"/>
<defs>
<filter id="filter0_f_2143_438" x="5.07544" y="0.390381" width="363.849" height="424.219" filterUnits="userSpaceOnUse" color-interpolation-filters="sRGB">
<feFlood flood-opacity="0" result="BackgroundImageFix"/>
<feBlend mode="normal" in="SourceGraphic" in2="BackgroundImageFix" result="shape"/>
<feGaussianBlur stdDeviation="10" result="effect1_foregroundBlur_2143_438"/>
</filter>
<clipPath id="clip0_2143_438">
<rect width="48" height="48" fill="white" transform="translate(162.5 101)"/>
</clipPath>
</defs>
</svg>
