<svg width="374" height="425" viewBox="0 0 374 425" fill="none" xmlns="http://www.w3.org/2000/svg">
<g filter="url(#filter0_f_2143_427)">
<path d="M176.629 23.2895C183.003 19.4242 190.997 19.4242 197.371 23.2895L267.878 66.0486L339.224 108.909C345.255 112.532 348.938 119.057 348.924 126.093L348.755 212.5L348.924 298.907C348.938 305.943 345.255 312.468 339.224 316.091L267.878 358.951L197.371 401.71C190.997 405.576 183.003 405.576 176.629 401.71L106.122 358.951L34.7762 316.091C28.7454 312.468 25.0617 305.943 25.0755 298.907L25.245 212.5L25.0755 126.093C25.0617 119.057 28.7454 112.532 34.7762 108.909L106.122 66.0486L176.629 23.2895Z" fill="#ECFFF5"/>
</g>
<g clip-path="url(#clip0_2143_427)">
<g clip-path="url(#clip1_2143_427)">
<path opacity="0.4" d="M186.502 147.199C197.548 147.199 206.502 138.603 206.502 127.999C206.502 117.395 197.548 108.799 186.502 108.799C175.456 108.799 166.502 117.395 166.502 127.999C166.502 138.603 175.456 147.199 186.502 147.199Z" fill="#007337"/>
<path d="M193.919 135.544C193.659 135.544 193.399 135.487 193.159 135.333L186.959 131.781C185.419 130.898 184.279 128.959 184.279 127.25V119.378C184.279 118.591 184.959 117.938 185.779 117.938C186.599 117.938 187.279 118.591 187.279 119.378V127.25C187.279 127.941 187.879 128.959 188.499 129.304L194.699 132.856C195.419 133.26 195.639 134.143 195.219 134.834C194.919 135.295 194.419 135.544 193.919 135.544Z" fill="#007337"/>
</g>
</g>
<path d="M163.087 193.2C162.087 193.2 161.154 193.013 160.287 192.64C159.42 192.267 158.66 191.753 158.007 191.1C157.354 190.433 156.84 189.667 156.467 188.8C156.107 187.92 155.927 186.98 155.927 185.98C155.927 184.98 156.107 184.047 156.467 183.18C156.84 182.313 157.347 181.553 157.987 180.9C158.64 180.233 159.394 179.72 160.247 179.36C161.114 178.987 162.047 178.8 163.047 178.8C164.047 178.8 164.974 178.987 165.827 179.36C166.694 179.72 167.454 180.233 168.107 180.9C168.76 181.553 169.267 182.32 169.627 183.2C170 184.067 170.187 185 170.187 186C170.187 187 170 187.94 169.627 188.82C169.267 189.687 168.76 190.447 168.107 191.1C167.467 191.753 166.714 192.267 165.847 192.64C164.994 193.013 164.074 193.2 163.087 193.2ZM169.487 193.96L163.187 187.66L164.667 186.18L170.967 192.48L169.487 193.96ZM163.047 191C163.994 191 164.82 190.787 165.527 190.36C166.247 189.933 166.807 189.347 167.207 188.6C167.62 187.84 167.827 186.967 167.827 185.98C167.827 185.247 167.707 184.58 167.467 183.98C167.24 183.367 166.914 182.84 166.487 182.4C166.06 181.947 165.554 181.6 164.967 181.36C164.394 181.12 163.754 181 163.047 181C162.114 181 161.287 181.213 160.567 181.64C159.86 182.053 159.3 182.633 158.887 183.38C158.487 184.127 158.287 184.993 158.287 185.98C158.287 186.713 158.4 187.393 158.627 188.02C158.867 188.633 159.194 189.16 159.607 189.6C160.034 190.04 160.54 190.387 161.127 190.64C161.714 190.88 162.354 191 163.047 191ZM176.273 193.2C175.46 193.2 174.733 193.02 174.093 192.66C173.467 192.3 172.973 191.807 172.613 191.18C172.267 190.54 172.093 189.807 172.093 188.98V183.4H174.293V188.88C174.293 189.347 174.367 189.747 174.513 190.08C174.673 190.4 174.9 190.647 175.193 190.82C175.5 190.993 175.86 191.08 176.273 191.08C176.913 191.08 177.4 190.893 177.733 190.52C178.08 190.133 178.253 189.587 178.253 188.88V183.4H180.453V188.98C180.453 189.82 180.273 190.56 179.913 191.2C179.567 191.827 179.08 192.32 178.453 192.68C177.827 193.027 177.1 193.2 176.273 193.2ZM186.285 193.2C185.419 193.2 184.632 192.98 183.925 192.54C183.232 192.1 182.679 191.507 182.265 190.76C181.865 190 181.665 189.153 181.665 188.22C181.665 187.273 181.865 186.427 182.265 185.68C182.679 184.92 183.232 184.32 183.925 183.88C184.632 183.427 185.419 183.2 186.285 183.2C187.019 183.2 187.665 183.36 188.225 183.68C188.799 183.987 189.252 184.413 189.585 184.96C189.919 185.507 190.085 186.127 190.085 186.82V189.58C190.085 190.273 189.919 190.893 189.585 191.44C189.265 191.987 188.819 192.42 188.245 192.74C187.672 193.047 187.019 193.2 186.285 193.2ZM186.645 191.12C187.459 191.12 188.112 190.847 188.605 190.3C189.112 189.753 189.365 189.053 189.365 188.2C189.365 187.627 189.252 187.12 189.025 186.68C188.799 186.24 188.479 185.9 188.065 185.66C187.665 185.407 187.192 185.28 186.645 185.28C186.112 185.28 185.639 185.407 185.225 185.66C184.825 185.9 184.505 186.24 184.265 186.68C184.039 187.12 183.925 187.627 183.925 188.2C183.925 188.773 184.039 189.28 184.265 189.72C184.505 190.16 184.825 190.507 185.225 190.76C185.639 191 186.112 191.12 186.645 191.12ZM189.225 193V190.42L189.605 188.08L189.225 185.76V183.4H191.425V193H189.225ZM193.467 193V178.6H195.667V193H193.467ZM197.735 193V183.4H199.935V193H197.735ZM198.835 181.64C198.462 181.64 198.149 181.513 197.895 181.26C197.655 181.007 197.535 180.693 197.535 180.32C197.535 179.947 197.655 179.633 197.895 179.38C198.149 179.127 198.462 179 198.835 179C199.222 179 199.535 179.127 199.775 179.38C200.015 179.633 200.135 179.947 200.135 180.32C200.135 180.693 200.015 181.007 199.775 181.26C199.535 181.513 199.222 181.64 198.835 181.64ZM203.463 193V179.4H205.663V193H203.463ZM201.163 185.4V183.4H207.963V185.4H201.163ZM212.261 193.1L208.161 183.4H210.581L213.381 190.52H212.681L215.641 183.4H218.081L213.621 193.1H212.261ZM209.401 197L212.381 190.86L213.621 193.1L211.841 197H209.401ZM142.447 221L148.207 207H149.807L155.527 221H153.047L148.567 209.66H149.407L144.887 221H142.447ZM145.287 218.3V216.3H152.707V218.3H145.287ZM159.97 221.2C159.437 221.2 158.923 221.133 158.43 221C157.937 220.853 157.483 220.653 157.07 220.4C156.657 220.133 156.297 219.813 155.99 219.44L157.39 218.04C157.723 218.427 158.103 218.72 158.53 218.92C158.97 219.107 159.463 219.2 160.01 219.2C160.503 219.2 160.877 219.127 161.13 218.98C161.383 218.833 161.51 218.62 161.51 218.34C161.51 218.047 161.39 217.82 161.15 217.66C160.91 217.5 160.597 217.367 160.21 217.26C159.837 217.14 159.437 217.02 159.01 216.9C158.597 216.78 158.197 216.62 157.81 216.42C157.437 216.207 157.13 215.92 156.89 215.56C156.65 215.2 156.53 214.733 156.53 214.16C156.53 213.547 156.67 213.02 156.95 212.58C157.243 212.14 157.65 211.8 158.17 211.56C158.703 211.32 159.337 211.2 160.07 211.2C160.843 211.2 161.523 211.34 162.11 211.62C162.71 211.887 163.21 212.293 163.61 212.84L162.21 214.24C161.93 213.893 161.61 213.633 161.25 213.46C160.89 213.287 160.477 213.2 160.01 213.2C159.57 213.2 159.23 213.267 158.99 213.4C158.75 213.533 158.63 213.727 158.63 213.98C158.63 214.247 158.75 214.453 158.99 214.6C159.23 214.747 159.537 214.873 159.91 214.98C160.297 215.087 160.697 215.207 161.11 215.34C161.537 215.46 161.937 215.633 162.31 215.86C162.697 216.073 163.01 216.367 163.25 216.74C163.49 217.1 163.61 217.573 163.61 218.16C163.61 219.093 163.283 219.833 162.63 220.38C161.977 220.927 161.09 221.2 159.97 221.2ZM168.164 221.2C167.631 221.2 167.117 221.133 166.624 221C166.131 220.853 165.677 220.653 165.264 220.4C164.851 220.133 164.491 219.813 164.184 219.44L165.584 218.04C165.917 218.427 166.297 218.72 166.724 218.92C167.164 219.107 167.657 219.2 168.204 219.2C168.697 219.2 169.071 219.127 169.324 218.98C169.577 218.833 169.704 218.62 169.704 218.34C169.704 218.047 169.584 217.82 169.344 217.66C169.104 217.5 168.791 217.367 168.404 217.26C168.031 217.14 167.631 217.02 167.204 216.9C166.791 216.78 166.391 216.62 166.004 216.42C165.631 216.207 165.324 215.92 165.084 215.56C164.844 215.2 164.724 214.733 164.724 214.16C164.724 213.547 164.864 213.02 165.144 212.58C165.437 212.14 165.844 211.8 166.364 211.56C166.897 211.32 167.531 211.2 168.264 211.2C169.037 211.2 169.717 211.34 170.304 211.62C170.904 211.887 171.404 212.293 171.804 212.84L170.404 214.24C170.124 213.893 169.804 213.633 169.444 213.46C169.084 213.287 168.671 213.2 168.204 213.2C167.764 213.2 167.424 213.267 167.184 213.4C166.944 213.533 166.824 213.727 166.824 213.98C166.824 214.247 166.944 214.453 167.184 214.6C167.424 214.747 167.731 214.873 168.104 214.98C168.491 215.087 168.891 215.207 169.304 215.34C169.731 215.46 170.131 215.633 170.504 215.86C170.891 216.073 171.204 216.367 171.444 216.74C171.684 217.1 171.804 217.573 171.804 218.16C171.804 219.093 171.477 219.833 170.824 220.38C170.171 220.927 169.284 221.2 168.164 221.2ZM177.158 221.2C176.344 221.2 175.618 221.02 174.978 220.66C174.351 220.3 173.858 219.807 173.498 219.18C173.151 218.54 172.978 217.807 172.978 216.98V211.4H175.178V216.88C175.178 217.347 175.251 217.747 175.398 218.08C175.558 218.4 175.784 218.647 176.078 218.82C176.384 218.993 176.744 219.08 177.158 219.08C177.798 219.08 178.284 218.893 178.618 218.52C178.964 218.133 179.138 217.587 179.138 216.88V211.4H181.338V216.98C181.338 217.82 181.158 218.56 180.798 219.2C180.451 219.827 179.964 220.32 179.338 220.68C178.711 221.027 177.984 221.2 177.158 221.2ZM183.15 221V211.4H185.35V221H183.15ZM185.35 215.66L184.59 215.28C184.59 214.067 184.856 213.087 185.39 212.34C185.936 211.58 186.756 211.2 187.85 211.2C188.33 211.2 188.763 211.287 189.15 211.46C189.536 211.633 189.896 211.913 190.23 212.3L188.79 213.78C188.616 213.593 188.423 213.46 188.21 213.38C187.996 213.3 187.75 213.26 187.47 213.26C186.856 213.26 186.35 213.453 185.95 213.84C185.55 214.227 185.35 214.833 185.35 215.66ZM194.621 221.2C193.755 221.2 192.968 220.98 192.261 220.54C191.568 220.1 191.015 219.507 190.601 218.76C190.201 218 190.001 217.153 190.001 216.22C190.001 215.273 190.201 214.427 190.601 213.68C191.015 212.92 191.568 212.32 192.261 211.88C192.968 211.427 193.755 211.2 194.621 211.2C195.355 211.2 196.001 211.36 196.561 211.68C197.135 211.987 197.588 212.413 197.921 212.96C198.255 213.507 198.421 214.127 198.421 214.82V217.58C198.421 218.273 198.255 218.893 197.921 219.44C197.601 219.987 197.155 220.42 196.581 220.74C196.008 221.047 195.355 221.2 194.621 221.2ZM194.981 219.12C195.795 219.12 196.448 218.847 196.941 218.3C197.448 217.753 197.701 217.053 197.701 216.2C197.701 215.627 197.588 215.12 197.361 214.68C197.135 214.24 196.815 213.9 196.401 213.66C196.001 213.407 195.528 213.28 194.981 213.28C194.448 213.28 193.975 213.407 193.561 213.66C193.161 213.9 192.841 214.24 192.601 214.68C192.375 215.12 192.261 215.627 192.261 216.2C192.261 216.773 192.375 217.28 192.601 217.72C192.841 218.16 193.161 218.507 193.561 218.76C193.975 219 194.448 219.12 194.981 219.12ZM197.561 221V218.42L197.941 216.08L197.561 213.76V211.4H199.761V221H197.561ZM208.383 221V215.46C208.383 214.82 208.176 214.293 207.763 213.88C207.363 213.467 206.843 213.26 206.203 213.26C205.776 213.26 205.396 213.353 205.063 213.54C204.729 213.727 204.469 213.987 204.283 214.32C204.096 214.653 204.003 215.033 204.003 215.46L203.143 214.98C203.143 214.247 203.303 213.6 203.623 213.04C203.943 212.467 204.383 212.02 204.943 211.7C205.516 211.367 206.156 211.2 206.863 211.2C207.583 211.2 208.223 211.387 208.783 211.76C209.343 212.12 209.783 212.593 210.103 213.18C210.423 213.753 210.583 214.353 210.583 214.98V221H208.383ZM201.803 221V211.4H204.003V221H201.803ZM216.838 221.2C215.892 221.2 215.032 220.98 214.258 220.54C213.498 220.1 212.898 219.5 212.458 218.74C212.018 217.98 211.798 217.133 211.798 216.2C211.798 215.253 212.018 214.407 212.458 213.66C212.898 212.9 213.498 212.3 214.258 211.86C215.032 211.42 215.892 211.2 216.838 211.2C217.585 211.2 218.278 211.347 218.918 211.64C219.572 211.92 220.125 212.327 220.578 212.86L219.138 214.32C218.858 213.987 218.518 213.74 218.118 213.58C217.732 213.407 217.305 213.32 216.838 213.32C216.292 213.32 215.805 213.447 215.378 213.7C214.965 213.94 214.638 214.273 214.398 214.7C214.172 215.127 214.058 215.627 214.058 216.2C214.058 216.76 214.172 217.26 214.398 217.7C214.638 218.127 214.965 218.467 215.378 218.72C215.805 218.96 216.292 219.08 216.838 219.08C217.305 219.08 217.732 219 218.118 218.84C218.518 218.667 218.858 218.413 219.138 218.08L220.578 219.54C220.125 220.073 219.572 220.487 218.918 220.78C218.278 221.06 217.585 221.2 216.838 221.2ZM226.029 221.2C225.069 221.2 224.203 220.987 223.429 220.56C222.669 220.12 222.063 219.52 221.609 218.76C221.169 218 220.949 217.147 220.949 216.2C220.949 215.253 221.169 214.407 221.609 213.66C222.049 212.9 222.643 212.3 223.389 211.86C224.149 211.42 224.989 211.2 225.909 211.2C226.803 211.2 227.589 211.407 228.269 211.82C228.963 212.233 229.503 212.8 229.889 213.52C230.289 214.24 230.489 215.06 230.489 215.98C230.489 216.14 230.476 216.307 230.449 216.48C230.436 216.64 230.409 216.82 230.369 217.02H222.489V215.22H229.229L228.409 215.94C228.383 215.353 228.269 214.86 228.069 214.46C227.869 214.06 227.583 213.753 227.209 213.54C226.849 213.327 226.403 213.22 225.869 213.22C225.309 213.22 224.823 213.34 224.409 213.58C223.996 213.82 223.676 214.16 223.449 214.6C223.223 215.027 223.109 215.54 223.109 216.14C223.109 216.74 223.229 217.267 223.469 217.72C223.709 218.173 224.049 218.527 224.489 218.78C224.929 219.02 225.436 219.14 226.009 219.14C226.503 219.14 226.956 219.053 227.369 218.88C227.796 218.707 228.156 218.453 228.449 218.12L229.849 219.54C229.383 220.087 228.816 220.5 228.149 220.78C227.483 221.06 226.776 221.2 226.029 221.2Z" fill="#00391A"/>
<path d="M80.1271 257V246.296H81.3111V257H80.1271ZM76.2551 247.064V245.992H85.1831V247.064H76.2551ZM92.0605 257V252.584C92.0605 251.923 91.8632 251.389 91.4685 250.984C91.0845 250.568 90.5725 250.36 89.9325 250.36C89.4952 250.36 89.1112 250.456 88.7805 250.648C88.4498 250.84 88.1885 251.101 87.9965 251.432C87.8045 251.763 87.7085 252.141 87.7085 252.568L87.1965 252.28C87.1965 251.715 87.3298 251.208 87.5965 250.76C87.8632 250.312 88.2205 249.96 88.6685 249.704C89.1272 249.448 89.6498 249.32 90.2365 249.32C90.8125 249.32 91.3245 249.453 91.7725 249.72C92.2205 249.976 92.5672 250.333 92.8125 250.792C93.0685 251.251 93.1965 251.784 93.1965 252.392V257H92.0605ZM86.5885 257V245.672H87.7085V257H86.5885ZM98.3796 257.16C97.6543 257.16 96.993 256.984 96.3956 256.632C95.809 256.28 95.3396 255.805 94.9876 255.208C94.6463 254.611 94.4756 253.944 94.4756 253.208C94.4756 252.483 94.6463 251.827 94.9876 251.24C95.3396 250.653 95.809 250.189 96.3956 249.848C96.993 249.496 97.6543 249.32 98.3796 249.32C99.1156 249.32 99.777 249.491 100.364 249.832C100.95 250.173 101.414 250.643 101.756 251.24C102.108 251.827 102.284 252.483 102.284 253.208C102.284 253.955 102.108 254.627 101.756 255.224C101.414 255.811 100.95 256.28 100.364 256.632C99.777 256.984 99.1156 257.16 98.3796 257.16ZM98.3796 256.072C98.913 256.072 99.3823 255.949 99.7876 255.704C100.204 255.459 100.529 255.117 100.764 254.68C101.009 254.243 101.132 253.752 101.132 253.208C101.132 252.664 101.009 252.184 100.764 251.768C100.529 251.341 100.204 251.005 99.7876 250.76C99.3823 250.515 98.913 250.392 98.3796 250.392C97.857 250.392 97.3876 250.515 96.9716 250.76C96.5556 251.005 96.2303 251.341 95.9956 251.768C95.761 252.184 95.6436 252.664 95.6436 253.208C95.6436 253.763 95.761 254.259 95.9956 254.696C96.2303 255.123 96.5556 255.459 96.9716 255.704C97.3876 255.949 97.857 256.072 98.3796 256.072ZM103.745 257V249.48H104.865V257H103.745ZM104.865 252.616L104.401 252.408C104.401 251.459 104.631 250.707 105.089 250.152C105.559 249.597 106.199 249.32 107.009 249.32C107.383 249.32 107.724 249.389 108.033 249.528C108.343 249.656 108.631 249.864 108.897 250.152L108.161 250.936C107.98 250.733 107.777 250.589 107.553 250.504C107.34 250.419 107.095 250.376 106.817 250.376C106.241 250.376 105.772 250.568 105.409 250.952C105.047 251.325 104.865 251.88 104.865 252.616ZM112.912 257.16C112.186 257.16 111.525 256.984 110.928 256.632C110.341 256.28 109.872 255.805 109.52 255.208C109.178 254.611 109.008 253.944 109.008 253.208C109.008 252.483 109.178 251.827 109.52 251.24C109.872 250.653 110.341 250.189 110.928 249.848C111.525 249.496 112.186 249.32 112.912 249.32C113.648 249.32 114.309 249.491 114.896 249.832C115.482 250.173 115.946 250.643 116.288 251.24C116.64 251.827 116.816 252.483 116.816 253.208C116.816 253.955 116.64 254.627 116.288 255.224C115.946 255.811 115.482 256.28 114.896 256.632C114.309 256.984 113.648 257.16 112.912 257.16ZM112.912 256.072C113.445 256.072 113.914 255.949 114.32 255.704C114.736 255.459 115.061 255.117 115.296 254.68C115.541 254.243 115.664 253.752 115.664 253.208C115.664 252.664 115.541 252.184 115.296 251.768C115.061 251.341 114.736 251.005 114.32 250.76C113.914 250.515 113.445 250.392 112.912 250.392C112.389 250.392 111.92 250.515 111.504 250.76C111.088 251.005 110.762 251.341 110.528 251.768C110.293 252.184 110.176 252.664 110.176 253.208C110.176 253.763 110.293 254.259 110.528 254.696C110.762 255.123 111.088 255.459 111.504 255.704C111.92 255.949 112.389 256.072 112.912 256.072ZM121.253 257.16C120.645 257.16 120.101 257.021 119.621 256.744C119.141 256.456 118.763 256.067 118.485 255.576C118.219 255.085 118.085 254.509 118.085 253.848V249.48H119.221V253.8C119.221 254.259 119.301 254.659 119.461 255C119.632 255.341 119.872 255.608 120.181 255.8C120.491 255.992 120.848 256.088 121.253 256.088C121.883 256.088 122.379 255.88 122.741 255.464C123.115 255.048 123.301 254.493 123.301 253.8V249.48H124.421V253.848C124.421 254.499 124.288 255.075 124.021 255.576C123.755 256.077 123.381 256.467 122.901 256.744C122.421 257.021 121.872 257.16 121.253 257.16ZM129.296 260.328C128.538 260.328 127.861 260.184 127.264 259.896C126.677 259.619 126.202 259.224 125.84 258.712L126.576 257.976C126.874 258.381 127.253 258.696 127.712 258.92C128.17 259.144 128.709 259.256 129.328 259.256C130.181 259.256 130.858 259.027 131.36 258.568C131.872 258.109 132.128 257.485 132.128 256.696V254.824L132.352 253.112L132.128 251.416V249.48H133.248V256.696C133.248 257.421 133.082 258.056 132.752 258.6C132.421 259.144 131.957 259.565 131.36 259.864C130.773 260.173 130.085 260.328 129.296 260.328ZM129.376 256.92C128.682 256.92 128.058 256.755 127.504 256.424C126.949 256.093 126.512 255.64 126.192 255.064C125.872 254.488 125.712 253.837 125.712 253.112C125.712 252.387 125.866 251.741 126.176 251.176C126.496 250.6 126.933 250.147 127.488 249.816C128.042 249.485 128.666 249.32 129.36 249.32C129.946 249.32 130.469 249.432 130.928 249.656C131.397 249.88 131.77 250.2 132.048 250.616C132.336 251.021 132.512 251.501 132.576 252.056V254.184C132.512 254.728 132.336 255.208 132.048 255.624C131.76 256.029 131.386 256.349 130.928 256.584C130.469 256.808 129.952 256.92 129.376 256.92ZM129.584 255.848C130.106 255.848 130.56 255.736 130.944 255.512C131.338 255.288 131.642 254.973 131.856 254.568C132.08 254.152 132.192 253.667 132.192 253.112C132.192 252.568 132.08 252.093 131.856 251.688C131.642 251.283 131.338 250.963 130.944 250.728C130.549 250.493 130.09 250.376 129.568 250.376C129.045 250.376 128.576 250.493 128.16 250.728C127.754 250.963 127.434 251.283 127.2 251.688C126.976 252.093 126.864 252.568 126.864 253.112C126.864 253.645 126.981 254.12 127.216 254.536C127.45 254.952 127.77 255.277 128.176 255.512C128.581 255.736 129.05 255.848 129.584 255.848ZM140.656 257V252.584C140.656 251.923 140.459 251.389 140.064 250.984C139.68 250.568 139.168 250.36 138.528 250.36C138.091 250.36 137.707 250.456 137.376 250.648C137.045 250.84 136.784 251.101 136.592 251.432C136.4 251.763 136.304 252.141 136.304 252.568L135.792 252.28C135.792 251.715 135.925 251.208 136.192 250.76C136.459 250.312 136.816 249.96 137.264 249.704C137.723 249.448 138.245 249.32 138.832 249.32C139.408 249.32 139.92 249.453 140.368 249.72C140.816 249.976 141.163 250.333 141.408 250.792C141.664 251.251 141.792 251.784 141.792 252.392V257H140.656ZM135.184 257V245.672H136.304V257H135.184ZM150.573 257.16C149.997 257.16 149.479 257.043 149.021 256.808C148.562 256.573 148.183 256.253 147.885 255.848C147.597 255.432 147.421 254.952 147.357 254.408V252.056C147.421 251.501 147.602 251.021 147.901 250.616C148.199 250.2 148.578 249.88 149.037 249.656C149.506 249.432 150.018 249.32 150.573 249.32C151.266 249.32 151.89 249.496 152.445 249.848C152.999 250.189 153.437 250.659 153.757 251.256C154.087 251.843 154.253 252.509 154.253 253.256C154.253 253.992 154.093 254.653 153.773 255.24C153.453 255.827 153.01 256.296 152.445 256.648C151.89 256.989 151.266 257.16 150.573 257.16ZM146.685 260.168V249.48H147.805V251.4L147.581 253.224L147.805 255.064V260.168H146.685ZM150.381 256.088C150.914 256.088 151.383 255.971 151.789 255.736C152.194 255.491 152.509 255.155 152.733 254.728C152.967 254.291 153.085 253.795 153.085 253.24C153.085 252.675 152.967 252.179 152.733 251.752C152.509 251.325 152.194 250.989 151.789 250.744C151.383 250.499 150.919 250.376 150.397 250.376C149.874 250.376 149.41 250.499 149.005 250.744C148.61 250.989 148.301 251.325 148.077 251.752C147.853 252.179 147.741 252.675 147.741 253.24C147.741 253.795 147.853 254.291 148.077 254.728C148.301 255.155 148.61 255.491 149.005 255.736C149.399 255.971 149.858 256.088 150.381 256.088ZM155.724 257V249.48H156.844V257H155.724ZM156.844 252.616L156.38 252.408C156.38 251.459 156.609 250.707 157.068 250.152C157.537 249.597 158.177 249.32 158.988 249.32C159.361 249.32 159.703 249.389 160.012 249.528C160.321 249.656 160.609 249.864 160.876 250.152L160.14 250.936C159.959 250.733 159.756 250.589 159.532 250.504C159.319 250.419 159.073 250.376 158.796 250.376C158.22 250.376 157.751 250.568 157.388 250.952C157.025 251.325 156.844 251.88 156.844 252.616ZM164.89 257.16C164.165 257.16 163.504 256.984 162.906 256.632C162.32 256.28 161.85 255.805 161.498 255.208C161.157 254.611 160.986 253.944 160.986 253.208C160.986 252.483 161.157 251.827 161.498 251.24C161.85 250.653 162.32 250.189 162.906 249.848C163.504 249.496 164.165 249.32 164.89 249.32C165.626 249.32 166.288 249.491 166.874 249.832C167.461 250.173 167.925 250.643 168.266 251.24C168.618 251.827 168.794 252.483 168.794 253.208C168.794 253.955 168.618 254.627 168.266 255.224C167.925 255.811 167.461 256.28 166.874 256.632C166.288 256.984 165.626 257.16 164.89 257.16ZM164.89 256.072C165.424 256.072 165.893 255.949 166.298 255.704C166.714 255.459 167.04 255.117 167.274 254.68C167.52 254.243 167.642 253.752 167.642 253.208C167.642 252.664 167.52 252.184 167.274 251.768C167.04 251.341 166.714 251.005 166.298 250.76C165.893 250.515 165.424 250.392 164.89 250.392C164.368 250.392 163.898 250.515 163.482 250.76C163.066 251.005 162.741 251.341 162.506 251.768C162.272 252.184 162.154 252.664 162.154 253.208C162.154 253.763 162.272 254.259 162.506 254.696C162.741 255.123 163.066 255.459 163.482 255.704C163.898 255.949 164.368 256.072 164.89 256.072ZM173.456 257.16C172.763 257.16 172.139 256.989 171.584 256.648C171.029 256.307 170.587 255.843 170.256 255.256C169.936 254.659 169.776 253.992 169.776 253.256C169.776 252.509 169.936 251.843 170.256 251.256C170.587 250.659 171.029 250.189 171.584 249.848C172.139 249.496 172.763 249.32 173.456 249.32C174.021 249.32 174.533 249.432 174.992 249.656C175.451 249.88 175.829 250.2 176.128 250.616C176.437 251.021 176.619 251.501 176.672 252.056V254.408C176.608 254.952 176.427 255.432 176.128 255.848C175.84 256.253 175.467 256.573 175.008 256.808C174.549 257.043 174.032 257.16 173.456 257.16ZM173.648 256.088C174.171 256.088 174.629 255.971 175.024 255.736C175.419 255.491 175.728 255.155 175.952 254.728C176.176 254.291 176.288 253.795 176.288 253.24C176.288 252.675 176.171 252.179 175.936 251.752C175.712 251.325 175.403 250.989 175.008 250.744C174.613 250.499 174.155 250.376 173.632 250.376C173.109 250.376 172.645 250.499 172.24 250.744C171.835 250.989 171.515 251.331 171.28 251.768C171.056 252.195 170.944 252.685 170.944 253.24C170.944 253.795 171.056 254.291 171.28 254.728C171.515 255.155 171.835 255.491 172.24 255.736C172.656 255.971 173.125 256.088 173.648 256.088ZM177.344 257H176.224V254.984L176.448 253.128L176.224 251.32V245.672H177.344V257ZM182.271 257.16C181.663 257.16 181.119 257.021 180.639 256.744C180.159 256.456 179.781 256.067 179.503 255.576C179.237 255.085 179.103 254.509 179.103 253.848V249.48H180.239V253.8C180.239 254.259 180.319 254.659 180.479 255C180.65 255.341 180.89 255.608 181.199 255.8C181.509 255.992 181.866 256.088 182.271 256.088C182.901 256.088 183.397 255.88 183.759 255.464C184.133 255.048 184.319 254.493 184.319 253.8V249.48H185.439V253.848C185.439 254.499 185.306 255.075 185.039 255.576C184.773 256.077 184.399 256.467 183.919 256.744C183.439 257.021 182.89 257.16 182.271 257.16ZM190.634 257.16C189.898 257.16 189.231 256.989 188.634 256.648C188.047 256.296 187.578 255.821 187.226 255.224C186.884 254.627 186.714 253.96 186.714 253.224C186.714 252.488 186.884 251.827 187.226 251.24C187.578 250.643 188.047 250.173 188.634 249.832C189.231 249.491 189.898 249.32 190.634 249.32C191.199 249.32 191.727 249.427 192.218 249.64C192.708 249.853 193.124 250.152 193.466 250.536L192.73 251.288C192.474 251 192.164 250.781 191.802 250.632C191.439 250.472 191.05 250.392 190.634 250.392C190.1 250.392 189.626 250.515 189.21 250.76C188.794 251.005 188.468 251.341 188.234 251.768C187.999 252.184 187.882 252.669 187.882 253.224C187.882 253.768 187.999 254.259 188.234 254.696C188.468 255.123 188.794 255.459 189.21 255.704C189.626 255.949 190.1 256.072 190.634 256.072C191.06 256.072 191.455 255.997 191.818 255.848C192.18 255.688 192.49 255.464 192.746 255.176L193.498 255.928C193.146 256.323 192.719 256.627 192.218 256.84C191.727 257.053 191.199 257.16 190.634 257.16ZM195.855 257V246.312H196.975V257H195.855ZM193.951 250.488V249.48H198.863V250.488H193.951ZM204.371 257V246.312H205.491V257H204.371ZM202.467 250.488V249.48H207.379V250.488H202.467ZM211.808 257.16C211.051 257.16 210.373 256.989 209.776 256.648C209.179 256.307 208.704 255.837 208.352 255.24C208.011 254.643 207.84 253.971 207.84 253.224C207.84 252.488 208.011 251.827 208.352 251.24C208.693 250.643 209.157 250.173 209.744 249.832C210.331 249.491 210.987 249.32 211.712 249.32C212.395 249.32 212.997 249.475 213.52 249.784C214.053 250.093 214.469 250.525 214.768 251.08C215.077 251.624 215.232 252.253 215.232 252.968C215.232 253.053 215.227 253.155 215.216 253.272C215.205 253.379 215.184 253.507 215.152 253.656H208.64V252.696H214.544L214.144 253.048C214.155 252.493 214.059 252.019 213.856 251.624C213.664 251.219 213.381 250.909 213.008 250.696C212.645 250.472 212.203 250.36 211.68 250.36C211.136 250.36 210.661 250.477 210.256 250.712C209.851 250.947 209.531 251.277 209.296 251.704C209.072 252.12 208.96 252.616 208.96 253.192C208.96 253.768 209.077 254.275 209.312 254.712C209.557 255.149 209.893 255.491 210.32 255.736C210.757 255.981 211.259 256.104 211.824 256.104C212.283 256.104 212.704 256.024 213.088 255.864C213.472 255.693 213.797 255.443 214.064 255.112L214.784 255.848C214.432 256.264 213.995 256.589 213.472 256.824C212.96 257.048 212.405 257.16 211.808 257.16ZM218.929 257.16C218.524 257.16 218.135 257.107 217.761 257C217.388 256.883 217.047 256.723 216.737 256.52C216.439 256.317 216.177 256.077 215.953 255.8L216.673 255.064C216.972 255.427 217.308 255.699 217.681 255.88C218.065 256.051 218.492 256.136 218.961 256.136C219.463 256.136 219.852 256.04 220.129 255.848C220.417 255.656 220.561 255.389 220.561 255.048C220.561 254.728 220.46 254.477 220.257 254.296C220.055 254.115 219.793 253.971 219.473 253.864C219.164 253.757 218.833 253.656 218.481 253.56C218.129 253.453 217.793 253.325 217.473 253.176C217.153 253.016 216.892 252.797 216.689 252.52C216.497 252.243 216.401 251.88 216.401 251.432C216.401 251.005 216.503 250.637 216.705 250.328C216.919 250.008 217.217 249.763 217.601 249.592C217.996 249.411 218.46 249.32 218.993 249.32C219.559 249.32 220.071 249.421 220.529 249.624C220.988 249.827 221.356 250.125 221.633 250.52L220.913 251.24C220.689 250.952 220.407 250.733 220.065 250.584C219.735 250.424 219.361 250.344 218.945 250.344C218.465 250.344 218.097 250.44 217.841 250.632C217.596 250.813 217.473 251.053 217.473 251.352C217.473 251.64 217.575 251.869 217.777 252.04C217.98 252.2 218.236 252.333 218.545 252.44C218.865 252.536 219.201 252.637 219.553 252.744C219.905 252.84 220.241 252.973 220.561 253.144C220.881 253.304 221.137 253.528 221.329 253.816C221.532 254.093 221.633 254.472 221.633 254.952C221.633 255.624 221.388 256.163 220.897 256.568C220.417 256.963 219.761 257.16 218.929 257.16ZM224.255 257V246.312H225.375V257H224.255ZM222.351 250.488V249.48H227.263V250.488H222.351ZM228.485 257V249.48H229.621V257H228.485ZM229.045 247.848C228.832 247.848 228.651 247.773 228.501 247.624C228.352 247.464 228.277 247.277 228.277 247.064C228.277 246.84 228.352 246.653 228.501 246.504C228.651 246.355 228.832 246.28 229.045 246.28C229.28 246.28 229.467 246.355 229.605 246.504C229.755 246.653 229.829 246.84 229.829 247.064C229.829 247.277 229.755 247.464 229.605 247.624C229.467 247.773 229.28 247.848 229.045 247.848ZM237.044 257V252.584C237.044 251.923 236.846 251.389 236.452 250.984C236.068 250.568 235.556 250.36 234.916 250.36C234.478 250.36 234.094 250.456 233.764 250.648C233.433 250.84 233.172 251.101 232.98 251.432C232.788 251.763 232.692 252.141 232.692 252.568L232.18 252.28C232.18 251.715 232.313 251.208 232.58 250.76C232.846 250.312 233.204 249.96 233.652 249.704C234.11 249.448 234.633 249.32 235.22 249.32C235.796 249.32 236.308 249.459 236.756 249.736C237.204 250.013 237.55 250.387 237.796 250.856C238.052 251.325 238.18 251.837 238.18 252.392V257H237.044ZM231.572 257V249.48H232.692V257H231.572ZM243.059 260.328C242.301 260.328 241.624 260.184 241.027 259.896C240.44 259.619 239.965 259.224 239.603 258.712L240.339 257.976C240.637 258.381 241.016 258.696 241.475 258.92C241.933 259.144 242.472 259.256 243.091 259.256C243.944 259.256 244.621 259.027 245.123 258.568C245.635 258.109 245.891 257.485 245.891 256.696V254.824L246.115 253.112L245.891 251.416V249.48H247.011V256.696C247.011 257.421 246.845 258.056 246.515 258.6C246.184 259.144 245.72 259.565 245.123 259.864C244.536 260.173 243.848 260.328 243.059 260.328ZM243.139 256.92C242.445 256.92 241.821 256.755 241.267 256.424C240.712 256.093 240.275 255.64 239.955 255.064C239.635 254.488 239.475 253.837 239.475 253.112C239.475 252.387 239.629 251.741 239.939 251.176C240.259 250.6 240.696 250.147 241.251 249.816C241.805 249.485 242.429 249.32 243.123 249.32C243.709 249.32 244.232 249.432 244.691 249.656C245.16 249.88 245.533 250.2 245.811 250.616C246.099 251.021 246.275 251.501 246.339 252.056V254.184C246.275 254.728 246.099 255.208 245.811 255.624C245.523 256.029 245.149 256.349 244.691 256.584C244.232 256.808 243.715 256.92 243.139 256.92ZM243.347 255.848C243.869 255.848 244.323 255.736 244.707 255.512C245.101 255.288 245.405 254.973 245.619 254.568C245.843 254.152 245.955 253.667 245.955 253.112C245.955 252.568 245.843 252.093 245.619 251.688C245.405 251.283 245.101 250.963 244.707 250.728C244.312 250.493 243.853 250.376 243.331 250.376C242.808 250.376 242.339 250.493 241.923 250.728C241.517 250.963 241.197 251.283 240.963 251.688C240.739 252.093 240.627 252.568 240.627 253.112C240.627 253.645 240.744 254.12 240.979 254.536C241.213 254.952 241.533 255.277 241.939 255.512C242.344 255.736 242.813 255.848 243.347 255.848ZM255.329 257.16C254.614 257.16 253.974 256.989 253.409 256.648C252.843 256.296 252.395 255.827 252.065 255.24C251.745 254.653 251.585 253.992 251.585 253.256C251.585 252.509 251.745 251.843 252.065 251.256C252.395 250.659 252.843 250.189 253.409 249.848C253.974 249.496 254.609 249.32 255.313 249.32C255.889 249.32 256.401 249.437 256.849 249.672C257.307 249.896 257.675 250.216 257.953 250.632C258.241 251.037 258.417 251.512 258.481 252.056V254.408C258.417 254.952 258.241 255.432 257.953 255.848C257.675 256.264 257.307 256.589 256.849 256.824C256.401 257.048 255.894 257.16 255.329 257.16ZM255.505 256.088C256.283 256.088 256.907 255.827 257.377 255.304C257.857 254.781 258.097 254.093 258.097 253.24C258.097 252.675 257.985 252.179 257.761 251.752C257.547 251.315 257.243 250.979 256.849 250.744C256.465 250.499 256.011 250.376 255.489 250.376C254.955 250.376 254.481 250.499 254.065 250.744C253.659 250.989 253.334 251.331 253.089 251.768C252.854 252.195 252.737 252.685 252.737 253.24C252.737 253.795 252.854 254.285 253.089 254.712C253.334 255.139 253.665 255.475 254.081 255.72C254.497 255.965 254.971 256.088 255.505 256.088ZM258.033 257V254.984L258.257 253.128L258.033 251.32V249.48H259.153V257H258.033ZM266.576 257V252.584C266.576 251.923 266.379 251.389 265.984 250.984C265.6 250.568 265.088 250.36 264.448 250.36C264.011 250.36 263.627 250.456 263.296 250.648C262.965 250.84 262.704 251.101 262.512 251.432C262.32 251.763 262.224 252.141 262.224 252.568L261.712 252.28C261.712 251.715 261.845 251.208 262.112 250.76C262.379 250.312 262.736 249.96 263.184 249.704C263.643 249.448 264.165 249.32 264.752 249.32C265.328 249.32 265.84 249.459 266.288 249.736C266.736 250.013 267.083 250.387 267.328 250.856C267.584 251.325 267.712 251.837 267.712 252.392V257H266.576ZM261.104 257V249.48H262.224V257H261.104ZM272.687 257.16C271.994 257.16 271.37 256.989 270.815 256.648C270.261 256.307 269.818 255.843 269.487 255.256C269.167 254.659 269.007 253.992 269.007 253.256C269.007 252.509 269.167 251.843 269.487 251.256C269.818 250.659 270.261 250.189 270.815 249.848C271.37 249.496 271.994 249.32 272.687 249.32C273.253 249.32 273.765 249.432 274.223 249.656C274.682 249.88 275.061 250.2 275.359 250.616C275.669 251.021 275.85 251.501 275.903 252.056V254.408C275.839 254.952 275.658 255.432 275.359 255.848C275.071 256.253 274.698 256.573 274.239 256.808C273.781 257.043 273.263 257.16 272.687 257.16ZM272.879 256.088C273.402 256.088 273.861 255.971 274.255 255.736C274.65 255.491 274.959 255.155 275.183 254.728C275.407 254.291 275.519 253.795 275.519 253.24C275.519 252.675 275.402 252.179 275.167 251.752C274.943 251.325 274.634 250.989 274.239 250.744C273.845 250.499 273.386 250.376 272.863 250.376C272.341 250.376 271.877 250.499 271.471 250.744C271.066 250.989 270.746 251.331 270.511 251.768C270.287 252.195 270.175 252.685 270.175 253.24C270.175 253.795 270.287 254.291 270.511 254.728C270.746 255.155 271.066 255.491 271.471 255.736C271.887 255.971 272.357 256.088 272.879 256.088ZM276.575 257H275.455V254.984L275.679 253.128L275.455 251.32V245.672H276.575V257ZM277.711 257.64L282.095 245.4H283.151L278.767 257.64H277.711ZM286.802 257.16C286.077 257.16 285.415 256.984 284.818 256.632C284.231 256.28 283.762 255.805 283.41 255.208C283.069 254.611 282.898 253.944 282.898 253.208C282.898 252.483 283.069 251.827 283.41 251.24C283.762 250.653 284.231 250.189 284.818 249.848C285.415 249.496 286.077 249.32 286.802 249.32C287.538 249.32 288.199 249.491 288.786 249.832C289.373 250.173 289.837 250.643 290.178 251.24C290.53 251.827 290.706 252.483 290.706 253.208C290.706 253.955 290.53 254.627 290.178 255.224C289.837 255.811 289.373 256.28 288.786 256.632C288.199 256.984 287.538 257.16 286.802 257.16ZM286.802 256.072C287.335 256.072 287.805 255.949 288.21 255.704C288.626 255.459 288.951 255.117 289.186 254.68C289.431 254.243 289.554 253.752 289.554 253.208C289.554 252.664 289.431 252.184 289.186 251.768C288.951 251.341 288.626 251.005 288.21 250.76C287.805 250.515 287.335 250.392 286.802 250.392C286.279 250.392 285.81 250.515 285.394 250.76C284.978 251.005 284.653 251.341 284.418 251.768C284.183 252.184 284.066 252.664 284.066 253.208C284.066 253.763 284.183 254.259 284.418 254.696C284.653 255.123 284.978 255.459 285.394 255.704C285.81 255.949 286.279 256.072 286.802 256.072ZM292.168 257V249.48H293.288V257H292.168ZM293.288 252.616L292.824 252.408C292.824 251.459 293.053 250.707 293.512 250.152C293.981 249.597 294.621 249.32 295.432 249.32C295.805 249.32 296.147 249.389 296.456 249.528C296.765 249.656 297.053 249.864 297.32 250.152L296.584 250.936C296.403 250.733 296.2 250.589 295.976 250.504C295.763 250.419 295.517 250.376 295.24 250.376C294.664 250.376 294.195 250.568 293.832 250.952C293.469 251.325 293.288 251.88 293.288 252.616ZM68.7773 279L65.8813 271.48H67.0493L69.3373 277.72L68.9213 277.736L71.1933 271.48H71.8493L74.1213 277.736L73.7053 277.72L75.9773 271.48H77.1613L74.2493 279H73.5933L71.2733 272.84H71.7533L69.4493 279H68.7773ZM81.4568 279.16C80.7315 279.16 80.0701 278.984 79.4728 278.632C78.8861 278.28 78.4168 277.805 78.0648 277.208C77.7235 276.611 77.5528 275.944 77.5528 275.208C77.5528 274.483 77.7235 273.827 78.0648 273.24C78.4168 272.653 78.8861 272.189 79.4728 271.848C80.0701 271.496 80.7315 271.32 81.4568 271.32C82.1928 271.32 82.8541 271.491 83.4408 271.832C84.0275 272.173 84.4915 272.643 84.8328 273.24C85.1848 273.827 85.3608 274.483 85.3608 275.208C85.3608 275.955 85.1848 276.627 84.8328 277.224C84.4915 277.811 84.0275 278.28 83.4408 278.632C82.8541 278.984 82.1928 279.16 81.4568 279.16ZM81.4568 278.072C81.9901 278.072 82.4595 277.949 82.8648 277.704C83.2808 277.459 83.6061 277.117 83.8408 276.68C84.0861 276.243 84.2088 275.752 84.2088 275.208C84.2088 274.664 84.0861 274.184 83.8408 273.768C83.6061 273.341 83.2808 273.005 82.8648 272.76C82.4595 272.515 81.9901 272.392 81.4568 272.392C80.9341 272.392 80.4648 272.515 80.0488 272.76C79.6328 273.005 79.3075 273.341 79.0728 273.768C78.8381 274.184 78.7208 274.664 78.7208 275.208C78.7208 275.763 78.8381 276.259 79.0728 276.696C79.3075 277.123 79.6328 277.459 80.0488 277.704C80.4648 277.949 80.9341 278.072 81.4568 278.072ZM86.8226 279V271.48H87.9426V279H86.8226ZM87.9426 274.616L87.4786 274.408C87.4786 273.459 87.7079 272.707 88.1666 272.152C88.6359 271.597 89.2759 271.32 90.0866 271.32C90.4599 271.32 90.8012 271.389 91.1106 271.528C91.4199 271.656 91.7079 271.864 91.9746 272.152L91.2386 272.936C91.0572 272.733 90.8546 272.589 90.6306 272.504C90.4172 272.419 90.1719 272.376 89.8946 272.376C89.3186 272.376 88.8492 272.568 88.4866 272.952C88.1239 273.325 87.9426 273.88 87.9426 274.616ZM97.6943 279L93.8543 275.144L97.6303 271.48H99.0223L94.9103 275.432L94.9583 274.792L99.1823 279H97.6943ZM92.8463 279V267.672H93.9663V279H92.8463ZM99.9951 279V271.48H101.131V279H99.9951ZM100.555 269.848C100.342 269.848 100.16 269.773 100.011 269.624C99.8617 269.464 99.7871 269.277 99.7871 269.064C99.7871 268.84 99.8617 268.653 100.011 268.504C100.16 268.355 100.342 268.28 100.555 268.28C100.79 268.28 100.976 268.355 101.115 268.504C101.264 268.653 101.339 268.84 101.339 269.064C101.339 269.277 101.264 269.464 101.115 269.624C100.976 269.773 100.79 269.848 100.555 269.848ZM108.553 279V274.584C108.553 273.923 108.356 273.389 107.961 272.984C107.577 272.568 107.065 272.36 106.425 272.36C105.988 272.36 105.604 272.456 105.273 272.648C104.943 272.84 104.681 273.101 104.489 273.432C104.297 273.763 104.201 274.141 104.201 274.568L103.689 274.28C103.689 273.715 103.823 273.208 104.089 272.76C104.356 272.312 104.713 271.96 105.161 271.704C105.62 271.448 106.143 271.32 106.729 271.32C107.305 271.32 107.817 271.459 108.265 271.736C108.713 272.013 109.06 272.387 109.305 272.856C109.561 273.325 109.689 273.837 109.689 274.392V279H108.553ZM103.081 279V271.48H104.201V279H103.081ZM114.568 282.328C113.811 282.328 113.134 282.184 112.536 281.896C111.95 281.619 111.475 281.224 111.112 280.712L111.848 279.976C112.147 280.381 112.526 280.696 112.984 280.92C113.443 281.144 113.982 281.256 114.6 281.256C115.454 281.256 116.131 281.027 116.632 280.568C117.144 280.109 117.4 279.485 117.4 278.696V276.824L117.624 275.112L117.4 273.416V271.48H118.52V278.696C118.52 279.421 118.355 280.056 118.024 280.6C117.694 281.144 117.23 281.565 116.632 281.864C116.046 282.173 115.358 282.328 114.568 282.328ZM114.648 278.92C113.955 278.92 113.331 278.755 112.776 278.424C112.222 278.093 111.784 277.64 111.464 277.064C111.144 276.488 110.984 275.837 110.984 275.112C110.984 274.387 111.139 273.741 111.448 273.176C111.768 272.6 112.206 272.147 112.76 271.816C113.315 271.485 113.939 271.32 114.632 271.32C115.219 271.32 115.742 271.432 116.2 271.656C116.67 271.88 117.043 272.2 117.32 272.616C117.608 273.021 117.784 273.501 117.848 274.056V276.184C117.784 276.728 117.608 277.208 117.32 277.624C117.032 278.029 116.659 278.349 116.2 278.584C115.742 278.808 115.224 278.92 114.648 278.92ZM114.856 277.848C115.379 277.848 115.832 277.736 116.216 277.512C116.611 277.288 116.915 276.973 117.128 276.568C117.352 276.152 117.464 275.667 117.464 275.112C117.464 274.568 117.352 274.093 117.128 273.688C116.915 273.283 116.611 272.963 116.216 272.728C115.822 272.493 115.363 272.376 114.84 272.376C114.318 272.376 113.848 272.493 113.432 272.728C113.027 272.963 112.707 273.283 112.472 273.688C112.248 274.093 112.136 274.568 112.136 275.112C112.136 275.645 112.254 276.12 112.488 276.536C112.723 276.952 113.043 277.277 113.448 277.512C113.854 277.736 114.323 277.848 114.856 277.848ZM125.67 279L122.774 271.48H123.942L126.23 277.72L125.814 277.736L128.086 271.48H128.742L131.014 277.736L130.598 277.72L132.87 271.48H134.054L131.142 279H130.486L128.166 272.84H128.646L126.342 279H125.67ZM135.067 279V271.48H136.203V279H135.067ZM135.627 269.848C135.414 269.848 135.232 269.773 135.083 269.624C134.934 269.464 134.859 269.277 134.859 269.064C134.859 268.84 134.934 268.653 135.083 268.504C135.232 268.355 135.414 268.28 135.627 268.28C135.862 268.28 136.048 268.355 136.187 268.504C136.336 268.653 136.411 268.84 136.411 269.064C136.411 269.277 136.336 269.464 136.187 269.624C136.048 269.773 135.862 269.848 135.627 269.848ZM139.321 279V268.312H140.441V279H139.321ZM137.417 272.488V271.48H142.329V272.488H137.417ZM149.024 279V274.584C149.024 273.923 148.827 273.389 148.432 272.984C148.048 272.568 147.536 272.36 146.896 272.36C146.459 272.36 146.075 272.456 145.744 272.648C145.413 272.84 145.152 273.101 144.96 273.432C144.768 273.763 144.672 274.141 144.672 274.568L144.16 274.28C144.16 273.715 144.293 273.208 144.56 272.76C144.827 272.312 145.184 271.96 145.632 271.704C146.091 271.448 146.613 271.32 147.2 271.32C147.776 271.32 148.288 271.453 148.736 271.72C149.184 271.976 149.531 272.333 149.776 272.792C150.032 273.251 150.16 273.784 150.16 274.392V279H149.024ZM143.552 279V267.672H144.672V279H143.552ZM157.357 279.16C156.951 279.16 156.562 279.107 156.189 279C155.815 278.883 155.474 278.723 155.165 278.52C154.866 278.317 154.605 278.077 154.381 277.8L155.101 277.064C155.399 277.427 155.735 277.699 156.109 277.88C156.493 278.051 156.919 278.136 157.389 278.136C157.89 278.136 158.279 278.04 158.557 277.848C158.845 277.656 158.989 277.389 158.989 277.048C158.989 276.728 158.887 276.477 158.685 276.296C158.482 276.115 158.221 275.971 157.901 275.864C157.591 275.757 157.261 275.656 156.909 275.56C156.557 275.453 156.221 275.325 155.901 275.176C155.581 275.016 155.319 274.797 155.117 274.52C154.925 274.243 154.829 273.88 154.829 273.432C154.829 273.005 154.93 272.637 155.133 272.328C155.346 272.008 155.645 271.763 156.029 271.592C156.423 271.411 156.887 271.32 157.421 271.32C157.986 271.32 158.498 271.421 158.957 271.624C159.415 271.827 159.783 272.125 160.061 272.52L159.341 273.24C159.117 272.952 158.834 272.733 158.493 272.584C158.162 272.424 157.789 272.344 157.373 272.344C156.893 272.344 156.525 272.44 156.269 272.632C156.023 272.813 155.901 273.053 155.901 273.352C155.901 273.64 156.002 273.869 156.205 274.04C156.407 274.2 156.663 274.333 156.973 274.44C157.293 274.536 157.629 274.637 157.981 274.744C158.333 274.84 158.669 274.973 158.989 275.144C159.309 275.304 159.565 275.528 159.757 275.816C159.959 276.093 160.061 276.472 160.061 276.952C160.061 277.624 159.815 278.163 159.325 278.568C158.845 278.963 158.189 279.16 157.357 279.16ZM164.49 279.16C163.882 279.16 163.338 279.021 162.858 278.744C162.378 278.456 161.999 278.067 161.722 277.576C161.455 277.085 161.322 276.509 161.322 275.848V271.48H162.458V275.8C162.458 276.259 162.538 276.659 162.698 277C162.868 277.341 163.108 277.608 163.418 277.8C163.727 277.992 164.084 278.088 164.49 278.088C165.119 278.088 165.615 277.88 165.978 277.464C166.351 277.048 166.538 276.493 166.538 275.8V271.48H167.658V275.848C167.658 276.499 167.524 277.075 167.258 277.576C166.991 278.077 166.618 278.467 166.138 278.744C165.658 279.021 165.108 279.16 164.49 279.16ZM173.316 279.16C172.74 279.16 172.223 279.043 171.764 278.808C171.306 278.573 170.927 278.253 170.628 277.848C170.34 277.432 170.164 276.952 170.1 276.408V274.056C170.164 273.501 170.346 273.021 170.644 272.616C170.943 272.2 171.322 271.88 171.78 271.656C172.25 271.432 172.762 271.32 173.316 271.32C174.01 271.32 174.634 271.496 175.188 271.848C175.743 272.189 176.18 272.659 176.5 273.256C176.831 273.843 176.996 274.509 176.996 275.256C176.996 275.992 176.836 276.653 176.516 277.24C176.196 277.827 175.754 278.296 175.188 278.648C174.634 278.989 174.01 279.16 173.316 279.16ZM169.428 282.168V271.48H170.548V273.4L170.324 275.224L170.548 277.064V282.168H169.428ZM173.124 278.088C173.658 278.088 174.127 277.971 174.532 277.736C174.938 277.491 175.252 277.155 175.476 276.728C175.711 276.291 175.828 275.795 175.828 275.24C175.828 274.675 175.711 274.179 175.476 273.752C175.252 273.325 174.938 272.989 174.532 272.744C174.127 272.499 173.663 272.376 173.14 272.376C172.618 272.376 172.154 272.499 171.748 272.744C171.354 272.989 171.044 273.325 170.82 273.752C170.596 274.179 170.484 274.675 170.484 275.24C170.484 275.795 170.596 276.291 170.82 276.728C171.044 277.155 171.354 277.491 171.748 277.736C172.143 277.971 172.602 278.088 173.124 278.088ZM182.356 279.16C181.78 279.16 181.262 279.043 180.804 278.808C180.345 278.573 179.966 278.253 179.668 277.848C179.38 277.432 179.204 276.952 179.14 276.408V274.056C179.204 273.501 179.385 273.021 179.684 272.616C179.982 272.2 180.361 271.88 180.82 271.656C181.289 271.432 181.801 271.32 182.356 271.32C183.049 271.32 183.673 271.496 184.228 271.848C184.782 272.189 185.22 272.659 185.54 273.256C185.87 273.843 186.036 274.509 186.036 275.256C186.036 275.992 185.876 276.653 185.556 277.24C185.236 277.827 184.793 278.296 184.228 278.648C183.673 278.989 183.049 279.16 182.356 279.16ZM178.468 282.168V271.48H179.588V273.4L179.364 275.224L179.588 277.064V282.168H178.468ZM182.164 278.088C182.697 278.088 183.166 277.971 183.572 277.736C183.977 277.491 184.292 277.155 184.516 276.728C184.75 276.291 184.868 275.795 184.868 275.24C184.868 274.675 184.75 274.179 184.516 273.752C184.292 273.325 183.977 272.989 183.572 272.744C183.166 272.499 182.702 272.376 182.18 272.376C181.657 272.376 181.193 272.499 180.788 272.744C180.393 272.989 180.084 273.325 179.86 273.752C179.636 274.179 179.524 274.675 179.524 275.24C179.524 275.795 179.636 276.291 179.86 276.728C180.084 277.155 180.393 277.491 180.788 277.736C181.182 277.971 181.641 278.088 182.164 278.088ZM187.507 279V267.672H188.627V279H187.507ZM190.578 279V271.48H191.714V279H190.578ZM191.138 269.848C190.924 269.848 190.743 269.773 190.594 269.624C190.444 269.464 190.37 269.277 190.37 269.064C190.37 268.84 190.444 268.653 190.594 268.504C190.743 268.355 190.924 268.28 191.138 268.28C191.372 268.28 191.559 268.355 191.698 268.504C191.847 268.653 191.922 268.84 191.922 269.064C191.922 269.277 191.847 269.464 191.698 269.624C191.559 269.773 191.372 269.848 191.138 269.848ZM197.136 279.16C196.378 279.16 195.701 278.989 195.104 278.648C194.506 278.307 194.032 277.837 193.68 277.24C193.338 276.643 193.168 275.971 193.168 275.224C193.168 274.488 193.338 273.827 193.68 273.24C194.021 272.643 194.485 272.173 195.072 271.832C195.658 271.491 196.314 271.32 197.04 271.32C197.722 271.32 198.325 271.475 198.848 271.784C199.381 272.093 199.797 272.525 200.096 273.08C200.405 273.624 200.56 274.253 200.56 274.968C200.56 275.053 200.554 275.155 200.544 275.272C200.533 275.379 200.512 275.507 200.48 275.656H193.968V274.696H199.872L199.472 275.048C199.482 274.493 199.386 274.019 199.184 273.624C198.992 273.219 198.709 272.909 198.336 272.696C197.973 272.472 197.53 272.36 197.008 272.36C196.464 272.36 195.989 272.477 195.584 272.712C195.178 272.947 194.858 273.277 194.624 273.704C194.4 274.12 194.288 274.616 194.288 275.192C194.288 275.768 194.405 276.275 194.64 276.712C194.885 277.149 195.221 277.491 195.648 277.736C196.085 277.981 196.586 278.104 197.152 278.104C197.61 278.104 198.032 278.024 198.416 277.864C198.8 277.693 199.125 277.443 199.392 277.112L200.112 277.848C199.76 278.264 199.322 278.589 198.8 278.824C198.288 279.048 197.733 279.16 197.136 279.16ZM201.953 279V271.48H203.073V279H201.953ZM203.073 274.616L202.609 274.408C202.609 273.459 202.839 272.707 203.297 272.152C203.767 271.597 204.407 271.32 205.217 271.32C205.591 271.32 205.932 271.389 206.241 271.528C206.551 271.656 206.839 271.864 207.105 272.152L206.369 272.936C206.188 272.733 205.985 272.589 205.761 272.504C205.548 272.419 205.303 272.376 205.025 272.376C204.449 272.376 203.98 272.568 203.617 272.952C203.255 273.325 203.073 273.88 203.073 274.616ZM210.109 279.16C209.704 279.16 209.314 279.107 208.941 279C208.568 278.883 208.226 278.723 207.917 278.52C207.618 278.317 207.357 278.077 207.133 277.8L207.853 277.064C208.152 277.427 208.488 277.699 208.861 277.88C209.245 278.051 209.672 278.136 210.141 278.136C210.642 278.136 211.032 278.04 211.309 277.848C211.597 277.656 211.741 277.389 211.741 277.048C211.741 276.728 211.64 276.477 211.437 276.296C211.234 276.115 210.973 275.971 210.653 275.864C210.344 275.757 210.013 275.656 209.661 275.56C209.309 275.453 208.973 275.325 208.653 275.176C208.333 275.016 208.072 274.797 207.869 274.52C207.677 274.243 207.581 273.88 207.581 273.432C207.581 273.005 207.682 272.637 207.885 272.328C208.098 272.008 208.397 271.763 208.781 271.592C209.176 271.411 209.64 271.32 210.173 271.32C210.738 271.32 211.25 271.421 211.709 271.624C212.168 271.827 212.536 272.125 212.813 272.52L212.093 273.24C211.869 272.952 211.586 272.733 211.245 272.584C210.914 272.424 210.541 272.344 210.125 272.344C209.645 272.344 209.277 272.44 209.021 272.632C208.776 272.813 208.653 273.053 208.653 273.352C208.653 273.64 208.754 273.869 208.957 274.04C209.16 274.2 209.416 274.333 209.725 274.44C210.045 274.536 210.381 274.637 210.733 274.744C211.085 274.84 211.421 274.973 211.741 275.144C212.061 275.304 212.317 275.528 212.509 275.816C212.712 276.093 212.813 276.472 212.813 276.952C212.813 277.624 212.568 278.163 212.077 278.568C211.597 278.963 210.941 279.16 210.109 279.16ZM219.48 279L216.584 271.48H217.752L220.04 277.72L219.624 277.736L221.896 271.48H222.552L224.824 277.736L224.408 277.72L226.68 271.48H227.864L224.952 279H224.296L221.976 272.84H222.456L220.152 279H219.48ZM234.473 279V274.584C234.473 273.923 234.276 273.389 233.881 272.984C233.497 272.568 232.985 272.36 232.345 272.36C231.908 272.36 231.524 272.456 231.193 272.648C230.863 272.84 230.601 273.101 230.409 273.432C230.217 273.763 230.121 274.141 230.121 274.568L229.609 274.28C229.609 273.715 229.743 273.208 230.009 272.76C230.276 272.312 230.633 271.96 231.081 271.704C231.54 271.448 232.063 271.32 232.649 271.32C233.225 271.32 233.737 271.453 234.185 271.72C234.633 271.976 234.98 272.333 235.225 272.792C235.481 273.251 235.609 273.784 235.609 274.392V279H234.473ZM229.001 279V267.672H230.121V279H229.001ZM240.792 279.16C240.067 279.16 239.406 278.984 238.808 278.632C238.222 278.28 237.752 277.805 237.4 277.208C237.059 276.611 236.888 275.944 236.888 275.208C236.888 274.483 237.059 273.827 237.4 273.24C237.752 272.653 238.222 272.189 238.808 271.848C239.406 271.496 240.067 271.32 240.792 271.32C241.528 271.32 242.19 271.491 242.776 271.832C243.363 272.173 243.827 272.643 244.168 273.24C244.52 273.827 244.696 274.483 244.696 275.208C244.696 275.955 244.52 276.627 244.168 277.224C243.827 277.811 243.363 278.28 242.776 278.632C242.19 278.984 241.528 279.16 240.792 279.16ZM240.792 278.072C241.326 278.072 241.795 277.949 242.2 277.704C242.616 277.459 242.942 277.117 243.176 276.68C243.422 276.243 243.544 275.752 243.544 275.208C243.544 274.664 243.422 274.184 243.176 273.768C242.942 273.341 242.616 273.005 242.2 272.76C241.795 272.515 241.326 272.392 240.792 272.392C240.27 272.392 239.8 272.515 239.384 272.76C238.968 273.005 238.643 273.341 238.408 273.768C238.174 274.184 238.056 274.664 238.056 275.208C238.056 275.763 238.174 276.259 238.408 276.696C238.643 277.123 238.968 277.459 239.384 277.704C239.8 277.949 240.27 278.072 240.792 278.072ZM249.276 279V271.48H250.396V279H249.276ZM254.444 279V274.392C254.444 273.773 254.257 273.283 253.884 272.92C253.51 272.547 253.041 272.36 252.476 272.36C252.092 272.36 251.74 272.445 251.42 272.616C251.11 272.776 250.86 273.005 250.668 273.304C250.486 273.603 250.396 273.96 250.396 274.376L249.884 274.168C249.884 273.592 250.012 273.091 250.268 272.664C250.524 272.237 250.865 271.907 251.292 271.672C251.729 271.437 252.22 271.32 252.764 271.32C253.297 271.32 253.772 271.437 254.188 271.672C254.614 271.907 254.95 272.237 255.196 272.664C255.452 273.091 255.58 273.597 255.58 274.184V279H254.444ZM259.628 279V274.392C259.628 273.773 259.441 273.283 259.068 272.92C258.694 272.547 258.22 272.36 257.644 272.36C257.27 272.36 256.924 272.445 256.604 272.616C256.294 272.776 256.044 273.005 255.852 273.304C255.67 273.603 255.58 273.96 255.58 274.376L254.908 274.168C254.94 273.592 255.089 273.091 255.356 272.664C255.633 272.237 255.99 271.907 256.428 271.672C256.876 271.437 257.366 271.32 257.9 271.32C258.433 271.32 258.913 271.437 259.34 271.672C259.777 271.907 260.118 272.237 260.364 272.664C260.62 273.091 260.748 273.597 260.748 274.184V279H259.628ZM265.798 279.16C265.083 279.16 264.443 278.989 263.878 278.648C263.312 278.296 262.864 277.827 262.534 277.24C262.214 276.653 262.054 275.992 262.054 275.256C262.054 274.509 262.214 273.843 262.534 273.256C262.864 272.659 263.312 272.189 263.878 271.848C264.443 271.496 265.078 271.32 265.782 271.32C266.358 271.32 266.87 271.437 267.318 271.672C267.776 271.896 268.144 272.216 268.422 272.632C268.71 273.037 268.886 273.512 268.95 274.056V276.408C268.886 276.952 268.71 277.432 268.422 277.848C268.144 278.264 267.776 278.589 267.318 278.824C266.87 279.048 266.363 279.16 265.798 279.16ZM265.974 278.088C266.752 278.088 267.376 277.827 267.846 277.304C268.326 276.781 268.566 276.093 268.566 275.24C268.566 274.675 268.454 274.179 268.23 273.752C268.016 273.315 267.712 272.979 267.318 272.744C266.934 272.499 266.48 272.376 265.958 272.376C265.424 272.376 264.95 272.499 264.534 272.744C264.128 272.989 263.803 273.331 263.558 273.768C263.323 274.195 263.206 274.685 263.206 275.24C263.206 275.795 263.323 276.285 263.558 276.712C263.803 277.139 264.134 277.475 264.55 277.72C264.966 277.965 265.44 278.088 265.974 278.088ZM268.502 279V276.984L268.726 275.128L268.502 273.32V271.48H269.622V279H268.502ZM271.573 279V271.48H272.709V279H271.573ZM272.133 269.848C271.92 269.848 271.739 269.773 271.589 269.624C271.44 269.464 271.365 269.277 271.365 269.064C271.365 268.84 271.44 268.653 271.589 268.504C271.739 268.355 271.92 268.28 272.133 268.28C272.368 268.28 272.555 268.355 272.693 268.504C272.843 268.653 272.917 268.84 272.917 269.064C272.917 269.277 272.843 269.464 272.693 269.624C272.555 269.773 272.368 269.848 272.133 269.848ZM280.131 279V274.584C280.131 273.923 279.934 273.389 279.539 272.984C279.155 272.568 278.643 272.36 278.003 272.36C277.566 272.36 277.182 272.456 276.851 272.648C276.521 272.84 276.259 273.101 276.067 273.432C275.875 273.763 275.779 274.141 275.779 274.568L275.267 274.28C275.267 273.715 275.401 273.208 275.667 272.76C275.934 272.312 276.291 271.96 276.739 271.704C277.198 271.448 277.721 271.32 278.307 271.32C278.883 271.32 279.395 271.459 279.843 271.736C280.291 272.013 280.638 272.387 280.883 272.856C281.139 273.325 281.267 273.837 281.267 274.392V279H280.131ZM274.659 279V271.48H275.779V279H274.659ZM284.117 279V268.312H285.237V279H284.117ZM282.213 272.488V271.48H287.125V272.488H282.213ZM291.346 279.16C290.631 279.16 289.991 278.989 289.426 278.648C288.861 278.296 288.413 277.827 288.082 277.24C287.762 276.653 287.602 275.992 287.602 275.256C287.602 274.509 287.762 273.843 288.082 273.256C288.413 272.659 288.861 272.189 289.426 271.848C289.991 271.496 290.626 271.32 291.33 271.32C291.906 271.32 292.418 271.437 292.866 271.672C293.325 271.896 293.693 272.216 293.97 272.632C294.258 273.037 294.434 273.512 294.498 274.056V276.408C294.434 276.952 294.258 277.432 293.97 277.848C293.693 278.264 293.325 278.589 292.866 278.824C292.418 279.048 291.911 279.16 291.346 279.16ZM291.522 278.088C292.301 278.088 292.925 277.827 293.394 277.304C293.874 276.781 294.114 276.093 294.114 275.24C294.114 274.675 294.002 274.179 293.778 273.752C293.565 273.315 293.261 272.979 292.866 272.744C292.482 272.499 292.029 272.376 291.506 272.376C290.973 272.376 290.498 272.499 290.082 272.744C289.677 272.989 289.351 273.331 289.106 273.768C288.871 274.195 288.754 274.685 288.754 275.24C288.754 275.795 288.871 276.285 289.106 276.712C289.351 277.139 289.682 277.475 290.098 277.72C290.514 277.965 290.989 278.088 291.522 278.088ZM294.05 279V276.984L294.274 275.128L294.05 273.32V271.48H295.17V279H294.05ZM297.121 279V271.48H298.257V279H297.121ZM297.681 269.848C297.468 269.848 297.287 269.773 297.137 269.624C296.988 269.464 296.913 269.277 296.913 269.064C296.913 268.84 296.988 268.653 297.137 268.504C297.287 268.355 297.468 268.28 297.681 268.28C297.916 268.28 298.103 268.355 298.241 268.504C298.391 268.653 298.465 268.84 298.465 269.064C298.465 269.277 298.391 269.464 298.241 269.624C298.103 269.773 297.916 269.848 297.681 269.848ZM305.68 279V274.584C305.68 273.923 305.482 273.389 305.088 272.984C304.704 272.568 304.192 272.36 303.552 272.36C303.114 272.36 302.73 272.456 302.4 272.648C302.069 272.84 301.808 273.101 301.616 273.432C301.424 273.763 301.328 274.141 301.328 274.568L300.816 274.28C300.816 273.715 300.949 273.208 301.216 272.76C301.482 272.312 301.84 271.96 302.288 271.704C302.746 271.448 303.269 271.32 303.856 271.32C304.432 271.32 304.944 271.459 305.392 271.736C305.84 272.013 306.186 272.387 306.432 272.856C306.688 273.325 306.816 273.837 306.816 274.392V279H305.68ZM300.208 279V271.48H301.328V279H300.208ZM121.163 301.16C120.758 301.16 120.368 301.107 119.995 301C119.622 300.883 119.28 300.723 118.971 300.52C118.672 300.317 118.411 300.077 118.187 299.8L118.907 299.064C119.206 299.427 119.542 299.699 119.915 299.88C120.299 300.051 120.726 300.136 121.195 300.136C121.696 300.136 122.086 300.04 122.363 299.848C122.651 299.656 122.795 299.389 122.795 299.048C122.795 298.728 122.694 298.477 122.491 298.296C122.288 298.115 122.027 297.971 121.707 297.864C121.398 297.757 121.067 297.656 120.715 297.56C120.363 297.453 120.027 297.325 119.707 297.176C119.387 297.016 119.126 296.797 118.923 296.52C118.731 296.243 118.635 295.88 118.635 295.432C118.635 295.005 118.736 294.637 118.939 294.328C119.152 294.008 119.451 293.763 119.835 293.592C120.23 293.411 120.694 293.32 121.227 293.32C121.792 293.32 122.304 293.421 122.763 293.624C123.222 293.827 123.59 294.125 123.867 294.52L123.147 295.24C122.923 294.952 122.64 294.733 122.299 294.584C121.968 294.424 121.595 294.344 121.179 294.344C120.699 294.344 120.331 294.44 120.075 294.632C119.83 294.813 119.707 295.053 119.707 295.352C119.707 295.64 119.808 295.869 120.011 296.04C120.214 296.2 120.47 296.333 120.779 296.44C121.099 296.536 121.435 296.637 121.787 296.744C122.139 296.84 122.475 296.973 122.795 297.144C123.115 297.304 123.371 297.528 123.563 297.816C123.766 298.093 123.867 298.472 123.867 298.952C123.867 299.624 123.622 300.163 123.131 300.568C122.651 300.963 121.995 301.16 121.163 301.16ZM126.488 301V290.312H127.608V301H126.488ZM124.584 294.488V293.48H129.496V294.488H124.584ZM130.719 301V293.48H131.839V301H130.719ZM131.839 296.616L131.375 296.408C131.375 295.459 131.604 294.707 132.063 294.152C132.532 293.597 133.172 293.32 133.983 293.32C134.356 293.32 134.698 293.389 135.007 293.528C135.316 293.656 135.604 293.864 135.871 294.152L135.135 294.936C134.954 294.733 134.751 294.589 134.527 294.504C134.314 294.419 134.068 294.376 133.791 294.376C133.215 294.376 132.746 294.568 132.383 294.952C132.02 295.325 131.839 295.88 131.839 296.616ZM136.743 301V293.48H137.879V301H136.743ZM137.303 291.848C137.09 291.848 136.908 291.773 136.759 291.624C136.61 291.464 136.535 291.277 136.535 291.064C136.535 290.84 136.61 290.653 136.759 290.504C136.908 290.355 137.09 290.28 137.303 290.28C137.538 290.28 137.724 290.355 137.863 290.504C138.012 290.653 138.087 290.84 138.087 291.064C138.087 291.277 138.012 291.464 137.863 291.624C137.724 291.773 137.538 291.848 137.303 291.848ZM143.253 301.16C142.517 301.16 141.85 300.989 141.253 300.648C140.666 300.296 140.197 299.821 139.845 299.224C139.504 298.627 139.333 297.96 139.333 297.224C139.333 296.488 139.504 295.827 139.845 295.24C140.197 294.643 140.666 294.173 141.253 293.832C141.85 293.491 142.517 293.32 143.253 293.32C143.818 293.32 144.346 293.427 144.837 293.64C145.328 293.853 145.744 294.152 146.085 294.536L145.349 295.288C145.093 295 144.784 294.781 144.421 294.632C144.058 294.472 143.669 294.392 143.253 294.392C142.72 294.392 142.245 294.515 141.829 294.76C141.413 295.005 141.088 295.341 140.853 295.768C140.618 296.184 140.501 296.669 140.501 297.224C140.501 297.768 140.618 298.259 140.853 298.696C141.088 299.123 141.413 299.459 141.829 299.704C142.245 299.949 142.72 300.072 143.253 300.072C143.68 300.072 144.074 299.997 144.437 299.848C144.8 299.688 145.109 299.464 145.365 299.176L146.117 299.928C145.765 300.323 145.338 300.627 144.837 300.84C144.346 301.053 143.818 301.16 143.253 301.16ZM148.474 301V290.312H149.594V301H148.474ZM146.57 294.488V293.48H151.482V294.488H146.57ZM159.086 301.16C158.382 301.16 157.748 300.989 157.182 300.648C156.617 300.296 156.169 299.827 155.838 299.24C155.508 298.653 155.342 297.992 155.342 297.256C155.342 296.509 155.508 295.843 155.838 295.256C156.169 294.659 156.612 294.189 157.166 293.848C157.732 293.496 158.366 293.32 159.07 293.32C159.646 293.32 160.158 293.437 160.606 293.672C161.065 293.896 161.438 294.216 161.726 294.632C162.014 295.037 162.185 295.512 162.238 296.056V298.408C162.174 298.952 161.998 299.432 161.71 299.848C161.433 300.264 161.07 300.589 160.622 300.824C160.174 301.048 159.662 301.16 159.086 301.16ZM159.262 300.088C160.052 300.088 160.681 299.827 161.15 299.304C161.62 298.781 161.854 298.093 161.854 297.24C161.854 296.675 161.748 296.179 161.534 295.752C161.321 295.315 161.017 294.979 160.622 294.744C160.228 294.499 159.769 294.376 159.246 294.376C158.713 294.376 158.238 294.499 157.822 294.744C157.417 294.989 157.097 295.331 156.862 295.768C156.628 296.195 156.51 296.685 156.51 297.24C156.51 297.795 156.628 298.285 156.862 298.712C157.097 299.139 157.422 299.475 157.838 299.72C158.254 299.965 158.729 300.088 159.262 300.088ZM161.79 304.168V299.064L162.014 297.224L161.79 295.4V293.48H162.926V304.168H161.79ZM167.838 301.16C167.23 301.16 166.686 301.021 166.206 300.744C165.726 300.456 165.347 300.067 165.07 299.576C164.803 299.085 164.67 298.509 164.67 297.848V293.48H165.806V297.8C165.806 298.259 165.886 298.659 166.046 299C166.216 299.341 166.456 299.608 166.766 299.8C167.075 299.992 167.432 300.088 167.838 300.088C168.467 300.088 168.963 299.88 169.326 299.464C169.699 299.048 169.886 298.493 169.886 297.8V293.48H171.006V297.848C171.006 298.499 170.872 299.075 170.606 299.576C170.339 300.077 169.966 300.467 169.486 300.744C169.006 301.021 168.456 301.16 167.838 301.16ZM176.04 301.16C175.325 301.16 174.685 300.989 174.12 300.648C173.555 300.296 173.107 299.827 172.776 299.24C172.456 298.653 172.296 297.992 172.296 297.256C172.296 296.509 172.456 295.843 172.776 295.256C173.107 294.659 173.555 294.189 174.12 293.848C174.685 293.496 175.32 293.32 176.024 293.32C176.6 293.32 177.112 293.437 177.56 293.672C178.019 293.896 178.387 294.216 178.664 294.632C178.952 295.037 179.128 295.512 179.192 296.056V298.408C179.128 298.952 178.952 299.432 178.664 299.848C178.387 300.264 178.019 300.589 177.56 300.824C177.112 301.048 176.605 301.16 176.04 301.16ZM176.216 300.088C176.995 300.088 177.619 299.827 178.088 299.304C178.568 298.781 178.808 298.093 178.808 297.24C178.808 296.675 178.696 296.179 178.472 295.752C178.259 295.315 177.955 294.979 177.56 294.744C177.176 294.499 176.723 294.376 176.2 294.376C175.667 294.376 175.192 294.499 174.776 294.744C174.371 294.989 174.045 295.331 173.8 295.768C173.565 296.195 173.448 296.685 173.448 297.24C173.448 297.795 173.565 298.285 173.8 298.712C174.045 299.139 174.376 299.475 174.792 299.72C175.208 299.965 175.683 300.088 176.216 300.088ZM178.744 301V298.984L178.968 297.128L178.744 295.32V293.48H179.864V301H178.744ZM181.815 301V289.672H182.935V301H181.815ZM184.886 301V293.48H186.022V301H184.886ZM185.446 291.848C185.233 291.848 185.051 291.773 184.902 291.624C184.753 291.464 184.678 291.277 184.678 291.064C184.678 290.84 184.753 290.653 184.902 290.504C185.051 290.355 185.233 290.28 185.446 290.28C185.681 290.28 185.867 290.355 186.006 290.504C186.155 290.653 186.23 290.84 186.23 291.064C186.23 291.277 186.155 291.464 186.006 291.624C185.867 291.773 185.681 291.848 185.446 291.848ZM189.14 301V290.312H190.26V301H189.14ZM187.236 294.488V293.48H192.148V294.488H187.236ZM195.883 301.032L192.587 293.48H193.819L196.475 299.784H196.011L198.811 293.48H200.059L196.523 301.032H195.883ZM193.835 304.168L195.899 299.896L196.523 301.032L195.067 304.168H193.835ZM207.749 301.16C207.013 301.16 206.346 300.989 205.749 300.648C205.162 300.296 204.693 299.821 204.341 299.224C203.999 298.627 203.829 297.96 203.829 297.224C203.829 296.488 203.999 295.827 204.341 295.24C204.693 294.643 205.162 294.173 205.749 293.832C206.346 293.491 207.013 293.32 207.749 293.32C208.314 293.32 208.842 293.427 209.333 293.64C209.823 293.853 210.239 294.152 210.581 294.536L209.845 295.288C209.589 295 209.279 294.781 208.917 294.632C208.554 294.472 208.165 294.392 207.749 294.392C207.215 294.392 206.741 294.515 206.325 294.76C205.909 295.005 205.583 295.341 205.349 295.768C205.114 296.184 204.997 296.669 204.997 297.224C204.997 297.768 205.114 298.259 205.349 298.696C205.583 299.123 205.909 299.459 206.325 299.704C206.741 299.949 207.215 300.072 207.749 300.072C208.175 300.072 208.57 299.997 208.933 299.848C209.295 299.688 209.605 299.464 209.861 299.176L210.613 299.928C210.261 300.323 209.834 300.627 209.333 300.84C208.842 301.053 208.314 301.16 207.749 301.16ZM215.131 301.16C214.406 301.16 213.745 300.984 213.147 300.632C212.561 300.28 212.091 299.805 211.739 299.208C211.398 298.611 211.227 297.944 211.227 297.208C211.227 296.483 211.398 295.827 211.739 295.24C212.091 294.653 212.561 294.189 213.147 293.848C213.745 293.496 214.406 293.32 215.131 293.32C215.867 293.32 216.529 293.491 217.115 293.832C217.702 294.173 218.166 294.643 218.507 295.24C218.859 295.827 219.035 296.483 219.035 297.208C219.035 297.955 218.859 298.627 218.507 299.224C218.166 299.811 217.702 300.28 217.115 300.632C216.529 300.984 215.867 301.16 215.131 301.16ZM215.131 300.072C215.665 300.072 216.134 299.949 216.539 299.704C216.955 299.459 217.281 299.117 217.515 298.68C217.761 298.243 217.883 297.752 217.883 297.208C217.883 296.664 217.761 296.184 217.515 295.768C217.281 295.341 216.955 295.005 216.539 294.76C216.134 294.515 215.665 294.392 215.131 294.392C214.609 294.392 214.139 294.515 213.723 294.76C213.307 295.005 212.982 295.341 212.747 295.768C212.513 296.184 212.395 296.664 212.395 297.208C212.395 297.763 212.513 298.259 212.747 298.696C212.982 299.123 213.307 299.459 213.723 299.704C214.139 299.949 214.609 300.072 215.131 300.072ZM225.969 301V296.584C225.969 295.923 225.772 295.389 225.377 294.984C224.993 294.568 224.481 294.36 223.841 294.36C223.404 294.36 223.02 294.456 222.689 294.648C222.359 294.84 222.097 295.101 221.905 295.432C221.713 295.763 221.617 296.141 221.617 296.568L221.105 296.28C221.105 295.715 221.239 295.208 221.505 294.76C221.772 294.312 222.129 293.96 222.577 293.704C223.036 293.448 223.559 293.32 224.145 293.32C224.721 293.32 225.233 293.459 225.681 293.736C226.129 294.013 226.476 294.387 226.721 294.856C226.977 295.325 227.105 295.837 227.105 296.392V301H225.969ZM220.497 301V293.48H221.617V301H220.497ZM229.955 301V290.312H231.075V301H229.955ZM228.051 294.488V293.48H232.963V294.488H228.051ZM234.185 301V293.48H235.305V301H234.185ZM235.305 296.616L234.841 296.408C234.841 295.459 235.071 294.707 235.529 294.152C235.999 293.597 236.639 293.32 237.449 293.32C237.823 293.32 238.164 293.389 238.473 293.528C238.783 293.656 239.071 293.864 239.337 294.152L238.601 294.936C238.42 294.733 238.217 294.589 237.993 294.504C237.78 294.419 237.535 294.376 237.257 294.376C236.681 294.376 236.212 294.568 235.849 294.952C235.487 295.325 235.305 295.88 235.305 296.616ZM243.351 301.16C242.626 301.16 241.965 300.984 241.367 300.632C240.781 300.28 240.311 299.805 239.959 299.208C239.618 298.611 239.447 297.944 239.447 297.208C239.447 296.483 239.618 295.827 239.959 295.24C240.311 294.653 240.781 294.189 241.367 293.848C241.965 293.496 242.626 293.32 243.351 293.32C244.087 293.32 244.749 293.491 245.335 293.832C245.922 294.173 246.386 294.643 246.727 295.24C247.079 295.827 247.255 296.483 247.255 297.208C247.255 297.955 247.079 298.627 246.727 299.224C246.386 299.811 245.922 300.28 245.335 300.632C244.749 300.984 244.087 301.16 243.351 301.16ZM243.351 300.072C243.885 300.072 244.354 299.949 244.759 299.704C245.175 299.459 245.501 299.117 245.735 298.68C245.981 298.243 246.103 297.752 246.103 297.208C246.103 296.664 245.981 296.184 245.735 295.768C245.501 295.341 245.175 295.005 244.759 294.76C244.354 294.515 243.885 294.392 243.351 294.392C242.829 294.392 242.359 294.515 241.943 294.76C241.527 295.005 241.202 295.341 240.967 295.768C240.733 296.184 240.615 296.664 240.615 297.208C240.615 297.763 240.733 298.259 240.967 298.696C241.202 299.123 241.527 299.459 241.943 299.704C242.359 299.949 242.829 300.072 243.351 300.072ZM248.717 301V289.672H249.837V301H248.717ZM252.972 301.16C252.705 301.16 252.487 301.069 252.316 300.888C252.145 300.707 252.06 300.488 252.06 300.232C252.06 299.976 252.145 299.763 252.316 299.592C252.487 299.411 252.705 299.32 252.972 299.32C253.228 299.32 253.441 299.411 253.612 299.592C253.783 299.763 253.868 299.976 253.868 300.232C253.868 300.488 253.783 300.707 253.612 300.888C253.441 301.069 253.228 301.16 252.972 301.16Z" fill="#026533"/>
<defs>
<filter id="filter0_f_2143_427" x="5.07544" y="0.390381" width="363.849" height="424.219" filterUnits="userSpaceOnUse" color-interpolation-filters="sRGB">
<feFlood flood-opacity="0" result="BackgroundImageFix"/>
<feBlend mode="normal" in="SourceGraphic" in2="BackgroundImageFix" result="shape"/>
<feGaussianBlur stdDeviation="10" result="effect1_foregroundBlur_2143_427"/>
</filter>
<clipPath id="clip0_2143_427">
<rect width="48" height="48" fill="white" transform="translate(162.5 104)"/>
</clipPath>
<clipPath id="clip1_2143_427">
<rect width="48" height="48" fill="white" transform="translate(162.5 104)"/>
</clipPath>
</defs>
</svg>
