<svg width="364" height="425" viewBox="0 0 364 425" fill="none" xmlns="http://www.w3.org/2000/svg">
<g filter="url(#filter0_f_2143_414)">
<path d="M171.629 23.2895C178.003 19.4242 185.997 19.4242 192.371 23.2895L262.878 66.0486L334.224 108.909C340.255 112.532 343.938 119.057 343.924 126.093L343.755 212.5L343.924 298.907C343.938 305.943 340.255 312.468 334.224 316.091L262.878 358.951L192.371 401.71C185.997 405.576 178.003 405.576 171.629 401.71L101.122 358.951L29.7762 316.091C23.7454 312.468 20.0617 305.943 20.0755 298.907L20.245 212.5L20.0755 126.093C20.0617 119.057 23.7454 112.532 29.7762 108.909L101.122 66.0486L171.629 23.2895Z" fill="#ECFFF5"/>
</g>
<defs>
<filter id="filter0_f_2143_414" x="0.0754395" y="0.390381" width="363.849" height="424.219" filterUnits="userSpaceOnUse" color-interpolation-filters="sRGB">
<feFlood flood-opacity="0" result="BackgroundImageFix"/>
<feBlend mode="normal" in="SourceGraphic" in2="BackgroundImageFix" result="shape"/>
<feGaussianBlur stdDeviation="10" result="effect1_foregroundBlur_2143_414"/>
</filter>
</defs>
</svg>
