<svg width="374" height="425" viewBox="0 0 374 425" fill="none" xmlns="http://www.w3.org/2000/svg">
<g filter="url(#filter0_f_2143_413)">
<path d="M176.629 23.2895C183.003 19.4242 190.997 19.4242 197.371 23.2895L267.878 66.0486L339.224 108.909C345.255 112.532 348.938 119.057 348.924 126.093L348.755 212.5L348.924 298.907C348.938 305.943 345.255 312.468 339.224 316.091L267.878 358.951L197.371 401.71C190.997 405.576 183.003 405.576 176.629 401.71L106.122 358.951L34.7762 316.091C28.7454 312.468 25.0617 305.943 25.0755 298.907L25.245 212.5L25.0755 126.093C25.0617 119.057 28.7454 112.532 34.7762 108.909L106.122 66.0486L176.629 23.2895Z" fill="#ECFFF5"/>
</g>
<g clip-path="url(#clip0_2143_413)">
<g clip-path="url(#clip1_2143_413)">
<path d="M200 115V119.2C199.12 119.08 198.12 119.02 197 119V115C197 108.7 195.22 104.5 186.5 104.5C177.78 104.5 176 108.7 176 115V119C174.88 119.02 173.88 119.08 173 119.2V115C173 109.2 174.4 101.5 186.5 101.5C198.6 101.5 200 109.2 200 115Z" fill="#007337"/>
<path opacity="0.4" d="M206.5 129V133C206.5 141 204.5 143 196.5 143H176.5C168.5 143 166.5 141 166.5 133V129C166.5 122.32 167.9 119.82 173 119.2C173.88 119.08 174.88 119.02 176 119H197C198.12 119.02 199.12 119.08 200 119.2C205.1 119.82 206.5 122.32 206.5 129Z" fill="#007337"/>
<path d="M178.5 133.001C178.24 133.001 177.98 132.941 177.74 132.841C177.48 132.741 177.28 132.601 177.08 132.421C176.72 132.041 176.5 131.521 176.5 131.001C176.5 130.741 176.56 130.481 176.66 130.241C176.76 130.001 176.9 129.781 177.08 129.581C177.28 129.401 177.48 129.261 177.74 129.161C178.48 128.841 179.36 129.021 179.92 129.581C180.1 129.781 180.24 130.001 180.34 130.241C180.44 130.481 180.5 130.741 180.5 131.001C180.5 131.521 180.28 132.041 179.92 132.421C179.54 132.781 179.02 133.001 178.5 133.001Z" fill="#007337"/>
<path d="M186.5 133C185.96 133 185.46 132.78 185.08 132.42C184.9 132.22 184.76 132 184.66 131.76C184.56 131.52 184.5 131.26 184.5 131C184.5 130.46 184.72 129.96 185.08 129.58C185.82 128.84 187.16 128.84 187.92 129.58C188.28 129.96 188.5 130.46 188.5 131C188.5 131.26 188.44 131.52 188.34 131.76C188.24 132 188.1 132.22 187.92 132.42C187.54 132.78 187.02 133 186.5 133Z" fill="#007337"/>
<path d="M194.5 133C193.98 133 193.46 132.78 193.08 132.42C192.72 132.04 192.5 131.54 192.5 131C192.5 130.46 192.72 129.96 193.08 129.58C193.84 128.84 195.18 128.84 195.92 129.58C196 129.68 196.08 129.78 196.16 129.9C196.24 130 196.3 130.12 196.34 130.24C196.4 130.36 196.44 130.48 196.46 130.6C196.48 130.74 196.5 130.88 196.5 131C196.5 131.52 196.28 132.04 195.92 132.42C195.54 132.78 195.02 133 194.5 133Z" fill="#007337"/>
</g>
</g>
<path d="M147.457 193V179H149.757V193H147.457ZM158.669 193V187.46C158.669 186.82 158.462 186.293 158.049 185.88C157.649 185.467 157.129 185.26 156.489 185.26C156.062 185.26 155.682 185.353 155.349 185.54C155.015 185.727 154.755 185.987 154.569 186.32C154.382 186.653 154.289 187.033 154.289 187.46L153.429 186.98C153.429 186.247 153.589 185.6 153.909 185.04C154.229 184.467 154.669 184.02 155.229 183.7C155.802 183.367 156.442 183.2 157.149 183.2C157.869 183.2 158.509 183.387 159.069 183.76C159.629 184.12 160.069 184.593 160.389 185.18C160.709 185.753 160.869 186.353 160.869 186.98V193H158.669ZM152.089 193V183.4H154.289V193H152.089ZM165.944 193L161.564 183.4H164.004L167.344 191.22H165.904L169.264 183.4H171.604L167.224 193H165.944ZM176.647 193.2C175.687 193.2 174.821 192.987 174.047 192.56C173.287 192.12 172.681 191.52 172.227 190.76C171.787 190 171.567 189.147 171.567 188.2C171.567 187.253 171.787 186.407 172.227 185.66C172.667 184.9 173.261 184.3 174.007 183.86C174.767 183.42 175.607 183.2 176.527 183.2C177.421 183.2 178.207 183.407 178.887 183.82C179.581 184.233 180.121 184.8 180.507 185.52C180.907 186.24 181.107 187.06 181.107 187.98C181.107 188.14 181.094 188.307 181.067 188.48C181.054 188.64 181.027 188.82 180.987 189.02H173.107V187.22H179.847L179.027 187.94C179.001 187.353 178.887 186.86 178.687 186.46C178.487 186.06 178.201 185.753 177.827 185.54C177.467 185.327 177.021 185.22 176.487 185.22C175.927 185.22 175.441 185.34 175.027 185.58C174.614 185.82 174.294 186.16 174.067 186.6C173.841 187.027 173.727 187.54 173.727 188.14C173.727 188.74 173.847 189.267 174.087 189.72C174.327 190.173 174.667 190.527 175.107 190.78C175.547 191.02 176.054 191.14 176.627 191.14C177.121 191.14 177.574 191.053 177.987 190.88C178.414 190.707 178.774 190.453 179.067 190.12L180.467 191.54C180.001 192.087 179.434 192.5 178.767 192.78C178.101 193.06 177.394 193.2 176.647 193.2ZM189.051 193V187.46C189.051 186.82 188.844 186.293 188.431 185.88C188.031 185.467 187.511 185.26 186.871 185.26C186.444 185.26 186.064 185.353 185.731 185.54C185.397 185.727 185.137 185.987 184.951 186.32C184.764 186.653 184.671 187.033 184.671 187.46L183.811 186.98C183.811 186.247 183.971 185.6 184.291 185.04C184.611 184.467 185.051 184.02 185.611 183.7C186.184 183.367 186.824 183.2 187.531 183.2C188.251 183.2 188.891 183.387 189.451 183.76C190.011 184.12 190.451 184.593 190.771 185.18C191.091 185.753 191.251 186.353 191.251 186.98V193H189.051ZM182.471 193V183.4H184.671V193H182.471ZM194.429 193V179.4H196.629V193H194.429ZM192.129 185.4V183.4H198.929V185.4H192.129ZM204.254 193.2C203.321 193.2 202.474 192.98 201.714 192.54C200.954 192.087 200.348 191.48 199.894 190.72C199.454 189.96 199.234 189.113 199.234 188.18C199.234 187.247 199.454 186.407 199.894 185.66C200.348 184.913 200.954 184.32 201.714 183.88C202.474 183.427 203.321 183.2 204.254 183.2C205.201 183.2 206.054 183.42 206.814 183.86C207.574 184.3 208.174 184.9 208.614 185.66C209.068 186.407 209.294 187.247 209.294 188.18C209.294 189.113 209.068 189.96 208.614 190.72C208.174 191.48 207.574 192.087 206.814 192.54C206.054 192.98 205.201 193.2 204.254 193.2ZM204.254 191.08C204.801 191.08 205.281 190.96 205.694 190.72C206.121 190.467 206.448 190.12 206.674 189.68C206.914 189.24 207.034 188.74 207.034 188.18C207.034 187.62 206.914 187.127 206.674 186.7C206.434 186.273 206.108 185.94 205.694 185.7C205.281 185.447 204.801 185.32 204.254 185.32C203.721 185.32 203.241 185.447 202.814 185.7C202.401 185.94 202.074 186.273 201.834 186.7C201.608 187.127 201.494 187.62 201.494 188.18C201.494 188.74 201.608 189.24 201.834 189.68C202.074 190.12 202.401 190.467 202.814 190.72C203.241 190.96 203.721 191.08 204.254 191.08ZM210.724 193V183.4H212.924V193H210.724ZM212.924 187.66L212.164 187.28C212.164 186.067 212.431 185.087 212.964 184.34C213.511 183.58 214.331 183.2 215.424 183.2C215.904 183.2 216.337 183.287 216.724 183.46C217.111 183.633 217.471 183.913 217.804 184.3L216.364 185.78C216.191 185.593 215.997 185.46 215.784 185.38C215.571 185.3 215.324 185.26 215.044 185.26C214.431 185.26 213.924 185.453 213.524 185.84C213.124 186.227 212.924 186.833 212.924 187.66ZM221.432 193.1L217.332 183.4H219.752L222.552 190.52H221.852L224.812 183.4H227.252L222.792 193.1H221.432ZM218.572 197L221.552 190.86L222.792 193.1L221.012 197H218.572ZM130.015 221V207H131.615L137.435 216.58H136.395L142.215 207H143.815V221H141.515V211.04L142.035 211.18L137.715 218.28H136.115L131.795 211.18L132.315 211.04V221H130.015ZM150.171 221.2C149.305 221.2 148.518 220.98 147.811 220.54C147.118 220.1 146.565 219.507 146.151 218.76C145.751 218 145.551 217.153 145.551 216.22C145.551 215.273 145.751 214.427 146.151 213.68C146.565 212.92 147.118 212.32 147.811 211.88C148.518 211.427 149.305 211.2 150.171 211.2C150.905 211.2 151.551 211.36 152.111 211.68C152.685 211.987 153.138 212.413 153.471 212.96C153.805 213.507 153.971 214.127 153.971 214.82V217.58C153.971 218.273 153.805 218.893 153.471 219.44C153.151 219.987 152.705 220.42 152.131 220.74C151.558 221.047 150.905 221.2 150.171 221.2ZM150.531 219.12C151.345 219.12 151.998 218.847 152.491 218.3C152.998 217.753 153.251 217.053 153.251 216.2C153.251 215.627 153.138 215.12 152.911 214.68C152.685 214.24 152.365 213.9 151.951 213.66C151.551 213.407 151.078 213.28 150.531 213.28C149.998 213.28 149.525 213.407 149.111 213.66C148.711 213.9 148.391 214.24 148.151 214.68C147.925 215.12 147.811 215.627 147.811 216.2C147.811 216.773 147.925 217.28 148.151 217.72C148.391 218.16 148.711 218.507 149.111 218.76C149.525 219 149.998 219.12 150.531 219.12ZM153.111 221V218.42L153.491 216.08L153.111 213.76V211.4H155.311V221H153.111ZM163.933 221V215.46C163.933 214.82 163.726 214.293 163.313 213.88C162.913 213.467 162.393 213.26 161.753 213.26C161.326 213.26 160.946 213.353 160.613 213.54C160.279 213.727 160.019 213.987 159.833 214.32C159.646 214.653 159.553 215.033 159.553 215.46L158.693 214.98C158.693 214.247 158.853 213.6 159.173 213.04C159.493 212.467 159.933 212.02 160.493 211.7C161.066 211.367 161.706 211.2 162.413 211.2C163.133 211.2 163.773 211.387 164.333 211.76C164.893 212.12 165.333 212.593 165.653 213.18C165.973 213.753 166.133 214.353 166.133 214.98V221H163.933ZM157.353 221V211.4H159.553V221H157.353ZM171.988 221.2C171.122 221.2 170.335 220.98 169.628 220.54C168.935 220.1 168.382 219.507 167.968 218.76C167.568 218 167.368 217.153 167.368 216.22C167.368 215.273 167.568 214.427 167.968 213.68C168.382 212.92 168.935 212.32 169.628 211.88C170.335 211.427 171.122 211.2 171.988 211.2C172.722 211.2 173.368 211.36 173.928 211.68C174.502 211.987 174.955 212.413 175.288 212.96C175.622 213.507 175.788 214.127 175.788 214.82V217.58C175.788 218.273 175.622 218.893 175.288 219.44C174.968 219.987 174.522 220.42 173.948 220.74C173.375 221.047 172.722 221.2 171.988 221.2ZM172.348 219.12C173.162 219.12 173.815 218.847 174.308 218.3C174.815 217.753 175.068 217.053 175.068 216.2C175.068 215.627 174.955 215.12 174.728 214.68C174.502 214.24 174.182 213.9 173.768 213.66C173.368 213.407 172.895 213.28 172.348 213.28C171.815 213.28 171.342 213.407 170.928 213.66C170.528 213.9 170.208 214.24 169.968 214.68C169.742 215.12 169.628 215.627 169.628 216.2C169.628 216.773 169.742 217.28 169.968 217.72C170.208 218.16 170.528 218.507 170.928 218.76C171.342 219 171.815 219.12 172.348 219.12ZM174.928 221V218.42L175.308 216.08L174.928 213.76V211.4H177.128V221H174.928ZM183.17 225.2C182.157 225.2 181.27 225.013 180.51 224.64C179.75 224.28 179.137 223.767 178.67 223.1L180.11 221.66C180.497 222.14 180.937 222.5 181.43 222.74C181.923 222.98 182.517 223.1 183.21 223.1C184.077 223.1 184.763 222.873 185.27 222.42C185.777 221.98 186.03 221.373 186.03 220.6V218.24L186.41 216.12L186.03 213.98V211.4H188.23V220.6C188.23 221.52 188.017 222.32 187.59 223C187.163 223.693 186.57 224.233 185.81 224.62C185.05 225.007 184.17 225.2 183.17 225.2ZM183.07 220.8C182.217 220.8 181.443 220.593 180.75 220.18C180.07 219.753 179.53 219.173 179.13 218.44C178.743 217.707 178.55 216.887 178.55 215.98C178.55 215.073 178.743 214.26 179.13 213.54C179.53 212.82 180.07 212.253 180.75 211.84C181.443 211.413 182.217 211.2 183.07 211.2C183.83 211.2 184.497 211.353 185.07 211.66C185.643 211.967 186.09 212.393 186.41 212.94C186.73 213.473 186.89 214.1 186.89 214.82V217.18C186.89 217.887 186.723 218.513 186.39 219.06C186.07 219.607 185.623 220.033 185.05 220.34C184.477 220.647 183.817 220.8 183.07 220.8ZM183.51 218.72C184.043 218.72 184.51 218.607 184.91 218.38C185.31 218.153 185.617 217.84 185.83 217.44C186.057 217.027 186.17 216.547 186.17 216C186.17 215.453 186.057 214.98 185.83 214.58C185.617 214.167 185.31 213.847 184.91 213.62C184.51 213.393 184.043 213.28 183.51 213.28C182.977 213.28 182.503 213.393 182.09 213.62C181.69 213.847 181.377 214.167 181.15 214.58C180.923 214.98 180.81 215.453 180.81 216C180.81 216.533 180.923 217.007 181.15 217.42C181.377 217.833 181.69 218.153 182.09 218.38C182.503 218.607 182.977 218.72 183.51 218.72ZM194.734 221.2C193.774 221.2 192.907 220.987 192.134 220.56C191.374 220.12 190.767 219.52 190.314 218.76C189.874 218 189.654 217.147 189.654 216.2C189.654 215.253 189.874 214.407 190.314 213.66C190.754 212.9 191.347 212.3 192.094 211.86C192.854 211.42 193.694 211.2 194.614 211.2C195.507 211.2 196.294 211.407 196.974 211.82C197.667 212.233 198.207 212.8 198.594 213.52C198.994 214.24 199.194 215.06 199.194 215.98C199.194 216.14 199.181 216.307 199.154 216.48C199.141 216.64 199.114 216.82 199.074 217.02H191.194V215.22H197.934L197.114 215.94C197.087 215.353 196.974 214.86 196.774 214.46C196.574 214.06 196.287 213.753 195.914 213.54C195.554 213.327 195.107 213.22 194.574 213.22C194.014 213.22 193.527 213.34 193.114 213.58C192.701 213.82 192.381 214.16 192.154 214.6C191.927 215.027 191.814 215.54 191.814 216.14C191.814 216.74 191.934 217.267 192.174 217.72C192.414 218.173 192.754 218.527 193.194 218.78C193.634 219.02 194.141 219.14 194.714 219.14C195.207 219.14 195.661 219.053 196.074 218.88C196.501 218.707 196.861 218.453 197.154 218.12L198.554 219.54C198.087 220.087 197.521 220.5 196.854 220.78C196.187 221.06 195.481 221.2 194.734 221.2ZM200.557 221V211.4H202.757V221H200.557ZM206.937 221V215.28C206.937 214.64 206.737 214.147 206.337 213.8C205.937 213.44 205.444 213.26 204.857 213.26C204.457 213.26 204.097 213.34 203.777 213.5C203.471 213.66 203.224 213.893 203.037 214.2C202.851 214.493 202.757 214.853 202.757 215.28L201.897 214.8C201.897 214.067 202.057 213.433 202.377 212.9C202.697 212.367 203.131 211.953 203.677 211.66C204.224 211.353 204.837 211.2 205.517 211.2C206.197 211.2 206.811 211.347 207.357 211.64C207.904 211.933 208.337 212.347 208.657 212.88C208.977 213.413 209.137 214.053 209.137 214.8V221H206.937ZM213.317 221V215.28C213.317 214.64 213.117 214.147 212.717 213.8C212.317 213.44 211.824 213.26 211.237 213.26C210.851 213.26 210.497 213.34 210.177 213.5C209.857 213.66 209.604 213.893 209.417 214.2C209.231 214.493 209.137 214.853 209.137 215.28L207.897 214.8C207.964 214.067 208.177 213.433 208.537 212.9C208.897 212.367 209.357 211.953 209.917 211.66C210.491 211.353 211.117 211.2 211.797 211.2C212.491 211.2 213.117 211.347 213.677 211.64C214.237 211.933 214.684 212.347 215.017 212.88C215.351 213.413 215.517 214.053 215.517 214.8V221H213.317ZM221.844 221.2C220.884 221.2 220.017 220.987 219.244 220.56C218.484 220.12 217.877 219.52 217.424 218.76C216.984 218 216.764 217.147 216.764 216.2C216.764 215.253 216.984 214.407 217.424 213.66C217.864 212.9 218.457 212.3 219.204 211.86C219.964 211.42 220.804 211.2 221.724 211.2C222.617 211.2 223.404 211.407 224.084 211.82C224.777 212.233 225.317 212.8 225.704 213.52C226.104 214.24 226.304 215.06 226.304 215.98C226.304 216.14 226.291 216.307 226.264 216.48C226.251 216.64 226.224 216.82 226.184 217.02H218.304V215.22H225.044L224.224 215.94C224.197 215.353 224.084 214.86 223.884 214.46C223.684 214.06 223.397 213.753 223.024 213.54C222.664 213.327 222.217 213.22 221.684 213.22C221.124 213.22 220.637 213.34 220.224 213.58C219.811 213.82 219.491 214.16 219.264 214.6C219.037 215.027 218.924 215.54 218.924 216.14C218.924 216.74 219.044 217.267 219.284 217.72C219.524 218.173 219.864 218.527 220.304 218.78C220.744 219.02 221.251 219.14 221.824 219.14C222.317 219.14 222.771 219.053 223.184 218.88C223.611 218.707 223.971 218.453 224.264 218.12L225.664 219.54C225.197 220.087 224.631 220.5 223.964 220.78C223.297 221.06 222.591 221.2 221.844 221.2ZM234.248 221V215.46C234.248 214.82 234.041 214.293 233.628 213.88C233.228 213.467 232.708 213.26 232.068 213.26C231.641 213.26 231.261 213.353 230.928 213.54C230.594 213.727 230.334 213.987 230.148 214.32C229.961 214.653 229.868 215.033 229.868 215.46L229.008 214.98C229.008 214.247 229.168 213.6 229.488 213.04C229.808 212.467 230.248 212.02 230.808 211.7C231.381 211.367 232.021 211.2 232.728 211.2C233.448 211.2 234.088 211.387 234.648 211.76C235.208 212.12 235.648 212.593 235.968 213.18C236.288 213.753 236.448 214.353 236.448 214.98V221H234.248ZM227.668 221V211.4H229.868V221H227.668ZM239.626 221V207.4H241.826V221H239.626ZM237.326 213.4V211.4H244.126V213.4H237.326Z" fill="#00391A"/>
<path d="M76.6683 257V245.992H77.5003L82.2523 253.784H81.6603L86.4123 245.992H87.2443V257H86.0603V248.04L86.3323 248.104L82.3643 254.616H81.5323L77.5643 248.104L77.8363 248.04V257H76.6683ZM92.7153 257.16C92.0006 257.16 91.3606 256.989 90.7953 256.648C90.23 256.296 89.782 255.827 89.4513 255.24C89.1313 254.653 88.9713 253.992 88.9713 253.256C88.9713 252.509 89.1313 251.843 89.4513 251.256C89.782 250.659 90.23 250.189 90.7953 249.848C91.3606 249.496 91.9953 249.32 92.6993 249.32C93.2753 249.32 93.7873 249.437 94.2353 249.672C94.694 249.896 95.062 250.216 95.3393 250.632C95.6273 251.037 95.8033 251.512 95.8673 252.056V254.408C95.8033 254.952 95.6273 255.432 95.3393 255.848C95.062 256.264 94.694 256.589 94.2353 256.824C93.7873 257.048 93.2806 257.16 92.7153 257.16ZM92.8913 256.088C93.67 256.088 94.294 255.827 94.7633 255.304C95.2433 254.781 95.4833 254.093 95.4833 253.24C95.4833 252.675 95.3713 252.179 95.1473 251.752C94.934 251.315 94.63 250.979 94.2353 250.744C93.8513 250.499 93.398 250.376 92.8753 250.376C92.342 250.376 91.8673 250.499 91.4513 250.744C91.046 250.989 90.7206 251.331 90.4753 251.768C90.2406 252.195 90.1233 252.685 90.1233 253.24C90.1233 253.795 90.2406 254.285 90.4753 254.712C90.7206 255.139 91.0513 255.475 91.4673 255.72C91.8833 255.965 92.358 256.088 92.8913 256.088ZM95.4193 257V254.984L95.6433 253.128L95.4193 251.32V249.48H96.5393V257H95.4193ZM98.4907 257V249.48H99.6267V257H98.4907ZM99.0507 247.848C98.8374 247.848 98.656 247.773 98.5067 247.624C98.3574 247.464 98.2827 247.277 98.2827 247.064C98.2827 246.84 98.3574 246.653 98.5067 246.504C98.656 246.355 98.8374 246.28 99.0507 246.28C99.2854 246.28 99.472 246.355 99.6107 246.504C99.76 246.653 99.8347 246.84 99.8347 247.064C99.8347 247.277 99.76 247.464 99.6107 247.624C99.472 247.773 99.2854 247.848 99.0507 247.848ZM107.049 257V252.584C107.049 251.923 106.852 251.389 106.457 250.984C106.073 250.568 105.561 250.36 104.921 250.36C104.484 250.36 104.1 250.456 103.769 250.648C103.438 250.84 103.177 251.101 102.985 251.432C102.793 251.763 102.697 252.141 102.697 252.568L102.185 252.28C102.185 251.715 102.318 251.208 102.585 250.76C102.852 250.312 103.209 249.96 103.657 249.704C104.116 249.448 104.638 249.32 105.225 249.32C105.801 249.32 106.313 249.459 106.761 249.736C107.209 250.013 107.556 250.387 107.801 250.856C108.057 251.325 108.185 251.837 108.185 252.392V257H107.049ZM101.577 257V249.48H102.697V257H101.577ZM111.034 257V246.312H112.154V257H111.034ZM109.13 250.488V249.48H114.042V250.488H109.13ZM118.263 257.16C117.549 257.16 116.909 256.989 116.343 256.648C115.778 256.296 115.33 255.827 114.999 255.24C114.679 254.653 114.519 253.992 114.519 253.256C114.519 252.509 114.679 251.843 114.999 251.256C115.33 250.659 115.778 250.189 116.343 249.848C116.909 249.496 117.543 249.32 118.247 249.32C118.823 249.32 119.335 249.437 119.783 249.672C120.242 249.896 120.61 250.216 120.887 250.632C121.175 251.037 121.351 251.512 121.415 252.056V254.408C121.351 254.952 121.175 255.432 120.887 255.848C120.61 256.264 120.242 256.589 119.783 256.824C119.335 257.048 118.829 257.16 118.263 257.16ZM118.439 256.088C119.218 256.088 119.842 255.827 120.311 255.304C120.791 254.781 121.031 254.093 121.031 253.24C121.031 252.675 120.919 252.179 120.695 251.752C120.482 251.315 120.178 250.979 119.783 250.744C119.399 250.499 118.946 250.376 118.423 250.376C117.89 250.376 117.415 250.499 116.999 250.744C116.594 250.989 116.269 251.331 116.023 251.768C115.789 252.195 115.671 252.685 115.671 253.24C115.671 253.795 115.789 254.285 116.023 254.712C116.269 255.139 116.599 255.475 117.015 255.72C117.431 255.965 117.906 256.088 118.439 256.088ZM120.967 257V254.984L121.191 253.128L120.967 251.32V249.48H122.087V257H120.967ZM124.039 257V249.48H125.175V257H124.039ZM124.599 247.848C124.385 247.848 124.204 247.773 124.055 247.624C123.905 247.464 123.831 247.277 123.831 247.064C123.831 246.84 123.905 246.653 124.055 246.504C124.204 246.355 124.385 246.28 124.599 246.28C124.833 246.28 125.02 246.355 125.159 246.504C125.308 246.653 125.383 246.84 125.383 247.064C125.383 247.277 125.308 247.464 125.159 247.624C125.02 247.773 124.833 247.848 124.599 247.848ZM132.597 257V252.584C132.597 251.923 132.4 251.389 132.005 250.984C131.621 250.568 131.109 250.36 130.469 250.36C130.032 250.36 129.648 250.456 129.317 250.648C128.986 250.84 128.725 251.101 128.533 251.432C128.341 251.763 128.245 252.141 128.245 252.568L127.733 252.28C127.733 251.715 127.866 251.208 128.133 250.76C128.4 250.312 128.757 249.96 129.205 249.704C129.664 249.448 130.186 249.32 130.773 249.32C131.349 249.32 131.861 249.459 132.309 249.736C132.757 250.013 133.104 250.387 133.349 250.856C133.605 251.325 133.733 251.837 133.733 252.392V257H132.597ZM127.125 257V249.48H128.245V257H127.125ZM135.508 257V249.48H136.644V257H135.508ZM136.068 247.848C135.855 247.848 135.674 247.773 135.524 247.624C135.375 247.464 135.3 247.277 135.3 247.064C135.3 246.84 135.375 246.653 135.524 246.504C135.674 246.355 135.855 246.28 136.068 246.28C136.303 246.28 136.49 246.355 136.628 246.504C136.778 246.653 136.852 246.84 136.852 247.064C136.852 247.277 136.778 247.464 136.628 247.624C136.49 247.773 136.303 247.848 136.068 247.848ZM144.066 257V252.584C144.066 251.923 143.869 251.389 143.474 250.984C143.09 250.568 142.578 250.36 141.938 250.36C141.501 250.36 141.117 250.456 140.786 250.648C140.456 250.84 140.194 251.101 140.002 251.432C139.81 251.763 139.714 252.141 139.714 252.568L139.202 252.28C139.202 251.715 139.336 251.208 139.602 250.76C139.869 250.312 140.226 249.96 140.674 249.704C141.133 249.448 141.656 249.32 142.242 249.32C142.818 249.32 143.33 249.459 143.778 249.736C144.226 250.013 144.573 250.387 144.818 250.856C145.074 251.325 145.202 251.837 145.202 252.392V257H144.066ZM138.594 257V249.48H139.714V257H138.594ZM150.082 260.328C149.324 260.328 148.647 260.184 148.05 259.896C147.463 259.619 146.988 259.224 146.626 258.712L147.362 257.976C147.66 258.381 148.039 258.696 148.498 258.92C148.956 259.144 149.495 259.256 150.114 259.256C150.967 259.256 151.644 259.027 152.146 258.568C152.658 258.109 152.914 257.485 152.914 256.696V254.824L153.138 253.112L152.914 251.416V249.48H154.034V256.696C154.034 257.421 153.868 258.056 153.538 258.6C153.207 259.144 152.743 259.565 152.146 259.864C151.559 260.173 150.871 260.328 150.082 260.328ZM150.162 256.92C149.468 256.92 148.844 256.755 148.29 256.424C147.735 256.093 147.298 255.64 146.978 255.064C146.658 254.488 146.498 253.837 146.498 253.112C146.498 252.387 146.652 251.741 146.962 251.176C147.282 250.6 147.719 250.147 148.274 249.816C148.828 249.485 149.452 249.32 150.146 249.32C150.732 249.32 151.255 249.432 151.714 249.656C152.183 249.88 152.556 250.2 152.834 250.616C153.122 251.021 153.298 251.501 153.362 252.056V254.184C153.298 254.728 153.122 255.208 152.834 255.624C152.546 256.029 152.172 256.349 151.714 256.584C151.255 256.808 150.738 256.92 150.162 256.92ZM150.37 255.848C150.892 255.848 151.346 255.736 151.73 255.512C152.124 255.288 152.428 254.973 152.642 254.568C152.866 254.152 152.978 253.667 152.978 253.112C152.978 252.568 152.866 252.093 152.642 251.688C152.428 251.283 152.124 250.963 151.73 250.728C151.335 250.493 150.876 250.376 150.354 250.376C149.831 250.376 149.362 250.493 148.946 250.728C148.54 250.963 148.22 251.283 147.986 251.688C147.762 252.093 147.65 252.568 147.65 253.112C147.65 253.645 147.767 254.12 148.002 254.536C148.236 254.952 148.556 255.277 148.962 255.512C149.367 255.736 149.836 255.848 150.37 255.848ZM161.392 257.16C160.986 257.16 160.597 257.107 160.224 257C159.85 256.883 159.509 256.723 159.2 256.52C158.901 256.317 158.64 256.077 158.416 255.8L159.136 255.064C159.434 255.427 159.77 255.699 160.144 255.88C160.528 256.051 160.954 256.136 161.424 256.136C161.925 256.136 162.314 256.04 162.592 255.848C162.88 255.656 163.024 255.389 163.024 255.048C163.024 254.728 162.922 254.477 162.72 254.296C162.517 254.115 162.256 253.971 161.936 253.864C161.626 253.757 161.296 253.656 160.944 253.56C160.592 253.453 160.256 253.325 159.936 253.176C159.616 253.016 159.354 252.797 159.152 252.52C158.96 252.243 158.864 251.88 158.864 251.432C158.864 251.005 158.965 250.637 159.168 250.328C159.381 250.008 159.68 249.763 160.064 249.592C160.458 249.411 160.922 249.32 161.456 249.32C162.021 249.32 162.533 249.421 162.992 249.624C163.45 249.827 163.818 250.125 164.096 250.52L163.376 251.24C163.152 250.952 162.869 250.733 162.528 250.584C162.197 250.424 161.824 250.344 161.408 250.344C160.928 250.344 160.56 250.44 160.304 250.632C160.058 250.813 159.936 251.053 159.936 251.352C159.936 251.64 160.037 251.869 160.24 252.04C160.442 252.2 160.698 252.333 161.008 252.44C161.328 252.536 161.664 252.637 162.016 252.744C162.368 252.84 162.704 252.973 163.024 253.144C163.344 253.304 163.6 253.528 163.792 253.816C163.994 254.093 164.096 254.472 164.096 254.952C164.096 255.624 163.85 256.163 163.36 256.568C162.88 256.963 162.224 257.16 161.392 257.16ZM166.717 257V246.312H167.837V257H166.717ZM164.813 250.488V249.48H169.725V250.488H164.813ZM174.09 257.16C173.365 257.16 172.703 256.984 172.106 256.632C171.519 256.28 171.05 255.805 170.698 255.208C170.357 254.611 170.186 253.944 170.186 253.208C170.186 252.483 170.357 251.827 170.698 251.24C171.05 250.653 171.519 250.189 172.106 249.848C172.703 249.496 173.365 249.32 174.09 249.32C174.826 249.32 175.487 249.491 176.074 249.832C176.661 250.173 177.125 250.643 177.466 251.24C177.818 251.827 177.994 252.483 177.994 253.208C177.994 253.955 177.818 254.627 177.466 255.224C177.125 255.811 176.661 256.28 176.074 256.632C175.487 256.984 174.826 257.16 174.09 257.16ZM174.09 256.072C174.623 256.072 175.093 255.949 175.498 255.704C175.914 255.459 176.239 255.117 176.474 254.68C176.719 254.243 176.842 253.752 176.842 253.208C176.842 252.664 176.719 252.184 176.474 251.768C176.239 251.341 175.914 251.005 175.498 250.76C175.093 250.515 174.623 250.392 174.09 250.392C173.567 250.392 173.098 250.515 172.682 250.76C172.266 251.005 171.941 251.341 171.706 251.768C171.471 252.184 171.354 252.664 171.354 253.208C171.354 253.763 171.471 254.259 171.706 254.696C171.941 255.123 172.266 255.459 172.682 255.704C173.098 255.949 173.567 256.072 174.09 256.072ZM182.88 257.16C182.144 257.16 181.477 256.989 180.88 256.648C180.293 256.296 179.824 255.821 179.472 255.224C179.13 254.627 178.96 253.96 178.96 253.224C178.96 252.488 179.13 251.827 179.472 251.24C179.824 250.643 180.293 250.173 180.88 249.832C181.477 249.491 182.144 249.32 182.88 249.32C183.445 249.32 183.973 249.427 184.464 249.64C184.954 249.853 185.37 250.152 185.712 250.536L184.976 251.288C184.72 251 184.41 250.781 184.048 250.632C183.685 250.472 183.296 250.392 182.88 250.392C182.346 250.392 181.872 250.515 181.456 250.76C181.04 251.005 180.714 251.341 180.48 251.768C180.245 252.184 180.128 252.669 180.128 253.224C180.128 253.768 180.245 254.259 180.48 254.696C180.714 255.123 181.04 255.459 181.456 255.704C181.872 255.949 182.346 256.072 182.88 256.072C183.306 256.072 183.701 255.997 184.064 255.848C184.426 255.688 184.736 255.464 184.992 255.176L185.744 255.928C185.392 256.323 184.965 256.627 184.464 256.84C183.973 257.053 183.445 257.16 182.88 257.16ZM191.843 257L188.003 253.144L191.779 249.48H193.171L189.059 253.432L189.107 252.792L193.331 257H191.843ZM186.995 257V245.672H188.115V257H186.995ZM197.543 257V245.672H198.663V257H197.543ZM204.085 257.16C203.328 257.16 202.651 256.989 202.053 256.648C201.456 256.307 200.981 255.837 200.629 255.24C200.288 254.643 200.117 253.971 200.117 253.224C200.117 252.488 200.288 251.827 200.629 251.24C200.971 250.643 201.435 250.173 202.021 249.832C202.608 249.491 203.264 249.32 203.989 249.32C204.672 249.32 205.275 249.475 205.797 249.784C206.331 250.093 206.747 250.525 207.045 251.08C207.355 251.624 207.509 252.253 207.509 252.968C207.509 253.053 207.504 253.155 207.493 253.272C207.483 253.379 207.461 253.507 207.429 253.656H200.917V252.696H206.821L206.421 253.048C206.432 252.493 206.336 252.019 206.133 251.624C205.941 251.219 205.659 250.909 205.285 250.696C204.923 250.472 204.48 250.36 203.957 250.36C203.413 250.36 202.939 250.477 202.533 250.712C202.128 250.947 201.808 251.277 201.573 251.704C201.349 252.12 201.237 252.616 201.237 253.192C201.237 253.768 201.355 254.275 201.589 254.712C201.835 255.149 202.171 255.491 202.597 255.736C203.035 255.981 203.536 256.104 204.101 256.104C204.56 256.104 204.981 256.024 205.365 255.864C205.749 255.693 206.075 255.443 206.341 255.112L207.061 255.848C206.709 256.264 206.272 256.589 205.749 256.824C205.237 257.048 204.683 257.16 204.085 257.16ZM211.402 257L207.93 249.48H209.178L212.106 256.056H211.402L214.346 249.48H215.562L212.058 257H211.402ZM219.805 257.16C219.047 257.16 218.37 256.989 217.773 256.648C217.175 256.307 216.701 255.837 216.349 255.24C216.007 254.643 215.837 253.971 215.837 253.224C215.837 252.488 216.007 251.827 216.349 251.24C216.69 250.643 217.154 250.173 217.741 249.832C218.327 249.491 218.983 249.32 219.709 249.32C220.391 249.32 220.994 249.475 221.517 249.784C222.05 250.093 222.466 250.525 222.765 251.08C223.074 251.624 223.229 252.253 223.229 252.968C223.229 253.053 223.223 253.155 223.213 253.272C223.202 253.379 223.181 253.507 223.149 253.656H216.637V252.696H222.541L222.141 253.048C222.151 252.493 222.055 252.019 221.853 251.624C221.661 251.219 221.378 250.909 221.005 250.696C220.642 250.472 220.199 250.36 219.677 250.36C219.133 250.36 218.658 250.477 218.253 250.712C217.847 250.947 217.527 251.277 217.293 251.704C217.069 252.12 216.957 252.616 216.957 253.192C216.957 253.768 217.074 254.275 217.309 254.712C217.554 255.149 217.89 255.491 218.317 255.736C218.754 255.981 219.255 256.104 219.821 256.104C220.279 256.104 220.701 256.024 221.085 255.864C221.469 255.693 221.794 255.443 222.061 255.112L222.781 255.848C222.429 256.264 221.991 256.589 221.469 256.824C220.957 257.048 220.402 257.16 219.805 257.16ZM224.622 257V245.672H225.742V257H224.622ZM229.997 257.16C229.591 257.16 229.202 257.107 228.829 257C228.455 256.883 228.114 256.723 227.805 256.52C227.506 256.317 227.245 256.077 227.021 255.8L227.741 255.064C228.039 255.427 228.375 255.699 228.749 255.88C229.133 256.051 229.559 256.136 230.029 256.136C230.53 256.136 230.919 256.04 231.197 255.848C231.485 255.656 231.629 255.389 231.629 255.048C231.629 254.728 231.527 254.477 231.325 254.296C231.122 254.115 230.861 253.971 230.541 253.864C230.231 253.757 229.901 253.656 229.549 253.56C229.197 253.453 228.861 253.325 228.541 253.176C228.221 253.016 227.959 252.797 227.757 252.52C227.565 252.243 227.469 251.88 227.469 251.432C227.469 251.005 227.57 250.637 227.773 250.328C227.986 250.008 228.285 249.763 228.669 249.592C229.063 249.411 229.527 249.32 230.061 249.32C230.626 249.32 231.138 249.421 231.597 249.624C232.055 249.827 232.423 250.125 232.701 250.52L231.981 251.24C231.757 250.952 231.474 250.733 231.133 250.584C230.802 250.424 230.429 250.344 230.013 250.344C229.533 250.344 229.165 250.44 228.909 250.632C228.663 250.813 228.541 251.053 228.541 251.352C228.541 251.64 228.642 251.869 228.845 252.04C229.047 252.2 229.303 252.333 229.613 252.44C229.933 252.536 230.269 252.637 230.621 252.744C230.973 252.84 231.309 252.973 231.629 253.144C231.949 253.304 232.205 253.528 232.397 253.816C232.599 254.093 232.701 254.472 232.701 254.952C232.701 255.624 232.455 256.163 231.965 256.568C231.485 256.963 230.829 257.16 229.997 257.16ZM234.314 258.648L235.226 256.872L235.626 256.776C235.583 256.872 235.524 256.952 235.45 257.016C235.375 257.091 235.284 257.128 235.178 257.128C234.975 257.128 234.788 257.048 234.618 256.888C234.458 256.717 234.378 256.509 234.378 256.264C234.378 256.008 234.468 255.789 234.65 255.608C234.831 255.416 235.05 255.32 235.306 255.32C235.551 255.32 235.764 255.416 235.946 255.608C236.138 255.789 236.234 256.008 236.234 256.264C236.234 256.371 236.212 256.499 236.17 256.648C236.138 256.787 236.063 256.973 235.946 257.208L234.986 259.016L234.314 258.648ZM244.814 257.16C244.057 257.16 243.379 256.989 242.782 256.648C242.185 256.307 241.71 255.837 241.358 255.24C241.017 254.643 240.846 253.971 240.846 253.224C240.846 252.488 241.017 251.827 241.358 251.24C241.699 250.643 242.163 250.173 242.75 249.832C243.337 249.491 243.993 249.32 244.718 249.32C245.401 249.32 246.003 249.475 246.526 249.784C247.059 250.093 247.475 250.525 247.774 251.08C248.083 251.624 248.238 252.253 248.238 252.968C248.238 253.053 248.233 253.155 248.222 253.272C248.211 253.379 248.19 253.507 248.158 253.656H241.646V252.696H247.55L247.15 253.048C247.161 252.493 247.065 252.019 246.862 251.624C246.67 251.219 246.387 250.909 246.014 250.696C245.651 250.472 245.209 250.36 244.686 250.36C244.142 250.36 243.667 250.477 243.262 250.712C242.857 250.947 242.537 251.277 242.302 251.704C242.078 252.12 241.966 252.616 241.966 253.192C241.966 253.768 242.083 254.275 242.318 254.712C242.563 255.149 242.899 255.491 243.326 255.736C243.763 255.981 244.265 256.104 244.83 256.104C245.289 256.104 245.71 256.024 246.094 255.864C246.478 255.693 246.803 255.443 247.07 255.112L247.79 255.848C247.438 256.264 247.001 256.589 246.478 256.824C245.966 257.048 245.411 257.16 244.814 257.16ZM255.103 257V252.584C255.103 251.923 254.906 251.389 254.511 250.984C254.127 250.568 253.615 250.36 252.975 250.36C252.538 250.36 252.154 250.456 251.823 250.648C251.493 250.84 251.231 251.101 251.039 251.432C250.847 251.763 250.751 252.141 250.751 252.568L250.239 252.28C250.239 251.715 250.373 251.208 250.639 250.76C250.906 250.312 251.263 249.96 251.711 249.704C252.17 249.448 252.693 249.32 253.279 249.32C253.855 249.32 254.367 249.459 254.815 249.736C255.263 250.013 255.61 250.387 255.855 250.856C256.111 251.325 256.239 251.837 256.239 252.392V257H255.103ZM249.631 257V249.48H250.751V257H249.631ZM260.318 257.16C259.913 257.16 259.524 257.107 259.15 257C258.777 256.883 258.436 256.723 258.126 256.52C257.828 256.317 257.566 256.077 257.342 255.8L258.062 255.064C258.361 255.427 258.697 255.699 259.07 255.88C259.454 256.051 259.881 256.136 260.35 256.136C260.852 256.136 261.241 256.04 261.518 255.848C261.806 255.656 261.95 255.389 261.95 255.048C261.95 254.728 261.849 254.477 261.646 254.296C261.444 254.115 261.182 253.971 260.862 253.864C260.553 253.757 260.222 253.656 259.87 253.56C259.518 253.453 259.182 253.325 258.862 253.176C258.542 253.016 258.281 252.797 258.078 252.52C257.886 252.243 257.79 251.88 257.79 251.432C257.79 251.005 257.892 250.637 258.094 250.328C258.308 250.008 258.606 249.763 258.99 249.592C259.385 249.411 259.849 249.32 260.382 249.32C260.948 249.32 261.46 249.421 261.918 249.624C262.377 249.827 262.745 250.125 263.022 250.52L262.302 251.24C262.078 250.952 261.796 250.733 261.454 250.584C261.124 250.424 260.75 250.344 260.334 250.344C259.854 250.344 259.486 250.44 259.23 250.632C258.985 250.813 258.862 251.053 258.862 251.352C258.862 251.64 258.964 251.869 259.166 252.04C259.369 252.2 259.625 252.333 259.934 252.44C260.254 252.536 260.59 252.637 260.942 252.744C261.294 252.84 261.63 252.973 261.95 253.144C262.27 253.304 262.526 253.528 262.718 253.816C262.921 254.093 263.022 254.472 263.022 254.952C263.022 255.624 262.777 256.163 262.286 256.568C261.806 256.963 261.15 257.16 260.318 257.16ZM267.452 257.16C266.844 257.16 266.3 257.021 265.82 256.744C265.34 256.456 264.961 256.067 264.684 255.576C264.417 255.085 264.284 254.509 264.284 253.848V249.48H265.42V253.8C265.42 254.259 265.5 254.659 265.66 255C265.83 255.341 266.07 255.608 266.38 255.8C266.689 255.992 267.046 256.088 267.452 256.088C268.081 256.088 268.577 255.88 268.94 255.464C269.313 255.048 269.5 254.493 269.5 253.8V249.48H270.62V253.848C270.62 254.499 270.486 255.075 270.22 255.576C269.953 256.077 269.58 256.467 269.1 256.744C268.62 257.021 268.07 257.16 267.452 257.16ZM272.39 257V249.48H273.51V257H272.39ZM273.51 252.616L273.046 252.408C273.046 251.459 273.275 250.707 273.734 250.152C274.203 249.597 274.843 249.32 275.654 249.32C276.027 249.32 276.369 249.389 276.678 249.528C276.987 249.656 277.275 249.864 277.542 250.152L276.806 250.936C276.625 250.733 276.422 250.589 276.198 250.504C275.985 250.419 275.739 250.376 275.462 250.376C274.886 250.376 274.417 250.568 274.054 250.952C273.691 251.325 273.51 251.88 273.51 252.616ZM278.414 257V249.48H279.55V257H278.414ZM278.974 247.848C278.76 247.848 278.579 247.773 278.43 247.624C278.28 247.464 278.206 247.277 278.206 247.064C278.206 246.84 278.28 246.653 278.43 246.504C278.579 246.355 278.76 246.28 278.974 246.28C279.208 246.28 279.395 246.355 279.534 246.504C279.683 246.653 279.758 246.84 279.758 247.064C279.758 247.277 279.683 247.464 279.534 247.624C279.395 247.773 279.208 247.848 278.974 247.848ZM286.972 257V252.584C286.972 251.923 286.775 251.389 286.38 250.984C285.996 250.568 285.484 250.36 284.844 250.36C284.407 250.36 284.023 250.456 283.692 250.648C283.361 250.84 283.1 251.101 282.908 251.432C282.716 251.763 282.62 252.141 282.62 252.568L282.108 252.28C282.108 251.715 282.241 251.208 282.508 250.76C282.775 250.312 283.132 249.96 283.58 249.704C284.039 249.448 284.561 249.32 285.148 249.32C285.724 249.32 286.236 249.459 286.684 249.736C287.132 250.013 287.479 250.387 287.724 250.856C287.98 251.325 288.108 251.837 288.108 252.392V257H286.972ZM281.5 257V249.48H282.62V257H281.5ZM292.987 260.328C292.23 260.328 291.553 260.184 290.955 259.896C290.369 259.619 289.894 259.224 289.531 258.712L290.267 257.976C290.566 258.381 290.945 258.696 291.403 258.92C291.862 259.144 292.401 259.256 293.019 259.256C293.873 259.256 294.55 259.027 295.051 258.568C295.563 258.109 295.819 257.485 295.819 256.696V254.824L296.043 253.112L295.819 251.416V249.48H296.939V256.696C296.939 257.421 296.774 258.056 296.443 258.6C296.113 259.144 295.649 259.565 295.051 259.864C294.465 260.173 293.777 260.328 292.987 260.328ZM293.067 256.92C292.374 256.92 291.75 256.755 291.195 256.424C290.641 256.093 290.203 255.64 289.883 255.064C289.563 254.488 289.403 253.837 289.403 253.112C289.403 252.387 289.558 251.741 289.867 251.176C290.187 250.6 290.625 250.147 291.179 249.816C291.734 249.485 292.358 249.32 293.051 249.32C293.638 249.32 294.161 249.432 294.619 249.656C295.089 249.88 295.462 250.2 295.739 250.616C296.027 251.021 296.203 251.501 296.267 252.056V254.184C296.203 254.728 296.027 255.208 295.739 255.624C295.451 256.029 295.078 256.349 294.619 256.584C294.161 256.808 293.643 256.92 293.067 256.92ZM293.275 255.848C293.798 255.848 294.251 255.736 294.635 255.512C295.03 255.288 295.334 254.973 295.547 254.568C295.771 254.152 295.883 253.667 295.883 253.112C295.883 252.568 295.771 252.093 295.547 251.688C295.334 251.283 295.03 250.963 294.635 250.728C294.241 250.493 293.782 250.376 293.259 250.376C292.737 250.376 292.267 250.493 291.851 250.728C291.446 250.963 291.126 251.283 290.891 251.688C290.667 252.093 290.555 252.568 290.555 253.112C290.555 253.645 290.673 254.12 290.907 254.536C291.142 254.952 291.462 255.277 291.867 255.512C292.273 255.736 292.742 255.848 293.275 255.848ZM73.8737 279.16C73.2977 279.16 72.7804 279.043 72.3217 278.808C71.863 278.573 71.4844 278.253 71.1857 277.848C70.8977 277.432 70.7217 276.952 70.6577 276.408V274.056C70.7217 273.501 70.903 273.021 71.2017 272.616C71.5004 272.2 71.879 271.88 72.3377 271.656C72.807 271.432 73.319 271.32 73.8737 271.32C74.567 271.32 75.191 271.496 75.7457 271.848C76.3004 272.189 76.7377 272.659 77.0577 273.256C77.3884 273.843 77.5537 274.509 77.5537 275.256C77.5537 275.992 77.3937 276.653 77.0737 277.24C76.7537 277.827 76.311 278.296 75.7457 278.648C75.191 278.989 74.567 279.16 73.8737 279.16ZM69.9857 282.168V271.48H71.1057V273.4L70.8817 275.224L71.1057 277.064V282.168H69.9857ZM73.6817 278.088C74.215 278.088 74.6844 277.971 75.0897 277.736C75.495 277.491 75.8097 277.155 76.0337 276.728C76.2684 276.291 76.3857 275.795 76.3857 275.24C76.3857 274.675 76.2684 274.179 76.0337 273.752C75.8097 273.325 75.495 272.989 75.0897 272.744C74.6844 272.499 74.2204 272.376 73.6977 272.376C73.175 272.376 72.711 272.499 72.3057 272.744C71.911 272.989 71.6017 273.325 71.3777 273.752C71.1537 274.179 71.0417 274.675 71.0417 275.24C71.0417 275.795 71.1537 276.291 71.3777 276.728C71.6017 277.155 71.911 277.491 72.3057 277.736C72.7004 277.971 73.159 278.088 73.6817 278.088ZM79.0251 279V271.48H80.1451V279H79.0251ZM80.1451 274.616L79.6811 274.408C79.6811 273.459 79.9104 272.707 80.3691 272.152C80.8384 271.597 81.4784 271.32 82.2891 271.32C82.6624 271.32 83.0037 271.389 83.3131 271.528C83.6224 271.656 83.9104 271.864 84.1771 272.152L83.4411 272.936C83.2597 272.733 83.0571 272.589 82.8331 272.504C82.6197 272.419 82.3744 272.376 82.0971 272.376C81.5211 272.376 81.0517 272.568 80.6891 272.952C80.3264 273.325 80.1451 273.88 80.1451 274.616ZM88.1912 279.16C87.4659 279.16 86.8045 278.984 86.2072 278.632C85.6205 278.28 85.1512 277.805 84.7992 277.208C84.4579 276.611 84.2872 275.944 84.2872 275.208C84.2872 274.483 84.4579 273.827 84.7992 273.24C85.1512 272.653 85.6205 272.189 86.2072 271.848C86.8045 271.496 87.4659 271.32 88.1912 271.32C88.9272 271.32 89.5885 271.491 90.1752 271.832C90.7619 272.173 91.2259 272.643 91.5672 273.24C91.9192 273.827 92.0952 274.483 92.0952 275.208C92.0952 275.955 91.9192 276.627 91.5672 277.224C91.2259 277.811 90.7619 278.28 90.1752 278.632C89.5885 278.984 88.9272 279.16 88.1912 279.16ZM88.1912 278.072C88.7245 278.072 89.1939 277.949 89.5992 277.704C90.0152 277.459 90.3405 277.117 90.5752 276.68C90.8205 276.243 90.9432 275.752 90.9432 275.208C90.9432 274.664 90.8205 274.184 90.5752 273.768C90.3405 273.341 90.0152 273.005 89.5992 272.76C89.1939 272.515 88.7245 272.392 88.1912 272.392C87.6685 272.392 87.1992 272.515 86.7832 272.76C86.3672 273.005 86.0419 273.341 85.8072 273.768C85.5725 274.184 85.4552 274.664 85.4552 275.208C85.4552 275.763 85.5725 276.259 85.8072 276.696C86.0419 277.123 86.3672 277.459 86.7832 277.704C87.1992 277.949 87.6685 278.072 88.1912 278.072ZM96.7569 279.16C96.0636 279.16 95.4396 278.989 94.8849 278.648C94.3303 278.307 93.8876 277.843 93.5569 277.256C93.2369 276.659 93.0769 275.992 93.0769 275.256C93.0769 274.509 93.2369 273.843 93.5569 273.256C93.8876 272.659 94.3303 272.189 94.8849 271.848C95.4396 271.496 96.0636 271.32 96.7569 271.32C97.3223 271.32 97.8343 271.432 98.2929 271.656C98.7516 271.88 99.1303 272.2 99.4289 272.616C99.7383 273.021 99.9196 273.501 99.9729 274.056V276.408C99.9089 276.952 99.7276 277.432 99.4289 277.848C99.1409 278.253 98.7676 278.573 98.3089 278.808C97.8503 279.043 97.3329 279.16 96.7569 279.16ZM96.9489 278.088C97.4716 278.088 97.9303 277.971 98.3249 277.736C98.7196 277.491 99.0289 277.155 99.2529 276.728C99.4769 276.291 99.5889 275.795 99.5889 275.24C99.5889 274.675 99.4716 274.179 99.2369 273.752C99.0129 273.325 98.7036 272.989 98.3089 272.744C97.9143 272.499 97.4556 272.376 96.9329 272.376C96.4103 272.376 95.9463 272.499 95.5409 272.744C95.1356 272.989 94.8156 273.331 94.5809 273.768C94.3569 274.195 94.2449 274.685 94.2449 275.24C94.2449 275.795 94.3569 276.291 94.5809 276.728C94.8156 277.155 95.1356 277.491 95.5409 277.736C95.9569 277.971 96.4263 278.088 96.9489 278.088ZM100.645 279H99.5249V276.984L99.7489 275.128L99.5249 273.32V267.672H100.645V279ZM105.572 279.16C104.964 279.16 104.42 279.021 103.94 278.744C103.46 278.456 103.082 278.067 102.804 277.576C102.538 277.085 102.404 276.509 102.404 275.848V271.48H103.54V275.8C103.54 276.259 103.62 276.659 103.78 277C103.951 277.341 104.191 277.608 104.5 277.8C104.81 277.992 105.167 278.088 105.572 278.088C106.202 278.088 106.698 277.88 107.06 277.464C107.434 277.048 107.62 276.493 107.62 275.8V271.48H108.74V275.848C108.74 276.499 108.607 277.075 108.34 277.576C108.074 278.077 107.7 278.467 107.22 278.744C106.74 279.021 106.191 279.16 105.572 279.16ZM113.935 279.16C113.199 279.16 112.532 278.989 111.935 278.648C111.348 278.296 110.879 277.821 110.527 277.224C110.185 276.627 110.015 275.96 110.015 275.224C110.015 274.488 110.185 273.827 110.527 273.24C110.879 272.643 111.348 272.173 111.935 271.832C112.532 271.491 113.199 271.32 113.935 271.32C114.5 271.32 115.028 271.427 115.519 271.64C116.009 271.853 116.425 272.152 116.767 272.536L116.031 273.288C115.775 273 115.465 272.781 115.103 272.632C114.74 272.472 114.351 272.392 113.935 272.392C113.401 272.392 112.927 272.515 112.511 272.76C112.095 273.005 111.769 273.341 111.535 273.768C111.3 274.184 111.183 274.669 111.183 275.224C111.183 275.768 111.3 276.259 111.535 276.696C111.769 277.123 112.095 277.459 112.511 277.704C112.927 277.949 113.401 278.072 113.935 278.072C114.361 278.072 114.756 277.997 115.119 277.848C115.481 277.688 115.791 277.464 116.047 277.176L116.799 277.928C116.447 278.323 116.02 278.627 115.519 278.84C115.028 279.053 114.5 279.16 113.935 279.16ZM119.156 279V268.312H120.276V279H119.156ZM117.252 272.488V271.48H122.164V272.488H117.252ZM129.768 279.16C129.053 279.16 128.413 278.989 127.848 278.648C127.282 278.296 126.834 277.827 126.504 277.24C126.184 276.653 126.024 275.992 126.024 275.256C126.024 274.509 126.184 273.843 126.504 273.256C126.834 272.659 127.282 272.189 127.848 271.848C128.413 271.496 129.048 271.32 129.752 271.32C130.328 271.32 130.84 271.437 131.288 271.672C131.746 271.896 132.114 272.216 132.392 272.632C132.68 273.037 132.856 273.512 132.92 274.056V276.408C132.856 276.952 132.68 277.432 132.392 277.848C132.114 278.264 131.746 278.589 131.288 278.824C130.84 279.048 130.333 279.16 129.768 279.16ZM129.944 278.088C130.722 278.088 131.346 277.827 131.816 277.304C132.296 276.781 132.536 276.093 132.536 275.24C132.536 274.675 132.424 274.179 132.2 273.752C131.986 273.315 131.682 272.979 131.288 272.744C130.904 272.499 130.45 272.376 129.928 272.376C129.394 272.376 128.92 272.499 128.504 272.744C128.098 272.989 127.773 273.331 127.528 273.768C127.293 274.195 127.176 274.685 127.176 275.24C127.176 275.795 127.293 276.285 127.528 276.712C127.773 277.139 128.104 277.475 128.52 277.72C128.936 277.965 129.41 278.088 129.944 278.088ZM132.472 279V276.984L132.696 275.128L132.472 273.32V271.48H133.592V279H132.472ZM138.167 279L134.695 271.48H135.943L138.871 278.056H138.167L141.111 271.48H142.327L138.823 279H138.167ZM146.362 279.16C145.648 279.16 145.008 278.989 144.442 278.648C143.877 278.296 143.429 277.827 143.098 277.24C142.778 276.653 142.618 275.992 142.618 275.256C142.618 274.509 142.778 273.843 143.098 273.256C143.429 272.659 143.877 272.189 144.442 271.848C145.008 271.496 145.642 271.32 146.346 271.32C146.922 271.32 147.434 271.437 147.882 271.672C148.341 271.896 148.709 272.216 148.986 272.632C149.274 273.037 149.45 273.512 149.514 274.056V276.408C149.45 276.952 149.274 277.432 148.986 277.848C148.709 278.264 148.341 278.589 147.882 278.824C147.434 279.048 146.928 279.16 146.362 279.16ZM146.538 278.088C147.317 278.088 147.941 277.827 148.41 277.304C148.89 276.781 149.13 276.093 149.13 275.24C149.13 274.675 149.018 274.179 148.794 273.752C148.581 273.315 148.277 272.979 147.882 272.744C147.498 272.499 147.045 272.376 146.522 272.376C145.989 272.376 145.514 272.499 145.098 272.744C144.693 272.989 144.368 273.331 144.122 273.768C143.888 274.195 143.77 274.685 143.77 275.24C143.77 275.795 143.888 276.285 144.122 276.712C144.368 277.139 144.698 277.475 145.114 277.72C145.53 277.965 146.005 278.088 146.538 278.088ZM149.066 279V276.984L149.29 275.128L149.066 273.32V271.48H150.186V279H149.066ZM152.138 279V271.48H153.274V279H152.138ZM152.698 269.848C152.484 269.848 152.303 269.773 152.154 269.624C152.004 269.464 151.93 269.277 151.93 269.064C151.93 268.84 152.004 268.653 152.154 268.504C152.303 268.355 152.484 268.28 152.698 268.28C152.932 268.28 153.119 268.355 153.258 268.504C153.407 268.653 153.482 268.84 153.482 269.064C153.482 269.277 153.407 269.464 153.258 269.624C153.119 269.773 152.932 269.848 152.698 269.848ZM155.224 279V267.672H156.344V279H155.224ZM161.558 279.16C160.844 279.16 160.204 278.989 159.638 278.648C159.073 278.296 158.625 277.827 158.294 277.24C157.974 276.653 157.814 275.992 157.814 275.256C157.814 274.509 157.974 273.843 158.294 273.256C158.625 272.659 159.073 272.189 159.638 271.848C160.204 271.496 160.838 271.32 161.542 271.32C162.118 271.32 162.63 271.437 163.078 271.672C163.537 271.896 163.905 272.216 164.182 272.632C164.47 273.037 164.646 273.512 164.71 274.056V276.408C164.646 276.952 164.47 277.432 164.182 277.848C163.905 278.264 163.537 278.589 163.078 278.824C162.63 279.048 162.124 279.16 161.558 279.16ZM161.734 278.088C162.513 278.088 163.137 277.827 163.606 277.304C164.086 276.781 164.326 276.093 164.326 275.24C164.326 274.675 164.214 274.179 163.99 273.752C163.777 273.315 163.473 272.979 163.078 272.744C162.694 272.499 162.241 272.376 161.718 272.376C161.185 272.376 160.71 272.499 160.294 272.744C159.889 272.989 159.564 273.331 159.318 273.768C159.084 274.195 158.966 274.685 158.966 275.24C158.966 275.795 159.084 276.285 159.318 276.712C159.564 277.139 159.894 277.475 160.31 277.72C160.726 277.965 161.201 278.088 161.734 278.088ZM164.262 279V276.984L164.486 275.128L164.262 273.32V271.48H165.382V279H164.262ZM171.222 279.16C170.646 279.16 170.128 279.043 169.67 278.808C169.211 278.573 168.832 278.253 168.534 277.848C168.246 277.432 168.07 276.952 168.006 276.408V274.056C168.07 273.501 168.251 273.021 168.55 272.616C168.848 272.2 169.227 271.88 169.686 271.656C170.155 271.432 170.667 271.32 171.222 271.32C171.915 271.32 172.539 271.496 173.094 271.848C173.648 272.189 174.086 272.659 174.406 273.256C174.736 273.843 174.902 274.509 174.902 275.256C174.902 275.992 174.742 276.653 174.422 277.24C174.102 277.827 173.659 278.296 173.094 278.648C172.539 278.989 171.915 279.16 171.222 279.16ZM167.334 279V267.672H168.454V273.32L168.23 275.128L168.454 276.984V279H167.334ZM171.03 278.088C171.563 278.088 172.032 277.971 172.438 277.736C172.843 277.491 173.158 277.155 173.382 276.728C173.616 276.291 173.734 275.795 173.734 275.24C173.734 274.675 173.616 274.179 173.382 273.752C173.158 273.325 172.843 272.989 172.438 272.744C172.032 272.499 171.568 272.376 171.046 272.376C170.523 272.376 170.059 272.499 169.654 272.744C169.259 272.989 168.95 273.325 168.726 273.752C168.502 274.179 168.39 274.675 168.39 275.24C168.39 275.795 168.502 276.291 168.726 276.728C168.95 277.155 169.259 277.491 169.654 277.736C170.048 277.971 170.507 278.088 171.03 278.088ZM176.373 279V271.48H177.509V279H176.373ZM176.933 269.848C176.72 269.848 176.539 269.773 176.389 269.624C176.24 269.464 176.165 269.277 176.165 269.064C176.165 268.84 176.24 268.653 176.389 268.504C176.539 268.355 176.72 268.28 176.933 268.28C177.168 268.28 177.355 268.355 177.493 268.504C177.643 268.653 177.717 268.84 177.717 269.064C177.717 269.277 177.643 269.464 177.493 269.624C177.355 269.773 177.168 269.848 176.933 269.848ZM179.459 279V267.672H180.579V279H179.459ZM182.53 279V271.48H183.666V279H182.53ZM183.09 269.848C182.877 269.848 182.695 269.773 182.546 269.624C182.397 269.464 182.322 269.277 182.322 269.064C182.322 268.84 182.397 268.653 182.546 268.504C182.695 268.355 182.877 268.28 183.09 268.28C183.325 268.28 183.511 268.355 183.65 268.504C183.799 268.653 183.874 268.84 183.874 269.064C183.874 269.277 183.799 269.464 183.65 269.624C183.511 269.773 183.325 269.848 183.09 269.848ZM186.784 279V268.312H187.904V279H186.784ZM184.88 272.488V271.48H189.792V272.488H184.88ZM193.527 279.032L190.231 271.48H191.463L194.119 277.784H193.655L196.455 271.48H197.703L194.167 279.032H193.527ZM191.479 282.168L193.543 277.896L194.167 279.032L192.711 282.168H191.479ZM197.918 280.648L198.83 278.872L199.23 278.776C199.187 278.872 199.128 278.952 199.054 279.016C198.979 279.091 198.888 279.128 198.782 279.128C198.579 279.128 198.392 279.048 198.222 278.888C198.062 278.717 197.982 278.509 197.982 278.264C197.982 278.008 198.072 277.789 198.254 277.608C198.435 277.416 198.654 277.32 198.91 277.32C199.155 277.32 199.368 277.416 199.55 277.608C199.742 277.789 199.838 278.008 199.838 278.264C199.838 278.371 199.816 278.499 199.774 278.648C199.742 278.787 199.667 278.973 199.55 279.208L198.59 281.016L197.918 280.648ZM208.21 279.16C207.495 279.16 206.855 278.989 206.29 278.648C205.724 278.296 205.276 277.827 204.946 277.24C204.626 276.653 204.466 275.992 204.466 275.256C204.466 274.509 204.626 273.843 204.946 273.256C205.276 272.659 205.724 272.189 206.29 271.848C206.855 271.496 207.49 271.32 208.194 271.32C208.77 271.32 209.282 271.437 209.73 271.672C210.188 271.896 210.556 272.216 210.834 272.632C211.122 273.037 211.298 273.512 211.362 274.056V276.408C211.298 276.952 211.122 277.432 210.834 277.848C210.556 278.264 210.188 278.589 209.73 278.824C209.282 279.048 208.775 279.16 208.21 279.16ZM208.386 278.088C209.164 278.088 209.788 277.827 210.258 277.304C210.738 276.781 210.978 276.093 210.978 275.24C210.978 274.675 210.866 274.179 210.642 273.752C210.428 273.315 210.124 272.979 209.73 272.744C209.346 272.499 208.892 272.376 208.37 272.376C207.836 272.376 207.362 272.499 206.946 272.744C206.54 272.989 206.215 273.331 205.97 273.768C205.735 274.195 205.618 274.685 205.618 275.24C205.618 275.795 205.735 276.285 205.97 276.712C206.215 277.139 206.546 277.475 206.962 277.72C207.378 277.965 207.852 278.088 208.386 278.088ZM210.914 279V276.984L211.138 275.128L210.914 273.32V271.48H212.034V279H210.914ZM219.457 279V274.584C219.457 273.923 219.26 273.389 218.865 272.984C218.481 272.568 217.969 272.36 217.329 272.36C216.892 272.36 216.508 272.456 216.177 272.648C215.846 272.84 215.585 273.101 215.393 273.432C215.201 273.763 215.105 274.141 215.105 274.568L214.593 274.28C214.593 273.715 214.726 273.208 214.993 272.76C215.26 272.312 215.617 271.96 216.065 271.704C216.524 271.448 217.046 271.32 217.633 271.32C218.209 271.32 218.721 271.459 219.169 271.736C219.617 272.013 219.964 272.387 220.209 272.856C220.465 273.325 220.593 273.837 220.593 274.392V279H219.457ZM213.985 279V271.48H215.105V279H213.985ZM225.568 279.16C224.875 279.16 224.251 278.989 223.696 278.648C223.142 278.307 222.699 277.843 222.368 277.256C222.048 276.659 221.888 275.992 221.888 275.256C221.888 274.509 222.048 273.843 222.368 273.256C222.699 272.659 223.142 272.189 223.696 271.848C224.251 271.496 224.875 271.32 225.568 271.32C226.134 271.32 226.646 271.432 227.104 271.656C227.563 271.88 227.942 272.2 228.24 272.616C228.55 273.021 228.731 273.501 228.784 274.056V276.408C228.72 276.952 228.539 277.432 228.24 277.848C227.952 278.253 227.579 278.573 227.12 278.808C226.662 279.043 226.144 279.16 225.568 279.16ZM225.76 278.088C226.283 278.088 226.742 277.971 227.136 277.736C227.531 277.491 227.84 277.155 228.064 276.728C228.288 276.291 228.4 275.795 228.4 275.24C228.4 274.675 228.283 274.179 228.048 273.752C227.824 273.325 227.515 272.989 227.12 272.744C226.726 272.499 226.267 272.376 225.744 272.376C225.222 272.376 224.758 272.499 224.352 272.744C223.947 272.989 223.627 273.331 223.392 273.768C223.168 274.195 223.056 274.685 223.056 275.24C223.056 275.795 223.168 276.291 223.392 276.728C223.627 277.155 223.947 277.491 224.352 277.736C224.768 277.971 225.238 278.088 225.76 278.088ZM229.456 279H228.336V276.984L228.56 275.128L228.336 273.32V267.672H229.456V279ZM238.413 279.16C237.837 279.16 237.32 279.043 236.861 278.808C236.402 278.573 236.024 278.253 235.725 277.848C235.437 277.432 235.261 276.952 235.197 276.408V274.056C235.261 273.501 235.442 273.021 235.741 272.616C236.04 272.2 236.418 271.88 236.877 271.656C237.346 271.432 237.858 271.32 238.413 271.32C239.106 271.32 239.73 271.496 240.285 271.848C240.84 272.189 241.277 272.659 241.597 273.256C241.928 273.843 242.093 274.509 242.093 275.256C242.093 275.992 241.933 276.653 241.613 277.24C241.293 277.827 240.85 278.296 240.285 278.648C239.73 278.989 239.106 279.16 238.413 279.16ZM234.525 282.168V271.48H235.645V273.4L235.421 275.224L235.645 277.064V282.168H234.525ZM238.221 278.088C238.754 278.088 239.224 277.971 239.629 277.736C240.034 277.491 240.349 277.155 240.573 276.728C240.808 276.291 240.925 275.795 240.925 275.24C240.925 274.675 240.808 274.179 240.573 273.752C240.349 273.325 240.034 272.989 239.629 272.744C239.224 272.499 238.76 272.376 238.237 272.376C237.714 272.376 237.25 272.499 236.845 272.744C236.45 272.989 236.141 273.325 235.917 273.752C235.693 274.179 235.581 274.675 235.581 275.24C235.581 275.795 235.693 276.291 235.917 276.728C236.141 277.155 236.45 277.491 236.845 277.736C237.24 277.971 237.698 278.088 238.221 278.088ZM246.972 279.16C246.247 279.16 245.586 278.984 244.988 278.632C244.402 278.28 243.932 277.805 243.58 277.208C243.239 276.611 243.068 275.944 243.068 275.208C243.068 274.483 243.239 273.827 243.58 273.24C243.932 272.653 244.402 272.189 244.988 271.848C245.586 271.496 246.247 271.32 246.972 271.32C247.708 271.32 248.37 271.491 248.956 271.832C249.543 272.173 250.007 272.643 250.348 273.24C250.7 273.827 250.876 274.483 250.876 275.208C250.876 275.955 250.7 276.627 250.348 277.224C250.007 277.811 249.543 278.28 248.956 278.632C248.37 278.984 247.708 279.16 246.972 279.16ZM246.972 278.072C247.506 278.072 247.975 277.949 248.38 277.704C248.796 277.459 249.122 277.117 249.356 276.68C249.602 276.243 249.724 275.752 249.724 275.208C249.724 274.664 249.602 274.184 249.356 273.768C249.122 273.341 248.796 273.005 248.38 272.76C247.975 272.515 247.506 272.392 246.972 272.392C246.45 272.392 245.98 272.515 245.564 272.76C245.148 273.005 244.823 273.341 244.588 273.768C244.354 274.184 244.236 274.664 244.236 275.208C244.236 275.763 244.354 276.259 244.588 276.696C244.823 277.123 245.148 277.459 245.564 277.704C245.98 277.949 246.45 278.072 246.972 278.072ZM253.241 279V268.312H254.361V279H253.241ZM251.337 272.488V271.48H256.249V272.488H251.337ZM260.678 279.16C259.92 279.16 259.243 278.989 258.646 278.648C258.048 278.307 257.574 277.837 257.222 277.24C256.88 276.643 256.71 275.971 256.71 275.224C256.71 274.488 256.88 273.827 257.222 273.24C257.563 272.643 258.027 272.173 258.614 271.832C259.2 271.491 259.856 271.32 260.582 271.32C261.264 271.32 261.867 271.475 262.39 271.784C262.923 272.093 263.339 272.525 263.638 273.08C263.947 273.624 264.102 274.253 264.102 274.968C264.102 275.053 264.096 275.155 264.086 275.272C264.075 275.379 264.054 275.507 264.022 275.656H257.51V274.696H263.414L263.014 275.048C263.024 274.493 262.928 274.019 262.726 273.624C262.534 273.219 262.251 272.909 261.878 272.696C261.515 272.472 261.072 272.36 260.55 272.36C260.006 272.36 259.531 272.477 259.126 272.712C258.72 272.947 258.4 273.277 258.166 273.704C257.942 274.12 257.83 274.616 257.83 275.192C257.83 275.768 257.947 276.275 258.182 276.712C258.427 277.149 258.763 277.491 259.19 277.736C259.627 277.981 260.128 278.104 260.694 278.104C261.152 278.104 261.574 278.024 261.958 277.864C262.342 277.693 262.667 277.443 262.934 277.112L263.654 277.848C263.302 278.264 262.864 278.589 262.342 278.824C261.83 279.048 261.275 279.16 260.678 279.16ZM270.967 279V274.584C270.967 273.923 270.77 273.389 270.375 272.984C269.991 272.568 269.479 272.36 268.839 272.36C268.402 272.36 268.018 272.456 267.687 272.648C267.356 272.84 267.095 273.101 266.903 273.432C266.711 273.763 266.615 274.141 266.615 274.568L266.103 274.28C266.103 273.715 266.236 273.208 266.503 272.76C266.77 272.312 267.127 271.96 267.575 271.704C268.034 271.448 268.556 271.32 269.143 271.32C269.719 271.32 270.231 271.459 270.679 271.736C271.127 272.013 271.474 272.387 271.719 272.856C271.975 273.325 272.103 273.837 272.103 274.392V279H270.967ZM265.495 279V271.48H266.615V279H265.495ZM274.952 279V268.312H276.072V279H274.952ZM273.048 272.488V271.48H277.96V272.488H273.048ZM279.183 279V271.48H280.319V279H279.183ZM279.743 269.848C279.53 269.848 279.349 269.773 279.199 269.624C279.05 269.464 278.975 269.277 278.975 269.064C278.975 268.84 279.05 268.653 279.199 268.504C279.349 268.355 279.53 268.28 279.743 268.28C279.978 268.28 280.165 268.355 280.303 268.504C280.453 268.653 280.527 268.84 280.527 269.064C280.527 269.277 280.453 269.464 280.303 269.624C280.165 269.773 279.978 269.848 279.743 269.848ZM285.533 279.16C284.819 279.16 284.179 278.989 283.613 278.648C283.048 278.296 282.6 277.827 282.269 277.24C281.949 276.653 281.789 275.992 281.789 275.256C281.789 274.509 281.949 273.843 282.269 273.256C282.6 272.659 283.048 272.189 283.613 271.848C284.179 271.496 284.813 271.32 285.517 271.32C286.093 271.32 286.605 271.437 287.053 271.672C287.512 271.896 287.88 272.216 288.157 272.632C288.445 273.037 288.621 273.512 288.685 274.056V276.408C288.621 276.952 288.445 277.432 288.157 277.848C287.88 278.264 287.512 278.589 287.053 278.824C286.605 279.048 286.099 279.16 285.533 279.16ZM285.709 278.088C286.488 278.088 287.112 277.827 287.581 277.304C288.061 276.781 288.301 276.093 288.301 275.24C288.301 274.675 288.189 274.179 287.965 273.752C287.752 273.315 287.448 272.979 287.053 272.744C286.669 272.499 286.216 272.376 285.693 272.376C285.16 272.376 284.685 272.499 284.269 272.744C283.864 272.989 283.539 273.331 283.293 273.768C283.059 274.195 282.941 274.685 282.941 275.24C282.941 275.795 283.059 276.285 283.293 276.712C283.539 277.139 283.869 277.475 284.285 277.72C284.701 277.965 285.176 278.088 285.709 278.088ZM288.237 279V276.984L288.461 275.128L288.237 273.32V271.48H289.357V279H288.237ZM291.309 279V267.672H292.429V279H291.309ZM294.379 279V267.672H295.499V279H294.379ZM299.962 279.032L296.666 271.48H297.898L300.554 277.784H300.09L302.89 271.48H304.138L300.602 279.032H299.962ZM297.914 282.168L299.978 277.896L300.602 279.032L299.146 282.168H297.914ZM67.5068 301.16C66.7815 301.16 66.1201 300.984 65.5228 300.632C64.9361 300.28 64.4668 299.805 64.1148 299.208C63.7735 298.611 63.6028 297.944 63.6028 297.208C63.6028 296.483 63.7735 295.827 64.1148 295.24C64.4668 294.653 64.9361 294.189 65.5228 293.848C66.1201 293.496 66.7815 293.32 67.5068 293.32C68.2428 293.32 68.9041 293.491 69.4908 293.832C70.0775 294.173 70.5415 294.643 70.8828 295.24C71.2348 295.827 71.4108 296.483 71.4108 297.208C71.4108 297.955 71.2348 298.627 70.8828 299.224C70.5415 299.811 70.0775 300.28 69.4908 300.632C68.9041 300.984 68.2428 301.16 67.5068 301.16ZM67.5068 300.072C68.0401 300.072 68.5095 299.949 68.9148 299.704C69.3308 299.459 69.6561 299.117 69.8908 298.68C70.1361 298.243 70.2588 297.752 70.2588 297.208C70.2588 296.664 70.1361 296.184 69.8908 295.768C69.6561 295.341 69.3308 295.005 68.9148 294.76C68.5095 294.515 68.0401 294.392 67.5068 294.392C66.9841 294.392 66.5148 294.515 66.0988 294.76C65.6828 295.005 65.3575 295.341 65.1228 295.768C64.8881 296.184 64.7708 296.664 64.7708 297.208C64.7708 297.763 64.8881 298.259 65.1228 298.696C65.3575 299.123 65.6828 299.459 66.0988 299.704C66.5148 299.949 66.9841 300.072 67.5068 300.072ZM73.7109 301V292.456C73.7109 291.912 73.8283 291.432 74.0629 291.016C74.2976 290.6 74.6229 290.275 75.0389 290.04C75.4656 289.795 75.9509 289.672 76.4949 289.672C77.0389 289.672 77.4923 289.789 77.8549 290.024C78.2283 290.259 78.5056 290.584 78.6869 291C78.8683 291.405 78.9589 291.864 78.9589 292.376H78.1269C78.1163 291.875 77.9723 291.469 77.6949 291.16C77.4283 290.851 77.0283 290.696 76.4949 290.696C75.9616 290.696 75.5509 290.856 75.2629 291.176C74.9856 291.496 74.8469 291.923 74.8469 292.456V301H73.7109ZM71.8229 294.488V293.48H81.7749V294.488H71.8229ZM78.1269 301V292.2C78.1269 291.677 78.2443 291.213 78.4789 290.808C78.7136 290.403 79.0336 290.088 79.4389 289.864C79.8443 289.629 80.3083 289.512 80.8309 289.512C81.2363 289.512 81.5936 289.587 81.9029 289.736C82.2123 289.875 82.4949 290.072 82.7509 290.328L82.0149 291.064C81.8443 290.893 81.6629 290.771 81.4709 290.696C81.2896 290.611 81.0763 290.568 80.8309 290.568C80.3296 290.568 79.9403 290.717 79.6629 291.016C79.3963 291.304 79.2629 291.709 79.2629 292.232V301H78.1269ZM85.9933 301.16C85.236 301.16 84.5586 300.989 83.9613 300.648C83.364 300.307 82.8893 299.837 82.5373 299.24C82.196 298.643 82.0253 297.971 82.0253 297.224C82.0253 296.488 82.196 295.827 82.5373 295.24C82.8786 294.643 83.3426 294.173 83.9293 293.832C84.516 293.491 85.172 293.32 85.8973 293.32C86.58 293.32 87.1826 293.475 87.7053 293.784C88.2386 294.093 88.6546 294.525 88.9533 295.08C89.2626 295.624 89.4173 296.253 89.4173 296.968C89.4173 297.053 89.412 297.155 89.4013 297.272C89.3906 297.379 89.3693 297.507 89.3373 297.656H82.8253V296.696H88.7293L88.3293 297.048C88.34 296.493 88.244 296.019 88.0413 295.624C87.8493 295.219 87.5666 294.909 87.1933 294.696C86.8306 294.472 86.388 294.36 85.8653 294.36C85.3213 294.36 84.8466 294.477 84.4413 294.712C84.036 294.947 83.716 295.277 83.4813 295.704C83.2573 296.12 83.1453 296.616 83.1453 297.192C83.1453 297.768 83.2626 298.275 83.4973 298.712C83.7426 299.149 84.0786 299.491 84.5053 299.736C84.9426 299.981 85.444 300.104 86.0093 300.104C86.468 300.104 86.8893 300.024 87.2733 299.864C87.6573 299.693 87.9826 299.443 88.2493 299.112L88.9693 299.848C88.6173 300.264 88.18 300.589 87.6573 300.824C87.1453 301.048 86.5906 301.16 85.9933 301.16ZM90.8107 301V293.48H91.9307V301H90.8107ZM91.9307 296.616L91.4667 296.408C91.4667 295.459 91.696 294.707 92.1547 294.152C92.624 293.597 93.264 293.32 94.0747 293.32C94.448 293.32 94.7894 293.389 95.0987 293.528C95.408 293.656 95.696 293.864 95.9627 294.152L95.2267 294.936C95.0454 294.733 94.8427 294.589 94.6187 294.504C94.4054 294.419 94.16 294.376 93.8827 294.376C93.3067 294.376 92.8374 294.568 92.4747 294.952C92.112 295.325 91.9307 295.88 91.9307 296.616ZM96.8344 301V293.48H97.9704V301H96.8344ZM97.3944 291.848C97.1811 291.848 96.9998 291.773 96.8504 291.624C96.7011 291.464 96.6264 291.277 96.6264 291.064C96.6264 290.84 96.7011 290.653 96.8504 290.504C96.9998 290.355 97.1811 290.28 97.3944 290.28C97.6291 290.28 97.8158 290.355 97.9544 290.504C98.1038 290.653 98.1784 290.84 98.1784 291.064C98.1784 291.277 98.1038 291.464 97.9544 291.624C97.8158 291.773 97.6291 291.848 97.3944 291.848ZM105.393 301V296.584C105.393 295.923 105.195 295.389 104.801 294.984C104.417 294.568 103.905 294.36 103.265 294.36C102.827 294.36 102.443 294.456 102.113 294.648C101.782 294.84 101.521 295.101 101.329 295.432C101.137 295.763 101.041 296.141 101.041 296.568L100.529 296.28C100.529 295.715 100.662 295.208 100.929 294.76C101.195 294.312 101.553 293.96 102.001 293.704C102.459 293.448 102.982 293.32 103.569 293.32C104.145 293.32 104.657 293.459 105.105 293.736C105.553 294.013 105.899 294.387 106.145 294.856C106.401 295.325 106.529 295.837 106.529 296.392V301H105.393ZM99.9207 301V293.48H101.041V301H99.9207ZM111.408 304.328C110.65 304.328 109.973 304.184 109.376 303.896C108.789 303.619 108.314 303.224 107.952 302.712L108.688 301.976C108.986 302.381 109.365 302.696 109.824 302.92C110.282 303.144 110.821 303.256 111.44 303.256C112.293 303.256 112.97 303.027 113.472 302.568C113.984 302.109 114.24 301.485 114.24 300.696V298.824L114.464 297.112L114.24 295.416V293.48H115.36V300.696C115.36 301.421 115.194 302.056 114.864 302.6C114.533 303.144 114.069 303.565 113.472 303.864C112.885 304.173 112.197 304.328 111.408 304.328ZM111.488 300.92C110.794 300.92 110.17 300.755 109.616 300.424C109.061 300.093 108.624 299.64 108.304 299.064C107.984 298.488 107.824 297.837 107.824 297.112C107.824 296.387 107.978 295.741 108.288 295.176C108.608 294.6 109.045 294.147 109.6 293.816C110.154 293.485 110.778 293.32 111.472 293.32C112.058 293.32 112.581 293.432 113.04 293.656C113.509 293.88 113.882 294.2 114.16 294.616C114.448 295.021 114.624 295.501 114.688 296.056V298.184C114.624 298.728 114.448 299.208 114.16 299.624C113.872 300.029 113.498 300.349 113.04 300.584C112.581 300.808 112.064 300.92 111.488 300.92ZM111.696 299.848C112.218 299.848 112.672 299.736 113.056 299.512C113.45 299.288 113.754 298.973 113.968 298.568C114.192 298.152 114.304 297.667 114.304 297.112C114.304 296.568 114.192 296.093 113.968 295.688C113.754 295.283 113.45 294.963 113.056 294.728C112.661 294.493 112.202 294.376 111.68 294.376C111.157 294.376 110.688 294.493 110.272 294.728C109.866 294.963 109.546 295.283 109.312 295.688C109.088 296.093 108.976 296.568 108.976 297.112C108.976 297.645 109.093 298.12 109.328 298.536C109.562 298.952 109.882 299.277 110.288 299.512C110.693 299.736 111.162 299.848 111.696 299.848ZM119.246 304.328C118.808 304.328 118.43 304.253 118.11 304.104C117.79 303.955 117.507 303.741 117.262 303.464L117.998 302.728C118.158 302.92 118.339 303.059 118.542 303.144C118.734 303.229 118.952 303.272 119.198 303.272C119.56 303.272 119.87 303.165 120.126 302.952C120.382 302.739 120.51 302.403 120.51 301.944V293.48H121.63V301.928C121.63 302.451 121.518 302.888 121.294 303.24C121.08 303.603 120.792 303.875 120.43 304.056C120.067 304.237 119.672 304.328 119.246 304.328ZM121.07 291.848C120.856 291.848 120.675 291.773 120.526 291.624C120.376 291.464 120.302 291.277 120.302 291.064C120.302 290.84 120.376 290.653 120.526 290.504C120.675 290.355 120.856 290.28 121.07 290.28C121.304 290.28 121.491 290.355 121.63 290.504C121.779 290.653 121.854 290.84 121.854 291.064C121.854 291.277 121.779 291.464 121.63 291.624C121.491 291.773 121.304 291.848 121.07 291.848ZM126.554 301.16C125.946 301.16 125.402 301.021 124.922 300.744C124.442 300.456 124.064 300.067 123.786 299.576C123.52 299.085 123.386 298.509 123.386 297.848V293.48H124.522V297.8C124.522 298.259 124.602 298.659 124.762 299C124.933 299.341 125.173 299.608 125.482 299.8C125.792 299.992 126.149 300.088 126.554 300.088C127.184 300.088 127.68 299.88 128.042 299.464C128.416 299.048 128.602 298.493 128.602 297.8V293.48H129.722V297.848C129.722 298.499 129.589 299.075 129.322 299.576C129.056 300.077 128.682 300.467 128.202 300.744C127.722 301.021 127.173 301.16 126.554 301.16ZM133.797 301.16C133.391 301.16 133.002 301.107 132.629 301C132.255 300.883 131.914 300.723 131.605 300.52C131.306 300.317 131.045 300.077 130.821 299.8L131.541 299.064C131.839 299.427 132.175 299.699 132.549 299.88C132.933 300.051 133.359 300.136 133.829 300.136C134.33 300.136 134.719 300.04 134.997 299.848C135.285 299.656 135.429 299.389 135.429 299.048C135.429 298.728 135.327 298.477 135.125 298.296C134.922 298.115 134.661 297.971 134.341 297.864C134.031 297.757 133.701 297.656 133.349 297.56C132.997 297.453 132.661 297.325 132.341 297.176C132.021 297.016 131.759 296.797 131.557 296.52C131.365 296.243 131.269 295.88 131.269 295.432C131.269 295.005 131.37 294.637 131.573 294.328C131.786 294.008 132.085 293.763 132.469 293.592C132.863 293.411 133.327 293.32 133.861 293.32C134.426 293.32 134.938 293.421 135.397 293.624C135.855 293.827 136.223 294.125 136.501 294.52L135.781 295.24C135.557 294.952 135.274 294.733 134.933 294.584C134.602 294.424 134.229 294.344 133.813 294.344C133.333 294.344 132.965 294.44 132.709 294.632C132.463 294.813 132.341 295.053 132.341 295.352C132.341 295.64 132.442 295.869 132.645 296.04C132.847 296.2 133.103 296.333 133.413 296.44C133.733 296.536 134.069 296.637 134.421 296.744C134.773 296.84 135.109 296.973 135.429 297.144C135.749 297.304 136.005 297.528 136.197 297.816C136.399 298.093 136.501 298.472 136.501 298.952C136.501 299.624 136.255 300.163 135.765 300.568C135.285 300.963 134.629 301.16 133.797 301.16ZM139.122 301V290.312H140.242V301H139.122ZM137.218 294.488V293.48H142.13V294.488H137.218ZM142.993 297.48V296.408H148.097V297.48H142.993ZM150.033 301V293.48H151.169V301H150.033ZM150.593 291.848C150.379 291.848 150.198 291.773 150.049 291.624C149.899 291.464 149.825 291.277 149.825 291.064C149.825 290.84 149.899 290.653 150.049 290.504C150.198 290.355 150.379 290.28 150.593 290.28C150.827 290.28 151.014 290.355 151.153 290.504C151.302 290.653 151.377 290.84 151.377 291.064C151.377 291.277 151.302 291.464 151.153 291.624C151.014 291.773 150.827 291.848 150.593 291.848ZM158.591 301V296.584C158.591 295.923 158.393 295.389 157.999 294.984C157.615 294.568 157.103 294.36 156.463 294.36C156.025 294.36 155.641 294.456 155.311 294.648C154.98 294.84 154.719 295.101 154.527 295.432C154.335 295.763 154.239 296.141 154.239 296.568L153.727 296.28C153.727 295.715 153.86 295.208 154.127 294.76C154.393 294.312 154.751 293.96 155.199 293.704C155.657 293.448 156.18 293.32 156.767 293.32C157.343 293.32 157.855 293.459 158.303 293.736C158.751 294.013 159.097 294.387 159.343 294.856C159.599 295.325 159.727 295.837 159.727 296.392V301H158.591ZM153.119 301V293.48H154.239V301H153.119ZM161.502 297.48V296.408H166.606V297.48H161.502ZM169.35 301V290.312H170.47V301H169.35ZM167.446 294.488V293.48H172.358V294.488H167.446ZM173.581 301V293.48H174.717V301H173.581ZM174.141 291.848C173.927 291.848 173.746 291.773 173.597 291.624C173.447 291.464 173.373 291.277 173.373 291.064C173.373 290.84 173.447 290.653 173.597 290.504C173.746 290.355 173.927 290.28 174.141 290.28C174.375 290.28 174.562 290.355 174.701 290.504C174.85 290.653 174.925 290.84 174.925 291.064C174.925 291.277 174.85 291.464 174.701 291.624C174.562 291.773 174.375 291.848 174.141 291.848ZM176.667 301V293.48H177.787V301H176.667ZM181.835 301V296.392C181.835 295.773 181.648 295.283 181.275 294.92C180.902 294.547 180.432 294.36 179.867 294.36C179.483 294.36 179.131 294.445 178.811 294.616C178.502 294.776 178.251 295.005 178.059 295.304C177.878 295.603 177.787 295.96 177.787 296.376L177.275 296.168C177.275 295.592 177.403 295.091 177.659 294.664C177.915 294.237 178.256 293.907 178.683 293.672C179.12 293.437 179.611 293.32 180.155 293.32C180.688 293.32 181.163 293.437 181.579 293.672C182.006 293.907 182.342 294.237 182.587 294.664C182.843 295.091 182.971 295.597 182.971 296.184V301H181.835ZM187.019 301V296.392C187.019 295.773 186.832 295.283 186.459 294.92C186.086 294.547 185.611 294.36 185.035 294.36C184.662 294.36 184.315 294.445 183.995 294.616C183.686 294.776 183.435 295.005 183.243 295.304C183.062 295.603 182.971 295.96 182.971 296.376L182.299 296.168C182.331 295.592 182.48 295.091 182.747 294.664C183.024 294.237 183.382 293.907 183.819 293.672C184.267 293.437 184.758 293.32 185.291 293.32C185.824 293.32 186.304 293.437 186.731 293.672C187.168 293.907 187.51 294.237 187.755 294.664C188.011 295.091 188.139 295.597 188.139 296.184V301H187.019ZM193.397 301.16C192.64 301.16 191.962 300.989 191.365 300.648C190.768 300.307 190.293 299.837 189.941 299.24C189.6 298.643 189.429 297.971 189.429 297.224C189.429 296.488 189.6 295.827 189.941 295.24C190.282 294.643 190.746 294.173 191.333 293.832C191.92 293.491 192.576 293.32 193.301 293.32C193.984 293.32 194.586 293.475 195.109 293.784C195.642 294.093 196.058 294.525 196.357 295.08C196.666 295.624 196.821 296.253 196.821 296.968C196.821 297.053 196.816 297.155 196.805 297.272C196.794 297.379 196.773 297.507 196.741 297.656H190.229V296.696H196.133L195.733 297.048C195.744 296.493 195.648 296.019 195.445 295.624C195.253 295.219 194.97 294.909 194.597 294.696C194.234 294.472 193.792 294.36 193.269 294.36C192.725 294.36 192.25 294.477 191.845 294.712C191.44 294.947 191.12 295.277 190.885 295.704C190.661 296.12 190.549 296.616 190.549 297.192C190.549 297.768 190.666 298.275 190.901 298.712C191.146 299.149 191.482 299.491 191.909 299.736C192.346 299.981 192.848 300.104 193.413 300.104C193.872 300.104 194.293 300.024 194.677 299.864C195.061 299.693 195.386 299.443 195.653 299.112L196.373 299.848C196.021 300.264 195.584 300.589 195.061 300.824C194.549 301.048 193.994 301.16 193.397 301.16ZM204.532 301.16C203.839 301.16 203.215 300.989 202.66 300.648C202.105 300.307 201.663 299.843 201.332 299.256C201.012 298.659 200.852 297.992 200.852 297.256C200.852 296.509 201.012 295.843 201.332 295.256C201.663 294.659 202.105 294.189 202.66 293.848C203.215 293.496 203.839 293.32 204.532 293.32C205.097 293.32 205.609 293.432 206.068 293.656C206.527 293.88 206.905 294.2 207.204 294.616C207.513 295.021 207.695 295.501 207.748 296.056V298.408C207.684 298.952 207.503 299.432 207.204 299.848C206.916 300.253 206.543 300.573 206.084 300.808C205.625 301.043 205.108 301.16 204.532 301.16ZM204.724 300.088C205.247 300.088 205.705 299.971 206.1 299.736C206.495 299.491 206.804 299.155 207.028 298.728C207.252 298.291 207.364 297.795 207.364 297.24C207.364 296.675 207.247 296.179 207.012 295.752C206.788 295.325 206.479 294.989 206.084 294.744C205.689 294.499 205.231 294.376 204.708 294.376C204.185 294.376 203.721 294.499 203.316 294.744C202.911 294.989 202.591 295.331 202.356 295.768C202.132 296.195 202.02 296.685 202.02 297.24C202.02 297.795 202.132 298.291 202.356 298.728C202.591 299.155 202.911 299.491 203.316 299.736C203.732 299.971 204.201 300.088 204.724 300.088ZM208.42 301H207.3V298.984L207.524 297.128L207.3 295.32V289.672H208.42V301ZM213.843 301.16C213.086 301.16 212.409 300.989 211.811 300.648C211.214 300.307 210.739 299.837 210.387 299.24C210.046 298.643 209.875 297.971 209.875 297.224C209.875 296.488 210.046 295.827 210.387 295.24C210.729 294.643 211.193 294.173 211.779 293.832C212.366 293.491 213.022 293.32 213.747 293.32C214.43 293.32 215.033 293.475 215.555 293.784C216.089 294.093 216.505 294.525 216.803 295.08C217.113 295.624 217.267 296.253 217.267 296.968C217.267 297.053 217.262 297.155 217.251 297.272C217.241 297.379 217.219 297.507 217.187 297.656H210.675V296.696H216.579L216.179 297.048C216.19 296.493 216.094 296.019 215.891 295.624C215.699 295.219 215.417 294.909 215.043 294.696C214.681 294.472 214.238 294.36 213.715 294.36C213.171 294.36 212.697 294.477 212.291 294.712C211.886 294.947 211.566 295.277 211.331 295.704C211.107 296.12 210.995 296.616 210.995 297.192C210.995 297.768 211.113 298.275 211.347 298.712C211.593 299.149 211.929 299.491 212.355 299.736C212.793 299.981 213.294 300.104 213.859 300.104C214.318 300.104 214.739 300.024 215.123 299.864C215.507 299.693 215.833 299.443 216.099 299.112L216.819 299.848C216.467 300.264 216.03 300.589 215.507 300.824C214.995 301.048 214.441 301.16 213.843 301.16ZM218.661 301V289.672H219.781V301H218.661ZM221.731 301V293.48H222.867V301H221.731ZM222.291 291.848C222.078 291.848 221.897 291.773 221.747 291.624C221.598 291.464 221.523 291.277 221.523 291.064C221.523 290.84 221.598 290.653 221.747 290.504C221.897 290.355 222.078 290.28 222.291 290.28C222.526 290.28 222.713 290.355 222.851 290.504C223.001 290.653 223.075 290.84 223.075 291.064C223.075 291.277 223.001 291.464 222.851 291.624C222.713 291.773 222.526 291.848 222.291 291.848ZM227.442 301L223.97 293.48H225.218L228.146 300.056H227.442L230.386 293.48H231.602L228.098 301H227.442ZM235.845 301.16C235.087 301.16 234.41 300.989 233.813 300.648C233.215 300.307 232.741 299.837 232.389 299.24C232.047 298.643 231.877 297.971 231.877 297.224C231.877 296.488 232.047 295.827 232.389 295.24C232.73 294.643 233.194 294.173 233.781 293.832C234.367 293.491 235.023 293.32 235.749 293.32C236.431 293.32 237.034 293.475 237.557 293.784C238.09 294.093 238.506 294.525 238.805 295.08C239.114 295.624 239.269 296.253 239.269 296.968C239.269 297.053 239.263 297.155 239.253 297.272C239.242 297.379 239.221 297.507 239.189 297.656H232.677V296.696H238.581L238.181 297.048C238.191 296.493 238.095 296.019 237.893 295.624C237.701 295.219 237.418 294.909 237.045 294.696C236.682 294.472 236.239 294.36 235.717 294.36C235.173 294.36 234.698 294.477 234.293 294.712C233.887 294.947 233.567 295.277 233.333 295.704C233.109 296.12 232.997 296.616 232.997 297.192C232.997 297.768 233.114 298.275 233.349 298.712C233.594 299.149 233.93 299.491 234.357 299.736C234.794 299.981 235.295 300.104 235.861 300.104C236.319 300.104 236.741 300.024 237.125 299.864C237.509 299.693 237.834 299.443 238.101 299.112L238.821 299.848C238.469 300.264 238.031 300.589 237.509 300.824C236.997 301.048 236.442 301.16 235.845 301.16ZM240.662 301V293.48H241.782V301H240.662ZM241.782 296.616L241.318 296.408C241.318 295.459 241.547 294.707 242.006 294.152C242.475 293.597 243.115 293.32 243.926 293.32C244.299 293.32 244.641 293.389 244.95 293.528C245.259 293.656 245.547 293.864 245.814 294.152L245.078 294.936C244.897 294.733 244.694 294.589 244.47 294.504C244.257 294.419 244.011 294.376 243.734 294.376C243.158 294.376 242.689 294.568 242.326 294.952C241.963 295.325 241.782 295.88 241.782 296.616ZM249.026 301.032L245.73 293.48H246.962L249.618 299.784H249.154L251.954 293.48H253.202L249.666 301.032H249.026ZM246.978 304.168L249.042 299.896L249.666 301.032L248.21 304.168H246.978ZM259.772 301.16C259.366 301.16 258.977 301.107 258.604 301C258.23 300.883 257.889 300.723 257.58 300.52C257.281 300.317 257.02 300.077 256.796 299.8L257.516 299.064C257.814 299.427 258.15 299.699 258.524 299.88C258.908 300.051 259.334 300.136 259.804 300.136C260.305 300.136 260.694 300.04 260.972 299.848C261.26 299.656 261.404 299.389 261.404 299.048C261.404 298.728 261.302 298.477 261.1 298.296C260.897 298.115 260.636 297.971 260.316 297.864C260.006 297.757 259.676 297.656 259.324 297.56C258.972 297.453 258.636 297.325 258.316 297.176C257.996 297.016 257.734 296.797 257.532 296.52C257.34 296.243 257.244 295.88 257.244 295.432C257.244 295.005 257.345 294.637 257.548 294.328C257.761 294.008 258.06 293.763 258.444 293.592C258.838 293.411 259.302 293.32 259.836 293.32C260.401 293.32 260.913 293.421 261.372 293.624C261.83 293.827 262.198 294.125 262.476 294.52L261.756 295.24C261.532 294.952 261.249 294.733 260.908 294.584C260.577 294.424 260.204 294.344 259.788 294.344C259.308 294.344 258.94 294.44 258.684 294.632C258.438 294.813 258.316 295.053 258.316 295.352C258.316 295.64 258.417 295.869 258.62 296.04C258.822 296.2 259.078 296.333 259.388 296.44C259.708 296.536 260.044 296.637 260.396 296.744C260.748 296.84 261.084 296.973 261.404 297.144C261.724 297.304 261.98 297.528 262.172 297.816C262.374 298.093 262.476 298.472 262.476 298.952C262.476 299.624 262.23 300.163 261.74 300.568C261.26 300.963 260.604 301.16 259.772 301.16ZM267.401 301.16C266.643 301.16 265.966 300.989 265.369 300.648C264.771 300.307 264.297 299.837 263.945 299.24C263.603 298.643 263.433 297.971 263.433 297.224C263.433 296.488 263.603 295.827 263.945 295.24C264.286 294.643 264.75 294.173 265.337 293.832C265.923 293.491 266.579 293.32 267.305 293.32C267.987 293.32 268.59 293.475 269.113 293.784C269.646 294.093 270.062 294.525 270.361 295.08C270.67 295.624 270.825 296.253 270.825 296.968C270.825 297.053 270.819 297.155 270.809 297.272C270.798 297.379 270.777 297.507 270.745 297.656H264.233V296.696H270.137L269.737 297.048C269.747 296.493 269.651 296.019 269.449 295.624C269.257 295.219 268.974 294.909 268.601 294.696C268.238 294.472 267.795 294.36 267.273 294.36C266.729 294.36 266.254 294.477 265.849 294.712C265.443 294.947 265.123 295.277 264.889 295.704C264.665 296.12 264.553 296.616 264.553 297.192C264.553 297.768 264.67 298.275 264.905 298.712C265.15 299.149 265.486 299.491 265.913 299.736C266.35 299.981 266.851 300.104 267.417 300.104C267.875 300.104 268.297 300.024 268.681 299.864C269.065 299.693 269.39 299.443 269.657 299.112L270.377 299.848C270.025 300.264 269.587 300.589 269.065 300.824C268.553 301.048 267.998 301.16 267.401 301.16ZM272.218 301V293.48H273.338V301H272.218ZM273.338 296.616L272.874 296.408C272.874 295.459 273.104 294.707 273.562 294.152C274.032 293.597 274.672 293.32 275.482 293.32C275.856 293.32 276.197 293.389 276.506 293.528C276.816 293.656 277.104 293.864 277.37 294.152L276.634 294.936C276.453 294.733 276.25 294.589 276.026 294.504C275.813 294.419 275.568 294.376 275.29 294.376C274.714 294.376 274.245 294.568 273.882 294.952C273.52 295.325 273.338 295.88 273.338 296.616ZM280.694 301L277.222 293.48H278.47L281.398 300.056H280.694L283.638 293.48H284.854L281.35 301H280.694ZM285.938 301V293.48H287.074V301H285.938ZM286.498 291.848C286.284 291.848 286.103 291.773 285.954 291.624C285.804 291.464 285.73 291.277 285.73 291.064C285.73 290.84 285.804 290.653 285.954 290.504C286.103 290.355 286.284 290.28 286.498 290.28C286.732 290.28 286.919 290.355 287.058 290.504C287.207 290.653 287.282 290.84 287.282 291.064C287.282 291.277 287.207 291.464 287.058 291.624C286.919 291.773 286.732 291.848 286.498 291.848ZM292.448 301.16C291.712 301.16 291.045 300.989 290.448 300.648C289.861 300.296 289.392 299.821 289.04 299.224C288.698 298.627 288.528 297.96 288.528 297.224C288.528 296.488 288.698 295.827 289.04 295.24C289.392 294.643 289.861 294.173 290.448 293.832C291.045 293.491 291.712 293.32 292.448 293.32C293.013 293.32 293.541 293.427 294.032 293.64C294.522 293.853 294.938 294.152 295.28 294.536L294.544 295.288C294.288 295 293.978 294.781 293.616 294.632C293.253 294.472 292.864 294.392 292.448 294.392C291.914 294.392 291.44 294.515 291.024 294.76C290.608 295.005 290.282 295.341 290.048 295.768C289.813 296.184 289.696 296.669 289.696 297.224C289.696 297.768 289.813 298.259 290.048 298.696C290.282 299.123 290.608 299.459 291.024 299.704C291.44 299.949 291.914 300.072 292.448 300.072C292.874 300.072 293.269 299.997 293.632 299.848C293.994 299.688 294.304 299.464 294.56 299.176L295.312 299.928C294.96 300.323 294.533 300.627 294.032 300.84C293.541 301.053 293.013 301.16 292.448 301.16ZM299.895 301.16C299.137 301.16 298.46 300.989 297.863 300.648C297.265 300.307 296.791 299.837 296.439 299.24C296.097 298.643 295.927 297.971 295.927 297.224C295.927 296.488 296.097 295.827 296.439 295.24C296.78 294.643 297.244 294.173 297.831 293.832C298.417 293.491 299.073 293.32 299.799 293.32C300.481 293.32 301.084 293.475 301.607 293.784C302.14 294.093 302.556 294.525 302.855 295.08C303.164 295.624 303.319 296.253 303.319 296.968C303.319 297.053 303.313 297.155 303.303 297.272C303.292 297.379 303.271 297.507 303.239 297.656H296.727V296.696H302.631L302.231 297.048C302.241 296.493 302.145 296.019 301.943 295.624C301.751 295.219 301.468 294.909 301.095 294.696C300.732 294.472 300.289 294.36 299.767 294.36C299.223 294.36 298.748 294.477 298.343 294.712C297.937 294.947 297.617 295.277 297.383 295.704C297.159 296.12 297.047 296.616 297.047 297.192C297.047 297.768 297.164 298.275 297.399 298.712C297.644 299.149 297.98 299.491 298.407 299.736C298.844 299.981 299.345 300.104 299.911 300.104C300.369 300.104 300.791 300.024 301.175 299.864C301.559 299.693 301.884 299.443 302.151 299.112L302.871 299.848C302.519 300.264 302.081 300.589 301.559 300.824C301.047 301.048 300.492 301.16 299.895 301.16ZM307.016 301.16C306.611 301.16 306.221 301.107 305.848 301C305.475 300.883 305.133 300.723 304.824 300.52C304.525 300.317 304.264 300.077 304.04 299.8L304.76 299.064C305.059 299.427 305.395 299.699 305.768 299.88C306.152 300.051 306.579 300.136 307.048 300.136C307.549 300.136 307.939 300.04 308.216 299.848C308.504 299.656 308.648 299.389 308.648 299.048C308.648 298.728 308.547 298.477 308.344 298.296C308.141 298.115 307.88 297.971 307.56 297.864C307.251 297.757 306.92 297.656 306.568 297.56C306.216 297.453 305.88 297.325 305.56 297.176C305.24 297.016 304.979 296.797 304.776 296.52C304.584 296.243 304.488 295.88 304.488 295.432C304.488 295.005 304.589 294.637 304.792 294.328C305.005 294.008 305.304 293.763 305.688 293.592C306.083 293.411 306.547 293.32 307.08 293.32C307.645 293.32 308.157 293.421 308.616 293.624C309.075 293.827 309.443 294.125 309.72 294.52L309 295.24C308.776 294.952 308.493 294.733 308.152 294.584C307.821 294.424 307.448 294.344 307.032 294.344C306.552 294.344 306.184 294.44 305.928 294.632C305.683 294.813 305.56 295.053 305.56 295.352C305.56 295.64 305.661 295.869 305.864 296.04C306.067 296.2 306.323 296.333 306.632 296.44C306.952 296.536 307.288 296.637 307.64 296.744C307.992 296.84 308.328 296.973 308.648 297.144C308.968 297.304 309.224 297.528 309.416 297.816C309.619 298.093 309.72 298.472 309.72 298.952C309.72 299.624 309.475 300.163 308.984 300.568C308.504 300.963 307.848 301.16 307.016 301.16ZM156.99 323V312.312H158.11V323H156.99ZM155.086 316.488V315.48H159.998V316.488H155.086ZM164.363 323.16C163.638 323.16 162.976 322.984 162.379 322.632C161.792 322.28 161.323 321.805 160.971 321.208C160.63 320.611 160.459 319.944 160.459 319.208C160.459 318.483 160.63 317.827 160.971 317.24C161.323 316.653 161.792 316.189 162.379 315.848C162.976 315.496 163.638 315.32 164.363 315.32C165.099 315.32 165.76 315.491 166.347 315.832C166.934 316.173 167.398 316.643 167.739 317.24C168.091 317.827 168.267 318.483 168.267 319.208C168.267 319.955 168.091 320.627 167.739 321.224C167.398 321.811 166.934 322.28 166.347 322.632C165.76 322.984 165.099 323.16 164.363 323.16ZM164.363 322.072C164.896 322.072 165.366 321.949 165.771 321.704C166.187 321.459 166.512 321.117 166.747 320.68C166.992 320.243 167.115 319.752 167.115 319.208C167.115 318.664 166.992 318.184 166.747 317.768C166.512 317.341 166.187 317.005 165.771 316.76C165.366 316.515 164.896 316.392 164.363 316.392C163.84 316.392 163.371 316.515 162.955 316.76C162.539 317.005 162.214 317.341 161.979 317.768C161.744 318.184 161.627 318.664 161.627 319.208C161.627 319.763 161.744 320.259 161.979 320.696C162.214 321.123 162.539 321.459 162.955 321.704C163.371 321.949 163.84 322.072 164.363 322.072ZM176.27 323.16C175.534 323.16 174.868 322.989 174.27 322.648C173.684 322.296 173.214 321.821 172.862 321.224C172.521 320.627 172.35 319.96 172.35 319.224C172.35 318.488 172.521 317.827 172.862 317.24C173.214 316.643 173.684 316.173 174.27 315.832C174.868 315.491 175.534 315.32 176.27 315.32C176.836 315.32 177.364 315.427 177.854 315.64C178.345 315.853 178.761 316.152 179.102 316.536L178.366 317.288C178.11 317 177.801 316.781 177.438 316.632C177.076 316.472 176.686 316.392 176.27 316.392C175.737 316.392 175.262 316.515 174.846 316.76C174.43 317.005 174.105 317.341 173.87 317.768C173.636 318.184 173.518 318.669 173.518 319.224C173.518 319.768 173.636 320.259 173.87 320.696C174.105 321.123 174.43 321.459 174.846 321.704C175.262 321.949 175.737 322.072 176.27 322.072C176.697 322.072 177.092 321.997 177.454 321.848C177.817 321.688 178.126 321.464 178.382 321.176L179.134 321.928C178.782 322.323 178.356 322.627 177.854 322.84C177.364 323.053 176.836 323.16 176.27 323.16ZM180.386 323V311.672H181.506V323H180.386ZM183.456 323V315.48H184.592V323H183.456ZM184.016 313.848C183.803 313.848 183.622 313.773 183.472 313.624C183.323 313.464 183.248 313.277 183.248 313.064C183.248 312.84 183.323 312.653 183.472 312.504C183.622 312.355 183.803 312.28 184.016 312.28C184.251 312.28 184.438 312.355 184.576 312.504C184.726 312.653 184.8 312.84 184.8 313.064C184.8 313.277 184.726 313.464 184.576 313.624C184.438 313.773 184.251 313.848 184.016 313.848ZM190.015 323.16C189.257 323.16 188.58 322.989 187.983 322.648C187.385 322.307 186.911 321.837 186.559 321.24C186.217 320.643 186.047 319.971 186.047 319.224C186.047 318.488 186.217 317.827 186.559 317.24C186.9 316.643 187.364 316.173 187.951 315.832C188.537 315.491 189.193 315.32 189.919 315.32C190.601 315.32 191.204 315.475 191.727 315.784C192.26 316.093 192.676 316.525 192.975 317.08C193.284 317.624 193.439 318.253 193.439 318.968C193.439 319.053 193.433 319.155 193.423 319.272C193.412 319.379 193.391 319.507 193.359 319.656H186.847V318.696H192.751L192.351 319.048C192.361 318.493 192.265 318.019 192.063 317.624C191.871 317.219 191.588 316.909 191.215 316.696C190.852 316.472 190.409 316.36 189.887 316.36C189.343 316.36 188.868 316.477 188.463 316.712C188.057 316.947 187.737 317.277 187.503 317.704C187.279 318.12 187.167 318.616 187.167 319.192C187.167 319.768 187.284 320.275 187.519 320.712C187.764 321.149 188.1 321.491 188.527 321.736C188.964 321.981 189.465 322.104 190.031 322.104C190.489 322.104 190.911 322.024 191.295 321.864C191.679 321.693 192.004 321.443 192.271 321.112L192.991 321.848C192.639 322.264 192.201 322.589 191.679 322.824C191.167 323.048 190.612 323.16 190.015 323.16ZM200.304 323V318.584C200.304 317.923 200.107 317.389 199.712 316.984C199.328 316.568 198.816 316.36 198.176 316.36C197.739 316.36 197.355 316.456 197.024 316.648C196.693 316.84 196.432 317.101 196.24 317.432C196.048 317.763 195.952 318.141 195.952 318.568L195.44 318.28C195.44 317.715 195.573 317.208 195.84 316.76C196.107 316.312 196.464 315.96 196.912 315.704C197.371 315.448 197.893 315.32 198.48 315.32C199.056 315.32 199.568 315.459 200.016 315.736C200.464 316.013 200.811 316.387 201.056 316.856C201.312 317.325 201.44 317.837 201.44 318.392V323H200.304ZM194.832 323V315.48H195.952V323H194.832ZM204.289 323V312.312H205.409V323H204.289ZM202.385 316.488V315.48H207.297V316.488H202.385ZM210.668 323.16C210.262 323.16 209.873 323.107 209.5 323C209.126 322.883 208.785 322.723 208.476 322.52C208.177 322.317 207.916 322.077 207.692 321.8L208.412 321.064C208.71 321.427 209.046 321.699 209.42 321.88C209.804 322.051 210.23 322.136 210.7 322.136C211.201 322.136 211.59 322.04 211.868 321.848C212.156 321.656 212.3 321.389 212.3 321.048C212.3 320.728 212.198 320.477 211.996 320.296C211.793 320.115 211.532 319.971 211.212 319.864C210.902 319.757 210.572 319.656 210.22 319.56C209.868 319.453 209.532 319.325 209.212 319.176C208.892 319.016 208.63 318.797 208.428 318.52C208.236 318.243 208.14 317.88 208.14 317.432C208.14 317.005 208.241 316.637 208.444 316.328C208.657 316.008 208.956 315.763 209.34 315.592C209.734 315.411 210.198 315.32 210.732 315.32C211.297 315.32 211.809 315.421 212.268 315.624C212.726 315.827 213.094 316.125 213.372 316.52L212.652 317.24C212.428 316.952 212.145 316.733 211.804 316.584C211.473 316.424 211.1 316.344 210.684 316.344C210.204 316.344 209.836 316.44 209.58 316.632C209.334 316.813 209.212 317.053 209.212 317.352C209.212 317.64 209.313 317.869 209.516 318.04C209.718 318.2 209.974 318.333 210.284 318.44C210.604 318.536 210.94 318.637 211.292 318.744C211.644 318.84 211.98 318.973 212.3 319.144C212.62 319.304 212.876 319.528 213.068 319.816C213.27 320.093 213.372 320.472 213.372 320.952C213.372 321.624 213.126 322.163 212.636 322.568C212.156 322.963 211.5 323.16 210.668 323.16ZM216.009 323.16C215.742 323.16 215.524 323.069 215.353 322.888C215.182 322.707 215.097 322.488 215.097 322.232C215.097 321.976 215.182 321.763 215.353 321.592C215.524 321.411 215.742 321.32 216.009 321.32C216.265 321.32 216.478 321.411 216.649 321.592C216.82 321.763 216.905 321.976 216.905 322.232C216.905 322.488 216.82 322.707 216.649 322.888C216.478 323.069 216.265 323.16 216.009 323.16Z" fill="#026533"/>
<defs>
<filter id="filter0_f_2143_413" x="5.07544" y="0.390381" width="363.849" height="424.219" filterUnits="userSpaceOnUse" color-interpolation-filters="sRGB">
<feFlood flood-opacity="0" result="BackgroundImageFix"/>
<feBlend mode="normal" in="SourceGraphic" in2="BackgroundImageFix" result="shape"/>
<feGaussianBlur stdDeviation="10" result="effect1_foregroundBlur_2143_413"/>
</filter>
<clipPath id="clip0_2143_413">
<rect width="48" height="48" fill="white" transform="translate(162.5 99)"/>
</clipPath>
<clipPath id="clip1_2143_413">
<rect width="48" height="48" fill="white" transform="translate(162.5 99)"/>
</clipPath>
</defs>
</svg>
