<svg width="48" height="48" viewBox="0 0 48 48" fill="none" xmlns="http://www.w3.org/2000/svg">
<g clip-path="url(#clip0_2267_5705)">
<g clip-path="url(#clip1_2267_5705)">
<path opacity="0.4" d="M32.38 4H15.62C8.34 4 4 8.34 4 15.62V32.36C4 39.66 8.34 44 15.62 44H32.36C39.64 44 43.98 39.66 43.98 32.38V15.62C44 8.34 39.66 4 32.38 4Z" fill="#007337"/>
<path d="M13.7617 37.8002C12.9417 37.8002 12.2617 37.1202 12.2617 36.3002V32.1602C12.2617 31.3402 12.9417 30.6602 13.7617 30.6602C14.5817 30.6602 15.2617 31.3402 15.2617 32.1602V36.3002C15.2617 37.1402 14.5817 37.8002 13.7617 37.8002Z" fill="#007337"/>
<path d="M24 37.8C23.18 37.8 22.5 37.12 22.5 36.3V28C22.5 27.18 23.18 26.5 24 26.5C24.82 26.5 25.5 27.18 25.5 28V36.3C25.5 37.14 24.82 37.8 24 37.8Z" fill="#007337"/>
<path d="M34.2422 37.7994C33.4222 37.7994 32.7422 37.1194 32.7422 36.2994V23.8594C32.7422 23.0394 33.4222 22.3594 34.2422 22.3594C35.0622 22.3594 35.7422 23.0394 35.7422 23.8594V36.2994C35.7422 37.1394 35.0822 37.7994 34.2422 37.7994Z" fill="#007337"/>
<path d="M35.7419 11.6392C35.7419 11.5392 35.7019 11.4192 35.6819 11.3192C35.6619 11.2392 35.6419 11.1392 35.6219 11.0592C35.5819 10.9792 35.5219 10.9192 35.4819 10.8392C35.4219 10.7592 35.3619 10.6592 35.2819 10.5992C35.2619 10.5792 35.2619 10.5592 35.2419 10.5592C35.1819 10.5192 35.1219 10.4992 35.0619 10.4592C34.9819 10.3992 34.8819 10.3392 34.7819 10.2992C34.6819 10.2592 34.5819 10.2592 34.4819 10.2392C34.4019 10.2192 34.3419 10.1992 34.2619 10.1992H28.4019C27.5819 10.1992 26.9019 10.8792 26.9019 11.6992C26.9019 12.5192 27.5819 13.1992 28.4019 13.1992H30.9019C26.1419 18.1992 20.1419 21.7192 13.4019 23.4192C12.6019 23.6192 12.1019 24.4392 12.3019 25.2392C12.4619 25.9192 13.0819 26.3792 13.7619 26.3792C13.8819 26.3792 14.0019 26.3592 14.1219 26.3392C21.2619 24.5592 27.6419 20.8592 32.7419 15.6192V17.5592C32.7419 18.3792 33.4219 19.0592 34.2419 19.0592C35.0619 19.0592 35.7419 18.3792 35.7419 17.5592V11.6992C35.7419 11.6792 35.7419 11.6592 35.7419 11.6392Z" fill="#007337"/>
</g>
</g>
<defs>
<clipPath id="clip0_2267_5705">
<rect width="48" height="48" fill="white"/>
</clipPath>
<clipPath id="clip1_2267_5705">
<rect width="48" height="48" fill="white"/>
</clipPath>
</defs>
</svg>
